<?xml version="1.0" encoding="utf-8"?>
<!-- Generator: Adobe Illustrator 21.1.0, SVG Export Plug-In . SVG Version: 6.00 Build 0)  -->
<svg version="1.1" id="Layer_4" xmlns="http://www.w3.org/2000/svg" xmlns:xlink="http://www.w3.org/1999/xlink" x="0px" y="0px"
	 viewBox="0 0 486.2 324" style="enable-background:new 0 0 486.2 324;" xml:space="preserve">
<style type="text/css">
	.st0{fill:#FFFFFF;}
	.st1{fill:#FF4612;}
</style>
<g>
	<path class="st0" d="M379.5,133.2c-3.8-17.9-11.2-35.3-22.4-51.1c-21-29.6-52.1-49.2-87.7-55.7C281.6,66.9,324.8,116.1,379.5,133.2
		z"/>
	<path class="st0" d="M380.5,139.6C321.5,122.4,275,68.7,263,25.5c-34.8-4.7-69.6,3.7-98.3,24.1c-42.6,30.3-62.8,80.5-56.9,129.1
		c21.8-1.7,62.4-0.4,94.4,25.9c25.2,20.7,39.9,52.8,43.9,95.2c28-0.2,54.5-9.9,78.4-25.5C383.1,236.3,386.6,164.6,380.5,139.6z"/>
	<path class="st0" d="M198.6,209.1c-30.2-24.8-68.8-26.2-89.8-24.7c3.3,20.1,10.9,39.8,23.5,57.5c21.3,30,53.1,49.9,89.4,56
		c6.2,1,12.4,1.5,18.6,1.7C236.3,259.2,222.3,228.7,198.6,209.1z"/>
	<path class="st1" d="M202.2,204.6c-32-26.3-72.7-27.6-94.4-25.9c0.2,1.9,0.7,3.8,1,5.7c21-1.6,59.6-0.2,89.8,24.7
		c23.8,19.6,37.7,50.1,41.7,90.6c2,0.1,3.9,0.1,5.9,0.1C242.1,257.4,227.4,225.3,202.2,204.6z"/>
	<path class="st1" d="M380.5,139.6c-0.3-2.1-0.6-4.3-1.1-6.4c-54.7-17.1-97.8-66.3-110.2-106.8c-0.6-0.1-1.1-0.3-1.7-0.4
		c-1.5-0.3-3.1-0.3-4.6-0.5C275,68.7,321.5,122.4,380.5,139.6z"/>
	<path d="M382.1,212.1c15.9-43.7,10.8-94.3-18.1-135c-22.7-31.9-56.4-53-95-59.5c-38.6-6.5-77.4,2.4-109.3,25.1
		c-65.8,46.8-81.3,138.4-34.5,204.2c22.7,31.9,56.4,53,95,59.6c38.6,6.5,77.4-2.4,109.3-25.1c24.7-17.6,42.3-41.5,52.2-67.9
		 M373.4,211.1c-9.4,24.6-25.8,46.9-48.9,63.3c-23.3,16.6-50.5,25.2-78.4,25.5c-1.9,0-3.9-0.1-5.9-0.1c-6.2-0.2-12.4-0.7-18.6-1.7
		c-36.3-6.1-68.1-26.1-89.4-56c-12.6-17.7-20.3-37.4-23.5-57.5c-0.3-1.9-0.7-3.8-1-5.7c-5.8-48.6,14.4-98.8,56.9-129.1
		c28.7-20.4,63.5-28.8,98.3-24.1c1.5,0.2,3.1,0.3,4.6,0.5c0.6,0.1,1.1,0.3,1.7,0.4c35.6,6.4,66.8,26.1,87.7,55.7
		c11.3,15.8,18.7,33.2,22.4,51.1c0.5,2.1,0.7,4.3,1.1,6.4c3.9,23.7,1.6,48-6.7,70.4"/>
</g>
</svg>
