<?xml version="1.0" encoding="utf-8"?>
<!-- Generator: Adobe Illustrator 21.1.0, SVG Export Plug-In . SVG Version: 6.00 Build 0)  -->
<svg version="1.1" id="Layer_1" xmlns="http://www.w3.org/2000/svg" xmlns:xlink="http://www.w3.org/1999/xlink" x="0px" y="0px"
	 viewBox="0 0 486.2 324" style="enable-background:new 0 0 486.2 324;" xml:space="preserve">
<style type="text/css">
	.st0{display:none;}
	.st1{display:inline;}
	.st2{display:inline;fill:#99999A;}
	.st3{fill:#F15B2D;}
	.st4{fill:#231F20;stroke:#231F20;stroke-width:0.8946;stroke-miterlimit:10;}
	.st5{fill:none;stroke:#231F20;stroke-width:0.8946;stroke-miterlimit:10;}
	.st6{fill:#FFFFFF;stroke:#231F20;stroke-width:0.8946;stroke-miterlimit:10;}
	.st7{fill:none;}
	.st8{fill:#BE1E2D;}
	.st9{fill:none;stroke:#FFFFFF;stroke-width:0.8946;stroke-miterlimit:10;}
	.st10{fill:#231F20;}
	.st11{fill:#3F3B3C;}
	.st12{fill:#FFFFFF;}
	.st13{fill:#DB7B42;}
	.st14{opacity:0.69;}
	.st15{fill:#FFFFFF;stroke:#D66827;stroke-width:1.7891;stroke-miterlimit:10;}
</style>
<g id="Layer_1_1_" class="st0">
	<path class="st1" d="M440.5,268.9c-0.9,1.5-1.7,2.6-2.5,3.5c-0.8-1.2-1.5-2.3-2.2-3.4c0.3-3.8,0.6-6.9,0.8-9.1
		c1.6,2.4,3.2,4.9,4.5,7.4L440.5,268.9z"/>
	<path class="st2" d="M435.8,269c0.7,1.1,1.5,2.2,2.2,3.4c0.8-0.9,1.6-2,2.5-3.5l0.6-1.6c-1.4-2.5-2.9-4.9-4.5-7.4
		C436.4,262.1,436.1,265.2,435.8,269z"/>
	<path class="st1" d="M425.1,125c-14.4-33.5-48.4-55.9-88.8-68.5c5.9-0.8,10-2.8,10.5-5.8c1.1-5.5-10.1-12.4-24.8-15.2
		c-14.8-2.9-27.7-0.7-28.8,4.9c-0.5,2.3,1.2,4.8,4.3,7.1c-46.7-7.4-96.2-3.8-131.6,9c-62,18.4-103.7,65.5-124,139.9
		c-0.9,3.1-1.6,6.2-2.4,9.4l-0.5,2.1c-0.6,2.6-1.2,5.2-1.5,5.9l-0.2,0.4l-0.2,0.6c-3,15.7,3.5,24.1,6.7,27.2l7.9,1
		c4.1-15.9,9-31.8,13.7-40.5c59.8-46,290-42.5,364.4,48.2c-0.8,6.1-2.3,21.9-2.6,41.1l9.4,1.2c1.4-5.4,3.3-10.2,6-14.1
		c1.5-1.5,3-3.4,4.5-5.9C453.6,262,453.7,187.3,425.1,125z M46.4,232.6c-1.3-2.4-2.3-5.6-2.3-10.3v-1.4l10.5-9.6
		C51.5,217.2,48.8,224.5,46.4,232.6z M441.2,267l-0.8-6.9c0,0,3.4-89.1-39.3-140.9C380.6,89.7,348.2,75,305.5,64s-93.9-11-134.9,9.2
		c-41,20.3-70,77.4-70,77.4l10.2-38.7c0,0,0,0-22.2,25.8c-15.1,17.5-25.8,47.3-31.1,64.7c-1.2,0.5-2.5,1.1-3.6,1.8
		c-2.9,1.7-5.5,3.7-7.5,5.6c18.4-78.3,59.4-127.3,121.9-145.9c76-27.5,217.9-9.5,249.8,64.4C445.9,188.7,444.5,254,441.2,267z"/>
	<path class="st2" d="M40,201.7c-0.3,1.1-0.5,2.5-0.6,4c0.8-3.2,1.5-6.3,2.4-9.4C41,198.7,40.3,200.6,40,201.7z"/>
	<path class="st2" d="M168.3,63.7C105.8,82.3,64.8,131.4,46.4,209.6c2.1-1.9,4.7-3.9,7.5-5.6c1.2-0.7,2.4-1.3,3.6-1.8
		c5.3-17.4,16-47.1,31.1-64.7c22.2-25.8,22.2-25.8,22.2-25.8l-10.2,38.7c0,0,29-57.1,70-77.4c41-20.2,92.2-20.2,134.9-9.2
		c42.7,11.1,75.1,25.8,95.6,55.3c42.7,51.8,39.3,140.9,39.3,140.9l0.8,6.9c3.3-13,4.7-78.3-23.1-138.9
		C386.2,54.2,244.3,36.2,168.3,63.7z"/>
	<path class="st2" d="M44,222.4c0,4.6,1.1,7.9,2.3,10.3c2.4-8.1,5.1-15.4,8.2-21.3L44,221V222.4z"/>
	<path class="st2" d="M433.5,269"/>
	<path class="st2" d="M436.4,259.9c0,0,3.9,5.8,4.6,7.2c0.7,1.4-3.2,5.4-3.2,5.4l-2-3.5L436.4,259.9z"/>
	<g class="st1">
		<path class="st3" d="M234.7,123.8c1-0.5,1.4-0.6,1.6-0.8c0.3-0.2,0.5-0.3,1.6-0.6l2.5-1.1c0.5-0.2,1.6-0.6,1.7-0.6c0,0,0,0,0.2,0
			c0.2,0.2,0.5,0.3,0.8,0.2c0.6-0.3,0.2-1.6,0.2-1.7c-0.2-0.3-0.6-1.4-1.3-1.1c-0.5,0.2-0.5,0.5-0.5,0.6l0,0l0,0
			c-0.2,0.2-1.3,0.6-1.7,0.8l-2.5,1.1c-1,0.5-1.3,0.5-1.6,0.6c-0.3,0.2-0.6,0.2-1.6,0.6c-3.5,1.4-8.4,2.7-9.7,3
			c-5.6,1.4-10.3,3.2-13.2,4.5c-1.6,0.6-2.5,1.1-2.5,1.1c-1,0.5-0.6,2.5-0.3,3.3s1.6,2.5,2.7,2.1l0,0c0,0,1-0.3,2.7-1
			c2.9-1.3,7.5-3.3,12.6-6.2C226.5,128.1,231.1,125.4,234.7,123.8z"/>
		<path class="st3" d="M298,96c0.2-0.6-1.1-2.4-2.1-2.1l0,0c0,0-1,0.3-2.7,1c-2.9,1.3-7.5,3.3-12.6,6.2c-0.8,0.5-5.4,3.2-9.1,4.8
			c-1,0.5-1.3,0.6-1.6,0.8c-0.3,0.2-0.5,0.3-1.6,0.6l-2.5,1.1c-0.5,0.2-1.6,0.6-1.7,0.6c0,0,0,0-0.2,0c-0.2-0.2-0.5-0.3-0.8-0.2
			c-0.6,0.3-0.2,1.6-0.2,1.7c0.2,0.3,0.6,1.4,1.3,1.1c0.5-0.2,0.5-0.5,0.5-0.6c0,0,0-0.2,0,0c0.2-0.2,1.1-0.6,1.7-0.8l2.5-1.1
			c1-0.5,1.3-0.5,1.6-0.6c0.3-0.2,0.6-0.2,1.6-0.6c3.5-1.4,8.4-2.7,9.7-3c5.6-1.4,10.3-3.2,13.2-4.5l0,0c1.6-0.6,2.5-1.1,2.5-1.1"/>
		<path class="st3" d="M234.4,69.6c-0.8,0.3-2.5,1.6-2.1,2.7c0,0,2.5,7,7.3,15.1c0.5,0.8,3.2,5.4,4.8,9.1c0.5,1,0.6,1.3,0.8,1.6
			c0.2,0.3,0.3,0.5,0.6,1.6l0.6,1.6c0.6,1.4,1.1,2.5,1.1,2.7c0,0,0,0,0,0.2c-0.2,0.2-0.3,0.5-0.2,0.8c0.3,0.6,1.6,0.2,1.7,0.2l0,0
			c0.3-0.2,1.4-0.6,1.1-1.3c-0.2-0.5-0.5-0.5-0.6-0.5c0,0-0.2,0,0,0c-0.2-0.2-0.6-1.3-1.3-2.7l-0.6-1.6c-0.5-1-0.5-1.3-0.6-1.6
			c-0.2-0.3-0.2-0.6-0.6-1.6c-1.4-3.7-2.7-8.7-3-9.7c-2.4-9.1-5.6-15.7-5.6-15.9C237.4,69,235.2,69.3,234.4,69.6z"/>
		<path class="st3" d="M262.1,133.5c-0.5-1-0.6-1.3-0.8-1.6s-0.3-0.5-0.6-1.6l-0.6-1.6c-0.6-1.6-1.1-2.5-1.1-2.7c0,0,0,0,0-0.2
			c0.2-0.2,0.3-0.5,0.2-0.8c-0.3-0.6-1.6-0.2-1.7-0.2l0,0c-0.3,0.2-1.4,0.6-1.1,1.3c0.2,0.5,0.5,0.5,0.6,0.5c0,0,0.2,0,0,0
			c0.2,0.2,0.6,1.3,1.3,2.7l0.6,1.6c0.5,1,0.5,1.3,0.6,1.6c0.2,0.3,0.2,0.6,0.6,1.6c1.4,3.5,2.7,8.4,3,9.7
			c2.4,9.1,5.6,15.7,5.6,15.9c0.5,1,2.5,0.6,3.3,0.3l0,0c0.8-0.3,2.5-1.6,2.1-2.7c0,0-2.5-7-7.3-15.1
			C266.4,141.6,263.7,137.2,262.1,133.5z"/>
		<path class="st3" d="M224.1,105.1c1,0.3,6,1.6,9.7,3c1,0.5,1.4,0.5,1.7,0.6c0.3,0.2,0.5,0.2,1.6,0.6l1.6,0.6
			c1.6,0.6,2.5,1.1,2.7,1.3c0,0,0,0,0,0.2s0.2,0.5,0.5,0.6c0.2,0,0.3,0,0.5,0c0.5-0.2,0.8-1,1-1.1l0,0c0.2-0.3,0.3-1,0.2-1.4
			c0-0.2-0.2-0.3-0.3-0.3c-0.2-0.2-0.5-0.2-0.6,0c-0.2,0-0.2,0.2-0.3,0.2l0,0c-0.2,0-1.3-0.5-2.9-1.1l-1.6-0.6
			c-1-0.5-1.3-0.5-1.6-0.6c-0.3-0.2-0.6-0.3-1.6-0.8c-3.5-1.6-7.8-4-9.1-4.8c-8.1-4.8-15.1-7.3-15.1-7.3c-0.2-0.2-0.5-0.2-0.8,0
			c-0.8,0.3-1.6,1.4-1.9,2.1l0,0l0,0l0,0l0,0l0,0c-0.3,0.8-0.6,2.9,0.3,3.3C208.3,99.7,215,102.8,224.1,105.1z"/>
		<path class="st3" d="M298.6,130.2c-0.5,0.2-7.2-3-16.2-5.4c-1-0.3-6-1.6-9.7-3c-1-0.5-1.4-0.5-1.6-0.6c-0.3-0.2-0.5-0.2-1.6-0.6
			l-1.6-0.6c-1.6-0.6-2.5-1.1-2.7-1.3c0,0,0,0,0-0.2s0-0.5-0.5-0.6c-0.2,0-0.3,0-0.5,0c-0.5,0.2-0.8,1-1,1.1
			c-0.2,0.3-0.6,1.4,0.2,1.7c0.2,0.2,0.5,0.2,0.6,0c0.2,0,0.2-0.2,0.3-0.2l0,0c0.2,0,1.3,0.5,2.9,1.1l1.6,0.6c1,0.5,1.3,0.5,1.6,0.6
			c0.3,0.2,0.6,0.3,1.6,0.8c3.5,1.6,7.8,4,9.1,4.8c8.1,4.8,15.1,7.3,15.1,7.3c0.2,0.2,0.5,0.2,0.8,0"/>
		<path class="st3" d="M259.4,97.3c-0.2,0.3-0.2,0.5-0.6,1.6l-0.6,1.6c-0.6,1.4-1.1,2.5-1.1,2.7c0,0,0,0-0.2,0s-0.2,0-0.3,0
			c-0.2,0.2-0.3,0.2-0.5,0.5c-0.3,0.6,0.8,1.1,1.1,1.3l0,0c0.2,0.2,1,0.3,1.4,0.2l0,0c0.2,0,0.3-0.2,0.3-0.3c0.2-0.5,0-0.6-0.2-0.8
			l0,0c0-0.2,0.5-1.3,1.1-2.9l0.6-1.6c0.5-1,0.5-1.3,0.6-1.6c0.2-0.3,0.3-0.6,0.8-1.6c1.6-3.5,4-7.8,4.8-9.1
			c4.8-8.1,7.3-15.1,7.3-15.1c0.5-1-1.3-2.4-2.1-2.7l0,0c-0.6-0.3-2.1-0.5-2.9-0.2c-0.3,0.2-0.5,0.3-0.5,0.5c0,0-3.2,6.8-5.6,15.9
			c-0.3,1-1.6,6-3,9.7C259.7,96.6,259.5,97,259.4,97.3z"/>
		<path class="st3" d="M247,132.7c0.2-0.3,0.2-0.5,0.6-1.6l0.6-1.6c0.6-1.6,1.1-2.7,1.3-2.7c0,0,0,0,0.2,0s0.2,0,0.3,0
			s0.3-0.2,0.5-0.5c0.3-0.6-0.8-1.1-1.1-1.3h-0.2l0,0c-0.3-0.2-1-0.3-1.4-0.2c-0.2,0-0.3,0.2-0.3,0.3c-0.2,0.5,0,0.6,0.2,0.8l0,0
			c0,0.2-0.5,1.3-1.1,2.9l-0.6,1.6c-0.5,1-0.5,1.3-0.6,1.6s-0.3,0.6-0.8,1.6c-1.6,3.7-4.3,8.1-4.8,9.1c-4.8,8.1-7.3,15.1-7.3,15.1
			c-0.5,1,1.3,2.2,2.1,2.7l0,0c0.6,0.2,1.9,0.5,2.9,0.2l0,0c0.3-0.2,0.5-0.3,0.6-0.5c0,0,3.2-6.8,5.6-15.9c0.3-1,1.6-6,3-9.7
			C246.8,133.4,247,133.1,247,132.7z"/>
		<path class="st3" d="M237.8,131.6c0.5-0.5,0.6-0.6,0.8-0.8s0.3-0.3,0.8-0.8l0.8-0.8c0.6-0.6,1.3-1.3,1.4-1.3l0,0
			c0.2,0,0.5,0,0.6-0.2s0.2-0.2,0.2-0.3c0-0.3-0.3-0.8-0.5-1l-0.2-0.2l0,0c-0.2-0.2-0.6-0.5-1-0.3c0,0-0.2,0-0.2,0.2
			c-0.3,0.3-0.2,0.5-0.2,0.6s-0.6,0.6-1.3,1.4l-0.8,0.8c-0.5,0.5-0.6,0.6-0.8,0.8s-0.3,0.3-0.8,0.8c-1.7,1.7-4.3,3.7-5.1,4.1
			c-4.8,3.7-8.1,7.2-8.1,7.2c-0.2,0.2-0.2,0.3-0.2,0.5c0,0.5,0.3,1.1,0.6,1.6l0,0l0.2,0.2c0.3,0.3,1.4,1,2.1,0.8c0,0,0.2,0,0.2-0.2
			c0,0,3.7-3.2,7.2-8.1C234.1,135.9,236,133.4,237.8,131.6z"/>
		<path class="st3" d="M268.8,98.4c-0.5,0.5-0.6,0.6-0.8,0.8c-0.2,0.2-0.3,0.3-0.8,0.8l-0.8,0.8c-0.6,0.6-1.3,1.3-1.4,1.3
			s-0.5,0-0.6,0.2c-0.2,0.2-0.2,0.3,0,0.8c0.2,0.2,0.3,0.5,0.3,0.5c0.2,0.2,0.6,0.6,1.1,0.5l0,0c0,0,0.2,0,0.2-0.2
			c0.3-0.3,0.2-0.5,0.2-0.6s0.6-0.6,1.3-1.4l0.8-0.8c0.5-0.5,0.6-0.6,0.8-0.8s0.3-0.3,0.8-0.8c1.7-1.7,4.3-3.7,5.1-4.1
			c4.8-3.7,8.1-7.2,8.1-7.2c0.5-0.5-0.2-1.9-0.6-2.2l0,0l0,0c-0.3-0.3-1.4-1-1.9-0.6c-0.2,0-0.2,0-0.2,0.2c0,0-3.7,3.2-7.2,8.1
			C272.6,93.8,270.5,96.5,268.8,98.4z"/>
		<path class="st3" d="M253.5,131.3L253.5,131.3h-0.2c-0.2,0-0.5,0-0.8,0.2s-0.3,0.3-0.3,0.5c0,0.3,0.2,0.5,0.3,0.5c0,0.2,0,1,0,1.9
			v1.1c0,0.6,0,0.8,0,1.1c0,0.2,0,0.5,0,1.1c0,2.4-0.5,5.6-0.6,6.5c-0.8,6-0.6,10.8-0.6,10.8c0,0.2,0,0.3,0.2,0.5
			c0.3,0.3,1,0.5,1.4,0.6l0,0h0.3c0.3,0,0.8-0.2,1.1-0.3c0.6-0.3,0.8-0.6,0.8-0.8c0,0,0.3-4.8-0.6-10.8c-0.2-1-0.6-4.1-0.6-6.5
			c0-0.6,0-1,0-1.1c0-0.2,0-0.3,0-1.1v-1.1c0-1,0-1.7,0-1.9c0.2,0,0.3-0.2,0.3-0.5c0-0.2,0-0.2-0.2-0.3
			C254,131.3,253.7,131.3,253.5,131.3z"/>
		<path class="st3" d="M253.2,98.7c0.2,0,0.5,0,0.8-0.2l0,0c0.3-0.2,0.3-0.3,0.3-0.5c0-0.3-0.2-0.5-0.3-0.5c0-0.2,0-1,0-1.9v-1.1
			c0-0.6,0-0.8,0-1.1c0-0.2,0-0.5,0-1.1c0-2.4,0.5-5.6,0.6-6.5c0.8-6,0.6-10.8,0.6-10.8c0-0.3-0.2-0.6-0.8-1
			c-0.3-0.2-0.8-0.3-1.1-0.3h-0.2l0,0c-0.3,0-0.8,0.2-1.1,0.3c-0.6,0.3-0.8,0.6-0.8,0.8c0,0-0.3,4.8,0.6,10.8c0.2,0.6,0.6,4,0.6,6.5
			c0,0.6,0,1,0,1.1c0,0.2,0,0.3,0,1.1v1.1c0,1,0,1.7,0,1.9c-0.2,0-0.3,0.2-0.3,0.5c0,0.2,0,0.2,0.2,0.3
			C252.5,98.6,253,98.7,253.2,98.7z"/>
		<path class="st3" d="M275,134.6c-0.8-0.6-3.3-2.5-5.1-4.1c-0.5-0.5-0.6-0.6-0.8-0.8s-0.3-0.3-0.8-0.8l-0.8-0.8
			c-0.8-0.8-1.3-1.3-1.3-1.4s0.2-0.3-0.2-0.6c-0.2-0.2-0.3-0.2-0.6,0s-0.5,0.3-0.6,0.5l-0.2,0.2l0,0c-0.2,0.2-0.3,0.5-0.3,0.8
			c0,0.2,0,0.2,0.2,0.3c0.3,0.3,0.5,0.2,0.6,0.2s0.6,0.6,1.4,1.3l0.8,0.8c0.5,0.5,0.6,0.6,0.8,0.8s0.3,0.3,0.8,0.8
			c1.7,1.7,3.8,4.6,4.1,5.1c3.7,4.8,7.2,8.1,7.2,8.1c0.2,0.2,0.5,0.3,1.3,0c0.3-0.2,0.6-0.3,0.8-0.5l0,0l0.2-0.2
			c0.3-0.3,1.1-1.7,0.6-2.2C282.9,141.8,279.7,138.3,275,134.6z"/>
		<path class="st3" d="M241.4,102c-0.2,0-0.6-0.6-1.4-1.3l-0.8-0.8c-0.5-0.5-0.6-0.6-0.8-0.8c-0.2-0.2-0.3-0.3-0.8-0.8
			c-1.7-1.7-3.7-4.3-4.1-5.1c-3.7-4.8-7.2-8.1-7.2-8.1c-0.2-0.2-0.5-0.3-1.3,0c-0.3,0.2-0.8,0.5-1,0.6c-0.3,0.3-0.8,1.1-0.8,1.7
			c0,0.2,0,0.3,0.2,0.5c0,0,3.2,3.7,8.1,7.3c0.5,0.3,3.2,2.4,5.1,4.1c0.5,0.5,0.6,0.6,0.8,0.8c0.2,0.2,0.3,0.3,0.8,0.8l0.8,0.8
			c0.6,0.6,1.3,1.3,1.3,1.3c0,0.2-0.2,0.3,0.2,0.6c0.2,0.2,0.3,0.2,0.6,0s0.5-0.3,0.6-0.5l0,0l0,0c0.2-0.2,0.5-0.5,0.5-0.8
			c0-0.2,0-0.3-0.2-0.3C241.9,101.9,241.6,102,241.4,102z"/>
		<path class="st3" d="M293.2,112.9c0,0-4.8-0.3-10.8,0.6c-1,0.2-4.1,0.6-6.5,0.6c-0.6,0-1,0-1.1,0s-0.3,0-1.1,0h-1.1
			c-1,0-1.7,0-1.9,0c0-0.2-0.2-0.3-0.5-0.3H270c-0.3,0.2-0.5,0.6-0.5,1v0.2c0,0,0,0.3,0,0.6c0.2,0.5,0.3,0.5,0.5,0.5
			c0.3,0,0.5-0.2,0.5-0.3c0.2,0,1,0,1.9,0h1.1c0.6,0,0.8,0,1.1,0c0.2,0,0.5,0,1.1,0c2.4,0,5.6,0.5,6.5,0.6c6,0.8,10.8,0.6,10.8,0.6
			c0.2,0,0.2,0,0.3,0c0.5-0.2,0.8-1.1,0.8-1.7l0,0V115c0-0.3-0.2-0.8-0.3-1.1C293.9,113,293.6,112.9,293.2,112.9z"/>
		<path class="st3" d="M212.6,116.7c0.2,0.2,0.3,0.2,0.5,0.2c0,0,4.8,0.3,10.8-0.6c0.6-0.2,4-0.6,6.5-0.6c0.6,0,1,0,1.1,0
			c0.2,0,0.3,0,1.1,0h1.1c1,0,1.7,0,1.9,0c0,0.2,0.2,0.3,0.5,0.3h0.2c0.3-0.2,0.5-1,0.5-1.1c0-0.2,0-0.8-0.3-1
			c-0.2-0.2-0.2-0.2-0.3-0.2c-0.3,0-0.5,0.2-0.5,0.3c-0.2,0-1,0-1.9,0h-1.1c-0.6,0-0.8,0-1.1,0c-0.2,0-0.5,0-1.1,0
			c-2.5,0-5.9-0.5-6.5-0.6c-6-0.8-10.8-0.6-10.8-0.6c-0.2,0-0.2,0-0.3,0c-0.6,0.3-1,1.4-1,1.9v0.3l0,0
			C212.2,115.7,212.3,116.4,212.6,116.7z"/>
	</g>
</g>
<g>
	<g>
		<path class="st4" d="M257.3,245.4c6.7,3.5,13.7,1.9,16.6-3.7l81.5-155.8c14.1-26.9,14.5-61.2-16.1-77.2
			c-14.7-7.7-29.7-7.4-43.3,0.9c-10.5,6.4-18.2,16.4-22.1,23.7c-4.2,8.1-0.7,14.6,4.3,17.3c2.7,1.4,6,1.8,9,1
			c3.3-0.9,6.1-3.2,7.7-6.4c5.6-10.1,15.1-22.7,32-13.8l0.4,0.2c14.7,7.9,13.1,27,5.1,42.4l-81.5,155.8
			C247.9,235.3,250.6,241.9,257.3,245.4z"/>
		<path class="st5" d="M270.7,240c4.6-8.8,70.4-134.7,81.5-155.8c11-21.1,17.1-55.8-14.6-72.4s-54.1,10.9-60.5,23s9.5,18.5,14.7,8.5
			c9.5-17.2,21.8-23.4,37.2-15.1c16.1,8.7,15.9,29.3,6.5,47.2c-9.4,18-76.9,147-81.5,155.8C249.5,240.1,266.1,248.7,270.7,240z"/>
		<path class="st6" d="M270.7,240.1c4.6-8.8,70-134.9,81-156.1s16.9-55.9-14.9-72.4s-54.1,11-60.4,23.2s9.6,18.4,14.7,8.5
			c9.5-17.3,21.8-23.5,37.2-15.2c16.1,8.6,16,29.2,6.7,47.2s-76.4,147.3-81,156.1C249.4,240.3,266.1,248.9,270.7,240.1z"/>
		<g>
			<path class="st7" d="M332.6,120.6l-10.1-21.2c3.1-5.9,5.7-11.1,7.9-15.2l10.1,21.2C338.1,110.1,335.4,115.2,332.6,120.6z"/>
			<path class="st7" d="M277.9,226.2L267.7,205c0.7-1.4,1.5-2.9,2.3-4.4l10.1,21.2C279.3,223.4,278.6,224.8,277.9,226.2z"/>
			<path class="st7" d="M315.9,152.9l-10.1-21.2c2.7-5.2,5.4-10.3,7.9-15.2l10.1,21.2C321.2,142.7,318.5,147.8,315.9,152.9z"/>
			<path class="st7" d="M294.6,193.9l-10.1-21.2c0.8-1.4,1.5-2.9,2.3-4.4l10.1,21.2C296.1,191.1,295.3,192.5,294.6,193.9z"/>
			<path class="st7" d="M344.8,97.1l-10.1-21.2c0.1-0.2,0.2-0.3,0.3-0.5c0.7-1.3,1.3-2.7,1.9-4.1l10.2,21.4
				C346.4,94.1,345.6,95.6,344.8,97.1z"/>
			<path class="st7" d="M299.1,185.2L289,164c2.6-5,5.3-10.1,7.9-15.2L307,170C304.3,175.2,301.7,180.2,299.1,185.2z"/>
			<path class="st7" d="M282.4,217.5l-10.1-21.2c2.5-4.8,5.1-9.9,7.9-15.2l10.1,21.2C287.4,207.8,284.8,212.9,282.4,217.5z"/>
			<path class="st7" d="M351.6,84c-0.6,1.1-1.4,2.6-2.3,4.4l-10.6-22.1c5.1-15.4,2.9-30.9-10.5-38.1c-3.2-1.7-6.3-2.8-9.2-3.3
				l-8.5-17.7c4.7-0.9,9.9-0.9,15.3,0.4L356.7,72C355.2,76.3,353.5,80.4,351.6,84z"/>
			<path class="st7" d="M270.7,240.1c-1.6,3.1-4.7,4-7.9,3.5l-7.2-15.1c1.7-3.2,4.4-8.5,7.9-15.2l10.1,21.2
				C272.1,237.4,271.1,239.3,270.7,240.1z"/>
			<path class="st7" d="M293.7,39.1l-8.1-17c3-3.3,6.7-6.5,10.8-9.1l7.3,15.4C300.1,30.8,296.7,34.4,293.7,39.1z"/>
			<path class="st7" d="M291.1,43.4c-0.7,1.3-1.6,2.3-2.6,3.1l-8.4-17.7c0.8-1.1,1.7-2.3,2.7-3.5l8.5,17.8
				C291.2,43.2,291.1,43.3,291.1,43.4z"/>
			<path class="st7" d="M349.3,21c6.1,6.5,9.3,14.1,10.5,22L349.3,21z"/>
			<path class="st7" d="M275.5,36.7l5.4,11.3C276.7,46.9,273.4,42.6,275.5,36.7z"/>
			<path class="st7" d="M328.1,129.4l-10.1-21.2c0.8-1.5,1.5-2.9,2.3-4.4l10.1,21.2C329.6,126.5,328.8,127.9,328.1,129.4z"/>
			<path class="st7" d="M311.3,161.7l-10.1-21.2c0.8-1.5,1.5-2.9,2.3-4.4l10.1,21.2C312.9,158.8,312.1,160.2,311.3,161.7z"/>
			<path class="st7" d="M359.5,60.5L336,11.3c0.2,0.1,0.5,0.2,0.7,0.4c1.9,1,3.7,2,5.3,3.1l18.3,38.3
				C360.2,55.6,359.9,58.1,359.5,60.5z"/>
			<path class="st7" d="M310.5,25.2L303,9.5c1.2-0.5,2.4-0.9,3.7-1.3l7.8,16.4C313.1,24.6,311.8,24.8,310.5,25.2z"/>
			<path class="st7" d="M253.4,233.1l4,8.3C254.5,239.4,252.6,236.4,253.4,233.1z"/>
			<path class="st8" d="M257.3,241.4l-4-8.3c0.1-0.6,0.3-1.1,0.6-1.7c0.3-0.5,0.8-1.5,1.5-2.9l7.2,15.1
				C260.8,243.4,258.9,242.6,257.3,241.4z"/>
			<path class="st8" d="M273.5,234.6l-10.1-21.2c1.3-2.6,2.8-5.4,4.3-8.3l10.1,21.2C276.2,229.5,274.7,232.3,273.5,234.6z"/>
			<path class="st8" d="M280.1,221.9L270,200.6c0.7-1.4,1.5-2.9,2.3-4.4l10.1,21.2C281.6,219,280.9,220.5,280.1,221.9z"/>
			<path class="st8" d="M290.3,202.3L280.1,181c1.4-2.7,2.9-5.5,4.3-8.3l10.1,21.2C293.1,196.8,291.7,199.6,290.3,202.3z"/>
			<path class="st8" d="M296.9,189.6l-10.1-21.2c0.8-1.5,1.5-2.9,2.3-4.4l10.1,21.2C298.4,186.7,297.6,188.1,296.9,189.6z"/>
			<path class="st8" d="M307,170l-10.1-21.2c1.4-2.8,2.9-5.6,4.3-8.3l10.1,21.2C309.9,164.5,308.5,167.2,307,170z"/>
			<path class="st8" d="M313.6,157.3l-10.1-21.2c0.8-1.5,1.5-2.9,2.3-4.4l10.1,21.2C315.1,154.4,314.4,155.8,313.6,157.3z"/>
			<path class="st8" d="M280.9,48l-5.4-11.3c0.2-0.6,0.4-1.2,0.8-1.9c0.9-1.8,2.2-3.9,3.7-6.1l8.4,17.7
				C286.2,48.3,283.4,48.7,280.9,48z"/>
			<path class="st8" d="M323.8,137.7l-10.1-21.2c1.5-2.9,2.9-5.7,4.3-8.3l10.1,21.2C326.7,132.1,325.2,134.9,323.8,137.7z"/>
			<path class="st8" d="M291.2,43.1l-8.5-17.8c0.9-1.1,1.8-2.2,2.8-3.2l8.1,17C292.8,40.3,292,41.7,291.2,43.1z"/>
			<path class="st8" d="M330.3,125l-10.1-21.2c0.8-1.5,1.5-3,2.3-4.4l10.1,21.2C331.9,122.1,331.1,123.5,330.3,125z"/>
			<path class="st8" d="M303.7,28.3L296.3,13c2.1-1.3,4.3-2.5,6.6-3.5l7.5,15.7C308.1,25.8,305.8,26.8,303.7,28.3z"/>
			<path class="st8" d="M340.5,105.4l-10.1-21.2c1.9-3.6,3.4-6.5,4.3-8.3l10.1,21.2C343.5,99.7,342.1,102.4,340.5,105.4z"/>
			<path class="st8" d="M314.5,24.6l-7.8-16.4c1.3-0.4,2.6-0.7,3.9-1l8.5,17.7C317.5,24.6,316,24.5,314.5,24.6z"/>
			<path class="st8" d="M347.1,92.7l-10.2-21.4c0.7-1.7,1.4-3.4,1.9-5.1l10.6,22.1C348.7,89.7,347.9,91.1,347.1,92.7z"/>
			<path class="st8" d="M356.7,72L325.9,7.6c3.2,0.8,6.6,2,10.1,3.7l23.5,49.2C358.9,64.5,357.9,68.3,356.7,72z"/>
			<path class="st8" d="M360.3,53.1L342,14.8c2.8,1.9,5.2,4,7.3,6.1l10.5,22C360.3,46.3,360.5,49.7,360.3,53.1z"/>
		</g>
		<path class="st9" d="M271.2,240.3c4.5-8.8,69.5-135.2,80.3-156.4c10.9-21.2,16.7-55.9-15.2-72.3S282.3,22.8,276.1,35
			s9.7,18.4,14.8,8.4c9.4-17.3,21.7-23.6,37.1-15.4c16.2,8.6,16.1,29.2,6.9,47.2S259,222.9,254.5,231.7
			C250,240.5,266.7,249.1,271.2,240.3z"/>
	</g>
	<g>
		<path class="st10" d="M207.1,308.2c-0.7-0.4-18.6-9.5-38-25.4c-25.9-21.3-41.8-44.7-46-67.7c-3.4-18.9-1-33.5,7.2-43.3
			c7.7-9.2,20.5-14.1,37.2-14.1c11.7,0,21.1,2.4,21.5,2.5l2.6,0.7l0.9,25l-4.5-1c-0.1,0-6.5-1.4-14.2-1.4c-7.5,0-17.6,1.3-22.9,7.7
			c-3.6,4.4-4.6,10.9-3,19.4c12,44.1,52.1,63.6,52.5,63.8l1.3,0.6l13.3,37.4L207.1,308.2z"/>
		<path class="st10" d="M198.9,277.4c0,0-41.9-19.9-54.4-66.2c-8.1-41.5,44.3-29.9,44.3-29.9l-0.7-17.8c0,0-74.1-19-61.4,50.8
			c9.9,54.2,82,90.6,82,90.6L198.9,277.4z"/>
		<path class="st10" d="M224.8,321c-19.5,0-34.3-29.1-43.9-86.5c-7-41.5-8.8-83.6-8.8-84l-0.2-3.7h166.6v3.6
			c0,0.4-0.1,42.5-6.5,84.1c-8.9,57.5-25.3,86.6-48.7,86.6H224.8z"/>
		<path class="st10" d="M175.6,150.3c0,0,6.9,167.1,49.1,167.1c20.2,0,35.8,0,58.6,0c51.6,0,51.6-167.1,51.6-167.1H175.6z"/>
	</g>
	<g>
		<g>
			<path class="st10" d="M309.2,139.8c-4.3,10.1-12.2,17.2-21.8,19l-1,0.2l-76.9-27.4l-0.6-1.6c-3.4-9.3,3.1-18.4,9.7-23.3
				c2.3-1.7,4.7-3.2,7-4.6c4-2.5,7.8-4.8,10.6-8c6.7-7.7,5.8-21-1.8-27.8l-6.1-5.5l8.2-0.7c2.4-0.2,4.7-0.3,6.9-0.3
				c22.4,0,30.4,11.2,33.4,15.4l0.4,0.5c1.3,1.8,2.3,3.8,3.1,6.4c10,1.8,18.3,6.7,24.1,14.4c6,8,8.9,18.9,8,29.8
				c7.3,1,13.3,4.6,16.6,10c2.8,4.6,4.8,12.5-1.2,24.1l-2.9,5.7L309.2,139.8z"/>
			<g>
				<g>
					<path class="st11" d="M309.2,139.8c-2,2.6-3.8,4.5-5.6,6.4c-1.9,1.9-3.9,3.8-6.6,5.8c-0.9,0.6-2.3,1.6-4.1,2.5
						c-0.5,0.2-0.9,0.5-1.4,0.6l-0.4,0.1l-0.3,0.1c-0.3,0.1-0.6,0.2-0.9,0.3c-0.6,0.2-1.2,0.4-1.8,0.5l-0.9,0.2l-0.5,0.1l0,0
						c-5.1-1.8-10.4-3.7-15.9-5.7c-11.4-4.1-23.2-8.3-34.3-12.2c-5.5-2-10.9-3.9-15.9-5.7c-2.5-0.9-4.9-1.8-7.2-2.6
						c-0.6-0.2-1.1-0.4-1.7-0.6l-0.2-0.1l0,0l0,0l0,0l0,0l0,0l-0.1-0.2c-0.1-0.3-0.2-0.5-0.2-0.7c-0.1-0.5-0.3-0.9-0.4-1.4
						c-0.4-1.5-0.3-3.1-0.1-4.6c0.2-1.5,0.7-3,1.4-4.4c1.3-2.8,3.3-5.4,5.5-7.5c2.2-2.1,4.7-3.8,7.3-5.4c2.6-1.6,5.2-3.1,7.6-4.9
						c2.5-1.7,4.8-3.7,6.6-6.1c1.8-2.4,3-5.1,3.6-7.7c1.2-5.3,0.7-10.3-0.9-14.3c-0.4-1-0.9-2-1.3-2.9c-0.3-0.5-0.5-0.9-0.8-1.3
						c-0.3-0.4-0.5-0.8-0.9-1.2c-0.3-0.4-0.6-0.8-0.9-1.1c-0.3-0.3-0.7-0.7-1-1c-0.7-0.7-1.2-1.1-1.8-1.6c-0.2-0.2-0.5-0.4-0.7-0.7
						l0,0l0,0l0,0l0,0c0.9-0.1,1.3-0.1,1.3-0.1s1-0.1,3.2-0.2c1.1-0.1,2.5-0.1,4.2-0.2c0.9-0.1,1.8,0,2.9,0.1c0.5,0,1.1,0,1.6,0.1
						c0.6,0.1,1.1,0.1,1.7,0.2c0.6,0.1,1.2,0.1,1.9,0.2c0.6,0.1,1.3,0.2,2,0.3c0.3,0.1,0.7,0.1,1,0.2c0.3,0.1,0.7,0.2,1.1,0.3
						c0.7,0.2,1.5,0.3,2.2,0.6c3,0.9,6.3,2.2,9.5,4.4c3.3,2.1,6.2,5.2,8.9,9.3c0.6,0.9,1.1,1.9,1.6,3.1l0.2,0.4l0.2,0.6
						c0.2,0.5,0.4,1.2,0.6,1.9l0.2,0.5c0.1,0.1,0.3,0.1,0.5,0.1l1,0.2c0.5,0.1,1.1,0.2,1.6,0.3c2.6,0.6,5.2,1.4,7.8,2.6
						c3.2,1.5,7.1,3.9,10.7,7.7c3.6,3.8,6.7,9.1,8.4,15.3c0.9,3.1,1.4,6.5,1.6,9.9c0,0.9,0.1,1.7,0,2.6l0,0.7l0,0.3l0,0.3l0,0.3
						c-0.1,0.9-0.1,1.9-0.2,2.8l0,0.7c0,0,0,0.1,0,0.1l0.2,0l0.3,0.1l1.4,0.2l1.4,0.2l1.1,0.2c0.8,0.2,1.7,0.4,2.5,0.7
						c3.3,1.1,6.3,2.9,8.5,5.5c2.2,2.5,3.6,5.8,3.9,9.2c0.3,3.4-0.3,7-1.5,10.3c-0.3,0.8-0.7,1.7-1,2.5c-0.4,0.8-0.8,1.6-1.2,2.4
						l-0.6,1.3l-0.1,0.2c0,0,0,0,0,0l0,0l0,0l0,0c0,0,0,0,0,0l0,0l0,0l-0.1-0.2c-0.2-0.3-0.4-0.6-0.6-1c-1.5-2.5-2.8-4.6-3.5-5.8
						C316.7,147.5,313.7,144.3,309.2,139.8c1.9,6.2,3.4,10.3,7.2,16.7c0.7,1.2,2,3.3,3.5,5.8c0.5,0.9,1.1,1.8,1.7,2.8
						c0.4,0.7,0.8,1.4,1.3,2.1c0.2,0.4,0.4,0.7,0.6,1.1l0.6,1l0.7,1.2l0.2,0.3l0.1,0.1l0,0.1c0,0,0,0,0,0l0.3-0.6
						c1.5-2.8,2.9-5.7,4.4-8.6c0.4-0.8,0.9-1.8,1.3-2.7c0.4-0.9,0.8-1.9,1.1-2.8c1.4-3.8,2.2-8.1,1.8-12.5
						c-0.4-4.3-2.2-8.6-5.1-11.9c-2.9-3.3-6.7-5.6-10.6-6.9c-1-0.3-2-0.6-3-0.8L315,124l0,0l0,0l0,0l0,0l0-1.1c0-1,0-1.9,0-2.9
						c-0.2-3.8-0.8-7.6-1.8-11c-1.9-7-5.5-13-9.6-17.4c-4.1-4.4-8.6-7.1-12.3-8.8c-3-1.3-5.9-2.3-8.8-2.9l-0.4-0.1l0,0
						c0,0,0,0,0-0.1c-0.1-0.3-0.2-0.6-0.4-0.9c-0.6-1.4-1.2-2.7-2-3.9c-0.2-0.3-0.4-0.6-0.6-0.9l-0.5-0.8c-0.4-0.5-0.8-1-1.2-1.5
						c-0.8-1-1.6-2-2.5-2.9c-1.7-1.8-3.6-3.3-5.4-4.6c-3.7-2.5-7.5-4.1-10.9-5c-0.8-0.3-1.7-0.4-2.5-0.6c-0.4-0.1-0.8-0.2-1.2-0.3
						c-0.4-0.1-0.8-0.1-1.2-0.2c-0.8-0.1-1.5-0.2-2.2-0.4c-0.7-0.1-1.4-0.1-2-0.2c-0.7-0.1-1.3-0.1-1.9-0.2c-0.6,0-1.2,0-1.8-0.1
						c-1.1,0-2.2-0.1-3.1-0.1c-1.9,0.1-3.4,0.2-4.5,0.2c-2.4,0.1-3.3,0.2-3.3,0.2s-3.6,0.3-10.7,1c-0.5,0-1,0.1-1.5,0.1l-0.2,0
						l0.1,0.1l0.3,0.3c0.2,0.2,0.4,0.4,0.6,0.6c0.8,0.7,1.7,1.5,2.6,2.4c1.6,1.5,3.4,3.1,5.4,4.8c0.5,0.5,1.2,1,1.6,1.5
						c0.2,0.2,0.5,0.5,0.7,0.7c0.2,0.3,0.4,0.6,0.7,0.9c0.2,0.3,0.5,0.6,0.7,0.9c0.2,0.3,0.4,0.6,0.6,1c0.4,0.7,0.8,1.4,1,2.3
						c1.3,3.2,1.7,7.3,0.7,11.4c-0.5,2.1-1.4,4.1-2.7,5.9c-1.3,1.8-3.3,3.5-5.5,5c-2.2,1.6-4.8,3-7.4,4.7c-1.3,0.8-2.7,1.7-4,2.7
						c-1.4,1-2.7,2.1-4,3.3c-2.6,2.5-4.9,5.4-6.5,8.9c-0.8,1.8-1.5,3.7-1.8,5.8c-0.3,2-0.3,4.2,0.2,6.3c0.1,0.6,0.3,1.2,0.5,1.9
						c0.1,0.3,0.2,0.6,0.3,0.9c0.2,0.5,0.4,1,0.5,1.5l0.3,0.8c0.2,0.1,0.5,0.2,0.8,0.3c0.5,0.2,1,0.4,1.5,0.5
						c0.6,0.2,1.1,0.4,1.7,0.6c2.3,0.8,4.7,1.7,7.2,2.6c5,1.8,10.3,3.7,15.9,5.7c11.1,3.9,22.9,8.2,34.3,12.2c2.9,1,5.7,2,8.5,3
						c1.4,0.5,2.8,1,4.1,1.5c0.7,0.2,1.4,0.5,2,0.7l1,0.4l0.7,0.3l0.5,0.2l0.3,0.1c0.1,0,0.2,0,0.3,0l1-0.2l0.6-0.1l1.1-0.3
						c0.8-0.2,1.5-0.4,2.2-0.6c0.4-0.1,0.7-0.2,1.1-0.4l0.3-0.1l0.5-0.2c0.6-0.2,1.2-0.5,1.7-0.8c2.2-1.1,3.9-2.2,4.9-3
						c3.3-2.4,5.2-5.1,6.6-7.6C307.8,145.6,308.6,142.9,309.2,139.8z"/>
				</g>
			</g>
		</g>
		<g>
			<path class="st10" d="M308.5,129.3c3.1-18.8-6-41.1-30.9-44.2c-0.6-2.6-1.6-5.3-3.2-7.5c-2.8-3.8-10.6-16.6-37.5-14.1
				c9,8.1,10,23.6,2.1,32.8c-4.9,5.7-12.2,8.7-18.2,13.2c-6,4.5-11.1,12.2-8.5,19.2l74.4,26.5c11.5-2.2,18.9-12.3,21.4-24.2
				l16.6,27.5C334.4,139.6,322.1,129.5,308.5,129.3z"/>
			<g>
				<g>
					<path class="st11" d="M308.5,129.3c1.2-3,2-5.7,2.3-8.6c0.1-0.7,0.1-1.5,0.2-2.2c0-0.8,0-1.5-0.1-2.4c0-1.6-0.4-3.4-0.8-5.3
						c-0.4-1.4-1-3.8-2.3-6.6c-0.1-0.2-0.1-0.4-0.2-0.5c0-0.1-0.1-0.2-0.1-0.3l-0.2-0.4c-0.8-1.5-1.5-3-2.5-4.4
						c-1.8-2.9-4.4-5.6-7.2-8c-0.7-0.6-1.5-1.1-2.3-1.7l-0.6-0.4l-0.6-0.4l-1.2-0.7c-1.6-1-3.4-1.7-5.2-2.5l-0.7-0.3l-0.7-0.2
						l-1.4-0.4c-0.9-0.2-1.9-0.6-2.8-0.8c-0.8-0.1-1.7-0.3-2.5-0.4c0,0,0,0,0,0c0,0,0,0.1,0-0.1c-0.5-1.5-1-3.1-1.8-4.6
						c-0.4-0.7-0.9-1.5-1.4-2.2l-1.4-1.8c-1.9-2.5-4.3-4.9-6.8-6.7c-2.6-1.8-5.4-3.2-8.1-4.2c-0.7-0.2-1.4-0.5-2.1-0.7
						c-0.7-0.2-1.4-0.3-2-0.5c-0.7-0.2-1.3-0.3-2-0.5c-0.7-0.1-1.3-0.2-2-0.3c-0.6-0.1-1.3-0.2-1.9-0.3c-0.6-0.1-1.2-0.1-1.8-0.1
						c-0.6,0-1.2-0.1-1.8-0.1c-0.6,0-1.1,0-1.7,0c-1.2,0-2.3,0-3.3,0c-1.9,0.1-3.6,0.2-5.2,0.3c-1.6,0.1-3.1,0.2-4.5,0.3
						c-0.2,0-0.3,0-0.5,0c0.1,0.1,0.2,0.3,0.4,0.4c0.2,0.2,0.5,0.5,0.7,0.7c0.5,0.5,0.9,0.9,1.3,1.3c1.6,1.6,2.7,2.9,3.3,3.6
						l0.5,0.5l0.2,0.3l0.1,0.1l0.1,0.1l0.1,0.1l0.3,0.5l0.6,0.9c0.4,0.6,0.7,1.3,1,1.9c0.3,0.7,0.5,1.3,0.8,2
						c0.2,0.7,0.4,1.4,0.6,2.1c0.6,2.8,0.8,5.5,0.4,8.2c-0.3,2.6-1.1,5.1-2.2,7.2c-1.1,2.1-2.6,3.9-4.3,5.5c-3.4,3.1-7.4,5.3-11,7.5
						c-1.8,1.1-3.5,2.3-5.1,3.5c-1.6,1.2-3,2.6-4.2,3.9c-1.2,1.4-2.2,2.8-3.1,4.1c-0.8,1.4-1.4,2.8-1.9,4.2
						c-0.9,2.8-0.9,5.4-0.6,7.3c0,0.2,0.1,0.5,0.1,0.7c0.1,0.4,0.2,0.7,0.3,1.1s0.2,0.7,0.3,1c0,0.2,0.1,0.3,0.1,0.5
						c0,0.1,0.1,0.1,0.2,0.1l0.2,0.1c1,0.3,1.8,0.6,2.4,0.9c0.8,0.3,1.2,0.4,1.2,0.4s14.6,5.2,36.4,13c5.4,1.9,11.3,4,17.5,6.2
						c3.1,1.1,6.3,2.2,9.5,3.4c1.6,0.6,3.3,1.2,4.9,1.8c0.8,0.3,1.7,0.6,2.5,0.9l1.2,0.4c0.1,0.1,0.2,0,0.3,0l0.3-0.1l0.6-0.1
						l1.5-0.4c3.8-1.1,7.4-3.1,10.4-5.7c3-2.7,5.4-5.9,7.2-9.5l0.7-1.3l0.6-1.4c0.2-0.5,0.4-0.9,0.6-1.4l0.2-0.7l0,0c0,0,0,0,0,0
						l0,0l0,0l0,0l0.1,0.2l0.4,0.6l2.9,4.8c2.1,3.4,4.1,6.9,6.2,10.3l1.5,2.6c0.9,1.5,2,3.5,3,5l1.5,2.3c0.1,0.2,0.3,0.4,0.4,0.6
						l0.3-0.6l0.6-1.3c0.8-1.7,1.6-3.4,2.4-5.1c0.2-0.4,0.4-0.9,0.5-1.4l0.3-0.8l0.5-1.5c0.3-1,0.5-2.1,0.7-3.1
						c0.2-1.1,0.3-2.1,0.3-3.2l0-0.5l0-0.4c0-1-0.1-2-0.3-3c-0.3-1.9-1-3.7-1.7-5c-0.7-1.4-1.5-2.4-2.1-3.1c-1.4-1.6-3-2.8-4.5-3.6
						c-1.5-0.8-3-1.4-4.5-1.7C314.5,128.5,311.6,128.6,308.5,129.3c3.1,0.8,5.5,1.9,7.8,3.2c2.2,1.3,4.5,2.7,6.5,5.1
						c0.8,1,2.2,3,2.7,5.9c0.1,0.7,0.2,1.5,0.2,2.3c0,0.2,0,0.3,0,0.7c0,0.8-0.1,1.7-0.2,2.5c-0.1,0.8-0.3,1.7-0.6,2.6l-0.4,1.3
						l-0.2,0.6l0,0c0,0,0,0,0,0l0,0l0,0l0,0l0,0c0,0,0,0,0,0l0-0.1l-1.5-2.6c-2.1-3.4-4.1-6.9-6.2-10.3c-2.8-4.6-5.5-9.1-8.3-13.7
						l-0.7-1.2l-0.4-0.6c-0.1-0.2-0.1,0-0.1,0.1l-0.1,0.4l-0.7,2.9c-0.5,1.9-1,4-1.5,5.9c-0.1,0.5-0.3,0.9-0.5,1.4l-0.2,0.7
						c-0.1,0.4-0.3,0.8-0.5,1.2l-0.5,1.2l-0.6,1.2c-1.6,3.1-3.7,5.9-6.1,8.1c-2.5,2.2-5.4,3.8-8.5,4.7l-1.1,0.3c0,0,0,0,0,0
						c-0.8-0.3-1.7-0.6-2.5-0.9c-1.7-0.6-3.3-1.2-4.9-1.8c-3.3-1.2-6.4-2.3-9.5-3.4c-6.2-2.2-12.1-4.3-17.5-6.2
						c-21.7-7.7-36.4-13-36.4-13s-0.4-0.1-1.2-0.4c-0.1-0.1-0.3-0.1-0.5-0.2l0,0l0,0l0,0c0-0.2,0-0.3-0.1-0.5c-0.2-1.3-0.2-3,0.4-5
						c0.3-1,0.8-2.1,1.5-3.2c0.7-1.1,1.5-2.2,2.5-3.4c1-1.1,2.2-2.2,3.6-3.3c1.4-1.1,3-2.1,4.7-3.2c3.5-2.2,7.6-4.4,11.7-8.1
						c2-1.8,3.9-4.1,5.3-6.8c1.4-2.7,2.3-5.7,2.7-8.9c0.4-3.2,0.2-6.5-0.5-9.9c-0.2-0.8-0.5-1.7-0.7-2.5c-0.3-0.8-0.6-1.6-1-2.5
						c-0.4-0.8-0.8-1.6-1.3-2.4l-0.7-1.2l-0.4-0.6l0,0.1c0,0,0,0,0,0c0,0,0,0,0,0c0.8,0,1.7,0,2.7,0c0.5,0,1,0,1.5,0
						c0.5,0,1.1,0.1,1.6,0.1c0.5,0,1.1,0.1,1.7,0.1c0.6,0,1.1,0.2,1.7,0.2c4.6,0.7,9.7,2.2,14,5.3c2.2,1.5,4.1,3.5,5.8,5.7l1.3,1.8
						c0.4,0.5,0.7,1,1,1.6c0.6,1.1,1.1,2.4,1.5,3.7c0.2,0.8,0.5,1.8,0.7,2.7c0,0.1,0,0.3,0.1,0.3l0.3,0.1l0.7,0.1l1.4,0.2
						c1,0.2,2,0.3,2.9,0.5c0.9,0.1,1.7,0.5,2.5,0.7l1.2,0.4l0.6,0.2l0.6,0.2c1.5,0.7,3.1,1.2,4.5,2.1l1.1,0.6l0.5,0.3l0.5,0.4
						c0.6,0.5,1.3,1,1.9,1.4c2.4,2.1,4.6,4.3,6.2,6.9c0.9,1.2,1.5,2.6,2.2,3.8l0.2,0.3c0,0.1,0.1,0.2,0.1,0.2
						c0.1,0.2,0.1,0.3,0.2,0.5c1.1,2.5,1.7,4.6,2.1,5.8c0.4,1.7,0.8,3.2,1.1,4.7c0.2,0.7,0.3,1.4,0.5,2.1c0.1,0.7,0.2,1.4,0.4,2
						C307.7,123.5,308.1,126.1,308.5,129.3z"/>
				</g>
			</g>
		</g>
		<g>
			<path class="st10" d="M183.3,163.9c-4.7-9.7,0-20.9,7.2-26.9c6-5.1,14.3-8.1,25.5-9.1l0.2,0l0.3,0c1.8,0,3.3,1,3.9,2.6
				c0.9,2.5,2,5.3-31.4,34.6l-3.5,3.1L183.3,163.9z"/>
			<g>
				<g>
					<path class="st11" d="M183.3,163.9c-0.6-3.2-0.5-5.7-0.1-8.3c0.4-2.5,1.1-5.1,2.5-8.2c0.2-0.5,0.6-1.2,1.1-2.2
						c0.6-0.9,1.3-2.2,2.6-3.7c0.7-0.9,1.6-1.8,2.7-2.7c1.1-0.9,2.4-1.9,3.8-2.7c2.8-1.7,6.2-3,9.4-3.9c3.2-0.9,6.3-1.4,8.6-1.7
						c0.6-0.1,1.1-0.1,1.5-0.2c0.2,0,0.4,0,0.6-0.1l0.1,0c0,0,0,0,0,0c0.1,0,0.1,0,0.2,0c0.3,0,0.5,0.1,0.5,0.1
						c0.3,0.1,0.3,0.1,0.3,0.1c0,0,0.1,0,0.3,0.2c0.2,0.1,0.4,0.3,0.5,0.8c0.2,0.4,0.1,0.3,0.1,0.5c0,0,0,0.1,0,0.2
						c0,0.1-0.1,0.2-0.1,0.2l-0.1,0.3c0,0.1-0.1,0.2-0.2,0.3c-0.4,0.9-1.3,2.1-2.2,3.2c-3.9,4.7-9.6,10-13.6,13.8
						c-4.2,3.9-6.8,6.2-8.2,7.5c-2,1.8-3.7,3.5-5.1,5c-0.4,0.4-0.7,0.8-1,1.2l-0.5,0.6l-0.2,0.3l-0.1,0.1c0,0,0,0,0,0.1
						c-0.1,0.3-0.4,0.8-0.9,1.6c-0.2-0.1-0.5-0.3-0.9-0.7C184.5,165.3,183.9,164.6,183.3,163.9c0.2,0.9,0.3,1.6,0.6,2.6
						c0.3,1,0.6,2.1,1.1,3.4c1-0.6,2.3-1.5,3.6-2.4l0.3-0.2l0.2-0.1l0.3-0.2l0.6-0.4c0.4-0.3,0.9-0.6,1.3-0.9
						c1.7-1.3,3.6-2.7,5.6-4.5c1.4-1.2,4.1-3.6,8.3-7.5c4.1-3.8,9.8-9.2,14-14.3c1-1.3,2-2.6,2.8-4.1c0.1-0.2,0.2-0.4,0.3-0.6
						c0.1-0.2,0.2-0.4,0.2-0.6c0.1-0.2,0.2-0.4,0.2-0.7c0.1-0.3,0.1-0.5,0.1-0.8c0.1-0.5,0-1.1,0-1.6c0-0.2-0.1-0.5-0.2-0.7
						c-0.1-0.2-0.1-0.3-0.2-0.5c-0.2-0.7-0.6-1.4-1-1.9c-0.4-0.5-0.8-0.9-1.2-1.2c-0.8-0.5-1.2-0.7-1.2-0.7s0,0-0.1-0.1
						c-0.1-0.1-0.4-0.2-0.9-0.3c-0.1,0-0.6-0.2-1.7-0.2c-0.1,0-0.2,0-0.3,0c-0.1,0-0.2,0-0.3,0l-0.2,0c-0.2,0-0.4,0-0.7,0.1
						c-0.5,0.1-1,0.1-1.6,0.2c-2.4,0.3-5.7,0.8-9.3,1.8c-3.6,1-7.4,2.4-10.7,4.4c-1.6,1-3.1,2.1-4.5,3.2c-1.3,1.1-2.4,2.3-3.3,3.3
						c-1.5,1.8-2.4,3.3-3.1,4.4c-0.6,1.2-1,2-1.3,2.6c-1.7,3.8-2,7.2-1.6,10.2C180.1,158.7,181.3,161.4,183.3,163.9z"/>
				</g>
			</g>
		</g>
		<g>
			<path class="st10" d="M216.3,131.5c-8.4,0.8-17,2.8-23.5,8.3c-6.4,5.4-9.9,15-6.3,22.6C186.6,162.4,222.3,130.9,216.3,131.5z"/>
			<g>
				<g>
					<path class="st11" d="M216.3,131.5c-3.2-0.5-5.9-0.7-8.8-0.5c-2.9,0.2-6,0.9-9.6,2.6c-0.6,0.3-1.4,0.7-2.6,1.4
						c-1.1,0.7-2.6,1.6-4.4,3.2c-1.3,1.1-2.9,2.8-4.3,4.9c-1.4,2.1-2.5,4.5-3.2,6.9c-0.7,2.4-0.9,4.7-0.8,6.4c0,0.8,0.1,1.5,0.2,2
						c0.1,0.5,0.1,0.8,0.1,0.8s0,0.1,0.1,0.4c0.1,0.3,0.2,0.8,0.4,1.5c0.3,0.7,0.6,1.6,1.1,2.8c0.3,0.6,0.5,1.3,0.9,2.1
						c0.1,0.2,0.2,0.4,0.2,0.6c0,0.1,0.1,0,0.1,0l0.1-0.1l0.3-0.2c0.4-0.3,0.8-0.7,1.2-1c1-0.9,3.5-3.1,6.3-5.6
						c1.9-1.8,4.1-3.8,5.8-5.3c4.2-3.9,6.8-6.4,8.1-7.7c2.7-2.6,4.7-4.9,6.3-7.3c0.8-1.2,1.6-2.4,2.2-3.7c0.3-0.7,0.7-1.3,0.9-2.1
						c0.1-0.4,0.3-0.8,0.3-1.2c0-0.2,0-0.5-0.3-0.7C216.7,131.3,216.5,131.4,216.3,131.5c0.2,0,0.4,0.1,0.5,0.2c0,0.1,0,0.2-0.1,0.4
						c-0.2,0.3-0.4,0.5-0.7,0.8c-0.5,0.5-1.1,0.9-1.6,1.4c-1.1,0.9-2.2,1.7-3.2,2.5c-2.2,1.7-4.4,3.6-7.1,6.2
						c-1.3,1.3-3.9,3.7-8.1,7.6c-1.6,1.5-3.8,3.5-5.7,5.2c-0.9,0.8-1.8,1.6-2.5,2.3l0,0c0,0,0,0,0,0c0,0,0-0.2-0.1-0.5
						c0-0.3-0.1-0.8-0.1-1.5c0-1.2,0.1-3,0.6-4.9c0.5-1.9,1.4-3.8,2.6-5.5c1.1-1.7,2.4-3,3.4-3.9c3-2.5,4.8-3.3,5.8-3.8
						c3.1-1.5,5.7-2.5,8.3-3.5C210.8,133.5,213.2,132.6,216.3,131.5z"/>
				</g>
			</g>
		</g>
	</g>
	<g>
		<g>
			<g>
				<path class="st12" d="M324.5,158.3c10-19.7-3.5-29.8-17.7-29.3"/>
				<g>
					<g>
						<path class="st13" d="M324.5,158.3c1.5-1.8,2.6-3.4,3.5-5.3c0.9-1.9,1.6-4.1,1.6-7c0-0.5,0-1.1-0.1-2.1
							c-0.1-0.9-0.2-2.2-0.8-3.8c-0.1-0.4-0.3-0.9-0.5-1.4c-0.1-0.2-0.2-0.5-0.3-0.6c-0.1-0.2-0.1-0.3-0.1-0.3s-0.1-0.3-0.4-0.7
							c-0.3-0.4-0.5-0.9-0.8-1.2c-1.3-1.9-2.7-3.1-3.9-4c-1.2-0.9-2.1-1.4-2.7-1.7c-2.6-1.3-4.9-1.8-7-1.9c-2.1-0.1-4.1,0.2-6.3,0.8
							c2.3,0.5,4,1.1,5.8,1.7c1.8,0.6,3.6,1.3,5.8,2.5c0.5,0.3,1.3,0.7,2.2,1.4c0.9,0.7,2.1,1.7,3.1,3.2c0.2,0.3,0.4,0.7,0.6,1
							c0.2,0.3,0.3,0.6,0.3,0.6s0,0.1,0.1,0.2c0.1,0.1,0.2,0.3,0.2,0.5c0.2,0.4,0.4,0.8,0.4,1.1c0.4,1.3,0.5,2.3,0.6,3.1
							c0.1,0.8,0.1,1.3,0.1,1.7c0,2.4-0.3,4.4-0.6,6.3C325.3,154.2,325,156.1,324.5,158.3z"/>
					</g>
				</g>
			</g>
			<g>
				<path class="st12" d="M237,125.3c-5.4,5.1-13.6,5.3-21,6c-8.4,0.8-17,2.8-23.5,8.3c-6.4,5.4-9.9,15-6.3,22.6"/>
				<g>
					<g>
						<path class="st13" d="M237,125.3c-2.9,1.6-5.3,2-7.9,2.3c-2.6,0.3-5.4,0.5-9.1,0.8c-1.3,0.1-3.3,0.2-7.7,0.8
							c-1.4,0.2-3.8,0.6-5.8,1.1c-2,0.5-3.7,1-3.7,1s-1.4,0.4-3.1,1.1c-1.7,0.7-3.8,1.8-5.2,2.6c-1.3,0.8-2.5,1.7-3.4,2.5
							c-0.5,0.4-0.9,0.8-1.4,1.2c-0.4,0.4-0.8,0.8-1.1,1.2c-1.3,1.5-2.2,2.8-2.7,3.7c-1.1,1.8-1.8,3.5-2.2,5.2
							c-0.4,1.7-0.6,3.3-0.5,4.8c0.1,3.1,1.2,6,3.2,8.5c-0.6-3.2-0.3-5.7,0.4-8.2c0.3-1.2,0.7-2.5,1.3-3.7c0.5-1.3,1.2-2.6,2.1-4
							c0.4-0.7,1.1-1.7,2.2-2.9c0.3-0.3,0.6-0.6,0.9-0.9c0.3-0.3,0.7-0.6,1.1-1c0.8-0.7,1.8-1.4,2.9-2.1c1.2-0.7,2.9-1.7,4.4-2.3
							c1.5-0.6,2.7-1,2.7-1s1.5-0.5,3.3-0.9c1.8-0.4,4.1-0.8,5.4-1c4.1-0.5,6.2-0.6,7.5-0.8c3.8-0.4,6.9-1,9.6-2.2
							C232.8,129.8,235.3,128,237,125.3z"/>
					</g>
				</g>
			</g>
			<g>
				<path class="st12" d="M286.4,155c30-5.8,32.6-65.1-9.1-70.2"/>
				<g>
					<g>
						<path class="st13" d="M286.4,155c3.2,0.1,6.1-0.4,8.9-1.6c2.8-1.2,5.4-3.2,7.9-6.4c0.2-0.3,0.5-0.6,0.8-1
							c0.3-0.4,0.6-0.9,0.9-1.4c0.4-0.5,0.8-1.2,1.2-2c0.4-0.8,0.9-1.6,1.4-2.7c0.7-1.6,1.6-3.7,2.2-6.2c0.2-0.6,0.3-1.2,0.5-1.8
							c0.1-0.6,0.2-1.3,0.4-1.9c0.3-1.3,0.4-2.6,0.5-3.8c0.1-1.2,0.1-2.4,0.2-3.5c0-1.1,0-2,0-2.9c0-0.8-0.1-1.5-0.1-1.9
							c0-0.5-0.1-0.7-0.1-0.7s0-0.9-0.3-2.2c-0.1-0.7-0.2-1.5-0.4-2.4c-0.2-0.9-0.4-1.9-0.7-3c-0.3-1-0.6-2.2-1.1-3.3
							c-0.2-0.5-0.4-1.1-0.7-1.6c-0.2-0.6-0.4-1.1-0.7-1.6c-0.5-1.1-1-2.1-1.6-3.1c-0.6-0.9-1.1-1.9-1.7-2.6
							c-0.5-0.6-0.9-1.2-1.3-1.8c-0.4-0.5-0.9-1-1.3-1.5c-0.4-0.5-0.8-0.9-1.2-1.3c-0.4-0.4-0.8-0.7-1.2-1.1c-0.4-0.3-0.7-0.6-1-0.9
							c-0.3-0.3-0.7-0.5-0.9-0.7c-0.6-0.4-1.1-0.8-1.5-1.1c-0.8-0.6-1.7-1-2.4-1.5c-0.8-0.5-1.6-0.8-2.3-1.1
							c-0.8-0.3-1.5-0.6-2.2-0.8c-0.7-0.2-1.5-0.4-2.2-0.5l-1.1-0.2c-0.4,0-0.7-0.1-1.1-0.1c-0.7-0.1-1.4-0.1-2.2-0.1
							c-1.5-0.1-3,0.1-4.6,0.2c1.5,0.7,2.8,1.2,4.1,1.8c0.6,0.3,1.2,0.6,1.8,0.9c0.3,0.1,0.6,0.3,0.9,0.4l0.9,0.5
							c0.6,0.3,1.2,0.6,1.8,1c0.6,0.3,1.2,0.7,1.8,1.1c0.6,0.4,1.3,0.7,1.9,1.2c0.6,0.5,1.4,0.8,2.1,1.4c1.3,1,4.1,3,7.2,7.3
							c0.5,0.6,1,1.5,1.5,2.3c0.5,0.8,0.9,1.7,1.4,2.7c0.2,0.5,0.5,0.9,0.6,1.4c0.2,0.5,0.4,1,0.6,1.4c0.4,1,0.6,2,0.9,2.9
							c0.3,0.9,0.4,1.8,0.6,2.6c0.2,0.8,0.3,1.6,0.4,2.2c0.2,1.2,0.3,2,0.3,2s0,0.2,0.1,0.6c0,0.4,0.1,1,0.1,1.7c0,0.7,0,1.6,0,2.6
							c-0.1,1-0.1,2-0.2,3.1c-0.2,1.1-0.2,2.2-0.5,3.4c-0.1,0.6-0.2,1.1-0.3,1.7c-0.1,0.6-0.3,1.1-0.4,1.6c-0.6,2.1-1.3,4.1-1.9,5.4
							c-0.4,0.9-0.8,1.7-1.2,2.3c-0.3,0.7-0.7,1.2-1,1.7c-0.3,0.5-0.6,0.9-0.8,1.2c-0.2,0.3-0.5,0.6-0.6,0.8c-2.1,2.7-4,4.6-6,6.3
							C291.4,152.1,289.4,153.6,286.4,155z"/>
					</g>
				</g>
			</g>
		</g>
		<g>
			<path class="st12" d="M212.1,129.2c-2.6-7.1,2.5-15.4,8.5-19.9c6-4.5,13.3-7.5,18.2-13.2c7.9-9.2,6.9-24.7-2.1-32.8
				c26.9-2.5,34.7,10.3,37.5,14.1c1.6,2.2,2.5,4.8,3.2,7.5c3.5,14.4-1.3,30.5-12,40.6"/>
			<g>
				<g>
					<path class="st13" d="M212.1,129.2c-0.3-3.2,0.6-5.6,1.7-7.9c1.2-2.2,2.6-4.5,4.9-7c0.4-0.4,0.9-1,1.7-1.7
						c0.4-0.4,0.9-0.8,1.5-1.2c0.6-0.5,1.3-1,2.2-1.6c1.7-1.2,3.8-2.4,6.2-3.9c2.3-1.5,4.9-3.1,7.4-5.3c2.5-2.1,4.8-5,6.3-8.2
						c1.5-3.2,2.3-6.6,2.5-9.9c0.4-6.7-1.8-12.8-4.4-16.6c-0.5-0.7-0.3-0.4-0.3-0.5l0,0l0,0l0,0c2.1,0,2.3,0,2.3,0s0.6,0,1.6,0
						c1,0.1,2.5,0.2,4.3,0.4c0.9,0.1,1.9,0.3,2.9,0.5c1,0.2,2.1,0.5,3.3,0.8c2.3,0.7,4.7,1.7,7.1,3c2.4,1.4,4.6,3.3,6.5,5.5
						c0.5,0.6,0.9,1.1,1.4,1.8l0.7,1l0.6,0.9c0.7,1.1,1.3,2.4,1.8,3.8c0.5,1.4,0.8,2.8,1.1,4.3c0.2,0.7,0.2,1.4,0.3,2.2
						c0,0.4,0.1,0.7,0.1,1.1c0,0.4,0,0.7,0.1,1.1c0.1,1.4,0.1,2.8,0.1,4.1c-0.1,1.3-0.1,2.6-0.3,3.8c-0.7,5.4-2,8.5-2.6,10.2
						c-1.3,3.3-2.5,5.8-3.7,8.2c-1.2,2.4-2.3,4.8-4.1,7.5c2.8-1.6,5-3.3,7-5.5c2-2.2,3.7-4.8,5.2-8.5c0.7-1.8,2.2-5.3,3-11.4
						c0.2-1.4,0.3-2.8,0.4-4.3c0-1.5,0-3-0.1-4.6c0-0.4-0.1-0.8-0.1-1.2c-0.1-0.4-0.1-0.8-0.2-1.2c-0.1-0.8-0.2-1.6-0.4-2.4
						c-0.3-1.6-0.7-3.3-1.2-4.9c-0.6-1.7-1.3-3.4-2.4-4.9c-0.1-0.2-0.3-0.4-0.4-0.6l-0.3-0.5l-0.7-1c-0.5-0.7-1-1.4-1.6-2
						c-2.2-2.6-4.9-4.9-7.7-6.5c-2.8-1.6-5.6-2.7-8.2-3.5c-1.3-0.3-2.6-0.6-3.7-0.9c-1.2-0.2-2.3-0.4-3.3-0.5
						c-2-0.2-3.6-0.3-4.7-0.4c-1.1,0-1.7,0-1.7,0s-0.1,0-0.8,0c-0.4,0-0.9,0-1.6,0c-1.3,0-3.3,0.2-5.7,0.3c-0.5,0-2.1,0.1-4.7,0.3
						l-0.2,0c0,0,0.1,0.1,0.2,0.2c0.1,0.1,0.3,0.3,0.4,0.4c0.3,0.3,0.5,0.5,0.8,0.8c0.6,0.6,1.2,1.2,1.8,1.9c0.6,0.7,1.3,1.4,2,2.2
						c0.4,0.4,0.7,0.8,1.1,1.2c0,0.1,0.1,0.1,0.1,0.1l0.1,0.1c0,0,0.1,0.2,0.1,0.2l0.1,0.1l0.2,0.3c2.1,3,3.9,8.1,3.6,13.6
						c-0.2,2.7-0.8,5.6-2,8.1c-1.2,2.5-2.9,4.7-5.1,6.6c-2.1,1.9-4.5,3.4-6.8,4.8c-2.3,1.4-4.5,2.7-6.3,4c-0.9,0.6-1.7,1.2-2.4,1.7
						c-0.7,0.6-1.3,1-1.8,1.5c-1,0.9-1.6,1.6-2.1,2.1c-2.7,3.1-4.1,6.1-4.7,9.2c-0.2,1.5-0.3,3.1,0,4.6
						C210.6,126.3,211.2,127.8,212.1,129.2z"/>
				</g>
			</g>
		</g>
	</g>
	<g>
		<path class="st8" d="M199.3,277.4c0,0-41.9-19.9-54.4-66.2c-8.1-41.5,44.3-29.9,44.3-29.9l-0.7-17.8c0,0-74.1-19-61.4,50.8
			c9.9,54.2,82,90.6,82,90.6L199.3,277.4z"/>
		<path class="st8" d="M176.1,150.3c0,0,6.9,167.1,49.1,167.1c20.2,0,35.8,0,58.6,0c51.6,0,51.6-167.1,51.6-167.1H176.1z"/>
	</g>
	<g class="st14">
		<g>
			<g>
				<path class="st12" d="M194.7,171c-0.8,4.5-1.3,7.6-0.9,13c0.1,0.7,0.1,1.8,0.2,3.2c0.1,0.7,0.1,1.4,0.2,2.2
					c0.1,1.4,0.3,2.8,0.4,4.4c0.5,6.2,1.4,13.5,2.3,20.4c0.5,3.5,1,6.9,1.5,10c0.5,3.1,1,6,1.4,8.4c0.5,2.4,0.9,4.4,1.1,5.8
					c0.3,1.4,0.4,2.2,0.4,2.2s0.4,1.9,1.1,4.9c0.2,0.8,0.3,1.6,0.5,2.5c0.2,0.9,0.4,1.9,0.7,2.9c0.5,2,1,4.3,1.6,6.6
					c0.6,2.3,1.3,4.8,2,7.3c0.7,2.5,1.5,5,2.2,7.6c0.8,2.5,1.6,4.9,2.4,7.3c0.8,2.3,1.6,4.5,2.3,6.5c0.7,1.9,1.3,3.5,1.7,4.7
					c0.5,1.2,0.8,2.1,1.1,2.8c0.5,1.3,1,2.4,1.4,3.4c0.5,1,1,1.9,1.5,2.8c1,1.7,2.1,3.3,3.5,5.2c-0.3-2.3-0.6-4.2-1.1-6.1
					c-0.2-1-0.5-2-0.9-3c-0.3-1.1-0.7-2.2-1.2-3.4c-0.2-0.6-0.6-1.5-1-2.7c-0.5-1.2-1-2.8-1.7-4.7c-0.7-2-1.5-4.1-2.2-6.4
					c-0.7-2.3-1.5-4.7-2.3-7.2c-0.7-2.5-1.5-5-2.2-7.5c-0.7-2.5-1.3-4.9-2-7.3c-0.6-2.3-1.1-4.5-1.6-6.5c-0.2-1-0.5-1.9-0.7-2.8
					c-0.2-0.9-0.4-1.7-0.5-2.5c-0.7-3-1.1-4.9-1.1-4.9s-0.2-0.8-0.4-2.2c-0.3-1.4-0.6-3.4-1.1-5.8c-0.4-2.4-0.9-5.3-1.4-8.4
					c-0.5-3.1-1-6.5-1.4-9.9c-0.9-6.9-1.7-14.1-2.2-20.3c-0.1-1.5-0.3-3-0.4-4.3c-0.1-0.8-0.1-1.5-0.2-2.2c-0.1-1.3-0.2-2.4-0.2-3.1
					C196.9,178.4,196.1,175.4,194.7,171z"/>
			</g>
		</g>
	</g>
	<g>
		<path class="st12" d="M295.9,217.4c-1.1-0.7-2.5-0.6-3.6,0l-4.9-2.8l7-3.1c0.9-0.4,1.3-1.5,0.9-2.4c-0.4-0.9-1.5-1.3-2.4-0.9
			l-9.4,4.2l-2.4-1.4l-3.2-1.8l10-4.4c0.7-0.3,1.1-0.9,1.1-1.6c0-0.7-0.4-1.4-1.1-1.6l-10-4.4l5.6-3.2l9.4,4.2c0.9,0.4,2,0,2.4-0.9
			c0.4-0.9,0-2-0.9-2.4l-7-3.1l4.9-2.8c1.1,0.6,2.4,0.7,3.6,0c1.7-1,2.3-3.2,1.3-4.9c-1-1.7-3.2-2.3-4.9-1.3
			c-1.1,0.7-1.8,1.9-1.8,3.1l-4.9,2.8l0.8-7.6c0.1-1-0.6-1.9-1.6-2s-1.9,0.6-2,1.6l-1.1,10.3L276,194l1.2-11.2
			c0.1-0.7-0.3-1.4-0.9-1.8c-0.6-0.4-1.4-0.3-2,0.1l-8.6,6.3l0-3.1l0-2.9l8.4-6c0.8-0.6,1-1.7,0.4-2.5c-0.6-0.8-1.7-1-2.5-0.4
			l-6.2,4.5l0-5.6c1.1-0.6,1.8-1.8,1.8-3.1c0-2-1.6-3.6-3.6-3.6c-2,0-3.6,1.6-3.6,3.6c0,1.3,0.7,2.5,1.8,3.1l0,5.6l-6.2-4.6
			c-0.8-0.6-1.9-0.4-2.5,0.4c-0.6,0.8-0.4,1.9,0.4,2.5l8.3,6.1l0,6.6l-9.3-6.8c-0.6-0.4-1.3-0.5-2-0.1c-0.6,0.4-1,1-0.9,1.8
			l1.2,10.9l-5.1-3l-1.1-10.2c-0.1-1-1-1.7-2-1.6c-1,0.1-1.7,1-1.6,2l0.8,7.6l-4.9-2.8c0-1.2-0.6-2.4-1.8-3.1
			c-1.7-1-3.9-0.4-4.9,1.3c-1,1.7-0.4,3.9,1.3,4.9c1.1,0.7,2.5,0.6,3.6,0l4.9,2.8l-7,3.1c-0.9,0.4-1.3,1.5-0.9,2.4
			c0.4,0.9,1.5,1.3,2.4,0.9l9.4-4.2l2.5,1.4l2.8,1.6l-10.3,4.6c-0.7,0.3-1.1,0.9-1.1,1.6c0,0.7,0.4,1.4,1.1,1.6l10.3,4.6l-5.3,3.1
			l-9.4-4.2c-0.9-0.4-2,0-2.4,0.9c-0.4,0.9,0,2,0.9,2.4l7,3.1l-4.9,2.8c-1.1-0.6-2.4-0.7-3.6,0c-1.7,1-2.3,3.2-1.3,4.9
			c1,1.7,3.2,2.3,4.9,1.3c1.1-0.7,1.8-1.9,1.8-3.1l4.9-2.8l-0.8,7.7c-0.1,1,0.6,1.9,1.6,2c1,0.1,1.9-0.6,2-1.6l1.1-10.3l5.2-3
			l-1.2,10.9c-0.1,0.7,0.3,1.4,0.9,1.8c0.6,0.4,1.4,0.3,2-0.1l9.2-6.7l0,3.5l0,2.9l-8.4,6c-0.8,0.6-1,1.7-0.4,2.5
			c0.6,0.8,1.7,1,2.5,0.4l6.2-4.5l0,5.6c-1.1,0.6-1.8,1.8-1.8,3.1c0,2,1.6,3.6,3.6,3.6c2,0,3.6-1.6,3.6-3.6c0-1.3-0.7-2.5-1.8-3.1
			l0-5.7l6.2,4.6c0.8,0.6,1.9,0.4,2.5-0.4c0.6-0.8,0.4-1.9-0.4-2.5l-8.3-6.1l0-4l0-2.2l8.7,6.4c0.6,0.4,1.3,0.5,2,0.1
			c0.6-0.4,1-1,0.9-1.8l-1.2-11.2l5.8,3.3l1.1,10.3c0.1,1,1,1.7,2,1.6c1-0.1,1.7-1,1.6-2l-0.8-7.6l4.9,2.8c0,1.2,0.6,2.5,1.8,3.1
			c1.7,1,3.9,0.4,4.9-1.3C298.2,220.6,297.6,218.4,295.9,217.4z M274.1,206.9l-6.6-3.8l5.5-3.2l1.1-0.6l8.7,3.8L274.1,206.9z
			 M273.2,186.5l-1.1,9.8l-0.9,0.5l-5.5,3.2l0-8L273.2,186.5z M262.1,192.5l0,0.4l0,7.2l-7.1-4.1l-1-9.4L262.1,192.5z M253.4,199.1
			l6.9,4l-5.6,3.2l-1.3,0.8l-9-4L253.4,199.1z M254,219.7l1-9.4l1.5-0.9l5.5-3.2l0,7.6L254,219.7z M273.2,219.7l-7.6-5.5l0-8
			l6.4,3.7L273.2,219.7z"/>
	</g>
	<g class="st14">
		<g>
			<g>
				<path class="st12" d="M163.8,171c-4.6-0.2-7.9,0-13,2.3c-0.8,0.4-2.3,1-5,2.8c-1.4,1-3.3,2.4-5.1,4.3c-1.8,1.8-3.4,4.1-4.6,6.4
					c-1.2,2.3-2,4.4-2.4,6c-0.3,0.8-0.4,1.5-0.5,1.9c-0.1,0.5-0.2,0.7-0.2,0.7s-0.2,0.8-0.4,2.3c-0.1,0.4-0.1,0.7-0.2,1.1
					c0,0.4-0.1,0.9-0.1,1.3c0,0.5-0.1,1-0.1,1.5c0,0.5,0,1,0,1.6c-0.1,4.4,0.6,9.6,1.4,13.3c0.9,4.1,1.7,6.6,2,7.9
					c1.7,5.2,3.4,7.9,6.1,11.6c-0.7-4.6-1.2-7.6-2.8-12.6c-0.3-1.3-1.1-3.6-1.9-7.6c-0.8-3.5-1.4-8.5-1.4-12.5c0-0.5,0-1,0-1.5
					c0-0.5,0.1-0.9,0.1-1.4c0-0.4,0.1-0.8,0.1-1.2c0.1-0.4,0.1-0.7,0.2-1c0.2-1.3,0.3-2,0.3-2s0-0.2,0.1-0.6c0.1-0.4,0.2-1,0.4-1.7
					c0.4-1.5,1.1-3.4,2.2-5.3c1-2,2.5-4,4.1-5.6c1.6-1.6,3.3-2.9,4.6-3.8c2.4-1.6,3.7-2.2,4.5-2.6C156.9,174.3,159.6,173,163.8,171z
					"/>
			</g>
		</g>
	</g>
	<path class="st12" d="M199.1,150.4l90.1-0.1v-16.5l-9.3-30l-9.3,15.2c-0.7,1.1-1.7,2.1-2.9,2.8l-6,3.3l-11.8-7.6L230.6,130
		c-1,0.6-2,1.1-3,1.5l-2.7,1l-15.8,5.6L199.1,150.4z"/>
	<path class="st12" d="M310.1,132.7c0,0-3.4,10.3-12.1,17.7c7.2,0,26.6-0.1,26.6-0.1L310.1,132.7z"/>
	<circle class="st15" cx="253.5" cy="72.9" r="2.2"/>
	
		<ellipse transform="matrix(0.5101 -0.8601 0.8601 0.5101 61.8788 262.9771)" class="st15" cx="261.8" cy="77.2" rx="2.2" ry="2.2"/>
	<ellipse transform="matrix(0.5101 -0.8601 0.8601 0.5101 54.232 259.0529)" class="st15" cx="254.5" cy="81.9" rx="2.2" ry="2.2"/>
	
		<ellipse transform="matrix(0.5101 -0.8601 0.8601 0.5101 49.0659 298.046)" class="st15" cx="286.2" cy="105.9" rx="2.2" ry="2.2"/>
	
		<ellipse transform="matrix(0.5101 -0.8601 0.8601 0.5101 -25.646 243.9581)" class="st15" cx="201.3" cy="144.5" rx="2.2" ry="2.2"/>
	<ellipse transform="matrix(0.5101 -0.8601 0.8601 0.5101 36.6571 336.3274)" class="st15" cx="313.6" cy="136" rx="2.2" ry="2.2"/>
	
		<ellipse transform="matrix(0.5101 -0.8601 0.8601 0.5101 3.2433 248.4588)" class="st15" cx="219.7" cy="121.4" rx="2.2" ry="2.2"/>
	<ellipse transform="matrix(0.5101 -0.8601 0.8601 0.5101 56.2693 302.9045)" class="st15" cx="294" cy="102.1" rx="2.2" ry="2.2"/>
	<ellipse transform="matrix(0.5101 -0.8601 0.8601 0.5101 57.1362 295.4769)" class="st15" cx="288" cy="97.6" rx="2.2" ry="2.2"/>
	<g>
		<g>
			<g>
				<path class="st12" d="M353.3,63.6c0.7-0.9,1.3-1.8,1.9-2.7c0.5-0.9,1-1.8,1.4-2.8c0.4-1,0.7-2,1-3.2c0.2-1.1,0.3-2.4,0.4-3.8
					c-0.1-1,0.1-2.5-0.4-5.7c-0.5-2.7-1.4-6.3-3.2-9.8c-1.7-3.6-4.2-7.1-6.9-9.9c-2.7-2.8-5.6-5-7.7-6.4c-1.1-0.7-2-1.2-2.7-1.5
					c-0.3-0.2-0.6-0.3-0.7-0.4c-0.2-0.1-0.3-0.1-0.3-0.1s-0.3-0.1-0.9-0.4c-0.6-0.2-1.3-0.7-2.4-1c-1-0.4-2.3-0.9-3.7-1.2
					c-1.4-0.4-3-0.7-4.7-1c-3.4-0.4-7.3-0.4-11,0.3c-3.7,0.6-7,2.1-9.7,3.3c-3.8,2-5.9,3.7-7,4.5c-1.1,0.9-2,1.7-2.8,2.5
					c-0.8,0.8-1.4,1.7-2,2.5c-0.3,0.4-0.6,0.8-0.9,1.2c-0.2,0.4-0.5,0.9-0.7,1.3c-0.5,0.9-1,1.9-1.5,2.9c0.9-0.7,1.8-1.3,2.6-1.9
					c0.4-0.3,0.8-0.6,1.2-0.9c0.4-0.3,0.8-0.6,1.2-0.9c0.8-0.6,1.6-1.2,2.4-1.9c0.9-0.6,1.8-1.3,2.8-2.2c1-0.7,3-2.3,6.4-4.1
					c2.5-1.1,5.5-2.5,8.8-3c3.3-0.6,6.8-0.7,9.9-0.3c1.5,0.3,3,0.5,4.3,0.9c1.3,0.3,2.4,0.7,3.4,1.1c1,0.3,1.7,0.7,2.2,0.9
					c0.5,0.2,0.8,0.4,0.8,0.4s0.1,0,0.2,0.1c0.2,0.1,0.4,0.2,0.7,0.4c0.6,0.3,1.4,0.8,2.4,1.4c2,1.3,4.6,3.3,7.1,5.8
					c2.5,2.6,4.7,5.8,6.3,9c1.6,3.2,2.4,6.5,2.9,8.9c0.4,2.9,0.3,4.3,0.4,5.1c-0.1,1.3-0.1,2.4-0.1,3.4c-0.1,1-0.1,2-0.2,3
					c-0.1,0.9-0.2,1.9-0.3,2.9C353.6,61.5,353.4,62.5,353.3,63.6z"/>
			</g>
		</g>
	</g>
</g>
</svg>
