<?xml version="1.0" encoding="utf-8"?>
<!-- Generator: Adobe Illustrator 21.1.0, SVG Export Plug-In . SVG Version: 6.00 Build 0)  -->
<svg version="1.1" id="Layer_4" xmlns="http://www.w3.org/2000/svg" xmlns:xlink="http://www.w3.org/1999/xlink" x="0px" y="0px"
	 viewBox="0 0 486.2 324" style="enable-background:new 0 0 486.2 324;" xml:space="preserve">
<style type="text/css">
	.st0{fill:#231F20;}
	.st1{fill:#BE1E2D;}
	.st2{fill:#FFFFFF;}
	.st3{opacity:0.3;}
	.st4{opacity:0.5;}
	.st5{fill:#A6A5A6;}
	.st6{opacity:0.19;}
	.st7{opacity:0.2;}
	.st8{fill:none;stroke:#231F20;stroke-width:1.4943;stroke-miterlimit:10;}
	.st9{fill:none;stroke:#231F20;stroke-width:1.8679;stroke-miterlimit:10;}
	.st10{fill:none;stroke:#231F20;stroke-width:1.4009;stroke-miterlimit:10;}
	
		.st11{fill:none;stroke:#F6921E;stroke-width:4.8257;stroke-linecap:round;stroke-linejoin:bevel;stroke-miterlimit:10;stroke-dasharray:0,5.7908,0,5.7908,0,5.7908;}
</style>
<g>
	<path class="st0" d="M135.2,264c-4.3-4.3-4.7-11.5-1.2-17.4l-6-6.1c-1.1-1.1-1.7-2.6-1.6-4.2c0.1-1.6,0.8-3,2.1-4l0.6-0.5
		c-15.4-22.4-23.7-48.6-24-75.9c-0.4-27.3,7.2-53.6,22-76.4l-0.4-0.3c-0.2-0.1-0.3-0.3-0.4-0.4c-2.1-2.1-2.1-5.6,0-7.7l4.8-4.8
		c-3.5-6-3-13.1,1.3-17.4c4.3-4.3,11.5-4.7,17.4-1.2l6.1-6c2.1-2.1,5.5-2.1,7.6-0.1c23.1-16.3,50.3-24.8,78.8-24.9
		c28.4,0,55.6,8.5,78.7,24.7c1-1.1,2.4-1.8,3.9-1.9c1.6-0.1,3.1,0.5,4.2,1.6l6,6.1c6-3.5,13.1-3,17.4,1.3c4.3,4.3,4.7,11.5,1.2,17.4
		l4.8,4.8c1.1,1.1,1.7,2.6,1.6,4.2c-0.1,1.6-0.8,3-2.1,4l-0.4,0.3c30.7,47.3,29.3,109-3.5,154.8l0.6,0.5c0.2,0.1,0.3,0.3,0.4,0.4
		c2.1,2.1,2.1,5.6,0,7.7l-6.1,6c3.5,6,3,13.1-1.3,17.4c-4.3,4.3-11.5,4.7-17.4,1.2l-4.8,4.8c-1,1-2.4,1.6-3.9,1.6
		c-1.5,0-2.8-0.6-3.8-1.6c0,0,0,0,0,0c-0.1-0.1-0.3-0.3-0.4-0.5l-1.2-1.5c-22.4,14.2-48.3,21.6-75,21.4
		c-26.7-0.3-52.5-8.2-74.6-22.9l-0.9,1.1c-1,1.2-2.4,1.9-4,2c-1.6,0.1-3.1-0.5-4.2-1.6l-4.8-4.8C146.6,268.8,139.5,268.3,135.2,264z
		 M170.3,114.8c-14.1,25.7-13.3,57.7,2.1,82.7l0.5-0.4c2.2-1.7,5.3-1.6,7.3,0.4l20.7,20.8c1.9,1.9,2.1,5,0.5,7.1
		c24.7,14.2,54.9,14.6,80,1.1c-1.2-2.1-0.8-4.8,0.9-6.5l20.8-20.7c2-2,5.1-2.1,7.3-0.4l0.5,0.4c16.9-25.6,18-58.6,3-85.3l-0.5,0.4
		c-2.2,1.7-5.3,1.6-7.3-0.4l-20.7-20.8c-2-2-2.1-5.1-0.4-7.3l0.9-1.2c-13.2-8.3-28.4-12.7-44.1-12.6c-15.7,0.1-30.9,4.5-44,13
		l1.3,1.7c1.7,2.2,1.6,5.3-0.4,7.3l-20.8,20.7c-2,2-5.1,2.1-7.3,0.4L170.3,114.8z"/>
	<g>
		<g>
			<path class="st1" d="M338.2,58.5c-52.9-52.9-138.7-52.9-191.6,0s-52.9,138.7,0,191.6s138.7,52.9,191.6,0
				C391.1,197.1,391.1,111.4,338.2,58.5z M183,213.6c-32.8-32.8-32.8-86,0-118.8c32.8-32.8,86-32.8,118.8,0
				c32.8,32.8,32.8,86,0,118.8C269,246.4,215.8,246.4,183,213.6z"/>
		</g>
		<g>
			<g>
				<path class="st2" d="M159.3,269.2l-29.5-29.5c-1.5-1.5-1.4-4,0.3-5.4l44.3-35.5c1.4-1.1,3.5-1,4.8,0.3l20.7,20.7
					c1.3,1.3,1.4,3.4,0.3,4.8l-35.5,44.3C163.3,270.6,160.8,270.8,159.3,269.2z"/>
				<g>
					<path class="st2" d="M157.2,243c-4.7-4.7-12.9-3.9-18.5,1.7c-5.6,5.6-6.3,13.8-1.7,18.5c4.7,4.7,12.9,3.9,18.5-1.7
						C161.1,256,161.9,247.7,157.2,243z M140.7,259.5c-2.7-2.7-2.2-7.4,0.9-10.6c3.2-3.2,7.9-3.6,10.6-0.9c2.7,2.7,2.2,7.4-0.9,10.6
						C148.1,261.8,143.4,262.2,140.7,259.5z"/>
				</g>
			</g>
			<g>
				<path class="st2" d="M356.7,71.8l-29.5-29.5c-1.5-1.5-4-1.4-5.4,0.3l-35.5,44.3c-1.1,1.4-1,3.5,0.3,4.8l20.7,20.7
					c1.3,1.3,3.4,1.4,4.8,0.3l44.3-35.5C358.1,75.8,358.2,73.3,356.7,71.8z"/>
				<g>
					<path class="st2" d="M349,68.1c5.6-5.6,6.3-13.8,1.7-18.5c-4.7-4.7-12.9-3.9-18.5,1.7c-5.6,5.6-6.3,13.8-1.7,18.5
						C335.2,74.4,343.4,73.6,349,68.1z M346.1,63.8c-3.2,3.2-7.9,3.6-10.6,0.9c-2.7-2.7-2.2-7.4,0.9-10.6c3.2-3.2,7.9-3.6,10.6-0.9
						C349.7,55.9,349.2,60.6,346.1,63.8z"/>
				</g>
			</g>
		</g>
		<g>
			<g>
				<path class="st2" d="M127.1,73.1l29.5-29.5c1.5-1.5,4-1.4,5.4,0.3l35.5,44.3c1.1,1.4,1,3.5-0.3,4.8l-20.7,20.7
					c-1.3,1.3-3.4,1.4-4.8,0.3l-44.3-35.5C125.8,77.1,125.6,74.6,127.1,73.1z"/>
				<g>
					<path class="st2" d="M153.3,71c4.7-4.7,3.9-12.9-1.7-18.5c-5.6-5.6-13.8-6.3-18.5-1.7c-4.7,4.7-3.9,12.9,1.7,18.5
						C140.4,74.9,148.7,75.7,153.3,71z M136.9,54.5c2.7-2.7,7.4-2.2,10.6,0.9c3.2,3.2,3.6,7.9,0.9,10.6c-2.7,2.7-7.4,2.2-10.6-0.9
						C134.6,61.9,134.2,57.2,136.9,54.5z"/>
				</g>
			</g>
			<g>
				<path class="st2" d="M324.6,270.5l29.5-29.5c1.5-1.5,1.4-4-0.3-5.4l-44.3-35.5c-1.4-1.1-3.5-1-4.8,0.3L284,221.1
					c-1.3,1.3-1.4,3.4-0.3,4.8l35.5,44.3C320.6,271.9,323.1,272.1,324.6,270.5z"/>
				<g>
					<path class="st2" d="M328.3,262.8c5.6,5.6,13.8,6.3,18.5,1.7c4.7-4.7,3.9-12.9-1.7-18.5c-5.6-5.6-13.8-6.3-18.5-1.7
						C322,249,322.7,257.3,328.3,262.8z M332.6,259.9c-3.2-3.2-3.6-7.9-0.9-10.6c2.7-2.7,7.4-2.2,10.6,0.9c3.2,3.2,3.6,7.9,0.9,10.6
						C340.5,263.5,335.8,263,332.6,259.9z"/>
				</g>
			</g>
		</g>
		<g class="st3">
			<g>
				<g>
					<path class="st2" d="M295.8,59.9c-4.1-4.8-8.5-8.7-13.2-12c-4.7-3.3-9.8-5.9-15.2-7.8c-10.9-3.9-23.8-5.1-39.1-2.1
						c-1.3,0.2-2.8,0.6-4.6,1c-0.9,0.2-1.8,0.5-2.9,0.8c-1,0.3-2.1,0.6-3.3,1c-1.2,0.4-2.5,0.8-3.8,1.3c-1.4,0.5-2.8,1.1-4.4,1.7
						c-3.1,1.3-6.6,2.8-10.5,4.8c-0.6,0.3-1.2,0.6-1.8,0.9c-0.6,0.4-1.3,0.7-2,1.1c-1.4,0.8-2.9,1.7-4.5,2.7c-1.6,0.9-3.1,2-4.7,3.1
						c-1.6,1.1-3.1,2.2-4.6,3.2c-2.9,2.2-5.5,4.2-7.3,5.8c-1.8,1.6-2.9,2.5-2.9,2.5s-0.2,0.2-0.6,0.6c-0.4,0.4-1,0.9-1.8,1.6
						c-0.8,0.7-1.6,1.5-2.6,2.5c-1,0.9-2,2-3.1,3.2c-1.1,1.1-2.2,2.4-3.4,3.6c-1.1,1.3-2.3,2.6-3.3,3.9c-2.2,2.6-4.2,5.2-5.8,7.5
						c-3.4,4.7-6.1,9.1-8.4,13.2c-2.3,4.1-4,7.9-5.5,11.2c-1.4,3.4-2.6,6.4-3.4,9c-0.4,1.3-0.8,2.5-1.1,3.6c-0.3,1.1-0.6,2.1-0.8,3
						c-1.9,7.3-2.8,14-2.9,20.1c-0.2,6.2,0.4,11.9,1.5,17.3c1.1,5.4,2.7,10.6,5,15.6c2.2,5,5.1,10,9.1,14.6
						c-6.1-10.5-9.7-20.1-10.8-30.7c-0.5-5.3-0.5-10.7,0.1-16.5c0.6-5.8,1.8-12,4-18.8c0.3-0.8,0.6-1.8,0.9-2.8
						c0.4-1,0.8-2.1,1.2-3.3c0.9-2.4,2.1-5.1,3.6-8.3c1.6-3.1,3.4-6.6,5.7-10.3c2.3-3.7,5.1-7.7,8.5-12c1.6-2,3.6-4.4,5.8-6.7
						c1.1-1.2,2.2-2.4,3.3-3.5c1.1-1.1,2.2-2.2,3.3-3.2c1.1-1,2.1-2,3.1-2.8c0.9-0.8,1.8-1.6,2.5-2.2c0.7-0.6,1.3-1.1,1.7-1.4
						c0.4-0.3,0.6-0.5,0.6-0.5s1.1-0.8,2.9-2.2c1.8-1.3,4.3-3.1,7-4.9c1.4-0.9,2.9-1.8,4.4-2.7c1.5-0.9,3-1.8,4.5-2.5
						c1.5-0.8,2.9-1.5,4.2-2.2c0.7-0.3,1.3-0.6,1.9-0.9c0.6-0.3,1.2-0.5,1.7-0.8c3.6-1.6,6.9-2.8,9.7-3.8c1.4-0.4,2.8-0.9,4-1.2
						c1.2-0.3,2.4-0.6,3.5-0.9c1.1-0.3,2.1-0.5,3-0.7c0.9-0.2,1.8-0.4,2.5-0.5c1.6-0.3,2.9-0.5,4-0.7c6.7-0.9,12.7-1.2,18.2-1.1
						c5.5,0.1,10.6,0.6,15.6,1.3c5,0.7,9.9,1.7,15,3C284.6,55.9,290,57.6,295.8,59.9z"/>
				</g>
			</g>
		</g>
		<g class="st4">
			<g>
				<g>
					<path class="st5" d="M167.6,60.4c-1.4-3.1-2.5-5.1-4.9-8.1c-0.2-0.3-0.5-0.6-0.9-1.1c-0.2-0.2-0.4-0.5-0.7-0.9
						c-0.1-0.2-0.3-0.3-0.5-0.6c-0.2-0.3-0.7-0.6-1.2-0.8c-0.4-0.1-0.9-0.2-1.4-0.1c-0.5,0.1-0.9,0.3-1.2,0.5
						c-0.7,0.4-1.3,1-1.7,1.5c-0.9,0.9-1.6,1.6-1.6,1.6s-2.3,2.5-3.6,3.8c-2,2.2-3.3,3.6-4,4.3c-2.7,2.9-3.8,4.8-5.5,7.7
						c2.9-1.8,4.7-3.1,7.4-6c0.7-0.7,1.9-2.1,4-4.2c1.3-1.4,3.6-3.8,3.6-3.8s0.7-0.7,1.6-1.6c0.4-0.5,0.8-0.8,1.2-1
						c0.4-0.2,0.5-0.2,0.5-0.2c0,0,0,0,0.1,0.1c0.1,0.1,0.2,0.3,0.4,0.4c0.3,0.3,0.5,0.6,0.7,0.9c0.4,0.5,0.7,0.8,0.9,1.1
						C163.2,56.9,164.9,58.3,167.6,60.4z"/>
				</g>
			</g>
		</g>
		<g class="st4">
			<g>
				<g>
					<path class="st5" d="M334.3,59.3c-1.4-3.1-2.5-5.1-4.9-8.1c-0.2-0.3-0.5-0.6-0.9-1.1c-0.2-0.2-0.4-0.5-0.7-0.9
						c-0.1-0.2-0.3-0.3-0.5-0.6c-0.2-0.3-0.7-0.6-1.2-0.8c-0.4-0.1-0.9-0.2-1.4-0.1c-0.5,0.1-0.9,0.3-1.2,0.5
						c-0.7,0.4-1.3,1-1.7,1.5c-0.9,0.9-1.6,1.6-1.6,1.6s-2.3,2.5-3.6,3.8c-2,2.2-3.3,3.6-4,4.3c-2.7,2.9-3.8,4.8-5.5,7.7
						c2.9-1.8,4.7-3.1,7.4-6c0.7-0.7,1.9-2.1,4-4.2c1.3-1.4,3.6-3.8,3.6-3.8s0.7-0.7,1.6-1.6c0.4-0.5,0.8-0.8,1.2-1
						c0.4-0.2,0.5-0.2,0.5-0.2c0,0,0,0,0.1,0.1c0.1,0.1,0.2,0.3,0.4,0.4c0.3,0.3,0.5,0.6,0.7,0.9c0.4,0.5,0.7,0.8,0.9,1.1
						C329.8,55.8,331.6,57.2,334.3,59.3z"/>
				</g>
			</g>
		</g>
		<g class="st4">
			<g>
				<g>
					<path class="st5" d="M183,211c-0.4-0.8-0.7-1.5-1.1-2.1c-0.4-0.7-0.9-1.3-1.3-1.8c-0.5-0.6-0.9-1.2-1.3-1.8
						c-0.3-0.3-0.4-0.6-0.9-1.1c-0.2-0.2-0.6-0.5-1.1-0.6c-0.4-0.1-0.9-0.1-1.4,0c-0.6,0.1-1.1,0.4-1.7,0.9c-0.6,0.5-1.2,1-2,1.8
						c-0.7,0.7-2.5,2.2-2.5,2.2s-1.5,1.3-2.3,2c-2.3,1.9-3.7,3.1-4.4,3.8c-3,2.5-4.5,4.3-6.3,7.2c2.9-1.7,4.9-2.7,7.9-5.2
						c0.7-0.6,2.2-1.8,4.5-3.8c0.8-0.7,2.3-2,2.3-2s1.8-1.5,2.5-2.2c0.8-0.7,1.5-1.3,1.9-1.7c0.4-0.3,0.6-0.4,0.7-0.4
						c0.1,0,0-0.1,0.1,0c0.1,0.1,0.5,0.5,0.8,0.8c0.6,0.6,1.2,1.1,1.8,1.6c0.6,0.5,1.2,0.8,1.8,1.2C181.7,210,182.3,210.5,183,211z"
						/>
				</g>
			</g>
		</g>
		<g class="st4">
			<g>
				<g>
					<path class="st5" d="M314.5,210.4c-0.4-0.7-0.8-1.4-1.3-2c-0.5-0.6-1-1.2-1.4-1.7c-0.5-0.6-1-1.1-1.4-1.7c-0.3-0.3-0.4-0.6-1-1
						c-0.3-0.2-0.7-0.5-1.1-0.6c-0.5-0.1-1-0.1-1.3,0.1c-0.5,0.2-1.1,0.5-1.6,1c-0.6,0.5-1.1,1.1-1.9,1.9c-0.7,0.7-2.3,2.4-2.3,2.4
						s-1.4,1.4-2.1,2.2c-2.1,2.1-3.4,3.4-4.1,4.1c-2.7,2.8-4.1,4.7-5.6,7.7c2.8-1.9,4.6-3.1,7.4-5.9c0.7-0.7,2-2,4.1-4.1
						c0.8-0.8,2.1-2.2,2.1-2.2s1.6-1.7,2.3-2.4c0.8-0.8,1.4-1.5,1.7-1.8c0.4-0.4,0.6-0.5,0.7-0.5c0.1,0,0-0.1,0.2,0
						c0.1,0.1,0.5,0.5,0.8,0.7c0.6,0.6,1.3,1,1.9,1.4c0.7,0.4,1.3,0.7,1.9,1.1C313.1,209.5,313.8,209.9,314.5,210.4z"/>
				</g>
			</g>
		</g>
		<g>
			<path class="st1" d="M338.2,58.5c-52.9-52.9-138.7-52.9-191.6,0s-52.9,138.7,0,191.6s138.7,52.9,191.6,0
				C391.1,197.1,391.1,111.4,338.2,58.5z M183,213.6c-32.8-32.8-32.8-86,0-118.8c32.8-32.8,86-32.8,118.8,0
				c32.8,32.8,32.8,86,0,118.8C269,246.4,215.8,246.4,183,213.6z"/>
		</g>
		<g>
			<g>
				<path class="st2" d="M159.3,269.2l-29.5-29.5c-1.5-1.5-1.4-4,0.3-5.4l44.3-35.5c1.4-1.1,3.5-1,4.8,0.3l20.7,20.7
					c1.3,1.3,1.4,3.4,0.3,4.8l-35.5,44.3C163.3,270.6,160.8,270.8,159.3,269.2z"/>
				<g>
					<path class="st2" d="M157.2,243c-4.7-4.7-12.9-3.9-18.5,1.7c-5.6,5.6-6.3,13.8-1.7,18.5c4.7,4.7,12.9,3.9,18.5-1.7
						C161.1,256,161.9,247.7,157.2,243z M140.7,259.5c-2.7-2.7-2.2-7.4,0.9-10.6c3.2-3.2,7.9-3.6,10.6-0.9c2.7,2.7,2.2,7.4-0.9,10.6
						C148.1,261.8,143.4,262.2,140.7,259.5z"/>
				</g>
			</g>
			<g>
				<path class="st2" d="M356.7,71.8l-29.5-29.5c-1.5-1.5-4-1.4-5.4,0.3l-35.5,44.3c-1.1,1.4-1,3.5,0.3,4.8l20.7,20.7
					c1.3,1.3,3.4,1.4,4.8,0.3l44.3-35.5C358.1,75.8,358.2,73.3,356.7,71.8z"/>
				<g>
					<path class="st2" d="M349,68.1c5.6-5.6,6.3-13.8,1.7-18.5c-4.7-4.7-12.9-3.9-18.5,1.7c-5.6,5.6-6.3,13.8-1.7,18.5
						C335.2,74.4,343.4,73.6,349,68.1z M346.1,63.8c-3.2,3.2-7.9,3.6-10.6,0.9c-2.7-2.7-2.2-7.4,0.9-10.6c3.2-3.2,7.9-3.6,10.6-0.9
						C349.7,55.9,349.2,60.6,346.1,63.8z"/>
				</g>
			</g>
		</g>
		<g>
			<g>
				<path class="st2" d="M127.1,73.1l29.5-29.5c1.5-1.5,4-1.4,5.4,0.3l35.5,44.3c1.1,1.4,1,3.5-0.3,4.8l-20.7,20.7
					c-1.3,1.3-3.4,1.4-4.8,0.3l-44.3-35.5C125.8,77.1,125.6,74.6,127.1,73.1z"/>
				<g>
					<path class="st2" d="M153.3,71c4.7-4.7,3.9-12.9-1.7-18.5c-5.6-5.6-13.8-6.3-18.5-1.7c-4.7,4.7-3.9,12.9,1.7,18.5
						C140.4,74.9,148.7,75.7,153.3,71z M136.9,54.5c2.7-2.7,7.4-2.2,10.6,0.9c3.2,3.2,3.6,7.9,0.9,10.6c-2.7,2.7-7.4,2.2-10.6-0.9
						C134.6,61.9,134.2,57.2,136.9,54.5z"/>
				</g>
			</g>
			<g>
				<path class="st2" d="M324.6,270.5l29.5-29.5c1.5-1.5,1.4-4-0.3-5.4l-44.3-35.5c-1.4-1.1-3.5-1-4.8,0.3L284,221.1
					c-1.3,1.3-1.4,3.4-0.3,4.8l35.5,44.3C320.6,271.9,323.1,272.1,324.6,270.5z"/>
				<g>
					<path class="st2" d="M328.3,262.8c5.6,5.6,13.8,6.3,18.5,1.7c4.7-4.7,3.9-12.9-1.7-18.5c-5.6-5.6-13.8-6.3-18.5-1.7
						C322,249,322.7,257.3,328.3,262.8z M332.6,259.9c-3.2-3.2-3.6-7.9-0.9-10.6c2.7-2.7,7.4-2.2,10.6,0.9c3.2,3.2,3.6,7.9,0.9,10.6
						C340.5,263.5,335.8,263,332.6,259.9z"/>
				</g>
			</g>
		</g>
		<g class="st6">
			<g>
				<g>
					<path class="st2" d="M295.8,59.9c-1.6-1.8-3.1-3.6-4.8-5.1c-0.8-0.8-1.6-1.6-2.5-2.3c-0.9-0.7-1.7-1.4-2.6-2.1
						c-0.8-0.7-1.7-1.3-2.6-1.9c-0.9-0.6-1.8-1.2-2.7-1.8c-1.9-1.1-3.7-2.2-5.8-3.1c-4-1.9-8.3-3.4-13.2-4.4
						c-4.8-1-10.2-1.7-16.1-1.5c-1,0-2.2,0.1-3.6,0.2c-1.4,0-3,0.2-4.9,0.4c-1,0.1-2,0.2-3.1,0.4c-1.1,0.2-2.3,0.3-3.6,0.6
						c-2.5,0.5-5.4,1.1-8.7,1.9c-4.4,1.1-10.2,3.1-16.2,5.7c-6,2.6-12.1,6-17.5,9.5c-5.4,3.5-10,7.1-13.3,9.8
						c-3.2,2.7-5.2,4.5-5.2,4.5s-0.4,0.4-1.1,1c-0.7,0.7-1.8,1.7-3.1,3c-2.5,2.6-6,6.2-9.6,10.5c-3.6,4.3-7.2,9.4-10.4,14.5
						c-3.2,5.1-5.9,10.3-7.9,14.8c-1.8,4-3.2,7.7-4.3,11.1c-1.1,3.4-1.9,6.5-2.6,9.2c-0.6,2.7-1.1,5.1-1.4,7.2
						c-0.3,2.1-0.5,3.8-0.6,5.2c-1,11.4,0.5,20.5,2.9,28.6c2.5,8.1,6,15.4,12,22.6c-2.3-4.1-4.3-7.9-5.9-11.7
						c-1.6-3.8-2.8-7.6-3.8-11.6c-1-4-1.5-8.2-1.7-12.7c-0.2-4.5-0.1-9.4,0.6-14.8c0.2-1.3,0.4-3,0.8-4.9c0.3-2,0.9-4.2,1.5-6.8
						c0.7-2.6,1.6-5.5,2.8-8.7c1.2-3.2,2.7-6.7,4.5-10.4c2-4.2,4.8-9,8-13.8c3.2-4.8,6.9-9.4,10.5-13.4c3.5-4,7-7.3,9.5-9.6
						c1.3-1.1,2.3-2.1,3-2.7c0.7-0.6,1.1-0.9,1.1-0.9s1.9-1.6,5.1-4.1c3.2-2.4,7.7-5.6,12.9-8.6c5.2-3,11-5.9,16.7-8
						c5.6-2.2,11-3.6,15-4.5c3-0.6,5.6-1.1,7.9-1.4c1.1-0.2,2.2-0.3,3.2-0.3c1-0.1,1.9-0.2,2.8-0.2c1.7-0.1,3.1-0.2,4.4-0.1
						c1.2,0,2.3,0,3.1,0c5.2,0.1,9.9,0.7,14.1,1.3c4.3,0.6,8.2,1.4,12.1,2.3c1.9,0.4,3.8,0.9,5.8,1.4c1,0.2,1.9,0.5,2.9,0.8
						c1,0.3,2,0.5,2.9,0.8c1,0.3,2,0.6,3,0.9c1,0.3,2,0.7,3.1,1C291.4,58.2,293.5,59,295.8,59.9z"/>
				</g>
			</g>
		</g>
		<g class="st7">
			<g>
				<g>
					<path class="st2" d="M339.5,106.1c0.8,2.3,1.7,4.4,2.4,6.5c0.3,1,0.7,2.1,1,3.1c0.3,1,0.6,2,0.9,3c0.3,1,0.6,2,0.8,2.9
						c0.3,1,0.5,1.9,0.8,2.9c0.4,1.9,1,3.8,1.4,5.8c0.9,3.8,1.6,7.8,2.3,12.1c0.6,4.3,1.2,8.9,1.3,14.1c0,0.9,0,1.9,0,3.1
						c0,1.2-0.1,2.7-0.1,4.4c0,0.9-0.1,1.8-0.2,2.8c-0.1,1-0.2,2.1-0.3,3.2c-0.3,2.3-0.7,4.9-1.4,7.9c-0.8,4-2.3,9.4-4.5,15
						c-2.2,5.6-5,11.5-8,16.7c-3,5.2-6.2,9.7-8.6,12.9c-2.4,3.2-4.1,5.1-4.1,5.1s-0.3,0.4-0.9,1.1c-0.6,0.7-1.5,1.7-2.7,3
						c-2.3,2.5-5.6,5.9-9.6,9.5c-4,3.6-8.7,7.2-13.4,10.5c-4.8,3.2-9.6,6-13.8,8c-3.8,1.8-7.2,3.3-10.4,4.5
						c-3.2,1.2-6.1,2.1-8.7,2.8c-2.6,0.7-4.9,1.2-6.8,1.5c-2,0.4-3.6,0.6-4.9,0.8c-5.4,0.7-10.3,0.8-14.8,0.6
						c-4.5-0.2-8.7-0.7-12.7-1.7c-4-1-7.8-2.2-11.6-3.8c-3.8-1.6-7.6-3.6-11.7-5.9c7.2,6.1,14.6,9.5,22.6,12
						c8.1,2.4,17.1,3.9,28.6,2.9c1.4-0.2,3.1-0.3,5.2-0.6c2.1-0.3,4.5-0.7,7.2-1.4c2.7-0.6,5.8-1.4,9.2-2.6
						c3.4-1.1,7.1-2.5,11.1-4.3c4.4-2,9.7-4.7,14.8-7.9c5.1-3.2,10.2-6.8,14.5-10.4c4.4-3.6,8-7,10.5-9.6c1.3-1.3,2.3-2.3,3-3.1
						c0.7-0.7,1-1.1,1-1.1s1.8-1.9,4.5-5.2c2.7-3.3,6.3-7.9,9.8-13.3c3.5-5.4,6.9-11.5,9.5-17.5c2.7-6,4.6-11.8,5.7-16.2
						c0.9-3.3,1.5-6.1,1.9-8.7c0.3-1.3,0.4-2.5,0.6-3.6c0.1-1.1,0.3-2.1,0.4-3.1c0.2-1.9,0.4-3.5,0.4-4.9c0.1-1.4,0.1-2.6,0.2-3.6
						c0.1-6-0.5-11.3-1.5-16.1c-1.1-4.8-2.5-9.2-4.4-13.2c-0.9-2-2-3.9-3.1-5.8c-0.6-0.9-1.2-1.8-1.8-2.7c-0.6-0.9-1.2-1.8-1.9-2.6
						c-0.7-0.8-1.4-1.7-2.1-2.6c-0.7-0.8-1.5-1.6-2.3-2.5C343,109.2,341.2,107.7,339.5,106.1z"/>
				</g>
			</g>
		</g>
		<g class="st4">
			<g>
				<g>
					<path class="st5" d="M167.6,60.4c-1.4-3.1-2.5-5.1-4.9-8.1c-0.2-0.3-0.5-0.6-0.9-1.1c-0.2-0.2-0.4-0.5-0.7-0.9
						c-0.1-0.2-0.3-0.3-0.5-0.6c-0.2-0.3-0.7-0.6-1.2-0.8c-0.4-0.1-0.9-0.2-1.4-0.1c-0.5,0.1-0.9,0.3-1.2,0.5
						c-0.7,0.4-1.3,1-1.7,1.5c-0.9,0.9-1.6,1.6-1.6,1.6s-2.3,2.5-3.6,3.8c-2,2.2-3.3,3.6-4,4.3c-2.7,2.9-3.8,4.8-5.5,7.7
						c2.9-1.8,4.7-3.1,7.4-6c0.7-0.7,1.9-2.1,4-4.2c1.3-1.4,3.6-3.8,3.6-3.8s0.7-0.7,1.6-1.6c0.4-0.5,0.8-0.8,1.2-1
						c0.4-0.2,0.5-0.2,0.5-0.2c0,0,0,0,0.1,0.1c0.1,0.1,0.2,0.3,0.4,0.4c0.3,0.3,0.5,0.6,0.7,0.9c0.4,0.5,0.7,0.8,0.9,1.1
						C163.2,56.9,164.9,58.3,167.6,60.4z"/>
				</g>
			</g>
		</g>
		<g class="st4">
			<g>
				<g>
					<path class="st5" d="M334.3,59.3c-1.4-3.1-2.5-5.1-4.9-8.1c-0.2-0.3-0.5-0.6-0.9-1.1c-0.2-0.2-0.4-0.5-0.7-0.9
						c-0.1-0.2-0.3-0.3-0.5-0.6c-0.2-0.3-0.7-0.6-1.2-0.8c-0.4-0.1-0.9-0.2-1.4-0.1c-0.5,0.1-0.9,0.3-1.2,0.5
						c-0.7,0.4-1.3,1-1.7,1.5c-0.9,0.9-1.6,1.6-1.6,1.6s-2.3,2.5-3.6,3.8c-2,2.2-3.3,3.6-4,4.3c-2.7,2.9-3.8,4.8-5.5,7.7
						c2.9-1.8,4.7-3.1,7.4-6c0.7-0.7,1.9-2.1,4-4.2c1.3-1.4,3.6-3.8,3.6-3.8s0.7-0.7,1.6-1.6c0.4-0.5,0.8-0.8,1.2-1
						c0.4-0.2,0.5-0.2,0.5-0.2c0,0,0,0,0.1,0.1c0.1,0.1,0.2,0.3,0.4,0.4c0.3,0.3,0.5,0.6,0.7,0.9c0.4,0.5,0.7,0.8,0.9,1.1
						C329.8,55.8,331.6,57.2,334.3,59.3z"/>
				</g>
			</g>
		</g>
		<g class="st4">
			<g>
				<g>
					<path class="st5" d="M183,211c-0.4-0.8-0.7-1.5-1.1-2.1c-0.4-0.7-0.9-1.3-1.3-1.8c-0.5-0.6-0.9-1.2-1.3-1.8
						c-0.3-0.3-0.4-0.6-0.9-1.1c-0.2-0.2-0.6-0.5-1.1-0.6c-0.4-0.1-0.9-0.1-1.4,0c-0.6,0.1-1.1,0.4-1.7,0.9c-0.6,0.5-1.2,1-2,1.8
						c-0.7,0.7-2.5,2.2-2.5,2.2s-1.5,1.3-2.3,2c-2.3,1.9-3.7,3.1-4.4,3.8c-3,2.5-4.5,4.3-6.3,7.2c2.9-1.7,4.9-2.7,7.9-5.2
						c0.7-0.6,2.2-1.8,4.5-3.8c0.8-0.7,2.3-2,2.3-2s1.8-1.5,2.5-2.2c0.8-0.7,1.5-1.3,1.9-1.7c0.4-0.3,0.6-0.4,0.7-0.4
						c0.1,0,0-0.1,0.1,0c0.1,0.1,0.5,0.5,0.8,0.8c0.6,0.6,1.2,1.1,1.8,1.6c0.6,0.5,1.2,0.8,1.8,1.2C181.7,210,182.3,210.5,183,211z"
						/>
				</g>
			</g>
		</g>
		<g class="st4">
			<g>
				<g>
					<path class="st5" d="M314.5,210.4c-0.4-0.7-0.8-1.4-1.3-2c-0.5-0.6-1-1.2-1.4-1.7c-0.5-0.6-1-1.1-1.4-1.7c-0.3-0.3-0.4-0.6-1-1
						c-0.3-0.2-0.7-0.5-1.1-0.6c-0.5-0.1-1-0.1-1.3,0.1c-0.5,0.2-1.1,0.5-1.6,1c-0.6,0.5-1.1,1.1-1.9,1.9c-0.7,0.7-2.3,2.4-2.3,2.4
						s-1.4,1.4-2.1,2.2c-2.1,2.1-3.4,3.4-4.1,4.1c-2.7,2.8-4.1,4.7-5.6,7.7c2.8-1.9,4.6-3.1,7.4-5.9c0.7-0.7,2-2,4.1-4.1
						c0.8-0.8,2.1-2.2,2.1-2.2s1.6-1.7,2.3-2.4c0.8-0.8,1.4-1.5,1.7-1.8c0.4-0.4,0.6-0.5,0.7-0.5c0.1,0,0-0.1,0.2,0
						c0.1,0.1,0.5,0.5,0.8,0.7c0.6,0.6,1.3,1,1.9,1.4c0.7,0.4,1.3,0.7,1.9,1.1C313.1,209.5,313.8,209.9,314.5,210.4z"/>
				</g>
			</g>
		</g>
	</g>
	<g>
		<g>
			<line class="st8" x1="321.3" y1="42" x2="286.9" y2="85"/>
			<line class="st9" x1="356.3" y1="78.5" x2="313.9" y2="112.5"/>
		</g>
		<line class="st8" x1="127.6" y1="79.6" x2="170.5" y2="114"/>
		<line class="st9" x1="162.9" y1="43.3" x2="196.2" y2="84.9"/>
	</g>
	<g>
		<g>
			<line class="st10" x1="166.5" y1="267.7" x2="199.8" y2="226.3"/>
			<line class="st9" x1="130" y1="233" x2="172.4" y2="199"/>
		</g>
		<line class="st8" x1="353.3" y1="234.2" x2="311.9" y2="201"/>
		<line class="st9" x1="316.8" y1="268.7" x2="282.9" y2="226.5"/>
	</g>
</g>
<path class="st11" d="M354,68.8c15.8,19.7,25.6,42.3,29.6,65.6c0.6,3.3,1,6.7,1.4,10c0.5,16,11.5,28.3,12.4,44.1
	C399,203.8,384,210,374.4,220c-3,3.6-5.4,7.9-8.4,11.6c-1.7,2.9-3.6,5.8-5.5,8.6c-7.8,11.3-17.3,21.7-28.6,30.8
	c-16.9,13.6-35.9,22.7-55.7,27.5c-3.3,0.8-6.6,1.5-9.9,2.1c-19.9,0.9-37.2,27.7-55.6,10.7c-10.1-9.6-20.3-17.9-32.6-23.5
	c-3-1.5-6-3.1-9-4.8c-14.7-8.6-28.1-20-39.4-34.1c-4.5-5.6-8.5-11.5-12.1-17.5c-1.8-3-3.4-6.1-5.1-9.2
	c-30.1-23.6-25.8-56.5-12.2-88.9c0.6-3.3,1.3-6.6,2.1-9.8c7.4-29.2,24-56.4,49.4-76.8s55.5-30.7,85.6-31.6c3.4-0.1,6.7-0.1,10,0
	c19.4,3.5,37.2-3.7,56.9-4.2c2.6,0.3,6.3,2,8.8,3.6c10.5,11.6,13.1,29.6,26.3,38.7c2.6,2.4,5.1,4.9,7.5,7.5
	C349.4,63.3,351.8,66,354,68.8z"/>
</svg>
