<?xml version="1.0" encoding="utf-8"?>
<!-- Generator: Adobe Illustrator 21.1.0, SVG Export Plug-In . SVG Version: 6.00 Build 0)  -->
<svg version="1.1" id="Layer_4" xmlns="http://www.w3.org/2000/svg" xmlns:xlink="http://www.w3.org/1999/xlink" x="0px" y="0px"
	 viewBox="0 0 1560 560" style="enable-background:new 0 0 1560 560;" xml:space="preserve">
<style type="text/css">
	.st0{fill:url(#SVGID_1_);stroke:#99999A;stroke-width:0.4585;stroke-miterlimit:10;}
	.st1{fill:#BDBBBB;}
	.st2{opacity:0.59;fill:url(#SVGID_2_);}
	.st3{fill:url(#SVGID_3_);}
	.st4{fill:#FFFFFF;stroke:#000000;stroke-width:1.5995;stroke-miterlimit:10;}
	.st5{fill:none;stroke:url(#SVGID_4_);stroke-width:1.2456;stroke-linecap:round;stroke-miterlimit:10;}
	.st6{fill:#808285;}
	.st7{fill:url(#SVGID_5_);}
	.st8{fill:#FFFFFF;}
	.st9{fill:url(#SVGID_6_);}
	.st10{fill:url(#SVGID_7_);}
	.st11{fill:#FF4612;}
	.st12{fill:none;stroke:#FF4612;stroke-width:0.3573;stroke-miterlimit:10;}
	.st13{fill:none;stroke:#FF4612;stroke-width:0.6568;stroke-miterlimit:10;}
	.st14{fill:#99999A;}
	.st15{fill:#F15B2D;}
</style>
<g>
	<g>
		
			<linearGradient id="SVGID_1_" gradientUnits="userSpaceOnUse" x1="997.0508" y1="332.2331" x2="997.0508" y2="307.3641" gradientTransform="matrix(0.9948 0.1022 -0.1022 0.9948 13.6263 -89.2994)">
			<stop  offset="0" style="stop-color:#000000"/>
			<stop  offset="0.3004" style="stop-color:#070708"/>
			<stop  offset="0.4085" style="stop-color:#1E1E1F"/>
			<stop  offset="0.4853" style="stop-color:#383839"/>
			<stop  offset="0.5076" style="stop-color:#414042"/>
			<stop  offset="0.5148" style="stop-color:#3D3C3E"/>
			<stop  offset="0.5642" style="stop-color:#272627"/>
			<stop  offset="0.6209" style="stop-color:#151516"/>
			<stop  offset="0.6898" style="stop-color:#090909"/>
			<stop  offset="0.7824" style="stop-color:#020202"/>
			<stop  offset="1" style="stop-color:#000000"/>
		</linearGradient>
		<path class="st0" d="M918.4,318.5c-1.3,12.6,20.7,21.1,54.2,24.7c33.5,3.6,55.6-1.2,55.8-13.5c0.2-13.8-35.7-2.1-54.1-4.3
			C953,322.9,920.7,307.1,918.4,318.5z"/>
		<g>
			<g>
				<g>
					<path class="st1" d="M920.9,319.4c0,0.9,0.1,1.7,0.7,2.7c0.1,0.1,0.2,0.3,0.4,0.6c0.1,0.1,0.2,0.2,0.3,0.4l0.1,0.1
						c0.1,0.1,0.1,0.1,0.2,0.2l0.4,0.4c0.3,0.3,0.5,0.6,0.8,0.9c0.6,0.6,1.2,1.1,1.9,1.6c2.7,2,6,3.6,9.5,5
						c3.5,1.4,7.1,2.5,10.8,3.5c7.3,1.9,14.3,3.1,19.6,3.8c5.2,0.7,8.6,1,8.6,1s0.8,0.1,2.4,0.2c1.5,0.1,3.7,0.3,6.3,0.5
						c5.3,0.3,12.4,0.6,19.9,0c3.7-0.3,7.6-0.8,11.2-1.8c1.8-0.5,3.6-1.1,5.2-1.9c0.8-0.4,1.6-0.8,2.3-1.3c0.4-0.3,0.7-0.5,1.1-0.8
						l0.5-0.4c0.1-0.1,0.2-0.1,0.2-0.2l0.2-0.1c0.6-0.5,1-1,1.2-1.2c0.7-0.9,0.9-1.6,1.1-2.5c-0.6,0.8-1,1.2-1.7,2.1
						c-0.2,0.2-0.6,0.7-1.1,1.2l-0.1,0.1c-0.1,0.1-0.1,0.1-0.2,0.2l-0.5,0.4c-0.3,0.3-0.7,0.5-1,0.7c-0.7,0.5-1.5,0.9-2.3,1.2
						c-1.6,0.7-3.3,1.3-5.1,1.8c-3.6,1-7.3,1.5-11.1,1.8c-7.4,0.6-14.6,0.3-19.8,0c-2.6-0.1-4.8-0.3-6.3-0.4
						c-1.5-0.1-2.3-0.2-2.3-0.2s-3.4-0.3-8.6-1c-5.2-0.7-12.3-1.9-19.5-3.8c-3.6-0.9-7.3-2.1-10.7-3.4c-3.4-1.4-6.7-3-9.3-4.9
						c-0.7-0.5-1.3-1-1.8-1.5c-0.3-0.3-0.6-0.5-0.8-0.8l-0.4-0.4c-0.1-0.1-0.1-0.1-0.2-0.2l-0.1-0.1c-0.1-0.1-0.2-0.3-0.3-0.4
						c-0.2-0.2-0.3-0.4-0.4-0.5c-0.1-0.2-0.3-0.4-0.4-0.6c-0.1-0.2-0.2-0.4-0.3-0.5C921.3,320.2,921.1,319.8,920.9,319.4z"/>
				</g>
			</g>
		</g>
		<g>
			<path d="M938.1,322c12.7-38.1,1.2-54.4,1.2-54.4s7.5-10.1,41.1-7.6c32.3,2.4,42.4,15.6,42.4,15.6s-17.9,19-11.8,53.6
				C989.2,332,968.9,336.6,938.1,322z"/>
			
				<linearGradient id="SVGID_2_" gradientUnits="userSpaceOnUse" x1="988.8262" y1="285.7999" x2="1029.5684" y2="287.2226" gradientTransform="matrix(0.9948 0.1022 -0.1022 0.9948 13.6263 -89.2994)">
				<stop  offset="6.503405e-02" style="stop-color:#000000"/>
				<stop  offset="0.1708" style="stop-color:#0D0D0E"/>
				<stop  offset="0.2555" style="stop-color:#29292A"/>
				<stop  offset="0.3329" style="stop-color:#454547"/>
				<stop  offset="0.4059" style="stop-color:#5A5B5E"/>
				<stop  offset="0.476" style="stop-color:#737577"/>
				<stop  offset="0.5428" style="stop-color:#8F9194"/>
				<stop  offset="0.5522" style="stop-color:#939598"/>
				<stop  offset="0.587" style="stop-color:#7A7C7E"/>
				<stop  offset="0.6471" style="stop-color:#555658"/>
				<stop  offset="0.7097" style="stop-color:#363738"/>
				<stop  offset="0.7743" style="stop-color:#1E1F1F"/>
				<stop  offset="0.8419" style="stop-color:#0D0D0E"/>
				<stop  offset="0.9143" style="stop-color:#030303"/>
				<stop  offset="1" style="stop-color:#000000"/>
			</linearGradient>
			<path class="st2" d="M972.6,263.4c7.7,22.2,3.3,59.5,2.4,68.3c2.3,0.2,15,0.3,17.3,0.1c4.3-62.6,20.2-59.4,20.2-59.4
				C999,264.8,980.2,262.3,972.6,263.4z"/>
		</g>
	</g>
	
		<linearGradient id="SVGID_3_" gradientUnits="userSpaceOnUse" x1="941.0421" y1="324.171" x2="1010.1833" y2="324.171" gradientTransform="matrix(0.999 4.577231e-02 -4.577231e-02 0.999 14.741 -44.3566)">
		<stop  offset="0" style="stop-color:#FF4612"/>
		<stop  offset="0.5118" style="stop-color:#FF4612"/>
		<stop  offset="0.6509" style="stop-color:#FFFFFF"/>
		<stop  offset="0.7675" style="stop-color:#FF4612"/>
		<stop  offset="1" style="stop-color:#FF4612"/>
	</linearGradient>
	<path class="st3" d="M1008.9,328.6c0.1,5.2-51.5,6.6-69-4.9c1-3.9,1.7-4.8,2.5-9.1c19.4,6.3,47.3,7.7,66.2,3.1
		C1008.4,322.2,1008.9,328.6,1008.9,328.6z"/>
</g>
<g>
	<g>
		<path class="st4" d="M642.9,322.6c-1.9,16-31,18.2-60.3,14.8c-29.3-3.5-57.3-12.5-55.4-28.5c1.4-11.6,19.2-26.5,38.4-30.3
			c7.2-1.4,15.7-5.3,24.5-4.3c7.5,0.8,14.1,6.1,20.3,8.8C628.8,291,644.3,310.6,642.9,322.6z"/>
		<g>
			<path d="M623.9,339.6c14,24.4-25.7,3.3-41.4,1.5c-14.6-1.7-60.3,9-40.7-11.2l1.4-6.9l81.6,3.8L623.9,339.6z"/>
			
				<linearGradient id="SVGID_4_" gradientUnits="userSpaceOnUse" x1="512.9254" y1="383.52" x2="599.6152" y2="383.52" gradientTransform="matrix(0.9931 0.1175 -0.1175 0.9931 75.0153 -107.8944)">
				<stop  offset="0" style="stop-color:#000000"/>
				<stop  offset="0.1022" style="stop-color:#1E1E1F"/>
				<stop  offset="0.2665" style="stop-color:#474749"/>
				<stop  offset="0.4714" style="stop-color:#686A6C"/>
				<stop  offset="0.5007" style="stop-color:#6D6E71"/>
				<stop  offset="0.6344" style="stop-color:#464749"/>
				<stop  offset="0.7864" style="stop-color:#202021"/>
				<stop  offset="0.9076" style="stop-color:#090909"/>
				<stop  offset="0.9819" style="stop-color:#000000"/>
			</linearGradient>
			<path class="st5" d="M622,337.3c11.2,23.7-16.6,2.7-39.4,0c-22.4-2.6-55.3,11.2-38.2-9.2"/>
		</g>
		<path class="st6" d="M623.8,340.7c1.5-12.3-80.6-22.2-82.1-9.7c1.5-13,1-8.7,1.5-13c2.2-18.7,84.3-8.5,82.1,10
			C625,331.4,624.7,333.2,623.8,340.7z"/>
		<linearGradient id="SVGID_5_" gradientUnits="userSpaceOnUse" x1="542.257" y1="325.8333" x2="624.8732" y2="325.8333">
			<stop  offset="0" style="stop-color:#FF4612"/>
			<stop  offset="0.4688" style="stop-color:#FF4612"/>
			<stop  offset="0.5506" style="stop-color:#FFFFFF"/>
			<stop  offset="0.641" style="stop-color:#FF4612"/>
			<stop  offset="1" style="stop-color:#FF4612"/>
		</linearGradient>
		<path class="st7" d="M624.4,336.2c1.6-13.8-80.5-23.7-82.1-9.7c0,0-0.1,0.4,0.5-4.3c1.6-13.2,83.9-5,82.1,10.1
			C624.4,335.9,625.4,327.7,624.4,336.2z"/>
		<g>
			<path class="st8" d="M542.6,310c2.1,3.4,6.8,5.5,11.3,5.1c5-0.5,8.6-3.8,12.2-6.6c3.6-2.8,8.4-5.4,13.3-4.2"/>
			<g>
				<linearGradient id="SVGID_6_" gradientUnits="userSpaceOnUse" x1="542.4375" y1="309.5937" x2="579.4478" y2="309.5937">
					<stop  offset="0" style="stop-color:#FFFFFF"/>
					<stop  offset="5.063897e-02" style="stop-color:#F5F5F5"/>
					<stop  offset="0.1321" style="stop-color:#E1E2E3"/>
					<stop  offset="0.2342" style="stop-color:#C1C3C5"/>
					<stop  offset="0.3517" style="stop-color:#96989B"/>
					<stop  offset="0.4597" style="stop-color:#6D6E71"/>
					<stop  offset="0.5744" style="stop-color:#939598"/>
					<stop  offset="0.7117" style="stop-color:#BFC1C3"/>
					<stop  offset="0.8303" style="stop-color:#E0E1E2"/>
					<stop  offset="0.9243" style="stop-color:#F4F5F5"/>
					<stop  offset="0.9819" style="stop-color:#FFFFFF"/>
				</linearGradient>
				<path class="st9" d="M541.9,310.3c3.1,4.3,8.5,6.3,13.7,5.1c8.8-2,13.5-12.1,23.4-10.5c0.9,0.2,1.3-1.3,0.4-1.4
					c-5.3-0.9-9.6,1.1-13.9,4.2c-6.6,4.9-15.8,10.9-22.4,1.8C542.7,308.8,541.4,309.6,541.9,310.3L541.9,310.3z"/>
			</g>
		</g>
		<g>
			<path class="st8" d="M633.5,323.1c-2.8,2.8-7.9,3.8-12.1,2.3c-4.7-1.7-7.5-5.7-10.3-9.2c-2.9-3.5-6.9-7.2-11.9-7.1"/>
			<g>
				<linearGradient id="SVGID_7_" gradientUnits="userSpaceOnUse" x1="598.9732" y1="317.488" x2="633.6462" y2="317.488">
					<stop  offset="0" style="stop-color:#FFFFFF"/>
					<stop  offset="5.063897e-02" style="stop-color:#F5F5F5"/>
					<stop  offset="0.1321" style="stop-color:#E1E2E3"/>
					<stop  offset="0.2342" style="stop-color:#C1C3C5"/>
					<stop  offset="0.3517" style="stop-color:#96989B"/>
					<stop  offset="0.4597" style="stop-color:#6D6E71"/>
					<stop  offset="0.5744" style="stop-color:#939598"/>
					<stop  offset="0.7117" style="stop-color:#BFC1C3"/>
					<stop  offset="0.8303" style="stop-color:#E0E1E2"/>
					<stop  offset="0.9243" style="stop-color:#F4F5F5"/>
					<stop  offset="0.9819" style="stop-color:#FFFFFF"/>
				</linearGradient>
				<path class="st10" d="M633,322.5c-8.5,7.2-16.1-0.6-21.4-6.9c-3.3-4-7.1-7-12.5-7.4c-1-0.1-1,1.4,0,1.5c9.6,0.6,12,10.6,19.3,15
					c5,3.1,11.2,2.6,15.6-1.1C634.8,323,633.7,321.9,633,322.5L633,322.5z"/>
			</g>
		</g>
	</g>
	
		<ellipse transform="matrix(5.669779e-02 -0.9984 0.9984 5.669779e-02 265.1754 863.3492)" cx="589.5" cy="291.3" rx="11.1" ry="11.4"/>
	<g>
		<g>
			<path class="st11" d="M590.2,284.3c0.3,0.7,0.4,1.3,0.5,2c0,0.7,0.1,1.3-0.1,1.9c-0.2,0.6-0.6,1.2-0.7,1.9c-0.1,0.6-0.1,1.3,0,2
				c0.1,0.7,0.2,1.3,0.2,2c0,0.7,0,1.3-0.1,1.9c-0.2,1.3-0.6,2.6-1.3,3.8l-0.2,0c-0.5-1.4-0.6-2.7-0.6-4c0-0.6,0.2-1.3,0.3-1.9
				c0.1-0.6,0.3-1.3,0.6-1.9c0.2-0.6,0.4-1.3,0.4-1.9c0-0.7-0.3-1.3-0.3-2c-0.1-0.7,0.1-1.3,0.2-1.9c0.2-0.6,0.4-1.3,0.9-1.9
				L590.2,284.3z"/>
		</g>
		<g>
			<line class="st12" x1="587" y1="286.1" x2="592.7" y2="286.7"/>
			<g>
				
					<ellipse transform="matrix(0.9752 -0.2211 0.2211 0.9752 -48.7441 136.973)" class="st11" cx="587.3" cy="286.2" rx="0.6" ry="0.6"/>
				
					<ellipse transform="matrix(0.7325 -0.6808 0.6808 0.7325 -36.6716 479.9895)" class="st11" cx="592.4" cy="286.7" rx="0.6" ry="0.6"/>
			</g>
		</g>
		
			<ellipse transform="matrix(9.479105e-02 -0.9955 0.9955 9.479105e-02 252.0932 844.1176)" class="st13" cx="590.2" cy="283.4" rx="1.1" ry="1.1"/>
		<g>
			<path class="st11" d="M597.6,291.8c-0.7,1.7-1.8,3.3-3.3,4.5c-1.5,1.2-3.5,1.8-5.5,1.6c-2-0.2-3.8-1.2-5.1-2.7
				c-1.3-1.4-2.1-3.2-2.4-5.1c0.7,1.7,1.7,3.3,3,4.5c1.3,1.2,2.9,2.1,4.6,2.2c1.7,0.2,3.5-0.3,4.9-1.2
				C595.3,294.7,596.6,293.3,597.6,291.8z"/>
		</g>
		<polygon class="st11" points="598.1,290.8 595.6,292.8 597,292.8 597.6,293.8 		"/>
		<polygon class="st11" points="580.9,289.2 583,291.6 581.6,291.4 580.9,292.2 		"/>
		<path class="st11" d="M590.1,295c0,0.8,0,0.9,0.4,1.3c0.3,0.3,0.7,0.3,0.9,0.3c0.9,0-1.5,0.9-1.9,0.4
			C589.1,296.6,590.1,294.6,590.1,295z"/>
		<path class="st11" d="M588.1,294.8c-0.2,0.8-0.2,0.9-0.7,1.2c-0.4,0.3-0.7,0.2-0.9,0.2c-0.8-0.2,1.3,1.2,1.8,0.8
			C588.8,296.6,588.2,294.4,588.1,294.8z"/>
	</g>
</g>
<g>
	<path d="M231.9,341.3c-0.2,0.3-0.3,0.5-0.5,0.6c-0.1-0.2-0.3-0.4-0.4-0.6c0.1-0.7,0.1-1.3,0.1-1.7c0.3,0.4,0.6,0.9,0.8,1.3
		L231.9,341.3z"/>
	<path class="st14" d="M231,341.3c0.1,0.2,0.3,0.4,0.4,0.6c0.1-0.2,0.3-0.4,0.5-0.6l0.1-0.3c-0.2-0.5-0.5-0.9-0.8-1.3
		C231.1,340,231.1,340.6,231,341.3z"/>
	<path d="M229.1,314.9c-2.6-6.1-8.9-10.2-16.2-12.5c1.1-0.1,1.8-0.5,1.9-1.1c0.2-1-1.8-2.3-4.5-2.8c-2.7-0.5-5.1-0.1-5.3,0.9
		c-0.1,0.4,0.2,0.9,0.8,1.3c-8.5-1.4-17.6-0.7-24.1,1.6c-11.3,3.4-19,12-22.7,25.6c-0.2,0.6-0.3,1.1-0.4,1.7l-0.1,0.4
		c-0.1,0.5-0.2,1-0.3,1.1l0,0.1l0,0.1c-0.5,2.9,0.6,4.4,1.2,5l1.4,0.2c0.8-2.9,1.6-5.8,2.5-7.4c10.9-8.4,53.1-7.8,66.7,8.8
		c-0.1,1.1-0.4,4-0.5,7.5l1.7,0.2c0.2-1,0.6-1.9,1.1-2.6c0.3-0.3,0.5-0.6,0.8-1.1C234.3,340,234.3,326.3,229.1,314.9z M159.8,334.6
		c-0.2-0.4-0.4-1-0.4-1.9l0-0.3l1.9-1.8C160.7,331.8,160.2,333.2,159.8,334.6z M232,340.9l-0.1-1.3c0,0,0.6-16.3-7.2-25.8
		c-3.8-5.4-9.7-8.1-17.5-10.1c-7.8-2-17.2-2-24.7,1.7c-7.5,3.7-12.8,14.2-12.8,14.2l1.9-7.1c0,0,0,0-4.1,4.7
		c-2.8,3.2-4.7,8.7-5.7,11.8c-0.2,0.1-0.5,0.2-0.7,0.3c-0.5,0.3-1,0.7-1.4,1c3.4-14.3,10.9-23.3,22.3-26.7
		c13.9-5,39.9-1.7,45.7,11.8C232.9,326.6,232.6,338.5,232,340.9z"/>
	<path class="st14" d="M158.6,329c-0.1,0.2-0.1,0.5-0.1,0.7c0.1-0.6,0.3-1.2,0.4-1.7C158.8,328.4,158.7,328.8,158.6,329z"/>
	<path class="st14" d="M182.1,303.7c-11.4,3.4-18.9,12.4-22.3,26.7c0.4-0.3,0.9-0.7,1.4-1c0.2-0.1,0.4-0.2,0.7-0.3
		c1-3.2,2.9-8.6,5.7-11.8c4.1-4.7,4.1-4.7,4.1-4.7l-1.9,7.1c0,0,5.3-10.4,12.8-14.2c7.5-3.7,16.9-3.7,24.7-1.7
		c7.8,2,13.7,4.7,17.5,10.1c7.8,9.5,7.2,25.8,7.2,25.8l0.1,1.3c0.6-2.4,0.9-14.3-4.2-25.4C222,302,196,298.7,182.1,303.7z"/>
	<path class="st14" d="M159.4,332.8c0,0.8,0.2,1.4,0.4,1.9c0.4-1.5,0.9-2.8,1.5-3.9l-1.9,1.8L159.4,332.8z"/>
	<path class="st14" d="M230.6,341.3"/>
	<path class="st14" d="M231.1,339.6c0,0,0.7,1.1,0.8,1.3s-0.6,1-0.6,1l-0.4-0.6L231.1,339.6z"/>
	<g>
		<path class="st15" d="M194.2,314.7c0.2-0.1,0.3-0.1,0.3-0.1c0.1,0,0.1-0.1,0.3-0.1l0.5-0.2c0.1,0,0.3-0.1,0.3-0.1c0,0,0,0,0,0
			c0,0,0.1,0.1,0.1,0c0.1-0.1,0-0.3,0-0.3c0-0.1-0.1-0.3-0.2-0.2c-0.1,0-0.1,0.1-0.1,0.1l0,0l0,0c0,0-0.2,0.1-0.3,0.1l-0.5,0.2
			c-0.2,0.1-0.2,0.1-0.3,0.1s-0.1,0-0.3,0.1c-0.6,0.3-1.5,0.5-1.8,0.6c-1,0.3-1.9,0.6-2.4,0.8c-0.3,0.1-0.5,0.2-0.5,0.2
			c-0.2,0.1-0.1,0.5-0.1,0.6c0.1,0.1,0.3,0.5,0.5,0.4l0,0c0,0,0.2-0.1,0.5-0.2c0.5-0.2,1.4-0.6,2.3-1.1
			C192.7,315.5,193.6,315,194.2,314.7z"/>
		<path class="st15" d="M205.8,309.6c0-0.1-0.2-0.4-0.4-0.4l0,0c0,0-0.2,0.1-0.5,0.2c-0.5,0.2-1.4,0.6-2.3,1.1
			c-0.1,0.1-1,0.6-1.7,0.9c-0.2,0.1-0.2,0.1-0.3,0.1c-0.1,0-0.1,0.1-0.3,0.1l-0.5,0.2c-0.1,0-0.3,0.1-0.3,0.1c0,0,0,0,0,0
			c0,0-0.1-0.1-0.1,0c-0.1,0.1,0,0.3,0,0.3c0,0.1,0.1,0.3,0.2,0.2c0.1,0,0.1-0.1,0.1-0.1c0,0,0,0,0,0c0,0,0.2-0.1,0.3-0.1l0.5-0.2
			c0.2-0.1,0.2-0.1,0.3-0.1c0.1,0,0.1,0,0.3-0.1c0.6-0.3,1.5-0.5,1.8-0.6c1-0.3,1.9-0.6,2.4-0.8l0,0c0.3-0.1,0.5-0.2,0.5-0.2"/>
		<path class="st15" d="M194.2,304.8c-0.1,0.1-0.5,0.3-0.4,0.5c0,0,0.5,1.3,1.3,2.8c0.1,0.1,0.6,1,0.9,1.7c0.1,0.2,0.1,0.2,0.1,0.3
			c0,0.1,0.1,0.1,0.1,0.3l0.1,0.3c0.1,0.3,0.2,0.5,0.2,0.5c0,0,0,0,0,0c0,0-0.1,0.1,0,0.1c0.1,0.1,0.3,0,0.3,0l0,0
			c0.1,0,0.3-0.1,0.2-0.2c0-0.1-0.1-0.1-0.1-0.1c0,0,0,0,0,0c0,0-0.1-0.2-0.2-0.5l-0.1-0.3c-0.1-0.2-0.1-0.2-0.1-0.3
			c0-0.1,0-0.1-0.1-0.3c-0.3-0.7-0.5-1.6-0.6-1.8c-0.4-1.7-1-2.9-1-2.9C194.7,304.7,194.3,304.7,194.2,304.8z"/>
		<path class="st15" d="M199.3,316.5c-0.1-0.2-0.1-0.2-0.1-0.3c0-0.1-0.1-0.1-0.1-0.3l-0.1-0.3c-0.1-0.3-0.2-0.5-0.2-0.5
			c0,0,0,0,0,0c0,0,0.1-0.1,0-0.1c-0.1-0.1-0.3,0-0.3,0l0,0c-0.1,0-0.3,0.1-0.2,0.2c0,0.1,0.1,0.1,0.1,0.1c0,0,0,0,0,0
			c0,0,0.1,0.2,0.2,0.5l0.1,0.3c0.1,0.2,0.1,0.2,0.1,0.3c0,0.1,0,0.1,0.1,0.3c0.3,0.6,0.5,1.5,0.6,1.8c0.4,1.7,1,2.9,1,2.9
			c0.1,0.2,0.5,0.1,0.6,0.1l0,0c0.1-0.1,0.5-0.3,0.4-0.5c0,0-0.5-1.3-1.3-2.8C200,318,199.5,317.2,199.3,316.5z"/>
		<path class="st15" d="M192.3,311.3c0.2,0.1,1.1,0.3,1.8,0.6c0.2,0.1,0.3,0.1,0.3,0.1c0.1,0,0.1,0,0.3,0.1l0.3,0.1
			c0.3,0.1,0.5,0.2,0.5,0.2c0,0,0,0,0,0c0,0,0,0.1,0.1,0.1c0,0,0.1,0,0.1,0c0.1,0,0.1-0.2,0.2-0.2l0,0c0-0.1,0.1-0.2,0-0.3
			c0,0,0-0.1-0.1-0.1c0,0-0.1,0-0.1,0c0,0,0,0-0.1,0l0,0c0,0-0.2-0.1-0.5-0.2l-0.3-0.1c-0.2-0.1-0.2-0.1-0.3-0.1s-0.1-0.1-0.3-0.1
			c-0.6-0.3-1.4-0.7-1.7-0.9c-1.5-0.9-2.8-1.3-2.8-1.3c0,0-0.1,0-0.1,0c-0.1,0.1-0.3,0.3-0.3,0.4l0,0l0,0l0,0l0,0l0,0
			c-0.1,0.1-0.1,0.5,0.1,0.6C189.4,310.3,190.6,310.9,192.3,311.3z"/>
		<path class="st15" d="M205.9,315.9c-0.1,0-1.3-0.6-3-1c-0.2-0.1-1.1-0.3-1.8-0.6c-0.2-0.1-0.3-0.1-0.3-0.1c-0.1,0-0.1,0-0.3-0.1
			l-0.3-0.1c-0.3-0.1-0.5-0.2-0.5-0.2c0,0,0,0,0,0s0-0.1-0.1-0.1c0,0-0.1,0-0.1,0c-0.1,0-0.1,0.2-0.2,0.2c0,0.1-0.1,0.3,0,0.3
			c0,0,0.1,0,0.1,0c0,0,0,0,0.1,0l0,0c0,0,0.2,0.1,0.5,0.2l0.3,0.1c0.2,0.1,0.2,0.1,0.3,0.1c0.1,0,0.1,0.1,0.3,0.1
			c0.6,0.3,1.4,0.7,1.7,0.9c1.5,0.9,2.8,1.3,2.8,1.3c0,0,0.1,0,0.1,0"/>
		<path class="st15" d="M198.8,309.9c0,0.1,0,0.1-0.1,0.3l-0.1,0.3c-0.1,0.3-0.2,0.5-0.2,0.5c0,0,0,0,0,0c0,0,0,0-0.1,0
			c0,0-0.1,0-0.1,0.1c-0.1,0.1,0.1,0.2,0.2,0.2l0,0c0,0,0.2,0.1,0.3,0l0,0c0,0,0.1,0,0.1-0.1c0-0.1,0-0.1,0-0.1l0,0
			c0,0,0.1-0.2,0.2-0.5l0.1-0.3c0.1-0.2,0.1-0.2,0.1-0.3c0-0.1,0.1-0.1,0.1-0.3c0.3-0.6,0.7-1.4,0.9-1.7c0.9-1.5,1.3-2.8,1.3-2.8
			c0.1-0.2-0.2-0.4-0.4-0.5l0,0c-0.1-0.1-0.4-0.1-0.5,0c-0.1,0-0.1,0.1-0.1,0.1c0,0-0.6,1.3-1,2.9c-0.1,0.2-0.3,1.1-0.6,1.8
			C198.8,309.8,198.8,309.8,198.8,309.9z"/>
		<path class="st15" d="M196.5,316.4c0-0.1,0-0.1,0.1-0.3l0.1-0.3c0.1-0.3,0.2-0.5,0.2-0.5c0,0,0,0,0,0c0,0,0,0,0.1,0
			c0,0,0.1,0,0.1-0.1c0.1-0.1-0.1-0.2-0.2-0.2h0l0,0c-0.1,0-0.2-0.1-0.3,0c0,0-0.1,0-0.1,0.1c0,0.1,0,0.1,0,0.1l0,0
			c0,0-0.1,0.2-0.2,0.5l-0.1,0.3c-0.1,0.2-0.1,0.2-0.1,0.3c0,0.1-0.1,0.1-0.1,0.3c-0.3,0.7-0.8,1.5-0.9,1.7
			c-0.9,1.5-1.3,2.8-1.3,2.8c-0.1,0.2,0.2,0.4,0.4,0.5l0,0c0.1,0,0.3,0.1,0.5,0l0,0c0.1,0,0.1-0.1,0.1-0.1c0,0,0.6-1.3,1-2.9
			c0.1-0.2,0.3-1.1,0.6-1.8C196.5,316.5,196.5,316.4,196.5,316.4z"/>
		<path class="st15" d="M194.8,316.2c0.1-0.1,0.1-0.1,0.1-0.1c0,0,0.1-0.1,0.1-0.1l0.1-0.1c0.1-0.1,0.2-0.2,0.3-0.2l0,0
			c0,0,0.1,0,0.1,0c0,0,0,0,0-0.1c0-0.1-0.1-0.1-0.1-0.2l0,0l0,0c0,0-0.1-0.1-0.2-0.1c0,0,0,0,0,0c-0.1,0.1,0,0.1,0,0.1
			c0,0-0.1,0.1-0.2,0.3l-0.1,0.1c-0.1,0.1-0.1,0.1-0.1,0.1c0,0-0.1,0.1-0.1,0.1c-0.3,0.3-0.8,0.7-0.9,0.8c-0.9,0.7-1.5,1.3-1.5,1.3
			c0,0,0,0.1,0,0.1c0,0.1,0.1,0.2,0.1,0.3l0,0l0,0c0.1,0.1,0.3,0.2,0.4,0.1c0,0,0,0,0,0c0,0,0.7-0.6,1.3-1.5
			C194.1,316.9,194.5,316.5,194.8,316.2z"/>
		<path class="st15" d="M200.5,310.1c-0.1,0.1-0.1,0.1-0.1,0.1c0,0-0.1,0.1-0.1,0.1l-0.1,0.1c-0.1,0.1-0.2,0.2-0.3,0.2
			c0,0-0.1,0-0.1,0c0,0,0,0.1,0,0.1c0,0,0.1,0.1,0.1,0.1c0,0,0.1,0.1,0.2,0.1l0,0c0,0,0,0,0,0c0.1-0.1,0-0.1,0-0.1
			c0,0,0.1-0.1,0.2-0.3l0.1-0.1c0.1-0.1,0.1-0.1,0.1-0.1c0,0,0.1-0.1,0.1-0.1c0.3-0.3,0.8-0.7,0.9-0.8c0.9-0.7,1.5-1.3,1.5-1.3
			c0.1-0.1,0-0.3-0.1-0.4l0,0l0,0c-0.1-0.1-0.3-0.2-0.3-0.1c0,0,0,0,0,0c0,0-0.7,0.6-1.3,1.5C201.2,309.2,200.8,309.7,200.5,310.1z"
			/>
		<path class="st15" d="M197.7,316.1L197.7,316.1L197.7,316.1c-0.1,0-0.1,0-0.2,0c-0.1,0-0.1,0.1-0.1,0.1c0,0.1,0,0.1,0.1,0.1
			c0,0,0,0.2,0,0.3v0.2c0,0.1,0,0.1,0,0.2c0,0,0,0.1,0,0.2c0,0.4-0.1,1-0.1,1.2c-0.1,1.1-0.1,2-0.1,2c0,0,0,0.1,0,0.1
			c0.1,0.1,0.2,0.1,0.3,0.1l0,0h0.1c0.1,0,0.1,0,0.2-0.1c0.1-0.1,0.1-0.1,0.1-0.1c0,0,0.1-0.9-0.1-2c0-0.2-0.1-0.8-0.1-1.2
			c0-0.1,0-0.2,0-0.2s0-0.1,0-0.2v-0.2c0-0.2,0-0.3,0-0.3c0,0,0.1,0,0.1-0.1C197.8,316.2,197.8,316.2,197.7,316.1
			C197.8,316.1,197.7,316.1,197.7,316.1z"/>
		<path class="st15" d="M197.6,310.1c0,0,0.1,0,0.1,0l0,0c0.1,0,0.1-0.1,0.1-0.1c0-0.1,0-0.1-0.1-0.1c0,0,0-0.2,0-0.3v-0.2
			c0-0.1,0-0.1,0-0.2c0,0,0-0.1,0-0.2c0-0.4,0.1-1,0.1-1.2c0.1-1.1,0.1-2,0.1-2c0-0.1,0-0.1-0.1-0.2c-0.1,0-0.1-0.1-0.2-0.1h0l0,0
			c-0.1,0-0.1,0-0.2,0.1c-0.1,0.1-0.1,0.1-0.1,0.1c0,0-0.1,0.9,0.1,2c0,0.1,0.1,0.7,0.1,1.2c0,0.1,0,0.2,0,0.2s0,0.1,0,0.2v0.2
			c0,0.2,0,0.3,0,0.3c0,0-0.1,0-0.1,0.1c0,0,0,0,0,0.1C197.5,310.1,197.6,310.1,197.6,310.1z"/>
		<path class="st15" d="M201.6,316.7c-0.1-0.1-0.6-0.5-0.9-0.8c-0.1-0.1-0.1-0.1-0.1-0.1s-0.1-0.1-0.1-0.1l-0.1-0.1
			c-0.1-0.1-0.2-0.2-0.2-0.3c0,0,0-0.1,0-0.1c0,0-0.1,0-0.1,0c-0.1,0-0.1,0.1-0.1,0.1l0,0l0,0c0,0-0.1,0.1-0.1,0.1c0,0,0,0,0,0.1
			c0.1,0.1,0.1,0,0.1,0c0,0,0.1,0.1,0.3,0.2l0.1,0.1c0.1,0.1,0.1,0.1,0.1,0.1c0,0,0.1,0.1,0.1,0.1c0.3,0.3,0.7,0.8,0.8,0.9
			c0.7,0.9,1.3,1.5,1.3,1.5c0,0,0.1,0.1,0.2,0c0.1,0,0.1-0.1,0.1-0.1l0,0l0,0c0.1-0.1,0.2-0.3,0.1-0.4
			C203.1,318,202.5,317.4,201.6,316.7z"/>
		<path class="st15" d="M195.5,310.7c0,0-0.1-0.1-0.3-0.2l-0.1-0.1c-0.1-0.1-0.1-0.1-0.1-0.1c0,0-0.1-0.1-0.1-0.1
			c-0.3-0.3-0.7-0.8-0.8-0.9c-0.7-0.9-1.3-1.5-1.3-1.5c0,0-0.1-0.1-0.2,0c-0.1,0-0.1,0.1-0.2,0.1c-0.1,0.1-0.1,0.2-0.1,0.3
			c0,0,0,0.1,0,0.1c0,0,0.6,0.7,1.5,1.3c0.1,0.1,0.6,0.4,0.9,0.8c0.1,0.1,0.1,0.1,0.1,0.1c0,0,0.1,0.1,0.1,0.1l0.1,0.1
			c0.1,0.1,0.2,0.2,0.2,0.2c0,0,0,0.1,0,0.1c0,0,0.1,0,0.1,0c0.1,0,0.1-0.1,0.1-0.1l0,0l0,0c0,0,0.1-0.1,0.1-0.1c0,0,0-0.1,0-0.1
			C195.6,310.7,195.5,310.7,195.5,310.7z"/>
		<path class="st15" d="M205,312.7c0,0-0.9-0.1-2,0.1c-0.2,0-0.8,0.1-1.2,0.1c-0.1,0-0.2,0-0.2,0c0,0-0.1,0-0.2,0h-0.2
			c-0.2,0-0.3,0-0.3,0c0,0,0-0.1-0.1-0.1h0c-0.1,0-0.1,0.1-0.1,0.2v0c0,0,0,0.1,0,0.1c0,0.1,0.1,0.1,0.1,0.1c0.1,0,0.1,0,0.1-0.1
			c0,0,0.2,0,0.3,0h0.2c0.1,0,0.1,0,0.2,0c0,0,0.1,0,0.2,0c0.4,0,1,0.1,1.2,0.1c1.1,0.1,2,0.1,2,0.1c0,0,0,0,0.1,0
			c0.1,0,0.1-0.2,0.1-0.3l0,0v-0.1c0-0.1,0-0.1-0.1-0.2C205.1,312.7,205,312.7,205,312.7z"/>
		<path class="st15" d="M190.2,313.4C190.2,313.4,190.3,313.4,190.2,313.4c0.1,0,1,0.1,2.1-0.1c0.1,0,0.7-0.1,1.2-0.1
			c0.1,0,0.2,0,0.2,0c0,0,0.1,0,0.2,0h0.2c0.2,0,0.3,0,0.3,0c0,0,0,0.1,0.1,0.1h0c0.1,0,0.1-0.2,0.1-0.2c0,0,0-0.1-0.1-0.2
			c0,0,0,0-0.1,0c-0.1,0-0.1,0-0.1,0.1c0,0-0.2,0-0.3,0h-0.2c-0.1,0-0.1,0-0.2,0c0,0-0.1,0-0.2,0c-0.5,0-1.1-0.1-1.2-0.1
			c-1.1-0.1-2-0.1-2-0.1c0,0,0,0-0.1,0c-0.1,0.1-0.2,0.3-0.2,0.3v0.1l0,0C190.1,313.2,190.1,313.4,190.2,313.4z"/>
	</g>
	<path d="M234.6,376.2c2.3,1.4,7.5,4.9,16.5,3.3c10.6-1.8,7.7-17-0.8-21.2c-6.2-5.3-14.3-12.3-18.3-17.5c0,0-2.8,3.6-1.6,15.6
		C231.3,360.4,234.6,376.2,234.6,376.2z"/>
</g>
</svg>
