<?xml version="1.0" encoding="utf-8"?>
<!-- Generator: Adobe Illustrator 21.1.0, SVG Export Plug-In . SVG Version: 6.00 Build 0)  -->
<svg version="1.1" id="Layer_5" xmlns="http://www.w3.org/2000/svg" xmlns:xlink="http://www.w3.org/1999/xlink" x="0px" y="0px"
	 viewBox="0 0 486.2 324" style="enable-background:new 0 0 486.2 324;" xml:space="preserve">
<style type="text/css">
	.st0{fill:url(#SVGID_1_);stroke:#99999A;stroke-width:1.5541;stroke-miterlimit:10;}
	.st1{fill:#BDBBBB;}
	.st2{opacity:0.59;fill:url(#SVGID_2_);}
	.st3{fill:url(#SVGID_3_);}
</style>
<g>
	<g>
		
			<linearGradient id="SVGID_1_" gradientUnits="userSpaceOnUse" x1="264.6432" y1="301.2371" x2="264.6432" y2="217.6111" gradientTransform="matrix(0.9984 5.655666e-02 -5.655666e-02 0.9984 -7.8028 -14.7697)">
			<stop  offset="0" style="stop-color:#000000"/>
			<stop  offset="0.3004" style="stop-color:#070708"/>
			<stop  offset="0.4085" style="stop-color:#1E1E1F"/>
			<stop  offset="0.4853" style="stop-color:#383839"/>
			<stop  offset="0.5076" style="stop-color:#414042"/>
			<stop  offset="0.5148" style="stop-color:#3D3C3E"/>
			<stop  offset="0.5642" style="stop-color:#272627"/>
			<stop  offset="0.6209" style="stop-color:#151516"/>
			<stop  offset="0.6898" style="stop-color:#090909"/>
			<stop  offset="0.7824" style="stop-color:#020202"/>
			<stop  offset="1" style="stop-color:#000000"/>
		</linearGradient>
		<path class="st0" d="M53.5,227.1c-2.5,42.3,74.2,67.3,189.5,74c115.3,6.7,190.6-12.8,189.4-53.8c-1.3-46.2-122.8-1.4-186.1-5.8
			C172.7,236.4,59.5,188.7,53.5,227.1z"/>
		<g>
			<g>
				<g>
					<path class="st1" d="M62,229.7c0.1,1.6,0.2,3,0.7,4.4c0.4,1.4,1.1,2.8,2.2,4.5c0.3,0.4,0.8,1.1,1.4,1.9c0.3,0.4,0.7,0.8,1,1.2
						l0.3,0.4c0.2,0.3,0.5,0.5,0.7,0.7c0.5,0.5,0.9,1,1.4,1.4c1,0.9,2,1.9,3,2.7c2.1,1.8,4.4,3.4,6.8,5c9.7,6.2,21.3,11.1,33.4,15.2
						c12.1,4.1,24.9,7.3,37.5,9.9c25.2,5.2,49.6,8,67.6,9.6c9,0.8,16.4,1.3,21.6,1.6c5.2,0.3,8.1,0.4,8.1,0.4s2.9,0.1,8.1,0.3
						c5.2,0.2,12.6,0.4,21.6,0.5c9,0.1,19.7,0.1,31.3-0.4c5.8-0.2,11.8-0.6,18-1c6.2-0.5,12.5-1.1,18.9-1.9
						c12.7-1.6,25.8-3.9,38-7.7c6.1-1.9,12.1-4.2,17.6-7c1.4-0.7,2.7-1.5,4-2.2c1.3-0.8,2.6-1.6,3.8-2.5c0.6-0.5,1.2-0.9,1.8-1.3
						c0.6-0.4,1.2-0.9,1.8-1.4c0.6-0.5,1.1-1,1.7-1.4c0.3-0.2,0.5-0.5,0.8-0.8l0.5-0.5c0.5-0.5,0.9-0.9,1.3-1.3
						c0.4-0.4,0.7-0.9,1.1-1.2c0.6-0.8,1.2-1.4,1.5-1.8c0.6-0.8,1-1.6,1.4-2.3c0.4-0.7,0.7-1.4,0.9-2.1c0.6-1.3,0.7-2.8,1-4.4
						c-1,1.3-1.7,2.4-2.6,3.5c-0.4,0.5-0.8,1.1-1.3,1.7c-0.5,0.6-1,1.2-1.5,2c-0.3,0.4-0.8,1-1.4,1.7c-0.3,0.3-0.6,0.8-1,1.1
						c-0.4,0.4-0.8,0.8-1.2,1.2l-0.5,0.5c-0.2,0.2-0.5,0.5-0.8,0.7c-0.5,0.5-1.1,0.9-1.6,1.4c-0.5,0.5-1.1,0.9-1.7,1.3
						c-0.6,0.4-1.2,0.9-1.7,1.3c-1.2,0.8-2.4,1.6-3.7,2.4c-1.3,0.7-2.6,1.5-3.9,2.2c-5.3,2.7-11.2,5-17.2,6.9
						c-12.1,3.8-25,6.1-37.6,7.7c-6.3,0.8-12.6,1.4-18.8,1.9c-6.1,0.4-12.1,0.8-17.9,1c-11.5,0.4-22.1,0.5-31.2,0.4
						c-9-0.1-16.4-0.3-21.6-0.5c-5.2-0.2-8.1-0.3-8.1-0.3s-2.9-0.2-8.1-0.4c-5.2-0.3-12.5-0.8-21.5-1.6c-17.9-1.6-42.2-4.4-67.3-9.6
						c-12.5-2.6-25.2-5.8-37.2-9.8c-12-4-23.4-8.8-32.8-14.9c-2.3-1.5-4.6-3.1-6.6-4.8c-1-0.8-2-1.7-2.9-2.6
						c-0.5-0.4-0.9-0.9-1.3-1.4c-0.2-0.2-0.4-0.4-0.6-0.7l-0.3-0.4c-0.4-0.4-0.7-0.8-1-1.2c-0.6-0.7-1-1.3-1.3-1.7
						c-1.1-1.5-1.8-2.7-2.6-3.8C63.5,232.3,62.8,231.2,62,229.7z"/>
				</g>
			</g>
		</g>
		<g>
			<path d="M121.4,235.6c37.6-129.3-4.2-182.2-4.2-182.2s24.1-35,139.8-32c111.1,2.9,148,45.6,148,45.6s-58.6,66.2-32.1,181
				C298.4,261.2,229.3,279.6,121.4,235.6z"/>
			
				<linearGradient id="SVGID_2_" gradientUnits="userSpaceOnUse" x1="237.0548" y1="145.7858" x2="376.8265" y2="150.6667" gradientTransform="matrix(0.9984 5.655666e-02 -5.655666e-02 0.9984 -7.8028 -14.7697)">
				<stop  offset="6.503405e-02" style="stop-color:#000000"/>
				<stop  offset="0.1708" style="stop-color:#0D0D0E"/>
				<stop  offset="0.2555" style="stop-color:#29292A"/>
				<stop  offset="0.3329" style="stop-color:#454547"/>
				<stop  offset="0.4059" style="stop-color:#5A5B5E"/>
				<stop  offset="0.476" style="stop-color:#737577"/>
				<stop  offset="0.5428" style="stop-color:#8F9194"/>
				<stop  offset="0.5522" style="stop-color:#939598"/>
				<stop  offset="0.587" style="stop-color:#7A7C7E"/>
				<stop  offset="0.6471" style="stop-color:#555658"/>
				<stop  offset="0.7097" style="stop-color:#363738"/>
				<stop  offset="0.7743" style="stop-color:#1E1F1F"/>
				<stop  offset="0.8419" style="stop-color:#0D0D0E"/>
				<stop  offset="0.9143" style="stop-color:#030303"/>
				<stop  offset="1" style="stop-color:#000000"/>
			</linearGradient>
			<path class="st2" d="M230.7,34.5c29.7,73.2,20.3,198.5,18.7,227.8c7.8,0.4,51.6-1.5,59.3-2.4C313.8,49.8,369,58.2,369,58.2
				C321.6,34.8,256.6,29.6,230.7,34.5z"/>
		</g>
	</g>
	<linearGradient id="SVGID_3_" gradientUnits="userSpaceOnUse" x1="127.8743" y1="237.1781" x2="365.235" y2="237.1781">
		<stop  offset="0" style="stop-color:#FF4612"/>
		<stop  offset="0.5118" style="stop-color:#FF4612"/>
		<stop  offset="0.6509" style="stop-color:#FFFFFF"/>
		<stop  offset="0.7675" style="stop-color:#FF4612"/>
		<stop  offset="1" style="stop-color:#FF4612"/>
	</linearGradient>
	<path class="st3" d="M365.2,246.8c1,17.3-175.6,30.1-237.4-5.5c2.7-13.3,5.3-16.4,7.1-30.8c67.4,18,163.3,18.5,227.5,0
		C362.4,225.5,365.2,246.8,365.2,246.8z"/>
</g>
</svg>
