<?xml version="1.0" encoding="utf-8"?>
<!-- Generator: Adobe Illustrator 21.1.0, SVG Export Plug-In . SVG Version: 6.00 Build 0)  -->
<svg version="1.1" id="Layer_1" xmlns="http://www.w3.org/2000/svg" xmlns:xlink="http://www.w3.org/1999/xlink" x="0px" y="0px"
	 viewBox="0 0 486.2 324" style="enable-background:new 0 0 486.2 324;" xml:space="preserve">
<style type="text/css">
	.st0{fill:#FFFFFF;stroke:#000000;stroke-width:5.6389;stroke-miterlimit:10;}
	.st1{fill:none;stroke:url(#SVGID_1_);stroke-width:4.3914;stroke-linecap:round;stroke-miterlimit:10;}
	.st2{fill:#808285;}
	.st3{fill:url(#SVGID_2_);}
	.st4{fill:#FFFFFF;}
	.st5{fill:url(#SVGID_3_);}
	.st6{fill:url(#SVGID_4_);}
	.st7{fill:#FF4612;}
	.st8{fill:none;stroke:#FF4612;stroke-width:1.2598;stroke-miterlimit:10;}
	.st9{fill:none;stroke:#FF4612;stroke-width:2.3155;stroke-miterlimit:10;}
</style>
<g>
	<g>
		<path class="st0" d="M450.3,198.6c-6.7,56.3-109.3,64.3-212.5,52.1C134.6,238.5,35.7,206.6,42.4,150.3
			c4.8-41,67.5-93.3,135.2-106.8c25.3-5,55.2-18.5,86.5-15.2c26.6,2.8,49.8,21.5,71.4,30.9C400.6,87.2,455.3,156.4,450.3,198.6z"/>
		<g>
			<path d="M383.6,258.7c49.4,86-90.7,11.7-146,5.2c-51.5-6.1-212.5,31.8-143.4-39.4l5-24.2l287.6,13.5L383.6,258.7z"/>
			
				<linearGradient id="SVGID_1_" gradientUnits="userSpaceOnUse" x1="54.8035" y1="277.3239" x2="360.4205" y2="277.3239" gradientTransform="matrix(0.9931 0.1175 -0.1175 0.9931 63.4707 -45.6557)">
				<stop  offset="0" style="stop-color:#000000"/>
				<stop  offset="0.1022" style="stop-color:#1E1E1F"/>
				<stop  offset="0.2665" style="stop-color:#474749"/>
				<stop  offset="0.4714" style="stop-color:#686A6C"/>
				<stop  offset="0.5007" style="stop-color:#6D6E71"/>
				<stop  offset="0.6344" style="stop-color:#464749"/>
				<stop  offset="0.7864" style="stop-color:#202021"/>
				<stop  offset="0.9076" style="stop-color:#090909"/>
				<stop  offset="0.9819" style="stop-color:#000000"/>
			</linearGradient>
			<path class="st1" d="M376.6,250.6c39.4,83.4-58.5,9.6-138.8,0.1c-78.9-9.3-195.1,39.6-134.8-32.4"/>
		</g>
		<path class="st2" d="M383.1,262.6c5.1-43.5-284.1-78.3-289.3-34.2c5.4-45.8,3.6-30.7,5.4-45.8c7.8-66,297.1-30,289.4,35.4
			C387.2,229.8,386.2,235.9,383.1,262.6z"/>
		<linearGradient id="SVGID_2_" gradientUnits="userSpaceOnUse" x1="95.6407" y1="210.0938" x2="386.8967" y2="210.0938">
			<stop  offset="0" style="stop-color:#FF4612"/>
			<stop  offset="0.4688" style="stop-color:#FF4612"/>
			<stop  offset="0.5506" style="stop-color:#FFFFFF"/>
			<stop  offset="0.641" style="stop-color:#FF4612"/>
			<stop  offset="1" style="stop-color:#FF4612"/>
		</linearGradient>
		<path class="st3" d="M385.1,246.5c5.7-48.5-283.7-83.4-289.5-34.3c0,0-0.2,1.5,1.8-15.3c5.5-46.5,295.6-17.7,289.3,35.6
			C385.2,245.7,388.7,216.8,385.1,246.5z"/>
		<g>
			<path class="st4" d="M96.8,154.2c7.3,11.9,24.1,19.5,39.7,17.8c17.5-1.8,30.2-13.4,42.9-23.2c12.7-9.8,29.6-18.9,46.8-14.6"/>
			<g>
				<linearGradient id="SVGID_3_" gradientUnits="userSpaceOnUse" x1="96.2769" y1="152.5376" x2="226.7532" y2="152.5376">
					<stop  offset="0" style="stop-color:#FFFFFF"/>
					<stop  offset="5.063897e-02" style="stop-color:#F5F5F5"/>
					<stop  offset="0.1321" style="stop-color:#E1E2E3"/>
					<stop  offset="0.2342" style="stop-color:#C1C3C5"/>
					<stop  offset="0.3517" style="stop-color:#96989B"/>
					<stop  offset="0.4597" style="stop-color:#6D6E71"/>
					<stop  offset="0.5744" style="stop-color:#939598"/>
					<stop  offset="0.7117" style="stop-color:#BFC1C3"/>
					<stop  offset="0.8303" style="stop-color:#E0E1E2"/>
					<stop  offset="0.9243" style="stop-color:#F4F5F5"/>
					<stop  offset="0.9819" style="stop-color:#FFFFFF"/>
				</linearGradient>
				<path class="st5" d="M94.5,155.5c12.8,19.8,39.7,23.6,59.9,13.9c23.4-11.3,41.9-39.2,71.1-32.7c3.3,0.7,4.7-4.4,1.4-5.1
					c-25.6-5.7-44.2,12.5-63.4,26.1c-9.8,6.9-20.8,12.4-33.1,11.8c-12.1-0.5-24.7-6.3-31.4-16.7C97.2,150,92.7,152.6,94.5,155.5
					L94.5,155.5z"/>
			</g>
		</g>
		<g>
			<path class="st4" d="M417.3,200.3c-9.9,9.9-28,13.3-42.8,8.1c-16.6-5.9-26.3-20.1-36.3-32.5s-24.4-25.3-42.1-25.2"/>
			<g>
				<linearGradient id="SVGID_4_" gradientUnits="userSpaceOnUse" x1="295.5884" y1="180.6957" x2="417.8252" y2="180.6957">
					<stop  offset="0" style="stop-color:#FFFFFF"/>
					<stop  offset="5.063897e-02" style="stop-color:#F5F5F5"/>
					<stop  offset="0.1321" style="stop-color:#E1E2E3"/>
					<stop  offset="0.2342" style="stop-color:#C1C3C5"/>
					<stop  offset="0.3517" style="stop-color:#96989B"/>
					<stop  offset="0.4597" style="stop-color:#6D6E71"/>
					<stop  offset="0.5744" style="stop-color:#939598"/>
					<stop  offset="0.7117" style="stop-color:#BFC1C3"/>
					<stop  offset="0.8303" style="stop-color:#E0E1E2"/>
					<stop  offset="0.9243" style="stop-color:#F4F5F5"/>
					<stop  offset="0.9819" style="stop-color:#FFFFFF"/>
				</linearGradient>
				<path class="st6" d="M415.4,198.4c-9.1,8.7-23,11.4-35.1,8.8c-12.5-2.7-22-11.2-30.1-20.6c-14.7-17.3-28.9-38.3-54.2-38.6
					c-3.4,0-3.4,5.2,0,5.3c29,0.4,40.8,30.1,59.7,46.7c17.4,15.4,45.4,19.2,63.3,2.1C421.6,199.8,417.9,196.1,415.4,198.4
					L415.4,198.4z"/>
			</g>
		</g>
	</g>
	
		<ellipse transform="matrix(5.669779e-02 -0.9984 0.9984 5.669779e-02 158.8723 345.158)" cx="262.1" cy="88.5" rx="39.2" ry="40.2"/>
	<g>
		<g>
			<path class="st7" d="M264.7,63.7c1.1,2.4,1.5,4.7,1.7,7c0.1,1.2,0.1,2.3,0.1,3.4c0,1.1-0.2,2.3-0.5,3.4c-0.7,2.2-2,4.4-2.4,6.7
				c-0.5,2.3-0.3,4.6,0.1,6.9c0.2,1.2,0.4,2.3,0.6,3.5c0.1,1.2,0.1,2.3,0.2,3.5c0,2.3,0.1,4.6-0.2,6.9c-0.3,2.3-0.9,4.5-1.6,6.7
				c-0.4,1.1-0.8,2.2-1.3,3.3c-0.5,1.1-1,2.2-1.7,3.3l-0.7-0.1c-0.5-1.2-0.8-2.4-1.1-3.5c-0.3-1.2-0.5-2.3-0.6-3.5
				c-0.3-2.3-0.4-4.6-0.3-6.9c0.1-2.3,0.6-4.5,1.1-6.8c0.2-1.1,0.5-2.3,0.8-3.4c0.3-1.1,0.8-2.2,1.2-3.3c0.9-2.2,1.4-4.5,1.4-6.7
				c0-2.3-0.9-4.7-1.1-7c-0.1-1.2-0.1-2.3,0.1-3.4c0.2-1.1,0.4-2.3,0.7-3.4c0.6-2.2,1.5-4.5,3-6.6L264.7,63.7z"/>
		</g>
		<g>
			<line class="st8" x1="253.4" y1="70.2" x2="273.5" y2="72.1"/>
			<g>
				
					<ellipse transform="matrix(0.9752 -0.2211 0.2211 0.9752 -9.2389 58.0383)" class="st7" cx="254.6" cy="70.3" rx="2.2" ry="2.2"/>
				
					<ellipse transform="matrix(0.7325 -0.6808 0.6808 0.7325 23.8574 204.6429)" class="st7" cx="272.3" cy="72" rx="2.2" ry="2.2"/>
			</g>
		</g>
		
			<ellipse transform="matrix(9.479105e-02 -0.9955 0.9955 9.479105e-02 179.2142 318.3689)" class="st9" cx="264.7" cy="60.6" rx="4" ry="4"/>
		<g>
			<path class="st7" d="M290.9,90.1c-2.3,6.1-6.3,11.8-11.8,15.8c-2.7,2.1-5.8,3.6-9.1,4.7c-3.3,1-6.9,1.4-10.3,1
				c-3.5-0.4-6.9-1.4-9.9-3.1c-3-1.7-5.7-3.8-8-6.4c-4.5-5.1-7.3-11.4-8.4-17.9c2.6,6,5.9,11.6,10.5,15.9c4.5,4.3,10.1,7.3,16.2,7.8
				c3,0.4,6.1,0.1,9-0.7c3-0.7,5.8-2.1,8.4-3.7C282.8,100.3,287.2,95.5,290.9,90.1z"/>
		</g>
		<polygon class="st7" points="292.5,86.7 283.6,93.5 288.5,93.7 290.6,97 		"/>
		<polygon class="st7" points="231.9,80.9 239.4,89.3 234.5,88.6 231.7,91.4 		"/>
		<path class="st7" d="M264.4,101.5c0.1,2.9,0.1,3.2,1.5,4.7c1,1.1,2.4,1.2,3.1,1.2c3,0-5.2,3.3-6.8,1.5
			C260.7,107,264.4,100,264.4,101.5z"/>
		<path class="st7" d="M257.2,100.8c-0.6,2.8-0.7,3.1-2.3,4.3c-1.2,0.9-2.6,0.7-3.3,0.6c-3-0.6,4.5,4.2,6.4,2.7
			C259.8,106.9,257.5,99.3,257.2,100.8z"/>
	</g>
</g>
</svg>
