<?xml version="1.0" encoding="utf-8"?>
<!-- Generator: Adobe Illustrator 21.1.0, SVG Export Plug-In . SVG Version: 6.00 Build 0)  -->
<svg version="1.1" id="Layer_4" xmlns="http://www.w3.org/2000/svg" xmlns:xlink="http://www.w3.org/1999/xlink" x="0px" y="0px"
	 viewBox="0 0 486.2 324" style="enable-background:new 0 0 486.2 324;" xml:space="preserve">
<style type="text/css">
	.st0{fill:#FF4612;}
	.st1{fill:#721011;}
	.st2{fill:#FFFFFF;}
	.st3{fill:none;stroke:#FFFFFF;stroke-width:0.5197;stroke-miterlimit:10;}
</style>
<g>
	<path class="st0" d="M16.1,118c-1.6-17.9,15.3-16.5,15.3-16.5s-12,8.5-5.7,13.6c4.6,3.7,6.5-5.9,10.1-7.5
		c22.1-10.2,51-18.7,84-17.7c73.3,2.3,95.1,35.6,121.5,35.1c42.9-0.8,67.8-38.6,118.4-41.2c13.2-0.7,23.2-0.3,32.7,0.9
		c0,0,15.8,2.3,38,9.5c1.7,0.6,3.5,1.2,5.2,1.7c3.9,1.3,5.5,1.8,8,2.5c1.8,0.6,2.8,0.8,3.5,1c6.9,1.8,14.8,2.4,15.8,0.2
		c0.2-0.5,0.5-1.7,1-2c0.1,0,0.1,0,0.2,0c8.2,3.9-2.8,45.1-15.6,74.9c-9.6,22.4-16.6,38.1-33.5,52.2c-6.5,5.4-21.8,17.9-44.5,21
		c-31,4.3-58-11.7-68.6-17.9c-18.6-11-23-16.2-36.6-21c-11.7-4.2-21.8,1.8-38.9,8.5c-23.1,9.1-26,15.1-48.3,25
		c-18.6,8.2-29.9,12.1-46,11.7c-34.4-0.8-49.5-14-62.6-30.4C40,184.9,21.5,153.2,16.1,118"/>
	<path d="M76.9,124.9c13.6-13.6,34.8-14.6,72.4-9.4c24.6,3.5,44.7,12.9,60.8,25.8c6.1,4.9,11.2,10.4,12.5,17.9
		c0.3,2.2,1.4,10.2-7,22.6c-13.2,19.5-32.8,30.4-50.8,36.6c-22.6,8-35.4,8.8-49.8,5.4c-24.5-5.7-37.2-26.2-39.7-30.4
		c-3.1-5-14.3-23.3-9.4-46C67.1,142.4,69.3,132.5,76.9,124.9z"/>
	<path d="M277.2,170.9c-0.9-9.2,4.5-16.6,9.4-23.3c3-4.2,9.2-11.8,20.2-18.7c10.6-6.7,21.1-10.2,42.1-15c6.7-1.5,18.1-2.9,32.7-3.6
		c11.2-0.6,15.4,0.3,18.7,1.5c12,4.3,18.1,14,19.5,16.4c4.5,7.6,4.9,14.6,5.4,25.8c0.3,6.4,0.7,15-2.3,25.8
		c-1.4,5-2.8,13.9-9.2,22.1c-2.1,2.7-8.1,9.5-18,14.6c-11.6,6-22.8,5.4-31.2,5.4c-19.5,0.1-34-5.9-43.7-10.2
		c-19.9-8.5-29.8-18.7-32.7-21.8C282.7,183.8,277.9,178.6,277.2,170.9z"/>
	<path d="M444.8,121.8l2.3,26.8c0,0,1.5,1.5,8.5-9.8c4.5-7.3,3.4-16.1,3.4-16.1l0.2-4.9L444.8,121.8z"/>
	<polygon points="34.9,130.1 37,153.2 25.6,140.3 25.6,130.1 	"/>
	<path class="st1" d="M429.5,93.8c-0.1-1.5,6.1-3.2,10.1-3.8c3.5-0.6,6-0.5,9-0.3c7.9,0.3,12.7,0.6,14.9,3.8
		c0.2,0.2,1.5,2.3,0.8,4.2c-0.8,2.2-3.7,3-5,3.4c-1.7,0.5-4,0.7-10.7-0.9c-4.5-1-4.6-1.5-11.4-3.5C431.2,94.9,429.5,94.7,429.5,93.8
		z"/>
	<path class="st1" d="M44.5,104.1c-1.7-0.9-7.3-4.4-13.3-2.8c-10.5,2.9-8,10.2-7.2,11.8c0.8,1.6,2.9,2.9,4.5,2.5
		c2.8-0.7,1.8-3.7,5.5-6.4C37,107.2,44.5,104.1,44.5,104.1z"/>
	<g>
		<g>
			<g>
				<path class="st2" d="M99.1,125.6c0.2,0,0.2-0.1,0.6,0c1,0.2,2.2,1.2,2.4,2.2c0.1,0.6,0,1.2-0.2,1.7c-0.2,0.6-0.7,1.3-1.2,2.1
					c0,0-0.2,0.2-0.2,0.3c-1.2,0.2-2.3,0.8-3.5,1.7c-1.2,0.9-2.3,2-3.4,3.2c-1.5,1.8-2.9,3.7-3.7,5.8c-0.7,1.6-0.9,3-1.2,5
					c0,0-0.5,2.3-0.8,5.3c-0.3,3.1-0.3,7,0.2,10.3c0.5,2.8,1.2,4.5,1.4,5.5c0.2,1,0.2,1.5-0.2,1.4c-0.8-0.1-3.1-2.5-4.6-6.1
					c0,0.2-0.5-0.8-0.9-2.4c-0.5-1.6-1-3.9-1.3-6.4c-0.6-4.7,0-9.5,0-9.5l0.2-1.4c0.1-0.5,0.2-1,0.3-1.5c0.2-0.9,0.6-2,0.9-2.9
					c1.2-2.9,2.9-5.3,4.7-7.5c1.3-1.5,2.7-2.9,4.4-4.2C94.7,127.2,96.6,126.1,99.1,125.6z"/>
			</g>
		</g>
	</g>
	<g>
		<path class="st3" d="M95,184.4"/>
	</g>
	<g>
		<path class="st3" d="M96.5,184.9"/>
	</g>
	<g>
		<g>
			<g>
				<path class="st2" d="M109.2,125.5c0,0,0.1,0,0.1,0.1c0.2,0.3,0.3,0.8,0.2,1.5c0,0.3-0.1,0.7-0.2,1v0.3l0,0l0,0l0,0
					c0,0,0,0,0,0.1c0,0.1,0.1,0.2,0.2,0.3c0.1,0.1,0,0-0.2,0c-0.1,0-0.2,0-0.2,0l0,0l0,0l0,0l0,0l0,0c-0.1,0,0.1,0,0.1,0l0,0l0,0
					l0,0c0.1-0.1,0.1-0.3,0.1-0.3s0,0.2,0.1,0.3c0,0,0,0.1,0.1,0.1l-0.1-0.1l0,0l0,0h-0.1c0,0-0.1,0-0.2,0c0,0-0.1,0,0,0
					c0,0,0.1,0,0.1-0.1c0.1-0.1,0.2-0.2,0.3-0.3c0.2-0.5,0.1-0.9,0.3-1.3c0.2-0.3,0.8-0.5,1.4-0.2c0-0.1,0.7,0.3,1,1
					c0.2,0.3,0.3,0.8,0.3,1.2s0,0.6,0,0.6s0,0.2-0.2,0.6c-0.1,0.3-0.5,0.9-1,1.3c-0.6,0.3-1.3,0.6-2,0.6c-0.7,0-1.5-0.2-2.3-0.9
					c-0.3-0.3-0.7-0.7-0.8-1.3c-0.1-0.5-0.2-0.9-0.1-1.4c0.1-0.8,0.5-1.5,0.9-2c0.5-0.5,0.9-0.8,1.4-0.9
					C108.9,125.5,109.2,125.5,109.2,125.5z"/>
			</g>
		</g>
	</g>
	<g>
		<g>
			<g>
				<path class="st2" d="M297.6,152.2c0.1-0.1,0.1-0.1,0.3-0.1c0.6-0.1,1.4,0,1.8,0.5c0.6,0.5,0.8,1.3,0.5,2.5c0,0-0.1,0.2-0.1,0.3
					c-1.7,1.3-3.2,2.8-4.4,4.4c-1.2,1.6-2.1,3.5-2.4,5.3c-0.2,1-0.3,2.2-0.2,3.1c0,0,0,1.3,0.5,3.1c0.6,1.7,1.7,3.8,3.4,5.1
					c1.3,1,2.4,1.5,3.1,1.7s0.8,0.5,0.7,0.7c-0.2,0.1-0.8,0.3-1.7,0.3c-0.9,0-2.1-0.3-3.4-0.9c0.1,0.1-0.6-0.2-1.5-0.9
					s-2.1-1.8-2.9-3.2c-0.9-1.4-1.5-2.9-1.8-4.2c-0.1-0.6-0.2-1.2-0.3-1.5c0-0.3-0.1-0.6-0.1-0.6c0-1.3,0.1-2.5,0.3-3.8
					c0.6-2.5,1.7-4.9,3.1-6.8C293.9,155.4,295.6,153.7,297.6,152.2z"/>
			</g>
		</g>
	</g>
	<g>
		<g>
			<g>
				<path class="st2" d="M308.9,148.7c0,0.1-0.1,0.1-0.2,0.1c-0.5,0.2-1.2,0.3-1.8,0.1c-0.7-0.2-1.3-0.8-1.4-2.3c0,0,0-0.2,0-0.3
					c1.4-2,3-3.8,4.9-5.5c0.7-0.6,1.4-1.2,2.1-1.7c1-0.8,2.2-1.6,3.4-2.3c0,0,0.3-0.2,1-0.5c0.6-0.3,1.5-0.7,2.5-1.2
					c2.1-0.8,4.9-1.5,7.2-1.6c2-0.2,3.2-0.1,3.9,0c0.7,0.1,0.9,0.3,0.7,0.6c-0.3,0.5-2.2,0.9-4.3,1.7c0.2,0-2.3,0.7-4.7,2
					c-0.6,0.3-1.2,0.6-1.7,0.9s-1,0.6-1.5,0.9c-0.8,0.6-1.4,0.9-1.4,0.9c-0.9,0.6-1.7,1.2-2.5,1.7c-0.6,0.5-1.3,1-1.8,1.6
					C311.4,145.4,310,147,308.9,148.7z"/>
			</g>
		</g>
	</g>
</g>
</svg>
