<?xml version="1.0" encoding="utf-8"?>
<!-- Generator: Adobe Illustrator 21.1.0, SVG Export Plug-In . SVG Version: 6.00 Build 0)  -->
<svg version="1.1" id="Layer_4" xmlns="http://www.w3.org/2000/svg" xmlns:xlink="http://www.w3.org/1999/xlink" x="0px" y="0px"
	 viewBox="0 0 486.2 324" style="enable-background:new 0 0 486.2 324;" xml:space="preserve">
<style type="text/css">
	.st0{opacity:0.6;}
	.st1{fill:#B6A395;}
	.st2{fill:#CCBDAB;}
	.st3{fill:#A29184;}
	.st4{fill:#E4DDDA;}
	.st5{fill:#BFB6B1;}
	.st6{fill:#E4DCD8;}
	.st7{fill:#A48F77;}
	.st8{opacity:0.5;fill:#FFEBD6;}
	.st9{opacity:0.8;fill:url(#SVGID_1_);}
	.st10{fill:#191615;}
	.st11{opacity:0.9;fill:url(#SVGID_2_);}
	.st12{fill:#444445;}
	.st13{fill:#484645;}
	.st14{opacity:0.7;fill:#323438;}
	.st15{fill:url(#SVGID_3_);}
	.st16{fill:#363132;}
	.st17{fill:#2D2826;}
	.st18{fill:#211B19;}
	.st19{opacity:5.000000e-02;fill:#FFFFFF;}
	.st20{fill:#8E6444;}
	.st21{fill:#1B1614;}
	.st22{opacity:0.8;fill:url(#SVGID_4_);}
	.st23{opacity:0.9;fill:url(#SVGID_5_);}
	.st24{opacity:0.2;fill:#323438;}
	.st25{fill:url(#SVGID_6_);}
	.st26{fill:#FFFFFF;}
</style>
<g>
	<g>
		<image style="overflow:visible;" width="80" height="13" xlink:href="B13E44DD6E9B13E1.png"  transform="matrix(1 0 0 1 205 97)">
		</image>
		<g>
			<g class="st0">
				<path class="st1" d="M195.2,197.7c-0.6-1.1-1.8-3.4,1.6-9.7c8.1-13.3,16.5-21.3,19-22.8c1.2-0.7,5.9-4.7,11.4-0.6
					c0.7,0.5,4.9,4,3,9c-3.4,8.4-20.2,21.2-21.4,22.1c-1.4,1-3.9,2.6-5.5,3.3c-1.3,0.6-4,1.9-5.3,1.5
					C197.2,200.3,195.7,198.7,195.2,197.7z"/>
				<path class="st2" d="M195,197.5c-0.6-1.1-1.8-3.4,1.6-9.7c8.1-13.3,16.5-21.3,19-22.8c1.2-0.7,5.9-4.7,11.4-0.6
					c0.7,0.5,4.9,4,3,9c-3.4,8.4-20.2,21.2-21.4,22.1c-1.4,1-3.9,2.6-5.5,3.3c-1.3,0.6-4,1.9-5.3,1.5
					C196.9,200.1,195.4,198.4,195,197.5z"/>
				<path class="st3" d="M198.8,198.5c-0.5-0.2-1.4-1.3-1.8-1.9c-0.4-0.7-1.3-2.5,1.5-7.8c8.1-13.4,16.3-20.9,18.3-22.1
					c0.1-0.1,0.3-0.2,0.5-0.3c1-0.6,2.7-1.8,4.9-1.8c1.3,0,2.6,0.5,3.9,1.4c0.6,0.5,3.8,3.1,2.4,6.8c-3,7.4-18.4,19.6-20.7,21.2
					c-1.5,1.1-3.9,2.6-5.2,3.2l-0.3,0.1C201.7,197.6,199.7,198.5,198.8,198.5L198.8,198.5z"/>
				<path class="st4" d="M198.4,198.5c-0.5-0.2-1.4-1.3-1.8-1.9c-0.4-0.7-1.3-2.5,1.5-7.8c8.1-13.4,16.3-20.9,18.3-22.1
					c0.1-0.1,0.3-0.2,0.5-0.3c1-0.6,2.7-1.8,4.9-1.8c1.3,0,2.6,0.5,3.9,1.4c0.6,0.5,3.8,3.1,2.4,6.8c-3,7.4-18.4,19.6-20.7,21.2
					c-1.5,1.1-3.9,2.6-5.2,3.2l-0.3,0.1C201.3,197.6,199.3,198.5,198.4,198.5L198.4,198.5z"/>
				<path class="st5" d="M197.3,196.8c0.1-0.6,0.4-1.8,1.7-4.2c8-12.6,16.1-19.7,17.6-20.6c0.2-0.1,0.4-0.2,0.7-0.4
					c0.7-0.5,1.9-1.2,3.1-1.2c0.5,0,1.1,0.1,2.1,0.9c0.6,0.5,1.9,1.7,1.3,3.3c-2.6,6-16.6,17.1-20,19.4c-1.6,1.1-3.7,2.4-4.7,2.8
					l-0.3,0.1c-0.4,0.2-0.8,0.3-1.1,0.4l-0.5,0.2L197.3,196.8z"/>
				<path class="st6" d="M197.7,196.9c0.1-0.5,0.4-1.8,1.6-4.1c8-12.6,15.9-19.6,17.5-20.5c0.2-0.1,0.4-0.2,0.7-0.4
					c0.7-0.5,1.9-1.2,3-1.2c0.4,0,1,0.1,1.9,0.8c0.5,0.4,1.7,1.5,1.2,2.9c-2.6,6-16.5,16.9-19.8,19.2c-1.6,1.1-3.7,2.3-4.6,2.7
					l-0.3,0.1C198.3,196.6,198,196.8,197.7,196.9z"/>
				<path class="st7" d="M197.6,199.3c-0.5-0.2-0.6-2.1-0.9-2.7c-0.4-0.7-1.3-2.5,1.5-7.8c8.1-13.4,16.3-20.9,18.3-22.1
					c0.1-0.1,0.3-0.2,0.5-0.3c1-0.6,2.7-1.8,4.9-1.8c1.3,0,2.6,0.5,3.9,1.4c0.6,0.5,3.8,3.1,2.4,6.8c-0.2,0.5,1.7-1.8,0.9-5.2
					c-0.4-1.9-1.8-2.9-2.2-3.2c-5.5-4.1-10.2-0.1-11.4,0.6c-2.5,1.5-10.9,9.5-19,22.8c-3.3,6.3-2.2,8.5-1.6,9.7
					c0.5,0.9,1.8,2.4,2.8,2.8L197.6,199.3z"/>
				<path class="st8" d="M217.9,186c1.5-1.4,6.7-6,10-11.1c0.8-1.2,1.2-2.9,1.5-2.9c0.6,0,0.4,1.1,0.1,2c-0.4,0.8-1.3,2.2-2,3.2
					c-2.8,4.1-9.6,10.5-10.3,10.6C216.6,187.9,217.2,186.7,217.9,186z"/>
			</g>
			<g>
				
					<image style="overflow:visible;" width="18" height="26" xlink:href="B13E44DD6E9B13E3.png"  transform="matrix(1 0 0 1 208 161)">
				</image>
			</g>
		</g>
		<g>
			<g class="st0">
				<path class="st1" d="M293.3,198.1c0.6-1.1,1.8-3.4-1.5-9.7c-8-13.4-16.3-21.4-18.8-23c-1.2-0.7-5.9-4.8-11.4-0.7
					c-0.7,0.5-4.9,4-3.1,9c3.3,8.4,20,21.4,21.2,22.2c1.4,1,3.9,2.7,5.4,3.4c1.2,0.6,3.9,1.9,5.3,1.6
					C291.3,200.7,292.8,199,293.3,198.1z"/>
				<path class="st2" d="M293.6,197.9c0.6-1.1,1.8-3.4-1.5-9.7c-8-13.4-16.3-21.4-18.8-23c-1.2-0.7-5.9-4.8-11.4-0.7
					c-0.7,0.5-4.9,4-3.1,9c3.3,8.4,20,21.4,21.2,22.2c1.4,1,3.9,2.7,5.4,3.4c1.2,0.6,3.9,1.9,5.3,1.6
					C291.6,200.4,293.1,198.8,293.6,197.9z"/>
				<path class="st3" d="M289.7,198.8c0.5-0.2,1.5-1.3,1.8-1.9c0.4-0.7,1.3-2.5-1.5-7.8c-8-13.4-16.1-21-18.1-22.2
					c-0.1-0.1-0.3-0.2-0.5-0.3c-1-0.6-2.7-1.9-4.8-1.9c-1.3,0-2.6,0.5-3.9,1.4c-0.6,0.5-3.8,3-2.4,6.8c2.9,7.4,18.3,19.7,20.5,21.3
					c1.5,1.1,3.8,2.6,5.1,3.2l0.3,0.1C286.9,197.9,288.8,198.8,289.7,198.8L289.7,198.8z"/>
				<path class="st4" d="M290.1,198.9c0.5-0.2,1.5-1.3,1.8-1.9c0.4-0.7,1.3-2.5-1.5-7.8c-8-13.4-16.1-21-18.1-22.2
					c-0.1-0.1-0.3-0.2-0.5-0.3c-1-0.6-2.7-1.9-4.9-1.9c-1.3,0-2.6,0.5-3.9,1.4c-0.6,0.5-3.8,3-2.4,6.8c2.9,7.4,18.3,19.7,20.5,21.3
					c1.5,1.1,3.8,2.6,5.1,3.2l0.3,0.1C287.2,197.9,289.2,198.8,290.1,198.9L290.1,198.9z"/>
				<path class="st5" d="M291.2,197.2c-0.1-0.6-0.4-1.8-1.6-4.2c-7.9-12.7-15.9-19.9-17.5-20.8c-0.2-0.1-0.4-0.2-0.7-0.4
					c-0.7-0.5-1.9-1.3-3.1-1.3c-0.5,0-1.1,0.1-2.1,0.9c-0.6,0.4-1.9,1.7-1.3,3.2c2.6,6.1,16.5,17.2,19.8,19.5
					c1.6,1.1,3.7,2.4,4.7,2.8l0.3,0.1c0.4,0.2,0.8,0.3,1.1,0.5l0.5,0.2L291.2,197.2z"/>
				<path class="st6" d="M290.9,197.2c-0.1-0.5-0.3-1.8-1.6-4.1c-7.9-12.6-15.8-19.7-17.3-20.6c-0.2-0.1-0.4-0.3-0.7-0.4
					c-0.7-0.5-1.9-1.2-3-1.2c-0.4,0-1,0.1-1.9,0.8c-0.5,0.4-1.7,1.5-1.2,2.9c2.6,6,16.4,17.1,19.7,19.4c1.6,1.1,3.7,2.4,4.6,2.8
					l0.3,0.1C290.2,197,290.6,197.1,290.9,197.2z"/>
				<path class="st7" d="M291,199.7c0.5-0.2,0.6-2.1,0.9-2.7c0.4-0.7,1.3-2.5-1.5-7.8c-8-13.4-16.1-21-18.1-22.2
					c-0.1-0.1-0.3-0.2-0.5-0.3c-1-0.6-2.7-1.9-4.9-1.9c-1.3,0-2.6,0.5-3.9,1.4c-0.6,0.5-3.8,3-2.4,6.8c0.2,0.5-1.7-1.8-0.9-5.2
					c0.4-1.9,1.8-2.9,2.2-3.1c5.5-4,10.2,0,11.4,0.7c2.5,1.5,10.9,9.6,18.8,23c3.3,6.3,2.1,8.6,1.5,9.7c-0.5,0.9-1.8,2.4-2.8,2.8
					L291,199.7z"/>
				<path class="st8" d="M270.7,186.2c-1.5-1.4-6.6-6-9.9-11.2c-0.8-1.2-1.2-2.9-1.5-2.9c-0.6,0-0.5,1.1-0.1,2
					c0.4,0.8,1.3,2.2,2,3.3c2.8,4.1,9.5,10.6,10.3,10.7C272,188.1,271.5,186.9,270.7,186.2z"/>
			</g>
			<g>
				
					<image style="overflow:visible;" width="17" height="26" xlink:href="B13E44DD6E9B13E6.png"  transform="matrix(1 0 0 1 263 161)">
				</image>
			</g>
		</g>
		<g>
			
				<image style="overflow:visible;" width="53" height="16" xlink:href="B13E44DD6E9B13E7.png"  transform="matrix(1 0 0 1 218 119)">
			</image>
		</g>
		<g>
			
				<image style="overflow:visible;" width="125" height="99" xlink:href="B13E44DD6E9B13E2.png"  transform="matrix(1 0 0 1 107 93)">
			</image>
			
				<radialGradient id="SVGID_1_" cx="152.497" cy="159.412" r="101.7125" gradientTransform="matrix(1 3.879271e-03 -3.879271e-03 1 -20.8268 0.5207)" gradientUnits="userSpaceOnUse">
				<stop  offset="0" style="stop-color:#1F1714"/>
				<stop  offset="0.3675" style="stop-color:#181412"/>
				<stop  offset="1" style="stop-color:#10100F"/>
			</radialGradient>
			<path class="st9" d="M216.8,137.6c-1.1,9.1-5.6,20.9-8.3,29.5c-3.6,11.3-14,35.4-15.7,38.8c-1.7,3.4-5.8,10-7.8,13.3
				c-2.5,4-4.3,7.8-10.5,12c-5.2,3.5-18.2,5.5-24.5,6.3c-7.5,1-22.8,0.8-30.4,0.5c-6.8-0.2-20.4-1.1-27.1-2.1
				c-5.1-0.8-14.6-2.5-19.3-4.7c-6.7-3.1-11.8-10.3-13.9-14.7c-7.1-14.5-11.1-46.2-11.6-53.1c-0.4-6.2-0.6-18.5-0.1-24.7
				c0.2-2.3,0.9-6.9,1.6-9.1c1.4-4.7,3.2-8.9,5.6-10.9c0.6-0.5,1.4-1,2.1-1.5c10.3-6.4,32-9.8,42.8-11.2c22.1-2.9,48.6-2.9,68.1-2
				c12.3,0.6,21.7,1.5,25.2,2.3c4,0.9,7.8,0.7,13.1,4.7c2.5,1.9,9.3,11.3,10.8,14C219.3,129.3,217.1,135.1,216.8,137.6z"/>
			<path class="st10" d="M227.1,116.5c-1.8-3.9-9.4-11.3-12.8-13.8c-2.5-1.8-8-3.6-11.1-4.3c-20.2-4.5-72.7-4.1-96.8-2.6
				c-13.6,0.9-40.7,6.2-53.6,10.9c-3.4,1.2-9.8,5.3-12,8.2c-2,2.5-4.1,8.8-4.5,12c-2,15.3-4.4,54.8,11.2,94
				c1.9,4.7,7.3,10.8,11.5,13.6c5.4,3.6,18.3,6.6,24.6,7.9c11.4,2.3,34.6,4.1,46.2,4.4c11.5,0.3,35-1.6,45.6-6.3
				c10.5-4.6,14.4-11.3,18.1-16.1c14.1-18.6,33.1-70.1,35.9-94.7C229.8,125.3,229.1,121,227.1,116.5z M216.8,137.6
				c-1.1,9.1-5.6,20.9-8.3,29.5c-3.6,11.3-14,35.4-15.7,38.8c-1.7,3.4-5.8,10-7.8,13.3c-2.5,4-4.2,7.8-10.5,12
				c-5.2,3.5-18.2,5.5-24.5,6.3c-7.5,1-22.8,0.8-30.4,0.5c-6.8-0.2-20.4-1.1-27.1-2.1c-5.1-0.8-14.6-2.5-19.3-4.7
				c-6.7-3.1-11.8-10.3-13.9-14.7c-7.1-14.5-11.1-46.2-11.6-53.1c-0.4-6.2-0.6-18.5-0.1-24.7c0.2-2.3,0.9-6.9,1.6-9.1
				c1.4-4.7,3.2-8.9,5.6-10.9c9-7.4,33.3-11.2,44.9-12.7c36-4.7,84.1-1.7,93.3,0.4c3.9,0.9,7.8,0.7,13.1,4.7
				c2.5,1.9,9.3,11.3,10.8,14C219.3,129.3,217.1,135.1,216.8,137.6z"/>
			
				<linearGradient id="SVGID_2_" gradientUnits="userSpaceOnUse" x1="62.814" y1="116.1301" x2="239.9845" y2="116.1301" gradientTransform="matrix(1 3.879271e-03 -3.879271e-03 1 -20.8268 0.5207)">
				<stop  offset="0" style="stop-color:#3D3839"/>
				<stop  offset="0.5131" style="stop-color:#383231"/>
				<stop  offset="1" style="stop-color:#383636"/>
			</linearGradient>
			<path class="st11" d="M217.7,119.9c-1.7-3.1-9.3-11.2-11.7-13.2c-2.1-1.6-3.2-3.2-7.8-3.8c-5.1-0.7-16.7-1-23.2-1
				c-5.6,0-15.1-0.5-20.7-0.6c-3.9-0.1-12-0.2-15.9-0.2c-5.2,0-15.5,0.5-20.7,0.9c-5.5,0.4-16.6,1.5-22.1,2.3
				c-5.9,0.9-17.4,3.1-23.1,4.8c-15,4.4-17.6,4.7-21.1,7.4c-1.7,1.3-3.7,3.5-4.9,7.3c-0.5,1.5-0.8,7.2-0.8,7.2s0.1,0.9-1.2,1.1
				c-0.7,0.1-2.9,0.4-2.9,0.4s2,0.6,2.5,0.5c0.6-0.1,1.7,0.2,2.1-0.4c0.6-1,1-4,1.3-5.1c0.5-2.2,2.2-5.1,3.2-6.6
				c0.8-1.1,3.1-3.1,4.2-3.8c3.1-1.9,8-3.6,11.5-4.6c11-3.7,25.3-5.9,33.4-7c36-4.7,84.1-1.7,93.3,0.4c3.9,0.9,7.8,0.7,13.1,4.7
				c2.5,1.9,9.3,11.3,10.8,14c0.2,0.3,0.3,0.6,0.4,0.9c0.6,0.2,1.2,0.3,1.3-0.3C218.9,124,218.4,121.3,217.7,119.9z"/>
			<path class="st12" d="M116.5,97.5l4.6-1l-1.3-0.3c0,0,4.6-0.5,6.2-0.6c1.4-0.1,4.3,0.1,5.8,0c1.5,0,4.5-0.3,6-0.3
				c1.5,0,4.5,0,6,0c1.5,0,4.4-0.2,5.9-0.1c1,0,3.1,0.2,4.1,0.2c2.1,0.1,7.4-0.1,8.5,0.2c0.2,0.1,0.7,0.3,0.6,0.5
				c-0.1,0.3-0.8,0.2-1,0.2c-2.2,0.1-6.5-0.3-8.7-0.4c-2.4-0.1-7.4-0.4-9.8,0c-0.4,0.1-1.4,0.2-1.8,0.3c-2.1,0.2-5.1,0.1-6.8,0.2
				c-1.1,0.1-3.8,0.3-4.8,0.4C126.5,97,116.5,97.5,116.5,97.5z"/>
			<path class="st13" d="M165.6,96c2.5-0.2,5.7,0.1,7.5,0.2c0.6,0.1,0.6,0.7,0,0.6c-0.6,0-2.7-0.1-3.6-0.2c-0.8,0-2.5-0.1-3.9-0.1
				C165.1,96.6,165,96,165.6,96z"/>
			<path class="st14" d="M221.4,131c0-0.5,0-1.5,0.2-1.9c0.2-0.4,0.4-0.3,0.5-0.4c0.1-0.1,0.5,0.1,0.7,0c0.1-0.1,0.3-0.3,0.4-0.4
				c0.1-0.1,0.4-0.2,0.5-0.1c0.1,0.1,0,0.4,0,0.6c0,0.2,0,0.5,0.1,0.6c0.2,0.3,0.4-0.2,0.4-0.3c0-0.1,0.1-0.3,0.2-0.4
				c0.1,0,0.3,0.1,0.3,0.1c0.1,0.1,0,0.5-0.1,0.6c0,0.3-0.1,0.8-0.1,1.1c-0.2,1-0.9,2.8-1.2,3.7c-0.4,1.5-1.1,4.5-1.4,6
				c-0.3,1.4-1,4.2-1.3,5.5c-0.3,1.1-0.8,3.3-1.1,4.4c-0.2,0.7-0.6,2.2-0.8,2.9c-0.1,0.3-0.6,1.3-0.6,1.3s0.1-1.1,0.1-1.4
				c0-0.4,0.2-1,0.3-1.4c0.1-0.3,0.4-1,0.3-1.4c0-0.1-0.1-0.5-0.2-0.5c-0.4-0.1-0.3,0.5-0.4,0.7c-0.1,0.3-0.1,0.9-0.2,1.1
				c-0.1,0.2-0.3,0.5-0.3,0.7c-0.1,0.2-0.2,0.6-0.3,0.8c-0.1,0.2-0.5,0.7-0.6,0.9c-0.1,0.2-0.2,0.5-0.2,0.7c-0.1,0.2-0.2,0.7-0.2,1
				c-0.1,0.2-0.2,0.7-0.3,0.9c-0.1,0.2-0.3,0.6-0.4,0.8c-0.1,0.2-0.3,0.7-0.6,0.7c-0.1,0-0.2-0.2-0.2-0.2c-0.1-0.3,0.1-1.1,0.1-1.2
				c0-0.1,0.2-0.8,0.1-0.9c-0.1-0.1-0.2-0.4-0.3-0.6c0-0.1,0-0.3,0-0.4c0-0.4,0.1-1.5,0.2-1.7c0-0.1,0.4-1.2,0.5-1.6
				c0.1-0.4,0.5-1.2,0.6-1.6c0.3-0.8,0.8-2.4,1.1-3.2c0.1-0.4,0.4-1.3,0.5-1.8c0.2-0.5,0.5-1.5,0.6-2.1c0.2-0.5,0.5-1.4,0.6-1.9
				c0.1-0.4,0.4-1.2,0.5-1.6c0.1-0.5,0.4-1.4,0.6-1.9c0.1-0.5,0.4-1.5,0.5-2c0.1-0.3,0.3-0.9,0.3-1.2c0.1-0.4,0.3-1.4,0.3-1.8
				C221.4,132.1,221.4,131.4,221.4,131z"/>
			
				<linearGradient id="SVGID_3_" gradientUnits="userSpaceOnUse" x1="60.535" y1="196.2658" x2="229.3921" y2="196.2658" gradientTransform="matrix(1 3.879271e-03 -3.879271e-03 1 -20.8268 0.5207)">
				<stop  offset="0" style="stop-color:#2D2829"/>
				<stop  offset="0.5131" style="stop-color:#282325"/>
				<stop  offset="1" style="stop-color:#312D2F"/>
			</linearGradient>
			<path class="st15" d="M224.5,148.4l-0.1,4.1c-7.2,25.7-20.5,57.9-31,71.8c-3.7,4.8-7.6,11.5-18.1,16.1
				c-10.5,4.7-34.1,6.6-45.6,6.3c-11.6-0.3-34.8-2.1-46.2-4.4c-6.3-1.3-19.3-4.3-24.6-7.9c-4.2-2.8-9.6-8.9-11.5-13.6
				c-3.8-9.6-6.6-19.2-8.5-28.5c0,0,0.5-2.5,0.6-3.4c0.1-1.2-0.3-3.7-0.2-5c0.1-0.6,0.2-1.8,0.5-2.2c0.3-0.4,1.2-1.2,1.7-1
				c0.5,0.2,0.2,1.6,0.7,1.9c0.2,0.1,0.8,0,1-0.2c0.4-0.4,0.5-1.8,0.5-2.4c0.1-1.4-0.1-4.3-0.1-5.7c0-1.2,0-5,0-5l-0.5-5.7
				c0,0,2.8,18.1,4,24.1c1.1,5.5,3.8,16.3,5.4,21.7c0.7,2.1,2.2,6.2,3.1,8.3c0.8,2,2.7,5.9,3.7,7.7c2.3,4,5.1,6.3,9.9,8.5
				c1.4,0.6,10.3,3.3,11.8,3.7c1.6,0.4,4.9,1.1,6.5,1.4c1.8,0.3,5.4,0.7,7.2,0.9c2.2,0.2,6.6,0.7,8.8,0.9c2.4,0.2,7.2,0.8,9.6,0.9
				c2.7,0.2,8.2,0.2,11,0.2c2.1,0,6.4,0,8.6,0c2,0,5.9,0,7.9-0.1c2-0.1,5.9-0.4,7.9-0.7c2.3-0.3,6.8-0.9,9.1-1.3
				c2-0.4,5.7-1.2,7.7-1.7c1.7-0.5,5.1-1.7,6.7-2.6c2-1.1,4.3-2.9,6.1-4.7c1.5-1.5,4.3-4.9,5.5-6.7c1.9-2.8,5.2-8.7,6.9-11.7
				c1.3-2.3,4.1-6.8,5.4-9.1c0.8-1.4,2.2-4.2,3.1-5.5c1-1.6,3.4-4.5,4.5-5.9c1.5-2,5.9-7.9,5.9-7.9l3.7-6.2l3.2-7.4l3.4-9.4
				c0,0,1.4-5.1,2-6.7C223,151.4,224.5,148.4,224.5,148.4z"/>
			
				<image style="overflow:visible;" width="43" height="8" xlink:href="B13E44DD6E9B13ED.png"  transform="matrix(1 0 0 1 130 233)">
			</image>
			
				<image style="overflow:visible;" width="22" height="11" xlink:href="B13E44DD6E9B13EE.png"  transform="matrix(1 0 0 1 60 224)">
			</image>
			
				<image style="overflow:visible;opacity:0.8;" width="7" height="7" xlink:href="B13E44DD6E9B13EF.png"  transform="matrix(1 0 0 1 59 224)">
			</image>
			<path class="st16" d="M79.9,234.6c0,0,6.5,1.6,17.9,2.9c5.4,0.6,12.3,1.2,19.9,1.6c15.1,0.9,29.1-0.4,34.6-1.2
				c2.8-0.4,11.3-2.1,11.3-2.1c-6.8,1.7-7.5,1.9-11.7,2.6c-2.6,0.4-12.4,1.3-21.6,1.3c-3.3,0-8.1-0.1-12.8-0.3
				c-8.1-0.4-14.6-1-19.7-1.6C84.1,236.3,79.9,234.6,79.9,234.6z"/>
			<path class="st17" d="M44.7,143.7c0,0-0.4,8.6-0.4,11.4c0,2.4,0.1,7.4,0.2,9.8c0.3,3.5,1.8,14.6,1.8,14.6s-1.1-11.1-1.3-14.8
				c-0.1-2.4-0.2-7.3-0.2-9.7C44.7,152.3,44.7,143.7,44.7,143.7z"/>
			<path class="st18" d="M207.6,102.8c0,0,3-0.4,3.9-0.1c1.1,0.4,2.9,2,3.7,2.8c2.2,2.1,5.8,6.3,7.7,8.8c0.7,0.9,2.4,3.4,3,4.5
				c0.9,1.7,1.4,4.5,1.5,6c0.1,1.9-1.3,7.4-1.3,7.4s0.4-5.7,0.1-7.5c-0.2-1-0.8-2.8-1.3-3.7c-0.3-0.6-1.2-1.7-1.6-2.2
				c-0.7-0.9-2.7-3.3-2.7-3.3s-2.3-2.7-3.1-3.6c-1.1-1.3-3.3-3.8-4.5-5c-0.8-0.9-2.1-2.2-2.5-2.5
				C209.3,103.5,207.6,102.8,207.6,102.8z"/>
			<path class="st19" d="M167.7,104c-0.1,23.9-5.6,55.3-9.6,59.5c-6.4,6.6-80,23.7-80.8,20.3c-2.8-13.2-13.6-49.5-20.5-66.6
				c10.3-6.4,32-9.8,42.8-11.2C121.7,103.1,148.3,103.1,167.7,104z"/>
			<g>
				<polygon class="st20" points="45.9,134.3 44.9,141.5 43.8,141.6 43.2,140.7 43.2,139.2 43.6,138.5 43.8,137.7 43.6,136.8 
					43.8,135.3 44.2,134.3 44.9,134.2 				"/>
				<path class="st21" d="M21.8,136.7c0,0,0.2,0.9-0.1,1.5c-0.1,0.2,22.5,0.3,22.5,0.3l0.1-1.3L21.8,136.7z"/>
				
					<image style="overflow:visible;" width="24" height="5" xlink:href="B13E44DD6E9B13E4.png"  transform="matrix(1 0 0 1 21 133)">
				</image>
				
					<image style="overflow:visible;" width="24" height="4" xlink:href="9DFFF400FC69DF9A.png"  transform="matrix(1 0 0 1 21 138)">
				</image>
			</g>
		</g>
		<g>
			
				<image style="overflow:visible;" width="125" height="98" xlink:href="9DFFF400FC69DF9D.png"  transform="matrix(1 0 0 1 257 94)">
			</image>
			
				<radialGradient id="SVGID_4_" cx="380.8271" cy="163.5331" r="108.6531" gradientTransform="matrix(1 3.879271e-03 -3.879271e-03 1 -20.8268 0.5207)" gradientUnits="userSpaceOnUse">
				<stop  offset="0" style="stop-color:#1F1714"/>
				<stop  offset="1" style="stop-color:#10100F"/>
			</radialGradient>
			<path class="st22" d="M441.1,164.9c-0.5,6.9-4.8,38.6-12,53c-2.2,4.4-7.4,11.5-14,14.6c-4.7,2.2-14.2,3.8-19.3,4.6
				c-6.7,1-20.3,1.7-27.1,1.9c-7.6,0.2-22.9,0.3-30.4-0.8c-6.3-0.9-19.2-3-24.4-6.5c-6.2-4.2-8-8-10.4-12c-2-3.3-6-9.9-7.7-13.4
				c-1.7-3.4-11.9-27.6-15.4-38.9c-2.7-8.6-7-20.5-8.1-29.6c-0.3-2.5-2.4-8.2,0-12.4c1.6-2.7,8.4-12.1,10.9-14
				c5.3-4,9.2-3.8,13.1-4.6c4.7-1,19.7-2.2,37.9-2.5c17.4-0.2,37.8,0.4,55.4,2.8c9.6,1.3,28.1,4.3,39.2,9.6c2.2,1.1,4.2,2.2,5.7,3.5
				c2.3,2,4.2,6.2,5.5,10.9c0.6,2.2,1.3,6.8,1.5,9.1C441.9,146.3,441.6,158.7,441.1,164.9z"/>
			<path class="st10" d="M452.8,128.5c-0.4-3.2-2.4-9.5-4.4-12c-2.2-2.9-8.6-7-12-8.3c-12.8-4.8-39.9-10.4-53.5-11.3
				c-24.2-1.7-76.6-2.5-96.9,1.8c-3.1,0.7-8.6,2.4-11.1,4.2c-3.5,2.5-11.2,9.8-12.9,13.7c-2,4.5-2.7,8.8-2.3,13.1
				c2.7,24.6,21.3,76.3,35.2,95c3.6,4.9,7.5,11.6,17.9,16.3c10.5,4.7,34,6.8,45.5,6.6c11.6-0.2,34.8-1.8,46.2-4
				c6.3-1.2,19.3-4.1,24.7-7.7c4.2-2.8,9.7-8.8,11.6-13.5C456.8,183.4,454.7,143.8,452.8,128.5z M441.1,164.9
				c-0.5,6.9-4.8,38.6-12,53c-2.2,4.4-7.4,11.5-14.1,14.6c-4.7,2.2-14.2,3.8-19.3,4.6c-6.7,1-20.3,1.7-27.1,1.9
				c-7.6,0.2-22.9,0.3-30.4-0.8c-6.3-0.9-19.2-3-24.4-6.5c-6.2-4.2-8-8-10.4-12c-2-3.3-6-9.9-7.7-13.4c-1.7-3.4-11.9-27.6-15.4-38.9
				c-2.7-8.6-7-20.5-8.1-29.6c-0.3-2.5-2.4-8.2,0-12.4c1.6-2.7,8.4-12.1,10.9-14c5.3-4,9.2-3.8,13.1-4.6c9.2-2,57.3-4.7,93.3,0.4
				c11.6,1.6,35.8,5.6,44.8,13.1c2.4,2,4.2,6.2,5.5,10.9c0.6,2.2,1.3,6.8,1.5,9.1C441.9,146.3,441.6,158.7,441.1,164.9z"/>
			
				<linearGradient id="SVGID_5_" gradientUnits="userSpaceOnUse" x1="-319.6045" y1="116.3487" x2="-142.4657" y2="116.3487" gradientTransform="matrix(-1 -3.879271e-03 -3.879271e-03 1 128.4866 1.1)">
				<stop  offset="0" style="stop-color:#3D3839"/>
				<stop  offset="0.5131" style="stop-color:#383231"/>
				<stop  offset="1" style="stop-color:#383636"/>
			</linearGradient>
			<path class="st23" d="M272.5,120c10.7-9.4,8.3-11,10.8-12.9c2.1-1.6,1.8-3.3,6.5-3.9c5.1-0.6,15.6,0.2,22.1,0.2
				c5.6,0,17.7-0.9,23.3-1c3.9-0.1,13.1,0,17,0.1c5.2,0.1,14.2,0.1,19.4,0.6c5.5,0.5,16.6,1.6,22.1,2.5c5.9,1,17.4,3.2,23.1,5
				c15,4.5,17.6,4.9,21,7.6c1.7,1.4,3.7,3.5,4.8,7.3c0.5,1.5,0.8,7.2,0.8,7.2s-0.1,0.9,1.2,1.1c0.7,0.1,2.9,0.4,2.9,0.4
				s-2,0.5-2.5,0.4c-0.6-0.1-1.7,0.2-2.1-0.4c-0.6-1-1-4-1.2-5.2c-0.5-2.2-2.2-5.2-3.2-6.6c-0.8-1.1-3-3.1-4.2-3.8
				c-3.1-1.9-7.9-3.7-11.5-4.7c-10.9-3.8-25.2-6.1-33.3-7.2c-36-5-84-2.3-93.3-0.4c-4,0.8-7.8,0.6-13.1,4.6
				c-2.5,1.9-9.4,11.2-10.9,14c-0.2,0.3-0.3,0.6-0.5,0.9c-0.6,0.2-1.2,0.3-1.3-0.3C270.3,124.2,271.4,121,272.5,120z"/>
			<path class="st12" d="M372.8,98.5l-4.5-1l1.3-0.3c0,0-4.6-0.5-6.2-0.6c-1.4-0.1-4.3,0-5.8,0c-1.5,0-4.5-0.3-6-0.4
				c-1.5,0-4.5,0-6,0c-1.5,0-4.4-0.2-5.9-0.2c-1,0-3.1,0.1-4.1,0.2c-2.1,0.1-7.4-0.2-8.5,0.1c-0.2,0.1-0.7,0.3-0.6,0.5
				c0.1,0.3,0.8,0.2,1,0.2c2.2,0.1,6.5-0.3,8.7-0.3c2.4,0,7.4-0.3,9.8,0c0.4,0.1,1.4,0.2,1.8,0.3c2.1,0.3,5.1,0.2,6.8,0.3
				c1.1,0.1,3.8,0.4,4.8,0.4C362.8,97.9,372.8,98.5,372.8,98.5z"/>
			<path class="st13" d="M323.7,96.6c-2.5-0.3-5.7,0-7.5,0.2c-0.6,0.1-0.6,0.7,0,0.6c0.6,0,2.7-0.1,3.6-0.2c0.8,0,2.5-0.1,3.9-0.1
				C324.2,97.2,324.3,96.7,323.7,96.6z"/>
			<path class="st24" d="M267.6,131.2c0-0.5,0-1.5-0.2-1.9c-0.2-0.4-0.4-0.3-0.5-0.4c-0.1-0.1-0.5,0.1-0.7,0
				c-0.1-0.1-0.3-0.3-0.4-0.4c-0.1-0.1-0.4-0.2-0.5-0.1c-0.1,0.1,0,0.4-0.1,0.6c0,0.2,0,0.5-0.1,0.6c-0.2,0.3-0.4-0.2-0.4-0.3
				c0-0.1-0.1-0.3-0.2-0.4c-0.1,0-0.3,0.1-0.3,0.1c-0.1,0.1,0,0.5,0,0.6c0,0.3,0.1,0.8,0.1,1.1c0.2,1,0.9,2.8,1.1,3.7
				c0.4,1.5,1,4.5,1.4,6c0.3,1.4,0.9,4.2,1.3,5.6c0.3,1.1,0.8,3.3,1.1,4.5c0.2,0.7,0.5,2.2,0.8,2.9c0.1,0.3,0.6,1.3,0.6,1.3
				s0-1.1-0.1-1.4c0-0.4-0.2-1-0.3-1.4c-0.1-0.3-0.4-1-0.3-1.4c0-0.1,0.1-0.5,0.2-0.5c0.4-0.1,0.3,0.5,0.4,0.7
				c0.1,0.3,0.1,0.9,0.2,1.1c0.1,0.2,0.3,0.5,0.3,0.7c0.1,0.2,0.2,0.6,0.3,0.8c0.1,0.2,0.5,0.7,0.6,0.9c0.1,0.2,0.2,0.5,0.2,0.7
				c0.1,0.2,0.2,0.7,0.2,1c0.1,0.2,0.2,0.7,0.3,0.9c0.1,0.2,0.3,0.6,0.4,0.8c0.1,0.2,0.3,0.7,0.6,0.7c0.1,0,0.2-0.2,0.2-0.2
				c0.1-0.3-0.1-1.1-0.1-1.2c0-0.1-0.2-0.8-0.1-0.9c0.1-0.1,0.2-0.4,0.3-0.6c0-0.1,0-0.3,0-0.4c0-0.4-0.1-1.5-0.2-1.7
				c0-0.1-0.4-1.2-0.5-1.6c-0.1-0.4-0.5-1.2-0.6-1.6c-0.3-0.8-0.8-2.4-1-3.2c-0.1-0.4-0.4-1.3-0.5-1.8c-0.2-0.5-0.5-1.5-0.6-2.1
				c-0.1-0.5-0.5-1.4-0.6-1.9c-0.1-0.4-0.4-1.2-0.5-1.6c-0.1-0.5-0.4-1.4-0.6-1.9c-0.1-0.5-0.3-1.5-0.5-2c-0.1-0.3-0.3-0.9-0.3-1.2
				c-0.1-0.5-0.3-1.4-0.3-1.8C267.7,132.3,267.7,131.5,267.6,131.2z"/>
			
				<linearGradient id="SVGID_6_" gradientUnits="userSpaceOnUse" x1="-321.8846" y1="196.2658" x2="-153.0269" y2="196.2658" gradientTransform="matrix(-1 -3.879271e-03 -3.879271e-03 1 128.4866 1.1)">
				<stop  offset="0" style="stop-color:#2D2829"/>
				<stop  offset="0.5131" style="stop-color:#282325"/>
				<stop  offset="1" style="stop-color:#312D2F"/>
			</linearGradient>
			<path class="st25" d="M264.5,148.5l0.1,4.1c7,25.7,20,58.1,30.4,72c3.6,4.9,7.5,11.6,17.9,16.3c10.5,4.7,34,6.8,45.5,6.6
				c11.6-0.2,34.8-1.8,46.2-4c6.3-1.2,19.3-4.1,24.7-7.7c4.2-2.8,9.7-8.8,11.6-13.5c3.9-9.6,6.7-19.1,8.7-28.4c0,0-0.5-2.5-0.6-3.4
				c0-1.2,0.3-3.7,0.2-5c-0.1-0.6-0.2-1.8-0.5-2.2c-0.3-0.4-1.2-1.2-1.7-1c-0.5,0.2-0.3,1.6-0.7,1.9c-0.2,0.1-0.8,0-1-0.2
				c-0.4-0.4-0.5-1.8-0.5-2.4c-0.1-1.4,0.1-4.2,0.2-5.7c0-1.2,0-5,0-5l0.5-5.7c0,0-2.9,18.1-4.2,24c-1.2,5.5-3.9,16.3-5.6,21.6
				c-0.7,2.1-2.2,6.2-3.1,8.2c-0.9,2-2.7,5.9-3.8,7.7c-2.4,4-5.2,6.2-10,8.4c-1.4,0.6-10.3,3.2-11.9,3.6c-1.6,0.4-4.9,1.1-6.5,1.3
				c-1.8,0.3-5.4,0.6-7.2,0.8c-2.2,0.2-6.6,0.6-8.8,0.8c-2.4,0.2-7.2,0.7-9.6,0.8c-2.7,0.1-8.2,0.1-11,0.1c-2.1,0-6.4,0-8.6,0
				c-2,0-5.9-0.1-7.9-0.2c-2-0.1-5.9-0.5-7.9-0.7c-2.3-0.3-6.8-1-9.1-1.4c-2-0.4-5.7-1.2-7.7-1.8c-1.7-0.5-5.1-1.7-6.6-2.6
				c-1.9-1.1-4.3-3-6.1-4.8c-1.5-1.5-4.2-4.9-5.5-6.7c-1.9-2.8-5.1-8.8-6.8-11.7c-1.3-2.3-4-6.8-5.3-9.1c-0.8-1.4-2.2-4.2-3-5.6
				c-1-1.6-3.4-4.5-4.5-6c-1.5-2-5.8-7.9-5.8-7.9l-3.6-6.2l-3.2-7.4l-3.3-9.5c0,0-1.4-5.1-2-6.8
				C265.9,151.6,264.5,148.5,264.5,148.5z"/>
			
				<image style="overflow:visible;" width="44" height="8" xlink:href="9DFFF400FC69DF9E.png"  transform="matrix(1 0 0 1 315 234)">
			</image>
			
				<image style="overflow:visible;" width="23" height="12" xlink:href="9DFFF400FC69DF9C.png"  transform="matrix(1 0 0 1 406 225)">
			</image>
			
				<image style="overflow:visible;opacity:0.8;" width="7" height="7" xlink:href="9DFFF400FC69DF9B.png"  transform="matrix(1 0 0 1 422 225)">
			</image>
			<path class="st16" d="M408.3,235.9c0,0-6.5,1.5-17.9,2.8c-5.4,0.6-12.3,1.1-19.9,1.5c-15.1,0.7-29.1-0.6-34.6-1.5
				c-2.8-0.4-11.3-2.2-11.3-2.2c6.8,1.8,7.4,2,11.7,2.7c2.6,0.5,12.4,1.4,21.6,1.5c3.3,0,8.1,0,12.8-0.2c8.1-0.3,14.6-0.9,19.7-1.5
				C404.1,237.6,408.3,235.9,408.3,235.9z"/>
			<path class="st17" d="M444.3,145.3c0,0,0.4,8.6,0.4,11.4c0,2.4-0.1,7.4-0.3,9.8c-0.3,3.5-1.9,14.6-1.9,14.6s1.2-11.1,1.4-14.8
				c0.2-2.4,0.3-7.3,0.3-9.7C444.2,153.8,444.3,145.3,444.3,145.3z"/>
			<path class="st18" d="M281.7,103.1c0,0-3-0.5-3.9-0.2c-1.1,0.3-2.9,2-3.8,2.8c-2.2,2.1-5.9,6.3-7.7,8.7c-0.7,0.9-2.4,3.4-3,4.5
				c-0.9,1.7-1.4,4.5-1.5,6c-0.1,1.9,1.2,7.4,1.2,7.4s-0.3-5.7,0-7.5c0.2-1,0.8-2.8,1.3-3.7c0.3-0.6,1.2-1.7,1.6-2.2
				c0.7-0.9,2.7-3.3,2.7-3.3s2.3-2.7,3.1-3.6c1.1-1.3,3.4-3.8,4.5-5c0.8-0.9,2.1-2.2,2.5-2.5C279.9,103.8,281.7,103.1,281.7,103.1z"
				/>
			<path class="st19" d="M428.8,116.7c-2.8,24.7-15.8,61.2-19.6,64.6c-6.6,6-64.5-10.5-66.8-17.4c-2-5.7-6.9-32.9-8.1-59.7
				c17.4-0.2,37.8,0.4,55.4,2.8C399.2,108.5,417.7,111.5,428.8,116.7z"/>
			<g>
				<polygon class="st20" points="443.2,135.8 444.1,143.1 445.2,143.1 445.8,142.3 445.8,140.8 445.4,140.1 445.2,139.2 
					445.4,138.4 445.2,136.8 444.8,135.9 444.2,135.7 				"/>
				<path class="st21" d="M467.2,138.4c0,0-0.2,0.9,0.1,1.5c0.1,0.2-22.5,0.1-22.5,0.1l-0.1-1.3L467.2,138.4z"/>
				
					<image style="overflow:visible;" width="24" height="4" xlink:href="9DFFF400FC69DF85.png"  transform="matrix(1 0 0 1 444 135)">
				</image>
				
					<image style="overflow:visible;" width="24" height="5" xlink:href="9DFFF400FC69DF86.png"  transform="matrix(1 0 0 1 444 139)">
				</image>
			</g>
		</g>
	</g>
</g>
<g>
	<g>
		<g>
			<path class="st26" d="M72.3,116.1c0.2-0.1,0.3-0.1,0.6,0c1.1,0.2,2.4,1,2.7,2.1c0.2,0.5,0.1,1.2-0.1,1.8c-0.2,0.7-0.6,1.4-1,2.2
				c0,0.1-0.2,0.3-0.3,0.4c-1.1,0.3-2.3,1.1-3.5,2.2c-1.1,1-2.2,2.3-3.2,3.7c-1.4,2-2.6,4.2-3.3,6.4c-0.5,1.7-0.7,3.2-0.8,5.3
				c0,0-0.1,0.6-0.2,1.6c-0.1,1-0.2,2.4-0.2,4.1c0,3.3,0.3,7.4,1.3,10.7c0.8,2.8,1.6,4.6,2,5.7c0.4,1.1,0.3,1.6-0.1,1.5
				c-0.9-0.1-3.5-2.3-5.5-6c0,0.2-0.5-0.8-1.2-2.4c-0.7-1.7-1.4-4-1.9-6.5c-1-4.9-1-9.9-1-9.9l0.1-1.4c0-0.5,0.1-1.1,0.2-1.6
				c0.2-1,0.4-2.1,0.7-3.1c0.9-3.1,2.5-5.8,4.2-8.3c1.2-1.7,2.5-3.3,4.1-4.8C67.9,118.2,69.8,116.8,72.3,116.1z"/>
		</g>
	</g>
</g>
<g>
	<g>
		<g>
			<path class="st26" d="M82.9,115c0,0,0.1,0,0.1,0.1c0.2,0.3,0.5,0.8,0.4,1.5c0,0.4,0,0.7-0.1,1.2c0,0.1,0,0.2,0,0.3l0,0l0,0l0,0
				c0,0,0,0,0,0.1c0,0.1,0.1,0.2,0.2,0.3c0.1,0.1,0,0-0.2,0c-0.1,0-0.2,0-0.2,0l0,0l0,0l0,0l0,0l0,0c-0.1,0,0.1-0.1,0.1,0l0,0l0,0
				c0,0,0,0,0-0.1c0.1-0.1,0.1-0.4,0.1-0.4c0,0,0.1,0.2,0.2,0.3c0,0,0.1,0.1,0.1,0.1l-0.1-0.1l0,0l0,0c0,0-0.1,0-0.1,0s-0.1,0-0.3,0
				c0,0-0.1,0,0,0c0.1,0,0.1-0.1,0.2-0.1c0.1-0.1,0.2-0.2,0.3-0.4c0.2-0.5,0-1,0.2-1.4c0.2-0.4,0.8-0.6,1.4-0.4c0-0.1,0.7,0.3,1.2,1
				c0.2,0.4,0.4,0.8,0.5,1.2c0.1,0.4,0.1,0.7,0.1,0.7s0,0.2-0.2,0.6c-0.1,0.4-0.5,1-1,1.4c-0.5,0.5-1.2,0.7-2,0.8
				c-0.8,0.1-1.6-0.1-2.5-0.7c-0.4-0.3-0.7-0.7-1-1.2c-0.2-0.5-0.3-1-0.3-1.4c0-0.9,0.3-1.6,0.7-2.1c0.4-0.5,0.9-0.9,1.4-1.1
				C82.6,115,82.9,115,82.9,115z"/>
		</g>
	</g>
</g>
<g>
	<g>
		<g>
			<g>
				<path class="st26" d="M294.5,109.6c0.2-0.1,0.2-0.1,0.5,0c0.9,0.1,1.9,0.8,2.1,1.6c0.3,0.9-0.2,1.9-0.8,3.2c0,0-0.1,0.2-0.2,0.3
					c-0.9,0.3-1.8,0.9-2.7,1.7c-0.9,0.8-1.7,1.8-2.5,2.9c-1.1,1.6-2,3.3-2.5,5c-0.4,1.3-0.5,2.5-0.6,4.1c0,0-0.2,1.9-0.3,4.4
					c0,2.5,0.3,5.8,1,8.3c0.6,2.2,1.3,3.5,1.6,4.4c0.3,0.9,0.3,1.2-0.1,1.2c-0.7-0.1-2.8-1.8-4.2-4.6c0,0.2-0.4-0.6-0.9-1.9
					c-0.5-1.3-1.1-3.1-1.5-5c-0.8-3.8-0.8-7.7-0.8-7.7l0.1-1.1c0-0.4,0.1-0.8,0.2-1.2c0.1-0.8,0.3-1.6,0.6-2.4
					c0.7-2.4,1.9-4.5,3.3-6.5c0.9-1.3,1.9-2.6,3.2-3.7C291.1,111.2,292.6,110.2,294.5,109.6z"/>
			</g>
		</g>
	</g>
	<g>
		<g>
			<g>
				<path class="st26" d="M302.8,108.7c0,0,0.1,0,0.1,0.1c0.2,0.2,0.4,0.7,0.3,1.2c0,0.3,0,0.6-0.1,0.9l0,0.2l0,0l0,0l0,0
					c0,0,0,0,0,0.1c0,0.1,0.1,0.2,0.2,0.2c0.1,0.1,0,0-0.2,0c-0.1,0-0.1,0-0.2,0l0,0l0,0l0,0l0,0l0,0c0,0,0.1,0,0.1,0l0,0l0,0
					c0,0,0,0,0,0c0.1-0.1,0.1-0.3,0.1-0.3c0,0,0.1,0.2,0.1,0.2c0,0,0,0,0.1,0.1l-0.1,0l0,0l0,0c0,0-0.1,0-0.1,0s-0.1,0-0.2,0
					c0,0-0.1,0,0,0c0,0,0.1,0,0.1-0.1c0.1-0.1,0.2-0.2,0.2-0.3c0.1-0.4,0-0.8,0.2-1.1c0.1-0.3,0.6-0.5,1.1-0.3
					c0-0.1,0.6,0.2,0.9,0.8c0.2,0.3,0.3,0.6,0.4,0.9c0.1,0.3,0,0.5,0,0.5s0,0.2-0.1,0.5c-0.1,0.3-0.4,0.7-0.8,1.1
					c-0.4,0.4-1,0.6-1.6,0.6c-0.6,0-1.3-0.1-1.9-0.5c-0.6-0.4-1-1.4-1-2.1c0-0.7,0.3-1.2,0.6-1.6c0.3-0.4,0.7-0.7,1.1-0.8
					C302.5,108.7,302.7,108.7,302.8,108.7z"/>
			</g>
		</g>
	</g>
</g>
</svg>
