<?xml version="1.0" encoding="utf-8"?>
<!-- Generator: Adobe Illustrator 21.1.0, SVG Export Plug-In . SVG Version: 6.00 Build 0)  -->
<svg version="1.1" id="Layer_4" xmlns="http://www.w3.org/2000/svg" xmlns:xlink="http://www.w3.org/1999/xlink" x="0px" y="0px"
	 viewBox="0 0 486.2 324" style="enable-background:new 0 0 486.2 324;" xml:space="preserve">
<style type="text/css">
	.st0{fill:#FFFFFF;}
	.st1{fill:#231F20;}
	.st2{fill:#3F3B3C;}
	.st3{fill:#CB955B;}
	.st4{fill:#231F20;stroke:#231F20;stroke-width:2.8086;stroke-miterlimit:10;}
	.st5{fill:#C38643;}
	.st6{fill:none;stroke:#231F20;stroke-width:11.2346;stroke-miterlimit:10;}
	.st7{opacity:0.8;fill:url(#SVGID_1_);}
	.st8{fill:none;stroke:url(#SVGID_2_);stroke-width:11.2346;stroke-miterlimit:10;}
	.st9{opacity:7.000000e-02;fill:#FFFFFF;}
	.st10{fill:url(#SVGID_3_);}
	.st11{fill:#FFFFFF;stroke:#231F20;stroke-width:2.8086;stroke-miterlimit:10;}
</style>
<g>
	<g>
		<g>
			<path class="st0" d="M72.3,116.1c0.2-0.1,0.3-0.1,0.6,0c1.1,0.2,2.4,1,2.7,2.1c0.2,0.5,0.1,1.2-0.1,1.8c-0.2,0.7-0.6,1.4-1,2.2
				c0,0.1-0.2,0.3-0.3,0.4c-1.1,0.3-2.3,1.1-3.5,2.2c-1.1,1-2.2,2.3-3.2,3.7c-1.4,2-2.6,4.2-3.3,6.4c-0.5,1.7-0.7,3.2-0.8,5.3
				c0,0-0.1,0.6-0.2,1.6c-0.1,1-0.2,2.4-0.2,4.1c0,3.3,0.3,7.4,1.3,10.7c0.8,2.8,1.6,4.6,2,5.7c0.4,1.1,0.3,1.6-0.1,1.5
				c-0.9-0.1-3.5-2.3-5.5-6c0,0.2-0.5-0.8-1.2-2.4c-0.7-1.7-1.4-4-1.9-6.5c-1-4.9-1-9.9-1-9.9l0.1-1.4c0-0.5,0.1-1.1,0.2-1.6
				c0.2-1,0.4-2.1,0.7-3.1c0.9-3.1,2.5-5.8,4.2-8.3c1.2-1.7,2.5-3.3,4.1-4.8C67.9,118.2,69.8,116.8,72.3,116.1z"/>
		</g>
	</g>
</g>
<g>
	<g>
		<g>
			<path class="st0" d="M82.9,115c0,0,0.1,0,0.1,0.1c0.2,0.3,0.5,0.8,0.4,1.5c0,0.4,0,0.7-0.1,1.2c0,0.1,0,0.2,0,0.3l0,0l0,0l0,0
				c0,0,0,0,0,0.1c0,0.1,0.1,0.2,0.2,0.3c0.1,0.1,0,0-0.2,0c-0.1,0-0.2,0-0.2,0l0,0l0,0l0,0l0,0l0,0c-0.1,0,0.1-0.1,0.1,0l0,0l0,0
				c0,0,0,0,0-0.1c0.1-0.1,0.1-0.4,0.1-0.4c0,0,0.1,0.2,0.2,0.3c0,0,0.1,0.1,0.1,0.1l-0.1-0.1l0,0l0,0c0,0-0.1,0-0.1,0s-0.1,0-0.3,0
				c0,0-0.1,0,0,0c0.1,0,0.1-0.1,0.2-0.1c0.1-0.1,0.2-0.2,0.3-0.4c0.2-0.5,0-1,0.2-1.4c0.2-0.4,0.8-0.6,1.4-0.4c0-0.1,0.7,0.3,1.2,1
				c0.2,0.4,0.4,0.8,0.5,1.2c0.1,0.4,0.1,0.7,0.1,0.7s0,0.2-0.2,0.6c-0.1,0.4-0.5,1-1,1.4c-0.5,0.5-1.2,0.7-2,0.8
				c-0.8,0.1-1.6-0.1-2.5-0.7c-0.4-0.3-0.7-0.7-1-1.2c-0.2-0.5-0.3-1-0.3-1.4c0-0.9,0.3-1.6,0.7-2.1c0.4-0.5,0.9-0.9,1.4-1.1
				C82.6,115,82.9,115,82.9,115z"/>
		</g>
	</g>
</g>
<g>
	<g>
		<g>
			<g>
				<path class="st0" d="M294.5,109.6c0.2-0.1,0.2-0.1,0.5,0c0.9,0.1,1.9,0.8,2.1,1.6c0.3,0.9-0.2,1.9-0.8,3.2c0,0-0.1,0.2-0.2,0.3
					c-0.9,0.3-1.8,0.9-2.7,1.7c-0.9,0.8-1.7,1.8-2.5,2.9c-1.1,1.6-2,3.3-2.5,5c-0.4,1.3-0.5,2.5-0.6,4.1c0,0-0.2,1.9-0.3,4.4
					c0,2.5,0.3,5.8,1,8.3c0.6,2.2,1.3,3.5,1.6,4.4c0.3,0.9,0.3,1.2-0.1,1.2c-0.7-0.1-2.8-1.8-4.2-4.6c0,0.2-0.4-0.6-0.9-1.9
					c-0.5-1.3-1.1-3.1-1.5-5c-0.8-3.8-0.8-7.7-0.8-7.7l0.1-1.1c0-0.4,0.1-0.8,0.2-1.2c0.1-0.8,0.3-1.6,0.6-2.4
					c0.7-2.4,1.9-4.5,3.3-6.5c0.9-1.3,1.9-2.6,3.2-3.7C291.1,111.2,292.6,110.2,294.5,109.6z"/>
			</g>
		</g>
	</g>
	<g>
		<g>
			<g>
				<path class="st0" d="M302.8,108.7c0,0,0.1,0,0.1,0.1c0.2,0.2,0.4,0.7,0.3,1.2c0,0.3,0,0.6-0.1,0.9l0,0.2l0,0l0,0l0,0
					c0,0,0,0,0,0.1c0,0.1,0.1,0.2,0.2,0.2c0.1,0.1,0,0-0.2,0c-0.1,0-0.1,0-0.2,0l0,0l0,0l0,0l0,0l0,0c0,0,0.1,0,0.1,0l0,0l0,0
					c0,0,0,0,0,0c0.1-0.1,0.1-0.3,0.1-0.3c0,0,0.1,0.2,0.1,0.2c0,0,0,0,0.1,0.1l-0.1,0l0,0l0,0c0,0-0.1,0-0.1,0s-0.1,0-0.2,0
					c0,0-0.1,0,0,0c0,0,0.1,0,0.1-0.1c0.1-0.1,0.2-0.2,0.2-0.3c0.1-0.4,0-0.8,0.2-1.1c0.1-0.3,0.6-0.5,1.1-0.3
					c0-0.1,0.6,0.2,0.9,0.8c0.2,0.3,0.3,0.6,0.4,0.9c0.1,0.3,0,0.5,0,0.5s0,0.2-0.1,0.5c-0.1,0.3-0.4,0.7-0.8,1.1
					c-0.4,0.4-1,0.6-1.6,0.6c-0.6,0-1.3-0.1-1.9-0.5c-0.6-0.4-1-1.4-1-2.1c0-0.7,0.3-1.2,0.6-1.6c0.3-0.4,0.7-0.7,1.1-0.8
					C302.5,108.7,302.7,108.7,302.8,108.7z"/>
			</g>
		</g>
	</g>
</g>
<g>
	<g>
		<g>
			<g>
				<path class="st1" d="M142,419.9C91,380,69.2,347,75.3,319.1c3.2-14.7,13.4-23.8,22.3-31.9c9.8-8.8,15.7-14.7,15.5-23.8
					c-0.4-12.8-13.3-21.9-27-31.5c-14.3-10-29.1-20.4-29.2-36.6c-0.1-17.3,17-33.7,52.2-50l4.7,10.2c-29.9,13.9-45.7,27.6-45.7,39.8
					c0.1,10.4,11.9,18.6,24.4,27.4c14.6,10.3,31.3,21.9,31.8,40.4c0.4,14.8-9.5,23.8-19.2,32.5c-8.1,7.3-16.4,14.8-18.9,26
					c-5.1,22.9,16,53.1,62.6,89.5L142,419.9z"/>
				<g>
					<g>
						<path class="st2" d="M142,419.9c-4.5-5.7-8.1-10.5-12.2-15.2c-4.1-4.7-8.6-9.4-14.5-15.2c-1.6-1.6-4-3.9-6.8-6.9
							c-1.4-1.5-2.9-3.2-4.5-5c-0.5-0.6-1.1-1.3-1.6-1.9c-0.7-0.8-1.4-1.6-2-2.4c-1.4-1.6-2.7-3.3-4-5c-2.6-3.5-5.1-7.1-7.4-11
							c-2.3-3.9-4.3-7.9-5.9-12.2c-1.6-4.3-2.6-8.7-3-13.2c-0.2-2.2-0.2-4.5,0-6.7c0.2-2.2,0.6-4.5,1.2-6.7c1.2-4.4,3.3-8.5,6-12.4
							c2.8-3.9,6.2-7.5,10-11c3.8-3.6,8-7.1,12-11.3c2-2.1,4-4.4,5.8-7.3c1.7-2.8,3.1-6.3,3.4-9.8c0.4-3.5,0-7-1-10.3
							c-0.3-0.8-0.5-1.6-0.9-2.4c-0.3-0.8-0.7-1.5-1.1-2.3l-1.2-2.1c-0.4-0.7-0.9-1.3-1.3-2c-3.7-5-8.1-8.8-12.4-12.2
							c-4.3-3.4-8.7-6.4-12.9-9.3c-4.2-2.9-8.2-5.8-11.8-8.9c-3.6-3-6.8-6.2-9.1-9.6c-2.3-3.4-3.8-6.9-4.1-10.5
							c-0.3-3.6,0.3-7.2,1.7-10.5c1.4-3.3,3.4-6.4,5.9-9.2c0.6-0.7,1.2-1.4,1.9-2c0.6-0.6,1.2-1.3,1.9-1.9c1.4-1.2,2.6-2.5,4-3.5
							c5.5-4.5,11.1-8,16.2-10.9c2.6-1.4,4.9-2.8,7.2-3.9c1.1-0.6,2.2-1.1,3.3-1.7c0.3-0.1,0.5-0.3,0.7-0.4c0.1-0.1,0.2-0.1,0.3-0.1
							c0.2-0.1,0.4-0.2,0.6-0.3c0.1,0,0.2-0.1,0.2-0.1l0,0l0,0l0,0l0,0c0,0,0-0.1,0.1,0.1c0.1,0.2,0,0.1,0.1,0.1l0,0l0,0l0,0l0,0
							l0,0l0,0c0,0-0.1,0-0.2,0.1c-0.1,0.1-0.3,0.1-0.4,0.2c-1.4,0.7-3.1,1.6-5,2.5c-3.9,2.1-8.7,4.6-14,8.1
							c-1.3,0.9-2.7,1.8-4.1,2.8c-1.4,1-2.8,2-4.2,3.2c-2.9,2.3-5.8,4.9-8.6,8.1c-0.7,0.8-1.4,1.7-2,2.6c-0.6,0.9-1.3,1.9-1.9,2.9
							c-0.3,0.5-0.6,1.1-0.9,1.6c-0.3,0.5-0.6,1.1-0.8,1.7c-0.5,1.2-1,2.4-1.2,3.7c-0.1,0.7-0.3,1.3-0.4,2c-0.1,0.7-0.1,1.4-0.2,2.1
							c-0.1,0.7,0,1.4,0,2.2c0.1,0.7,0.1,1.5,0.3,2.2c0.2,0.7,0.3,1.4,0.5,2.1c0.2,0.7,0.5,1.3,0.7,2c0.6,1.3,1.2,2.5,1.9,3.7
							c1.4,2.3,3.1,4.3,4.9,6.1c0.9,0.9,1.8,1.7,2.7,2.6c0.9,0.8,1.9,1.6,2.8,2.4c3.8,3.1,7.7,5.9,11.7,8.7c4,2.8,7.9,5.6,11.7,8.5
							c3.8,2.9,7.4,6.1,10.5,9.6c3,3.5,5.6,7.3,6.9,11.4l0.5,1.6c0.2,0.5,0.2,1.1,0.3,1.6c0.1,0.5,0.2,1.1,0.3,1.6l0.1,1.6
							c0.1,1.1,0,2.2,0,3.3c-0.1,1.1-0.2,2.2-0.5,3.2c-0.4,2.1-1.2,4.2-2.2,6.1c-1,2-2.3,3.9-3.9,5.8c-3,3.7-6.9,7.2-10.8,10.8
							c-4,3.6-8.2,7.4-12,12c-1.9,2.3-3.6,4.8-5.1,7.6c-1.5,2.7-2.6,5.7-3.3,8.8c-1.4,6.1-1.2,12.4,0.1,18.1
							c0.6,2.9,1.5,5.6,2.5,8.2c0.5,1.3,1.1,2.6,1.6,3.9c0.6,1.2,1.2,2.5,1.8,3.7c2.6,4.8,5.5,9.2,8.5,13.4c0.8,1,1.6,2,2.3,3.1
							c0.8,1,1.6,2,2.4,2.9c0.8,1,1.6,1.9,2.4,2.9c0.7,0.8,1.4,1.6,2.1,2.4c7.6,8.5,14.5,14.8,17.9,17.9c6.4,5.7,11.8,9.6,17.3,12.9
							c0.7,0.4,1.4,0.8,2.1,1.2l0.1,0.1l0.1,0l0.1,0l0.2,0.1l0.5,0.2c0.4,0.1,0.8,0.3,1.3,0.5l0.4,0.2c0.1,0.1,0.3,0.1,0.3,0.2
							c0,0.2,0,0.3-0.1,0.5c-0.1,0.4-0.2,0.8-0.3,1.3l-0.3,0.8c-0.1,0.1-0.1,0.3-0.2,0.5l-0.3,0.6
							C143.4,416.7,142.7,418.2,142,419.9c1.4-1.1,2.8-2.2,4.1-3.2l0.5-0.4c0.2-0.1,0.4-0.3,0.6-0.5c0.4-0.4,0.8-0.7,1.2-1.1
							c0.8-0.8,1.7-1.6,2.6-2.5c0.5-0.5,0.9-0.9,1.4-1.3l0.2-0.2c0,0,0-0.1,0-0.1l-0.1-0.1l-0.3-0.3l-0.5-0.6
							c-0.7-0.8-1.5-1.6-2.3-2.4l-2.6-2.5c-0.5-0.6-1-1.2-1.6-1.7c-4.2-4.6-8.9-9.2-15-14.8c-3.3-3-9.9-9.1-17.1-17.2
							c-0.7-0.8-1.3-1.5-2-2.3c-0.7-0.9-1.5-1.8-2.2-2.7c-0.7-0.9-1.5-1.8-2.2-2.7c-0.7-0.9-1.4-1.9-2.1-2.8
							c-2.8-3.8-5.4-7.8-7.6-12c-0.6-1-1-2.1-1.6-3.2c-0.5-1.1-1-2.1-1.4-3.2c-0.9-2.2-1.5-4.4-2-6.6c-1-4.5-1.1-9-0.1-13.2
							c1-4.2,3.2-8.2,6.2-11.9c3-3.7,6.8-7.2,10.8-10.8c4-3.6,8.2-7.4,12-12.1c1.9-2.3,3.6-4.9,5.1-7.6c1.5-2.8,2.5-5.8,3.2-9
							c0.4-1.6,0.5-3.1,0.7-4.7c0-1.6,0.1-3.1,0-4.7l-0.2-2.3c-0.1-0.8-0.3-1.5-0.4-2.3c-0.2-0.8-0.3-1.5-0.5-2.3l-0.7-2.2
							c-0.2-0.8-0.5-1.5-0.8-2.2l-0.9-2.1c-0.3-0.7-0.7-1.3-1.1-2c-0.4-0.7-0.7-1.3-1.1-1.9c-0.8-1.2-1.6-2.5-2.5-3.6l-1.3-1.7
							l-1.4-1.6c-3.8-4.2-7.9-7.8-12-11c-4.1-3.2-8.2-6-12.2-8.8c-3.9-2.8-7.7-5.4-11.1-8.2c-0.9-0.7-1.6-1.4-2.4-2.1
							c-0.7-0.7-1.5-1.4-2.2-2.1c-1.4-1.4-2.6-2.8-3.4-4.3c-0.5-0.7-0.8-1.4-1.1-2.1c-0.1-0.3-0.2-0.7-0.4-1c-0.1-0.3-0.1-0.7-0.2-1
							c-0.1-0.3-0.1-0.6-0.1-0.9c0-0.3-0.1-0.6,0-0.9c0-0.3,0.1-0.6,0.1-1c0-0.3,0.2-0.7,0.2-1c0.6-2.7,2.4-5.5,4.5-7.9
							c2.2-2.5,4.6-4.7,7.1-6.7c1.2-1,2.5-1.9,3.7-2.8c1.3-0.9,2.5-1.7,3.7-2.5c4.9-3.2,9.4-5.6,13.1-7.6c0.9-0.5,1.8-0.9,2.7-1.4
							c0.4-0.2,0.8-0.4,1.2-0.6c0.2-0.1,0.4-0.2,0.6-0.3c0.3-0.1,0.6-0.3,0.8-0.4c2.8-1.4,5.3-2.5,7.2-3.4c0.5-0.2,0.9-0.5,1.4-0.7
							c0.2-0.1,0.4-0.2,0.6-0.3c0.1,0,0.2-0.1,0.3-0.1c0.1-0.1,0.3-0.1,0.2-0.2c-0.4-0.8-0.7-1.5-0.9-2c-0.5-1.1-0.8-1.6-0.8-1.6
							s-1-2.2-2.9-6.2c-0.9-2-2.1-4.6-3.5-7.6c-0.4-0.8-0.7-1.5-1.1-2.4c-0.1-0.1-0.1-0.2-0.2-0.3l-0.3,0.1l-0.6,0.3
							c-0.4,0.2-0.8,0.4-1.1,0.5c-1.6,0.7-3.2,1.5-4.9,2.4c-0.9,0.4-1.8,0.8-2.7,1.3c-0.9,0.4-2,1-2.4,1.2c-1.1,0.6-2.2,1.1-3.4,1.8
							c-2.4,1.2-4.9,2.7-7.6,4.1c-5.4,3.2-11.5,6.9-17.7,12c-1.6,1.2-3.1,2.7-4.7,4.1c-0.8,0.7-1.5,1.5-2.3,2.3
							c-0.8,0.8-1.5,1.6-2.2,2.4c-3,3.3-5.7,7.4-7.7,12.1c-2,4.7-3,10.3-2.5,15.8c0.5,5.6,2.9,11.1,6,15.6
							c3.1,4.6,7.1,8.3,11.1,11.8c4.1,3.4,8.3,6.5,12.6,9.4c4.2,3,8.5,5.9,12.5,9c4,3.1,7.7,6.4,10.3,10c2.7,3.6,3.8,7.4,3.5,11.2
							c-0.2,1.8-0.8,3.5-1.9,5.3c-1.1,1.8-2.6,3.6-4.3,5.4c-3.4,3.6-7.5,7.1-11.6,10.8c-4,3.8-8.1,7.9-11.5,12.7
							c-3.4,4.8-6.1,10.2-7.7,15.9c-0.8,2.8-1.3,5.7-1.6,8.6c-0.2,2.9-0.2,5.8,0,8.6c0.5,5.7,1.8,11.1,3.7,16.1
							c1.9,5,4.2,9.6,6.7,13.9c2.5,4.3,5.3,8.3,8.1,12c1.4,1.9,2.8,3.7,4.3,5.4c0.7,0.9,1.4,1.7,2.2,2.6c0.6,0.7,1.2,1.4,1.7,2
							c1.7,1.9,3.3,3.7,4.8,5.3c3,3.2,5.5,5.6,7.1,7.2c6.2,6,11.5,10,16.9,13.5C129.9,414.2,135.4,416.9,142,419.9z"/>
					</g>
				</g>
			</g>
			<g>
				<g>
					<g>
						<path class="st3" d="M111.5,150.4c-7.1,1.4-13.1,2.9-19.1,5.3c-6,2.4-12.1,5.5-19.1,11.3c-0.6,0.5-1.3,1.1-2.1,1.8
							c-0.8,0.7-1.7,1.6-2.7,2.6c-2,2.2-4.9,5-7.7,9.9c-0.3,0.6-0.6,1.2-0.9,1.8c-0.2,0.3-0.3,0.6-0.5,0.9c-0.1,0.3-0.3,0.7-0.4,1
							c-0.3,0.7-0.5,1.4-0.8,2.1c-0.2,0.7-0.4,1.5-0.6,2.3c-0.3,1.6-0.6,3.2-0.6,5c-0.1,0.9,0,1.7,0.1,2.6c0,0.4,0.1,0.9,0.1,1.3
							c0.1,0.4,0.2,0.9,0.2,1.3c0.6,3.6,2.1,7.1,4.1,10.2c2,3.1,4.4,5.7,6.9,8.2c5.1,4.9,10.7,8.8,16.2,12.7
							c5.5,3.8,10.8,7.5,15.4,11.4c2.3,1.9,4.4,3.9,6.2,5.9c1.8,2,3.3,4,4.4,6c2.3,4,2.8,7.9,2.6,11.2c-0.3,3.2-1.2,5.7-2.1,7.3
							c-0.5,0.8-0.8,1.5-1.1,1.9c-0.3,0.4-0.4,0.7-0.4,0.7s-0.5,0.8-1.6,2.1c-1.1,1.4-2.9,3.3-5.4,5.7c-2.5,2.4-5.7,5.2-9.3,8.6
							c-3.6,3.4-7.7,7.5-11.2,12.7c-3.5,5.2-6.3,11.7-7.2,18.6c-1,6.9,0,13.9,1.8,20.3c1.8,6.4,4.8,12.1,7.7,17.3
							c0.8,1.3,1.6,2.5,2.3,3.7c0.4,0.6,0.8,1.2,1.1,1.8c0.4,0.6,0.8,1.1,1.2,1.7c0.8,1.1,1.6,2.2,2.4,3.3c0.8,1.1,1.5,2.1,2.4,3.1
							c1.1,1.3,2.1,2.5,3,3.7c0.9,1.2,1.8,2.3,2.8,3.3c1.8,2,3.4,3.8,4.8,5.3c2.9,3.1,5.1,5.2,6.6,6.7c6.2,6,11.5,10.1,16.9,13.5
							c1.3,0.9,2.7,1.7,4,2.5c1.4,0.8,2.8,1.5,4.2,2.2c2.9,1.5,5.9,2.9,9.2,4.4c-2.2-2.9-4.2-5.5-6.2-8c-1-1.2-2-2.4-3-3.6
							c-1-1.2-2-2.4-3-3.6c-4.1-4.7-8.6-9.4-14.5-15.2c-1.4-1.5-3.5-3.5-6.3-6.5c-1.3-1.5-2.9-3.2-4.6-5.1c-0.9-0.9-1.7-2-2.6-3.1
							c-0.9-1.1-1.8-2.2-2.8-3.4c-0.8-0.9-1.5-1.9-2.2-2.9c-0.7-1-1.4-2-2.2-3c-0.4-0.5-0.8-1-1.1-1.6c-0.3-0.5-0.7-1.1-1-1.6
							c-0.7-1.1-1.4-2.2-2.1-3.4c-2.6-4.6-5.2-9.6-6.7-14.8c-1.5-5.2-2.2-10.6-1.5-15.7c0.7-5.1,2.6-9.8,5.4-13.9
							c2.8-4.1,6.2-7.6,9.6-10.8c3.4-3.2,6.7-6,9.4-8.6c2.7-2.6,4.9-4.9,6.3-6.7c0.7-0.8,1.2-1.6,1.6-2.1c0.4-0.5,0.5-0.7,0.5-0.7
							s0.2-0.3,0.6-0.9c0.4-0.6,1-1.5,1.6-2.8c0.3-0.6,0.7-1.4,1-2.1c0.3-0.8,0.7-1.7,1-2.7c0.6-2,1.1-4.3,1.3-6.9
							c0-1.3,0.1-2.6,0-4c-0.1-0.7-0.1-1.4-0.2-2.1c-0.1-0.7-0.3-1.4-0.4-2.2c-0.1-0.4-0.2-0.7-0.2-1.1c-0.1-0.4-0.2-0.7-0.3-1.1
							c-0.2-0.7-0.5-1.5-0.7-2.2c-0.6-1.4-1.2-3-2-4.4c-1.6-2.9-3.5-5.6-5.8-8c-2.2-2.5-4.7-4.8-7.3-7c-5.1-4.3-10.7-8.2-16.1-12
							c-5.4-3.8-10.7-7.6-14.9-11.6c-2.1-2-3.9-4.1-5.3-6.2c-1.3-2.1-2.2-4.2-2.5-6.2c-0.4-2-0.3-4,0.1-5.9c0.4-1.9,1.2-3.6,2-5.2
							c1.9-3.5,4.2-5.8,5.9-7.6c0.9-0.9,1.6-1.6,2.3-2.2c0.7-0.6,1.3-1.1,1.8-1.5c6-5.1,11.2-8.8,16-12.7
							C101.2,158.8,105.9,155.1,111.5,150.4z"/>
					</g>
				</g>
			</g>
			<path class="st4" d="M127.5,166.3c-8.4,0-15.3-6.9-15.3-15.3c0-8.4,6.9-15.3,15.3-15.3h19.4c8.4,0,15.3,6.9,15.3,15.3
				c0,8.4-6.9,15.3-15.3,15.3H127.5z"/>
			<path class="st5" d="M146.9,160.7h-19.4c-5.3,0-9.7-4.4-9.7-9.7v0c0-5.3,4.4-9.7,9.7-9.7h19.4c5.3,0,9.7,4.4,9.7,9.7v0
				C156.6,156.3,152.3,160.7,146.9,160.7z"/>
			<path class="st1" d="M113,182.7c-17.5,0-31.7-14.2-31.7-31.7c0-17.5,14.2-31.7,31.7-31.7c17.5,0,31.7,14.2,31.7,31.7
				C144.7,168.5,130.5,182.7,113,182.7z M113.4,142.9c-4.2,0-7.6,3.4-7.6,7.6s3.4,7.6,7.6,7.6s7.6-3.4,7.6-7.6
				S117.6,142.9,113.4,142.9z"/>
			<path class="st5" d="M113,124.9c-14.4,0-26.1,11.7-26.1,26.1c0,14.4,11.7,26.1,26.1,26.1c14.4,0,26.1-11.7,26.1-26.1
				C139.1,136.6,127.4,124.9,113,124.9z M113.4,163.6c-7.3,0-13.2-5.9-13.2-13.2c0-7.3,5.9-13.2,13.2-13.2c7.3,0,13.2,5.9,13.2,13.2
				C126.6,157.7,120.7,163.6,113.4,163.6z"/>
		</g>
		<g>
			<g>
				<g>
					<path class="st3" d="M111.5,150.4c-7.1,1.4-13.1,2.9-19.1,5.3c-6,2.4-12.1,5.5-19.1,11.3c-0.6,0.5-1.3,1.1-2.1,1.8
						c-0.8,0.7-1.7,1.6-2.7,2.6c-2,2.2-4.9,5-7.7,9.9c-0.3,0.6-0.6,1.2-0.9,1.8c-0.2,0.3-0.3,0.6-0.5,0.9c-0.1,0.3-0.3,0.7-0.4,1
						c-0.3,0.7-0.5,1.4-0.8,2.1c-0.2,0.7-0.4,1.5-0.6,2.3c-0.3,1.6-0.6,3.2-0.6,5c-0.1,0.9,0,1.7,0.1,2.6c0,0.4,0.1,0.9,0.1,1.3
						c0.1,0.4,0.2,0.9,0.2,1.3c0.6,3.6,2.1,7.1,4.1,10.2c2,3.1,4.4,5.7,6.9,8.2c5.1,4.9,10.7,8.8,16.2,12.7
						c5.5,3.8,10.8,7.5,15.4,11.4c2.3,1.9,4.4,3.9,6.2,5.9c1.8,2,3.3,4,4.4,6c2.3,4,2.8,7.9,2.6,11.2c-0.3,3.2-1.2,5.7-2.1,7.3
						c-0.5,0.8-0.8,1.5-1.1,1.9c-0.3,0.4-0.4,0.7-0.4,0.7s-0.5,0.8-1.6,2.1c-1.1,1.4-2.9,3.3-5.4,5.7c-2.5,2.4-5.7,5.2-9.3,8.6
						c-3.6,3.4-7.7,7.5-11.2,12.7c-3.5,5.2-6.3,11.7-7.2,18.6c-1,6.9,0,13.9,1.8,20.3c1.8,6.4,4.8,12.1,7.7,17.3
						c0.8,1.3,1.6,2.5,2.3,3.7c0.4,0.6,0.8,1.2,1.1,1.8c0.4,0.6,0.8,1.1,1.2,1.7c0.8,1.1,1.6,2.2,2.4,3.3c0.8,1.1,1.5,2.1,2.4,3.1
						c1.1,1.3,2.1,2.5,3,3.7c0.9,1.2,1.8,2.3,2.8,3.3c1.8,2,3.4,3.8,4.8,5.3c2.9,3.1,5.1,5.2,6.6,6.7c6.2,6,11.5,10.1,16.9,13.5
						c1.3,0.9,2.7,1.7,4,2.5c1.4,0.8,2.8,1.5,4.2,2.2c2.9,1.5,5.9,2.9,9.2,4.4c-2.2-2.9-4.2-5.5-6.2-8c-1-1.2-2-2.4-3-3.6
						c-1-1.2-2-2.4-3-3.6c-4.1-4.7-8.6-9.4-14.5-15.2c-1.4-1.5-3.5-3.5-6.3-6.5c-1.3-1.5-2.9-3.2-4.6-5.1c-0.9-0.9-1.7-2-2.6-3.1
						c-0.9-1.1-1.8-2.2-2.8-3.4c-0.8-0.9-1.5-1.9-2.2-2.9c-0.7-1-1.4-2-2.2-3c-0.4-0.5-0.8-1-1.1-1.6c-0.3-0.5-0.7-1.1-1-1.6
						c-0.7-1.1-1.4-2.2-2.1-3.4c-2.6-4.6-5.2-9.6-6.7-14.8c-1.5-5.2-2.2-10.6-1.5-15.7c0.7-5.1,2.6-9.8,5.4-13.9
						c2.8-4.1,6.2-7.6,9.6-10.8c3.4-3.2,6.7-6,9.4-8.6c2.7-2.6,4.9-4.9,6.3-6.7c0.7-0.8,1.2-1.6,1.6-2.1c0.4-0.5,0.5-0.7,0.5-0.7
						s0.2-0.3,0.6-0.9c0.4-0.6,1-1.5,1.6-2.8c0.3-0.6,0.7-1.4,1-2.1c0.3-0.8,0.7-1.7,1-2.7c0.6-2,1.1-4.3,1.3-6.9c0-1.3,0.1-2.6,0-4
						c-0.1-0.7-0.1-1.4-0.2-2.1c-0.1-0.7-0.3-1.4-0.4-2.2c-0.1-0.4-0.2-0.7-0.2-1.1c-0.1-0.4-0.2-0.7-0.3-1.1
						c-0.2-0.7-0.5-1.5-0.7-2.2c-0.6-1.4-1.2-3-2-4.4c-1.6-2.9-3.5-5.6-5.8-8c-2.2-2.5-4.7-4.8-7.3-7c-5.1-4.3-10.7-8.2-16.1-12
						c-5.4-3.8-10.7-7.6-14.9-11.6c-2.1-2-3.9-4.1-5.3-6.2c-1.3-2.1-2.2-4.2-2.5-6.2c-0.4-2-0.3-4,0.1-5.9c0.4-1.9,1.2-3.6,2-5.2
						c1.9-3.5,4.2-5.8,5.9-7.6c0.9-0.9,1.6-1.6,2.3-2.2c0.7-0.6,1.3-1.1,1.8-1.5c6-5.1,11.2-8.8,16-12.7
						C101.2,158.8,105.9,155.1,111.5,150.4z"/>
				</g>
			</g>
		</g>
		<path class="st5" d="M113,124.9c-14.4,0-26.1,11.7-26.1,26.1c0,14.4,11.7,26.1,26.1,26.1c14.4,0,26.1-11.7,26.1-26.1
			C139.1,136.6,127.4,124.9,113,124.9z M113.4,163.6c-7.3,0-13.2-5.9-13.2-13.2c0-7.3,5.9-13.2,13.2-13.2c7.3,0,13.2,5.9,13.2,13.2
			C126.6,157.7,120.7,163.6,113.4,163.6z"/>
	</g>
	<path class="st6" d="M257.8,262.8c-58.7,0-106.5-47.8-106.5-106.5c0-58.7,47.8-106.5,106.5-106.5s106.5,47.8,106.5,106.5
		C364.3,215.1,316.5,262.8,257.8,262.8z"/>
	<g>
		<radialGradient id="SVGID_1_" cx="261.4812" cy="144.7568" r="144.6159" gradientUnits="userSpaceOnUse">
			<stop  offset="0" style="stop-color:#1F1714"/>
			<stop  offset="1" style="stop-color:#10100F"/>
		</radialGradient>
		<circle class="st7" cx="257.8" cy="154" r="100.9"/>
		<linearGradient id="SVGID_2_" gradientUnits="userSpaceOnUse" x1="312.6544" y1="247.6126" x2="203.0009" y2="65.1185">
			<stop  offset="0" style="stop-color:#C7882B"/>
			<stop  offset="0.1212" style="stop-color:#6A3817"/>
			<stop  offset="0.2404" style="stop-color:#FFFFFF"/>
			<stop  offset="0.4121" style="stop-color:#C7882B"/>
			<stop  offset="0.703" style="stop-color:#6A3817"/>
			<stop  offset="0.8306" style="stop-color:#FFFFFF"/>
			<stop  offset="1" style="stop-color:#C7882B"/>
		</linearGradient>
		<path class="st8" d="M257.8,257.2C202.2,257.2,157,212,157,156.4S202.2,55.5,257.8,55.5s100.9,45.2,100.9,100.9
			S313.4,257.2,257.8,257.2z"/>
		<path class="st9" d="M292.5,86.1c20.9,5.3,34.5,25.4,31.6,46.8c-3.6,26.5-7.4,45.6-12.2,50c-11.5,10.5-112.4-17.9-116.6-29.8
			c-2.2-6.4-1.7-7.5-1.7-20c0.1-17.9,11.4-34,28.4-39.9c16.8-5.8,32.5-13.4,52.3-10.7C280.3,83.4,286.4,84.6,292.5,86.1z"/>
		
			<radialGradient id="SVGID_3_" cx="307.3207" cy="-510.5458" r="58.9913" gradientTransform="matrix(-1 0 0 -1 537.3722 -422.0562)" gradientUnits="userSpaceOnUse">
			<stop  offset="0" style="stop-color:#FFFFFF"/>
			<stop  offset="1" style="stop-color:#000000"/>
		</radialGradient>
		<path class="st10" d="M190.4,123.3c13.2-23.3,38.6-40.6,66.2-41.5c8.9-0.3,19-0.1,27.7,1.8c17.7,4,36.1,22.8,44.6,41.7
			c-4.4-24.2-29.1-39.6-50.7-44.4c-7.7-1.7-16.7-1.9-24.6-1.6c-24.5,0.9-47,16.1-58.7,36.8c-4.8,8.5-8.3,17.6-11.3,26.7
			c-1.7,5-3,10.6-3.8,16.4C183.2,149.5,185.2,132.4,190.4,123.3z"/>
	</g>
	<circle class="st11" cx="113.1" cy="150.7" r="13.5"/>
</g>
</svg>
