<?xml version="1.0" encoding="utf-8"?>
<!-- Generator: Adobe Illustrator 21.1.0, SVG Export Plug-In . SVG Version: 6.00 Build 0)  -->
<svg version="1.1" id="Layer_1" xmlns="http://www.w3.org/2000/svg" xmlns:xlink="http://www.w3.org/1999/xlink" x="0px" y="0px"
	 viewBox="0 0 486.2 324" style="enable-background:new 0 0 486.2 324;" xml:space="preserve">
<style type="text/css">
	.st0{fill:#231F20;}
	.st1{fill:#FFFFFF;}
	.st2{fill:none;stroke:#99999A;stroke-width:1.1945;stroke-miterlimit:10;}
	.st3{fill:#BDBBBB;}
	.st4{fill:#3F3B3C;}
	.st5{fill:#404041;}
	.st6{fill:url(#SVGID_1_);}
	.st7{fill:url(#SVGID_2_);}
	.st8{fill:url(#SVGID_3_);}
	.st9{fill:url(#SVGID_4_);}
	.st10{fill:#474749;}
	.st11{fill:#FF4612;}
	.st12{fill:url(#SVGID_5_);}
	.st13{fill:url(#SVGID_6_);}
	.st14{fill:url(#SVGID_7_);}
	.st15{fill:url(#SVGID_8_);}
	.st16{display:none;}
	.st17{display:inline;}
	.st18{display:inline;fill:#99999A;}
	.st19{fill:#F15B2D;}
</style>
<g>
	<path class="st0" d="M149.3,295.4c-1.1,0-2.2-0.4-3-1.1c-1.5-1.2-2.1-3.2-1.5-5c0.1-0.3,8-28.2,8.9-46.3c0.3-5.2-0.8-8.9-2.1-13.6
		c-2.5-9-5.6-20.2,0.1-45.8c-25.6,25.4-50.7,47.5-66,59.9c-1.3,1.1-3.1,1.4-4.7,0.7c-1.6-0.6-2.7-2.1-3-3.8
		c-0.3-1.7-7.2-43.1-59.9-49.1c-1.7-0.2-3.2-1.3-3.8-2.9c-0.7-1.6-0.5-3.4,0.6-4.8c0.4-0.6,1.6-2.3,3.5-4.8
		c11.8-16.4,47.6-66.4,59.9-77.6c0.1,0,0.1-0.1,0.2-0.1c9.8-8.2,24.6-22.4,37.7-35c16-15.4,26.1-25.1,30.5-27.9
		c0.1-0.1,0.3-0.2,0.5-0.3c7-4.9,17.2-7.3,23-9.2c5.8-1.8,6.9-1.3,14.1-5.6c0.9-0.5,13.3,10.5,30,15.4c3.3,1,5.2,7,8.4,8.5
		c10.8,5,19.3,6.7,32.5,7.3c6.4,0.8,15.3,2.9,20.3,3.6c7.9,1.2,13-2,13.1-2c0.9-0.3,2.4-1,4.4-2.3c6.2-3.8,17.7-11.9,23.1-22.6
		c1.2-2.3,18.3-15.8,20.4-15.1c13.3,4.3,28,14.4,33.3,18.8c3.2,2.7,6,8,10.3,16c6.6,12.2,15.5,28.6,29.5,42.9
		c0.1-0.1,0.1-0.2,0.2-0.3c5.4-8.2,10.3-15.1,16.6-16c1.6-0.2,3.3,0.4,4.3,1.7c1,1.3,1.3,3,0.8,4.6c-1.1,3.2,1.1,9.9,6.6,15.4
		c3.7,3.6,14,11.5,29.8,5.7c1.6-0.6,3.3-0.3,4.6,0.7c1.3,1,2,2.7,1.8,4.3c-4.4,36.9-34.2,71.8-54.1,83.5c7.7,17.4,14.3,48.6,3.8,72
		c-0.8,1.7-0.5,0.5-2.6,4c-0.9,1.6-0.6-1-1.4-2.6c-0.1-0.2-10.6-20.1-55.9-15.7c-20.8,2-34.8,7.5-49.6,13.4
		c-13.9,5.5-29.7,11.8-52.9,15.7c-25,6.6-45.5,7-63.6,7.3c-18.4,0.3-33,0.6-46.2,7.2C150.8,295.2,150,295.4,149.3,295.4z
		 M161.3,184.4c-5.6,24.2-2.9,33.9-0.5,42.4c1.3,4.9,2.7,9.9,2.4,16.7c-0.6,12.4-4.3,28.9-6.8,39.1c12.6-4,26-4.2,41.2-4.5
		c17.6-0.3,37.6-0.7,61.6-7c0.1,0,0.3-0.1,0.4-0.1c22.3-3.8,37-9.6,51.2-15.2c15.4-6.1,30-11.9,52.2-14c31.3-3,49.9,5,59.2,13.3
		c3.9-19.3-4.8-43.6-11-57.7c-0.6,0.1-1.3,0.1-1.9-0.1c-38.5-9.5-57.9-75.8-58.7-78.6c-0.6-2.2,0.4-4.6,2.5-5.6c2.1-1,4.6-0.4,6,1.5
		c0,0,3,4.2,12.4,16.4c3.1,4,8,8.9,13.2,14c10.9,10.8,23.3,23,29.4,36.6c0.3,0.5,0.9,1.7,1.8,3.4c15.3-9.3,40.7-36.8,47.5-68.9
		c-16.7,3-27.8-5.6-32.2-9.9c-4.3-4.3-7.4-9.4-8.8-14.3c-2,2.6-3.9,5.5-4.8,6.9c-2.9,4.5-4.1,6.3-6.7,6.8c-1.3,0.3-2.7,0-3.8-0.8
		c-0.2-0.1-0.4-0.3-0.6-0.4c-17.3-16.1-28-35.8-35-48.9c-3.3-6-6.4-11.7-8.2-13.3c-7.7-6.6-26.4-17.7-36.5-18.5
		c-3.6,17.3-17.6,31.2-29.1,38.2c-2.1,1.3-4.1,2.3-5.9,3c-1.1,0.4-4.4,1.7-14.9,0.2c-11-1.6-31.7-4-51.6-11.7
		c-12.9-5.1-24.7-13.1-35.4-22.3c-6.7,3.7-11.5,5.2-16.9,6.9c-5.4,1.7-14.3,2.8-21.3,8.5c-8,6.8-16.6,14.9-28.8,26.6
		c-13.1,12.7-28,27-38.1,35.4c-7.7,7-27,32.1-57.5,74.6c26.3,5,41.1,18.7,49,29.8c4.9,6.9,7.8,13.6,9.4,18.5
		c15.7-13.1,38.7-33.6,61.8-56.8c0.1-0.1,0.2-0.2,0.3-0.2c10.5-9.1,21-17,30.3-24c8.7-6.6,16.3-12.3,21.7-17.3
		c1.8-1.7,4.6-1.7,6.4-0.1c1.8,1.6,2.2,4.4,0.7,6.4c-4.9,6.8-11.6,11.8-18.7,17.2C178.2,163.7,168.1,171.3,161.3,184.4z
		 M370.9,144.8c7.8,16,19.4,34.1,34.5,41c-0.1-0.1-0.1-0.2-0.1-0.3c-5.4-12.1-17.2-23.7-27.5-33.9C375.3,149.3,373,147,370.9,144.8z
		"/>
	<path class="st1" d="M409.6,183.6c-8.8-19.6-32.6-37.4-42.2-49.8s-12.5-16.5-12.5-16.5s19,66.4,55.3,75.3c15.3-3.8,54-40.8,59-83.2
		c-28.1,10.4-46.6-15.8-42.6-27.1c-7.2,0.9-15.6,19.5-17,18.5c-25.8-24.1-36.3-56.2-43.4-62.3c-7.5-6.4-27.8-17.4-39.7-14.9
		c-7.2,10.3-21.2,27.9-31.5,34.2c-1.9,1.2-3.7,2.1-5.2,2.7c-2.1,0.8-6.5,2.3-12.5,1.7c-21.9-4.4-38.2-5.4-49.3-8.7
		c-7.8-2.3-14.7-11.9-20.1-14c-4.7-3.9-14.4-8.3-23.5-13.2c-14.9,8.9-14.3,5.5-35.4,16c-8.4,5.4-47.7,45.9-67.7,62.6
		c-13.9,12.7-59.6,77.5-62.7,81.8c57.3,6.6,64.1,53.2,64.1,53.2c17.6-14.2,43.5-37.4,67.9-61.8c38.4-36.8,40.7-30.9,52.1-41.5
		c-10.9,15.3-33.6,21.9-45.9,46.3c-9.2,39.5,2.5,43.2,1.6,60.5c-0.9,17.3-8,43.4-9.1,47.4c27.9-14,60.9-1.6,111-14.9
		c47.4-8.1,61.6-25.2,103-29.2s55,8.8,58.2,15.3C435.3,230.7,409.6,183.6,409.6,183.6"/>
	<path class="st2" d="M124.8,128.6"/>
	<g>
		<polygon class="st3" points="93.6,94.1 85.7,101.1 149.2,145.5 		"/>
		<polygon class="st3" points="86,100.8 80.8,105.3 122.1,134.2 		"/>
	</g>
	<path class="st0" d="M410.1,197.3c-0.4,0-0.8,0-1.1-0.1c-38.5-9.5-57.9-76.6-58.7-79.4c-0.7-2.5,0.8-5.2,3.3-5.9
		c2.5-0.7,5.2,0.8,5.9,3.3c0.2,0.6,18.2,63.1,50.6,72.4c13.6-4.6,45.4-35.2,53.1-71.6c-16.7,3-27.8-5.6-32.2-9.9
		c-4.3-4.3-7.4-9.4-8.8-14.3c-2,2.6-3.9,5.5-4.8,6.9c-2.9,4.5-4.1,6.3-6.7,6.8c-1.3,0.3-2.7,0-3.8-0.8c-0.2-0.1-0.4-0.3-0.6-0.4
		c-17.3-16.1-28-35.8-35-48.9c-3.3-6-6.4-11.7-8.2-13.3c-2-1.7-2.2-4.7-0.5-6.7c1.7-2,4.7-2.2,6.7-0.5c3.2,2.7,6,8,10.3,16
		c6.6,12.2,15.5,28.6,29.5,42.9c0.1-0.1,0.1-0.2,0.2-0.3c5.4-8.2,10.3-15.1,16.6-16c1.7-0.2,3.3,0.4,4.3,1.7c1,1.3,1.3,3,0.8,4.6
		c-1.1,3.2,1.1,9.9,6.6,15.4c3.7,3.6,14,11.5,29.8,5.7c1.6-0.6,3.3-0.3,4.6,0.7c1.3,1,2,2.7,1.8,4.3c-5.1,42.7-44.2,82.7-62.6,87.3
		C410.9,197.3,410.5,197.3,410.1,197.3z"/>
	<path class="st1" d="M349.5,115.3c0,0,0.8,2.6,0.9,2.7c1.6,4.4,24.8,66,59.8,74.5c15.3-3.8,54-40.8,59-83.2
		c-28.1,10.4-46.6-15.8-42.6-27.1c-7.2,0.9-15.6,19.5-17,18.5c-25-23.3-35.7-54.3-42.7-61.7c-1.2-1.4-6.6-5.1-6.8-5.2"/>
	<g>
		<polygon class="st3" points="403.3,93.5 399.1,88.6 371.9,127.4 		"/>
		<polygon class="st3" points="399.2,88.6 396.5,85.4 378.8,110.6 		"/>
	</g>
	<path class="st0" d="M192.4,89.1"/>
	<g>
		<g>
			<g>
				<path class="st4" d="M152.4,46.2c0,0-0.1,0-0.1-0.1c-0.2-0.6-0.2-1.6,1.3-1.7c0,0,0.1,0,0.2,0c0.9,0.7,1.9,1.4,3,2
					c3.1,2,6.4,4,9.3,6.4c3,2.4,5.7,5,8.2,7.8c2.5,2.8,4.8,5.9,6.9,9c2.1,3.2,3.9,6.5,5.7,9.8c3.6,6.6,6.6,13.6,9,20.7
					c1.2,3.6,2.2,7.2,3.1,10.9l0.6,2.6c0,0,0.5,3.4,0.5,5.8c0.2,4.1-0.6,2.5-1.2,0.1c0,0.1-0.4-1.3-0.7-2.8c-0.4-1.5-0.8-3-0.8-3
					l-0.2-1l-0.6-2.5c-0.9-3.5-1.9-7-3.1-10.5c-2.3-6.9-5.3-13.6-8.8-20c-0.9-1.6-1.8-3.2-2.7-4.8c-0.9-1.6-1.9-3.1-2.9-4.6
					c-2.1-3-4.2-5.9-6.6-8.6c-2.4-2.7-5-5.2-7.9-7.4c-2.8-2.3-5.9-4.2-9-6.2C154.5,47.7,153.5,47,152.4,46.2z"/>
			</g>
		</g>
	</g>
	<g>
		<g>
			<g>
				<path class="st4" d="M189,148.2c1.8,0,3.1-0.1,5.2-0.8c0.3-0.1,0.9-0.3,2.1-0.7c1.3-0.5,3.4-1.3,5.1-2.2
					c1.7-0.8,3.1-1.6,3.1-1.6s1.2-0.6,2.6-1.5c1.4-0.9,3.2-2.1,4.3-3c1.3-1,2.1-1.7,2.5-2c1.7-1.4,2.4-2.4,3.4-4
					c-1.6,0.9-2.6,1.6-4.3,2.9c-0.4,0.3-1.2,1-2.5,2c-1.2,0.9-2.8,2-4.2,2.9c-1.4,0.9-2.6,1.5-2.6,1.5s-1.4,0.8-3.1,1.6
					c-1.7,0.8-3.7,1.7-5,2.1c-1.1,0.4-1.7,0.6-2,0.7C191.7,146.8,190.6,147.4,189,148.2z"/>
			</g>
		</g>
	</g>
	<g>
		<g>
			<g>
				<path class="st4" d="M356.5,34c-0.2,1.8-0.3,3.1-0.1,5.2c0,0.3,0,0.7,0.1,1.3c0,0.3,0,0.6,0.1,0.9c0,0.6,0,1.2,0.1,1.8
					c0.1,2.6,0,5.6-0.2,8.5c-0.2,2.9-0.6,5.6-1,7.6c-0.4,2-0.7,3.3-0.7,3.3s-0.2,0.8-0.5,2c-0.3,1.2-0.8,3-1.4,4.9
					c-0.6,1.9-1.4,4-2.2,6c-0.8,2-1.7,3.9-2.5,5.4c-0.7,1.5-1.2,2.3-1.5,2.8c-1,1.9-1.4,3-2,4.8c1.3-1.3,2.2-2.2,3.2-4.1
					c0.3-0.5,0.8-1.4,1.5-2.8c0.8-1.6,1.7-3.5,2.5-5.5c0.8-2,1.6-4.1,2.2-6.1c0.6-1.9,1.1-3.7,1.4-5c0.3-1.3,0.5-2,0.5-2
					s0.3-1.3,0.7-3.3c0.4-2,0.8-4.8,1-7.7c0.2-2.9,0.3-6,0.2-8.6c0-0.6-0.1-1.3-0.1-1.8c0-0.3,0-0.6-0.1-0.9c0-0.5-0.1-1-0.1-1.3
					C357.6,36.9,357.2,35.7,356.5,34z"/>
			</g>
		</g>
	</g>
	<path class="st5" d="M51.3,204.3c17.1,15,31.6,40.2,26.3,46.2c-1.4,1.6-3,1.6-6.6,0.6c-1.1-16.2-7.9-30.4-17.6-38.8
		c-7.4-6.5-24.9-21.7-42.9-9.2c-3.5-5.3-5-9.7-2.6-12.4C13.1,184.7,34.1,189.3,51.3,204.3z"/>
	<path class="st0" d="M7.7,191.1c16.8,0.4,59.4,19.1,69.9,59.4c5.7-4.5,41.7-36.4,45.7-39.9c-6.7-21.7-41.8-61.3-78.2-66.7
		C38.5,151,14.7,183.7,7.7,191.1z"/>
	<path class="st5" d="M447,103.8c-12.5-16.4-16.6-30.9-14.2-32.6c1.9-1.3,5.5-0.6,8.5,1.6c-0.8,0.8-3.2,3.4-3.8,5.8
		c-0.3,1.2-0.7,9,8.6,21.9c10.2,8,15.7,5.5,21.3,4.4c2.3-0.4,6.1,1.4,8,1.1c8.8,7.8,12.5,14.9,10,17.9
		C481.3,128.6,460.4,115.6,447,103.8z"/>
	<path class="st0" d="M485.4,123.9c-14.8-0.4-51-25.1-52.6-52.7c-9.8,7.2-27.2,15.2-30.6,18.3c13.1,29-7.3,49.9,37.3,88
		C445.2,171.2,479.2,130.4,485.4,123.9z"/>
	<linearGradient id="SVGID_1_" gradientUnits="userSpaceOnUse" x1="27.1122" y1="172.2338" x2="90.5405" y2="235.662">
		<stop  offset="0" style="stop-color:#FF4612"/>
		<stop  offset="0.4688" style="stop-color:#FF4612"/>
		<stop  offset="0.5506" style="stop-color:#FFFFFF"/>
		<stop  offset="0.641" style="stop-color:#FF4612"/>
		<stop  offset="1" style="stop-color:#FF4612"/>
	</linearGradient>
	<path class="st6" d="M17.5,184.2c15.6,0.4,57.5,18.2,67.2,55.6c5.2-4.2,7.4-6.2,11.1-9.4C89.7,210.3,61,177,27.4,172
		C21.3,178.6,23.2,177,17.5,184.2z"/>
	<linearGradient id="SVGID_2_" gradientUnits="userSpaceOnUse" x1="41.4707" y1="154.0123" x2="107.7138" y2="220.2554">
		<stop  offset="0" style="stop-color:#FF4612"/>
		<stop  offset="0.4688" style="stop-color:#FF4612"/>
		<stop  offset="0.5506" style="stop-color:#FFFFFF"/>
		<stop  offset="0.641" style="stop-color:#FF4612"/>
		<stop  offset="1" style="stop-color:#FF4612"/>
	</linearGradient>
	<path class="st7" d="M32.3,165.9c15.6,0.4,60.3,21.1,70,58.5c5.2-4.2,6.9-5.9,10.5-9.2c-6.2-20.1-37.7-56.2-71.3-61.2
		C35.4,160.6,37.9,158.7,32.3,165.9z"/>
	<g>
		<linearGradient id="SVGID_3_" gradientUnits="userSpaceOnUse" x1="415.089" y1="86.8135" x2="466.4376" y2="138.1622">
			<stop  offset="0" style="stop-color:#FF4612"/>
			<stop  offset="0.4688" style="stop-color:#FF4612"/>
			<stop  offset="0.5506" style="stop-color:#FFFFFF"/>
			<stop  offset="0.641" style="stop-color:#FF4612"/>
			<stop  offset="1" style="stop-color:#FF4612"/>
		</linearGradient>
		<path class="st8" d="M471.1,132.5c-12.6-2.4-42.9-23.4-46.3-51.9c-4.7,2.5-4.7,2.5-8.5,5c2.6,16.1,19.8,47.8,46.4,56.3
			C466.7,137,466.7,137,471.1,132.5z"/>
		<linearGradient id="SVGID_4_" gradientUnits="userSpaceOnUse" x1="402.2314" y1="96.8845" x2="455.3654" y2="150.0184">
			<stop  offset="0" style="stop-color:#FF4612"/>
			<stop  offset="0.4688" style="stop-color:#FF4612"/>
			<stop  offset="0.5506" style="stop-color:#FFFFFF"/>
			<stop  offset="0.641" style="stop-color:#FF4612"/>
			<stop  offset="1" style="stop-color:#FF4612"/>
		</linearGradient>
		<path class="st9" d="M458.1,146.6c-12.6-2.4-41-26.1-46.1-57.8c-1.7,1-2.2,1-4.3,2.6c1.6,4,3.5,14.9,3.9,16.4
			c4.9,16.4,12.9,37,38,48C455.6,149.3,455.2,149.9,458.1,146.6z"/>
	</g>
	<g>
		<g>
			<g>
				<path class="st10" d="M289.8,60.4c-0.2,3.1-0.5,5-0.3,8.6c0,0.5,0,1.2,0.1,2.1c0,0.4,0,0.9,0,1.5c0,1.1,0.1,2.3,0.1,3.6
					c0,1.3,0.1,2.6,0.2,4c0.4,5.4,1,11.4,2.7,17.4c0.8,3,1.9,5.9,3.1,8.8c1.2,2.8,2.4,5.6,3.6,8.5c2.4,5.6,4.5,11.2,6.7,16.2
					c2.2,5.1,4.4,9.7,6.4,13.5c2,3.8,3.8,6.9,5,9.1c1.2,2.1,1.9,3.3,1.9,3.3s2.7,4.8,6.8,12.4c2,3.8,4.3,8.3,6.7,13.2
					c2.4,4.9,4.8,10.3,6.8,16c1,2.8,1.8,5.8,2.4,8.7c0.3,1.5,0.5,3,0.6,4.5c0.1,0.8,0.1,1.5,0.2,2.3c0,0.8,0.1,1.5,0.1,2.2
					c0.1,3,0.1,5.9,0,8.8c-0.1,1.4-0.2,2.8-0.3,4.2c-0.1,0.7-0.2,1.4-0.2,2c-0.1,0.6-0.2,1.2-0.3,1.9c-0.3,2.3-0.7,4.2-0.9,5.1
					c-0.7,3.5-0.9,5.5-1,8.6c1.6-2.7,2.5-4.5,3.3-8.1c0.2-1,0.6-2.9,1-5.3c0.1-0.6,0.2-1.3,0.3-1.9c0.1-0.7,0.2-1.4,0.3-2.1
					c0.1-1.4,0.3-2.9,0.3-4.3c0.2-2.9,0.2-6,0-9c0-0.8-0.1-1.5-0.1-2.3c-0.1-0.8-0.1-1.5-0.2-2.3c-0.1-1.5-0.4-3.1-0.6-4.7
					c-0.6-3.1-1.5-6.1-2.5-9.1c-2.1-5.8-4.5-11.3-7-16.3c-2.4-5-4.7-9.5-6.8-13.3c-4.1-7.6-6.8-12.4-6.8-12.4s-0.7-1.2-1.9-3.4
					c-1.2-2.2-2.9-5.2-4.9-9c-2-3.8-4.2-8.3-6.3-13.4c-2.2-5-4.4-10.6-6.7-16.2c-1.2-2.8-2.4-5.7-3.6-8.5c-1.2-2.8-2.3-5.6-3-8.5
					c-1.6-5.7-2.3-11.5-2.6-16.9c-0.2-5-0.4-9-0.5-11.1C291.6,65.3,291.1,63.2,289.8,60.4z"/>
			</g>
		</g>
	</g>
	<g>
		<g>
			<g>
				<path class="st10" d="M186.2,40.6c1.7,2.6,2.9,4.3,5.7,6.6c0.5,0.4,1.2,1,2.9,2.3c3.7,3,10.3,7.5,16.3,10.8c3,1.7,5.7,3.1,7.8,4
					c1,0.5,1.9,0.9,2.4,1.1c0.6,0.3,0.9,0.4,0.9,0.4s1.1,0.5,2.9,1.2c0.9,0.4,2,0.8,3.2,1.3c1.2,0.4,2.5,0.9,4,1.4
					c2.8,1,6,2,9.1,2.8c3.1,0.8,6.2,1.5,8.7,2c2.7,0.5,4.4,0.8,5.3,0.9c3.6,0.5,5.7,0.3,8.7-0.1c-2.9-1-4.9-1.6-8.4-2.2
					c-0.9-0.1-2.5-0.4-5.2-0.9c-2.5-0.5-5.5-1.2-8.6-2c-3.1-0.8-6.2-1.8-9-2.7c-1.4-0.5-2.7-1-3.9-1.4c-1.2-0.5-2.2-0.9-3.1-1.2
					c-1.7-0.7-2.8-1.2-2.8-1.2s-0.3-0.1-0.9-0.4c-0.6-0.3-1.4-0.6-2.4-1.1c-2-0.9-4.7-2.3-7.6-3.9c-5.9-3.2-12.3-7.7-16-10.6
					c-1.6-1.2-2.4-1.9-2.8-2.3C190.6,43.1,188.9,42.1,186.2,40.6z"/>
			</g>
		</g>
	</g>
	<g>
		<g>
			<g>
				<path class="st10" d="M337.5,29.8c-1.7,2.6-2.8,4.3-4.3,7.5c-0.3,0.5-0.7,1.4-1.6,3.2c-0.8,1.5-2.1,3.9-3.4,5.9
					c-1.3,2-2.4,3.6-2.4,3.6s-0.2,0.3-0.6,0.9c-0.4,0.6-1,1.3-1.6,2.1c-1.3,1.7-2.9,3.6-4.2,5c-1.8,2-3,3.2-3.6,3.8
					c-2.5,2.5-3.8,4.1-5.6,6.5c2.8-1.3,4.6-2.3,7.3-4.8c0.6-0.6,1.9-1.8,3.7-3.9c1.3-1.4,3-3.4,4.3-5.1c0.7-0.9,1.2-1.6,1.6-2.2
					c0.4-0.6,0.6-0.9,0.6-0.9s1.2-1.6,2.5-3.7c1.3-2.1,2.7-4.6,3.5-6.1c0.9-1.9,1.4-2.8,1.6-3.3C336.8,35,337.2,32.9,337.5,29.8z"/>
			</g>
		</g>
	</g>
	<g>
		<path d="M295.3,131.5l0.1-0.1l0.4-0.7c0.8-1.6,0.8-3.6,0.2-5.4c-1-2.9-3.5-4.8-6-4.8c-0.8-0.1-1.7,0-2.9,0.3
			c-1.4,0.5-2.5,1.4-3.1,2.6c-0.8,1.6-0.8,3.7-0.1,5.7l0,0c1.4,3.5,4,5.1,7.4,4.7C293.3,133.4,294.7,132.6,295.3,131.5z
			 M284.7,128.8c-0.3-0.9-0.5-1.8-0.5-2.7c0-0.9,0.2-1.7,0.5-2.3c0.3-0.7,0.8-1.2,1.5-1.6c-0.2,0.3-0.4,0.6-0.6,1
			c-0.4,0.9-0.6,1.8-0.6,2.8c0,0.9,0.1,1.7,0.4,2.6c0.7,1.9,2.1,3.4,3.7,4.2C287.2,132.5,285.7,131.2,284.7,128.8z M292.6,132.3
			c-2.4,0.8-5.2-1-6.2-3.9c-0.6-1.6-0.5-3.3,0.1-4.6c0.5-1,1.3-1.7,2.3-2c2.4-0.8,5.2,1,6.2,3.9c0.6,1.6,0.5,3.3-0.1,4.7
			C294.4,131.2,293.6,131.9,292.6,132.3z"/>
		<path class="st11" d="M295.1,125.6c-1.1-2.9-3.9-4.7-6.2-3.9c-1,0.3-1.8,1-2.3,2c-0.7,1.3-0.7,3-0.1,4.6c1,2.9,3.9,4.7,6.2,3.9
			c1-0.3,1.8-1,2.3-2C295.6,128.9,295.6,127.3,295.1,125.6z"/>
	</g>
	<g>
		<path d="M322.2,184.2l0.1-0.1l0.4-0.7c0.8-1.6,0.8-3.6,0.2-5.4c-1-2.9-3.5-4.8-6-4.8c-0.8-0.1-1.7,0-2.9,0.3
			c-1.4,0.5-2.5,1.4-3.1,2.6c-0.8,1.6-0.8,3.7-0.1,5.7l0,0c1.4,3.5,4,5.1,7.4,4.7C320.2,186.1,321.6,185.3,322.2,184.2z
			 M311.7,181.5c-0.3-0.9-0.5-1.8-0.5-2.7c0-0.9,0.2-1.7,0.5-2.3c0.3-0.7,0.8-1.2,1.5-1.6c-0.2,0.3-0.4,0.6-0.6,1
			c-0.4,0.9-0.6,1.8-0.6,2.8c0,0.9,0.1,1.7,0.4,2.6c0.7,1.9,2.1,3.4,3.7,4.2C314.1,185.2,312.6,183.9,311.7,181.5z M319.5,185
			c-2.4,0.8-5.2-1-6.2-3.9c-0.6-1.6-0.5-3.3,0.1-4.6c0.5-1,1.3-1.7,2.3-2c2.4-0.8,5.2,1,6.2,3.9c0.6,1.6,0.5,3.3-0.1,4.7
			C321.3,183.9,320.5,184.6,319.5,185z"/>
		<path class="st11" d="M322,178.3c-1.1-2.9-3.9-4.7-6.2-3.9c-1,0.3-1.8,1-2.3,2c-0.7,1.3-0.7,3-0.1,4.6c1,2.9,3.9,4.7,6.2,3.9
			c1-0.3,1.8-1,2.3-2C322.5,181.6,322.6,180,322,178.3z"/>
	</g>
	<g>
		<path d="M334.7,241.1l0.1-0.1l0.4-0.7c0.8-1.6,0.8-3.6,0.2-5.4c-1-2.9-3.5-4.8-6-4.8c-0.8-0.1-1.7,0-2.9,0.3
			c-1.4,0.5-2.5,1.4-3.1,2.6c-0.8,1.6-0.8,3.7-0.1,5.7l0,0c1.4,3.5,4,5.1,7.4,4.7C332.7,243,334.1,242.2,334.7,241.1z M324.2,238.4
			c-0.3-0.9-0.5-1.8-0.5-2.7c0-0.9,0.2-1.7,0.5-2.3c0.3-0.7,0.8-1.2,1.5-1.6c-0.2,0.3-0.4,0.6-0.6,1c-0.4,0.9-0.6,1.8-0.6,2.8
			c0,0.9,0.1,1.7,0.4,2.6c0.7,1.9,2.1,3.4,3.7,4.2C326.6,242.1,325.1,240.8,324.2,238.4z M332,241.9c-2.4,0.8-5.2-1-6.2-3.9
			c-0.6-1.6-0.5-3.3,0.1-4.6c0.5-1,1.3-1.7,2.3-2c2.4-0.8,5.2,1,6.2,3.9c0.6,1.6,0.5,3.3-0.1,4.7C333.8,240.8,333,241.5,332,241.9z"
			/>
		<path class="st11" d="M334.5,235.2c-1.1-2.9-3.9-4.7-6.2-3.9c-1,0.3-1.8,1-2.3,2c-0.7,1.3-0.7,3-0.1,4.6c1,2.9,3.9,4.7,6.2,3.9
			c1-0.3,1.8-1,2.3-2C335,238.5,335.1,236.9,334.5,235.2z"/>
	</g>
	<path class="st0" d="M184.4,26.3c-34.7,6.9-45.7,20.3-45.7,20.3l35.5,21.1l34-28.7C208.3,38.9,195.4,30.4,184.4,26.3z"/>
	<path class="st0" d="M336.1,16c22.6,4.6,39.1,22.6,39.1,22.6s-29.7,16.6-33.8,18.6C335.1,45,318.9,29,318.9,29S326.6,23.6,336.1,16
		z"/>
	<linearGradient id="SVGID_5_" gradientUnits="userSpaceOnUse" x1="149.9613" y1="38.8095" x2="175.0242" y2="63.8725">
		<stop  offset="0" style="stop-color:#FF4612"/>
		<stop  offset="0.4688" style="stop-color:#FF4612"/>
		<stop  offset="0.5506" style="stop-color:#FFFFFF"/>
		<stop  offset="0.641" style="stop-color:#FF4612"/>
		<stop  offset="1" style="stop-color:#FF4612"/>
	</linearGradient>
	<path class="st12" d="M144.1,44.8l30.6,18l6.3-4.8c0,0-29.4-15-31.3-16.3C147.7,40.4,144.1,44.8,144.1,44.8z"/>
	<linearGradient id="SVGID_6_" gradientUnits="userSpaceOnUse" x1="159.0552" y1="32.0777" x2="183.3463" y2="56.3688">
		<stop  offset="0" style="stop-color:#FF4612"/>
		<stop  offset="0.4688" style="stop-color:#FF4612"/>
		<stop  offset="0.5506" style="stop-color:#FFFFFF"/>
		<stop  offset="0.641" style="stop-color:#FF4612"/>
		<stop  offset="1" style="stop-color:#FF4612"/>
	</linearGradient>
	<path class="st13" d="M152.4,38.7l31.7,15.7l5.9-4.6c0,0-25-11.7-28.1-13.6C158.7,34.2,152.4,38.7,152.4,38.7z"/>
	<linearGradient id="SVGID_7_" gradientUnits="userSpaceOnUse" x1="344.5479" y1="50.9004" x2="363.409" y2="32.0393">
		<stop  offset="0" style="stop-color:#FF4612"/>
		<stop  offset="0.4688" style="stop-color:#FF4612"/>
		<stop  offset="0.5506" style="stop-color:#FFFFFF"/>
		<stop  offset="0.641" style="stop-color:#FF4612"/>
		<stop  offset="1" style="stop-color:#FF4612"/>
	</linearGradient>
	<polygon class="st14" points="364,34.1 369.2,37.9 344.1,50.5 339.3,44.5 	"/>
	<linearGradient id="SVGID_8_" gradientUnits="userSpaceOnUse" x1="338.1988" y1="43.2019" x2="355.5955" y2="25.8053">
		<stop  offset="0" style="stop-color:#FF4612"/>
		<stop  offset="0.4688" style="stop-color:#FF4612"/>
		<stop  offset="0.5506" style="stop-color:#FFFFFF"/>
		<stop  offset="0.641" style="stop-color:#FF4612"/>
		<stop  offset="1" style="stop-color:#FF4612"/>
	</linearGradient>
	<polygon class="st15" points="337.6,42.3 361.5,31.7 355,28 332.3,37.3 	"/>
	<ellipse transform="matrix(0.94 -0.3412 0.3412 0.94 -0.4601 65.5666)" class="st11" cx="186.2" cy="34.1" rx="6" ry="4.3"/>
	
		<ellipse transform="matrix(0.4504 -0.8928 0.8928 0.4504 162.0247 314.979)" class="st11" cx="336.9" cy="25.9" rx="3.6" ry="4.6"/>
	<g>
		<path d="M283.6,79.8l0.1-0.2l0.5-0.8c0.9-1.9,1-4.2,0.2-6.3c-1.2-3.4-4.2-5.6-7.1-5.6c-1-0.1-2.1,0-3.4,0.4
			c-1.7,0.5-3,1.6-3.7,3.1c-0.9,1.9-1,4.3-0.1,6.8l0,0c1.6,4.1,4.7,6,8.6,5.5C281.3,82,282.9,81.1,283.6,79.8z M271.2,76.7
			c-0.4-1.1-0.6-2.1-0.6-3.1c0-1,0.2-2,0.6-2.7c0.4-0.8,1-1.4,1.7-1.9c-0.3,0.4-0.5,0.7-0.7,1.1c-0.5,1-0.7,2.2-0.7,3.3
			c0,1,0.2,2,0.5,3c0.8,2.3,2.4,4,4.3,5C274,81,272.3,79.4,271.2,76.7z M280.4,80.7c-2.8,0.9-6.1-1.2-7.3-4.6
			c-0.7-1.9-0.6-3.9,0.2-5.5c0.6-1.2,1.5-2,2.7-2.4c2.8-0.9,6.1,1.2,7.3,4.6c0.7,1.9,0.6,3.9-0.2,5.5
			C282.6,79.5,281.6,80.3,280.4,80.7z"/>
		<path class="st11" d="M283.4,72.9c-1.2-3.4-4.5-5.5-7.3-4.6c-1.2,0.4-2.1,1.2-2.7,2.4c-0.8,1.6-0.8,3.6-0.2,5.5
			c1.2,3.5,4.5,5.5,7.3,4.6c1.2-0.4,2.1-1.2,2.7-2.4C284,76.8,284,74.8,283.4,72.9z"/>
	</g>
</g>
<g id="Layer_1_1_" class="st16">
	<path class="st17" d="M440.5,268.9c-0.9,1.5-1.7,2.6-2.5,3.5c-0.8-1.2-1.5-2.3-2.2-3.4c0.3-3.8,0.6-6.9,0.8-9.1
		c1.6,2.4,3.2,4.9,4.5,7.4L440.5,268.9z"/>
	<path class="st18" d="M435.8,269c0.7,1.1,1.5,2.2,2.2,3.4c0.8-0.9,1.6-2,2.5-3.5l0.6-1.6c-1.4-2.5-2.9-4.9-4.5-7.4
		C436.4,262.1,436.1,265.2,435.8,269z"/>
	<path class="st17" d="M425.1,125c-14.4-33.5-48.4-55.9-88.8-68.5c5.9-0.8,10-2.8,10.5-5.8c1.1-5.5-10.1-12.4-24.8-15.2
		c-14.8-2.9-27.7-0.7-28.8,4.9c-0.5,2.3,1.2,4.8,4.3,7.1c-46.7-7.4-96.2-3.8-131.6,9c-62,18.4-103.7,65.5-124,139.9
		c-0.9,3.1-1.6,6.2-2.4,9.4l-0.5,2.1c-0.6,2.6-1.2,5.2-1.5,5.9l-0.2,0.4l-0.2,0.6c-3,15.7,3.5,24.1,6.7,27.2l7.9,1
		c4.1-15.9,9-31.8,13.7-40.5c59.8-46,290-42.5,364.4,48.2c-0.8,6.1-2.3,21.9-2.6,41.1l9.4,1.2c1.4-5.4,3.3-10.2,6-14.1
		c1.5-1.5,3-3.4,4.5-5.9C453.6,262,453.7,187.3,425.1,125z M46.4,232.6c-1.3-2.4-2.3-5.6-2.3-10.3v-1.4l10.5-9.6
		C51.5,217.2,48.8,224.5,46.4,232.6z M441.2,267l-0.8-6.9c0,0,3.4-89.1-39.3-140.9C380.6,89.7,348.2,75,305.5,64s-93.9-11-134.9,9.2
		c-41,20.3-70,77.4-70,77.4l10.2-38.7c0,0,0,0-22.2,25.8c-15.1,17.5-25.8,47.3-31.1,64.7c-1.2,0.5-2.5,1.1-3.6,1.8
		c-2.9,1.7-5.5,3.7-7.5,5.6c18.4-78.3,59.4-127.3,121.9-145.9c76-27.5,217.9-9.5,249.8,64.4C445.9,188.7,444.5,254,441.2,267z"/>
	<path class="st18" d="M40,201.7c-0.3,1.1-0.5,2.5-0.6,4c0.8-3.2,1.5-6.3,2.4-9.4C41,198.7,40.3,200.6,40,201.7z"/>
	<path class="st18" d="M168.3,63.7C105.8,82.3,64.8,131.4,46.4,209.6c2.1-1.9,4.7-3.9,7.5-5.6c1.2-0.7,2.4-1.3,3.6-1.8
		c5.3-17.4,16-47.1,31.1-64.7c22.2-25.8,22.2-25.8,22.2-25.8l-10.2,38.7c0,0,29-57.1,70-77.4c41-20.2,92.2-20.2,134.9-9.2
		c42.7,11.1,75.1,25.8,95.6,55.3c42.7,51.8,39.3,140.9,39.3,140.9l0.8,6.9c3.3-13,4.7-78.3-23.1-138.9
		C386.2,54.2,244.3,36.2,168.3,63.7z"/>
	<path class="st18" d="M44,222.4c0,4.6,1.1,7.9,2.3,10.3c2.4-8.1,5.1-15.4,8.2-21.3L44,221V222.4z"/>
	<path class="st18" d="M433.5,269"/>
	<path class="st18" d="M436.4,259.9c0,0,3.9,5.8,4.6,7.2c0.7,1.4-3.2,5.4-3.2,5.4l-2-3.5L436.4,259.9z"/>
	<g class="st17">
		<path class="st19" d="M234.7,123.8c1-0.5,1.4-0.6,1.6-0.8c0.3-0.2,0.5-0.3,1.6-0.6l2.5-1.1c0.5-0.2,1.6-0.6,1.7-0.6c0,0,0,0,0.2,0
			c0.2,0.2,0.5,0.3,0.8,0.2c0.6-0.3,0.2-1.6,0.2-1.7c-0.2-0.3-0.6-1.4-1.3-1.1c-0.5,0.2-0.5,0.5-0.5,0.6l0,0l0,0
			c-0.2,0.2-1.3,0.6-1.7,0.8l-2.5,1.1c-1,0.5-1.3,0.5-1.6,0.6c-0.3,0.2-0.6,0.2-1.6,0.6c-3.5,1.4-8.4,2.7-9.7,3
			c-5.6,1.4-10.3,3.2-13.2,4.5c-1.6,0.6-2.5,1.1-2.5,1.1c-1,0.5-0.6,2.5-0.3,3.3s1.6,2.5,2.7,2.1l0,0c0,0,1-0.3,2.7-1
			c2.9-1.3,7.5-3.3,12.6-6.2C226.5,128.1,231.1,125.4,234.7,123.8z"/>
		<path class="st19" d="M298,96c0.2-0.6-1.1-2.4-2.1-2.1l0,0c0,0-1,0.3-2.7,1c-2.9,1.3-7.5,3.3-12.6,6.2c-0.8,0.5-5.4,3.2-9.1,4.8
			c-1,0.5-1.3,0.6-1.6,0.8c-0.3,0.2-0.5,0.3-1.6,0.6l-2.5,1.1c-0.5,0.2-1.6,0.6-1.7,0.6c0,0,0,0-0.2,0c-0.2-0.2-0.5-0.3-0.8-0.2
			c-0.6,0.3-0.2,1.6-0.2,1.7c0.2,0.3,0.6,1.4,1.3,1.1c0.5-0.2,0.5-0.5,0.5-0.6c0,0,0-0.2,0,0c0.2-0.2,1.1-0.6,1.7-0.8l2.5-1.1
			c1-0.5,1.3-0.5,1.6-0.6c0.3-0.2,0.6-0.2,1.6-0.6c3.5-1.4,8.4-2.7,9.7-3c5.6-1.4,10.3-3.2,13.2-4.5l0,0c1.6-0.6,2.5-1.1,2.5-1.1"/>
		<path class="st19" d="M234.4,69.6c-0.8,0.3-2.5,1.6-2.1,2.7c0,0,2.5,7,7.3,15.1c0.5,0.8,3.2,5.4,4.8,9.1c0.5,1,0.6,1.3,0.8,1.6
			c0.2,0.3,0.3,0.5,0.6,1.6l0.6,1.6c0.6,1.4,1.1,2.5,1.1,2.7c0,0,0,0,0,0.2c-0.2,0.2-0.3,0.5-0.2,0.8c0.3,0.6,1.6,0.2,1.7,0.2l0,0
			c0.3-0.2,1.4-0.6,1.1-1.3c-0.2-0.5-0.5-0.5-0.6-0.5c0,0-0.2,0,0,0c-0.2-0.2-0.6-1.3-1.3-2.7l-0.6-1.6c-0.5-1-0.5-1.3-0.6-1.6
			c-0.2-0.3-0.2-0.6-0.6-1.6c-1.4-3.7-2.7-8.7-3-9.7c-2.4-9.1-5.6-15.7-5.6-15.9C237.4,69,235.2,69.3,234.4,69.6z"/>
		<path class="st19" d="M262.1,133.5c-0.5-1-0.6-1.3-0.8-1.6s-0.3-0.5-0.6-1.6l-0.6-1.6c-0.6-1.6-1.1-2.5-1.1-2.7c0,0,0,0,0-0.2
			c0.2-0.2,0.3-0.5,0.2-0.8c-0.3-0.6-1.6-0.2-1.7-0.2l0,0c-0.3,0.2-1.4,0.6-1.1,1.3c0.2,0.5,0.5,0.5,0.6,0.5c0,0,0.2,0,0,0
			c0.2,0.2,0.6,1.3,1.3,2.7l0.6,1.6c0.5,1,0.5,1.3,0.6,1.6c0.2,0.3,0.2,0.6,0.6,1.6c1.4,3.5,2.7,8.4,3,9.7
			c2.4,9.1,5.6,15.7,5.6,15.9c0.5,1,2.5,0.6,3.3,0.3l0,0c0.8-0.3,2.5-1.6,2.1-2.7c0,0-2.5-7-7.3-15.1
			C266.4,141.6,263.7,137.2,262.1,133.5z"/>
		<path class="st19" d="M224.1,105.1c1,0.3,6,1.6,9.7,3c1,0.5,1.4,0.5,1.7,0.6c0.3,0.2,0.5,0.2,1.6,0.6l1.6,0.6
			c1.6,0.6,2.5,1.1,2.7,1.3c0,0,0,0,0,0.2s0.2,0.5,0.5,0.6c0.2,0,0.3,0,0.5,0c0.5-0.2,0.8-1,1-1.1l0,0c0.2-0.3,0.3-1,0.2-1.4
			c0-0.2-0.2-0.3-0.3-0.3c-0.2-0.2-0.5-0.2-0.6,0c-0.2,0-0.2,0.2-0.3,0.2l0,0c-0.2,0-1.3-0.5-2.9-1.1l-1.6-0.6
			c-1-0.5-1.3-0.5-1.6-0.6c-0.3-0.2-0.6-0.3-1.6-0.8c-3.5-1.6-7.8-4-9.1-4.8c-8.1-4.8-15.1-7.3-15.1-7.3c-0.2-0.2-0.5-0.2-0.8,0
			c-0.8,0.3-1.6,1.4-1.9,2.1l0,0l0,0l0,0l0,0l0,0c-0.3,0.8-0.6,2.9,0.3,3.3C208.3,99.7,215,102.8,224.1,105.1z"/>
		<path class="st19" d="M298.6,130.2c-0.5,0.2-7.2-3-16.2-5.4c-1-0.3-6-1.6-9.7-3c-1-0.5-1.4-0.5-1.6-0.6c-0.3-0.2-0.5-0.2-1.6-0.6
			l-1.6-0.6c-1.6-0.6-2.5-1.1-2.7-1.3c0,0,0,0,0-0.2s0-0.5-0.5-0.6c-0.2,0-0.3,0-0.5,0c-0.5,0.2-0.8,1-1,1.1
			c-0.2,0.3-0.6,1.4,0.2,1.7c0.2,0.2,0.5,0.2,0.6,0c0.2,0,0.2-0.2,0.3-0.2l0,0c0.2,0,1.3,0.5,2.9,1.1l1.6,0.6c1,0.5,1.3,0.5,1.6,0.6
			c0.3,0.2,0.6,0.3,1.6,0.8c3.5,1.6,7.8,4,9.1,4.8c8.1,4.8,15.1,7.3,15.1,7.3c0.2,0.2,0.5,0.2,0.8,0"/>
		<path class="st19" d="M259.4,97.3c-0.2,0.3-0.2,0.5-0.6,1.6l-0.6,1.6c-0.6,1.4-1.1,2.5-1.1,2.7c0,0,0,0-0.2,0s-0.2,0-0.3,0
			c-0.2,0.2-0.3,0.2-0.5,0.5c-0.3,0.6,0.8,1.1,1.1,1.3l0,0c0.2,0.2,1,0.3,1.4,0.2l0,0c0.2,0,0.3-0.2,0.3-0.3c0.2-0.5,0-0.6-0.2-0.8
			l0,0c0-0.2,0.5-1.3,1.1-2.9l0.6-1.6c0.5-1,0.5-1.3,0.6-1.6c0.2-0.3,0.3-0.6,0.8-1.6c1.6-3.5,4-7.8,4.8-9.1
			c4.8-8.1,7.3-15.1,7.3-15.1c0.5-1-1.3-2.4-2.1-2.7l0,0c-0.6-0.3-2.1-0.5-2.9-0.2c-0.3,0.2-0.5,0.3-0.5,0.5c0,0-3.2,6.8-5.6,15.9
			c-0.3,1-1.6,6-3,9.7C259.7,96.6,259.5,97,259.4,97.3z"/>
		<path class="st19" d="M247,132.7c0.2-0.3,0.2-0.5,0.6-1.6l0.6-1.6c0.6-1.6,1.1-2.7,1.3-2.7c0,0,0,0,0.2,0s0.2,0,0.3,0
			s0.3-0.2,0.5-0.5c0.3-0.6-0.8-1.1-1.1-1.3h-0.2l0,0c-0.3-0.2-1-0.3-1.4-0.2c-0.2,0-0.3,0.2-0.3,0.3c-0.2,0.5,0,0.6,0.2,0.8l0,0
			c0,0.2-0.5,1.3-1.1,2.9l-0.6,1.6c-0.5,1-0.5,1.3-0.6,1.6s-0.3,0.6-0.8,1.6c-1.6,3.7-4.3,8.1-4.8,9.1c-4.8,8.1-7.3,15.1-7.3,15.1
			c-0.5,1,1.3,2.2,2.1,2.7l0,0c0.6,0.2,1.9,0.5,2.9,0.2l0,0c0.3-0.2,0.5-0.3,0.6-0.5c0,0,3.2-6.8,5.6-15.9c0.3-1,1.6-6,3-9.7
			C246.8,133.4,247,133.1,247,132.7z"/>
		<path class="st19" d="M237.8,131.6c0.5-0.5,0.6-0.6,0.8-0.8s0.3-0.3,0.8-0.8l0.8-0.8c0.6-0.6,1.3-1.3,1.4-1.3l0,0
			c0.2,0,0.5,0,0.6-0.2s0.2-0.2,0.2-0.3c0-0.3-0.3-0.8-0.5-1l-0.2-0.2l0,0c-0.2-0.2-0.6-0.5-1-0.3c0,0-0.2,0-0.2,0.2
			c-0.3,0.3-0.2,0.5-0.2,0.6s-0.6,0.6-1.3,1.4l-0.8,0.8c-0.5,0.5-0.6,0.6-0.8,0.8s-0.3,0.3-0.8,0.8c-1.7,1.7-4.3,3.7-5.1,4.1
			c-4.8,3.7-8.1,7.2-8.1,7.2c-0.2,0.2-0.2,0.3-0.2,0.5c0,0.5,0.3,1.1,0.6,1.6l0,0l0.2,0.2c0.3,0.3,1.4,1,2.1,0.8c0,0,0.2,0,0.2-0.2
			c0,0,3.7-3.2,7.2-8.1C234.1,135.9,236,133.4,237.8,131.6z"/>
		<path class="st19" d="M268.8,98.4c-0.5,0.5-0.6,0.6-0.8,0.8c-0.2,0.2-0.3,0.3-0.8,0.8l-0.8,0.8c-0.6,0.6-1.3,1.3-1.4,1.3
			s-0.5,0-0.6,0.2c-0.2,0.2-0.2,0.3,0,0.8c0.2,0.2,0.3,0.5,0.3,0.5c0.2,0.2,0.6,0.6,1.1,0.5l0,0c0,0,0.2,0,0.2-0.2
			c0.3-0.3,0.2-0.5,0.2-0.6s0.6-0.6,1.3-1.4l0.8-0.8c0.5-0.5,0.6-0.6,0.8-0.8s0.3-0.3,0.8-0.8c1.7-1.7,4.3-3.7,5.1-4.1
			c4.8-3.7,8.1-7.2,8.1-7.2c0.5-0.5-0.2-1.9-0.6-2.2l0,0l0,0c-0.3-0.3-1.4-1-1.9-0.6c-0.2,0-0.2,0-0.2,0.2c0,0-3.7,3.2-7.2,8.1
			C272.6,93.8,270.5,96.5,268.8,98.4z"/>
		<path class="st19" d="M253.5,131.3L253.5,131.3h-0.2c-0.2,0-0.5,0-0.8,0.2s-0.3,0.3-0.3,0.5c0,0.3,0.2,0.5,0.3,0.5
			c0,0.2,0,1,0,1.9v1.1c0,0.6,0,0.8,0,1.1c0,0.2,0,0.5,0,1.1c0,2.4-0.5,5.6-0.6,6.5c-0.8,6-0.6,10.8-0.6,10.8c0,0.2,0,0.3,0.2,0.5
			c0.3,0.3,1,0.5,1.4,0.6l0,0h0.3c0.3,0,0.8-0.2,1.1-0.3c0.6-0.3,0.8-0.6,0.8-0.8c0,0,0.3-4.8-0.6-10.8c-0.2-1-0.6-4.1-0.6-6.5
			c0-0.6,0-1,0-1.1c0-0.2,0-0.3,0-1.1v-1.1c0-1,0-1.7,0-1.9c0.2,0,0.3-0.2,0.3-0.5c0-0.2,0-0.2-0.2-0.3
			C254,131.3,253.7,131.3,253.5,131.3z"/>
		<path class="st19" d="M253.2,98.7c0.2,0,0.5,0,0.8-0.2l0,0c0.3-0.2,0.3-0.3,0.3-0.5c0-0.3-0.2-0.5-0.3-0.5c0-0.2,0-1,0-1.9v-1.1
			c0-0.6,0-0.8,0-1.1c0-0.2,0-0.5,0-1.1c0-2.4,0.5-5.6,0.6-6.5c0.8-6,0.6-10.8,0.6-10.8c0-0.3-0.2-0.6-0.8-1
			c-0.3-0.2-0.8-0.3-1.1-0.3h-0.2l0,0c-0.3,0-0.8,0.2-1.1,0.3c-0.6,0.3-0.8,0.6-0.8,0.8c0,0-0.3,4.8,0.6,10.8c0.2,0.6,0.6,4,0.6,6.5
			c0,0.6,0,1,0,1.1c0,0.2,0,0.3,0,1.1v1.1c0,1,0,1.7,0,1.9c-0.2,0-0.3,0.2-0.3,0.5c0,0.2,0,0.2,0.2,0.3
			C252.5,98.6,253,98.7,253.2,98.7z"/>
		<path class="st19" d="M275,134.6c-0.8-0.6-3.3-2.5-5.1-4.1c-0.5-0.5-0.6-0.6-0.8-0.8s-0.3-0.3-0.8-0.8l-0.8-0.8
			c-0.8-0.8-1.3-1.3-1.3-1.4s0.2-0.3-0.2-0.6c-0.2-0.2-0.3-0.2-0.6,0s-0.5,0.3-0.6,0.5l-0.2,0.2l0,0c-0.2,0.2-0.3,0.5-0.3,0.8
			c0,0.2,0,0.2,0.2,0.3c0.3,0.3,0.5,0.2,0.6,0.2s0.6,0.6,1.4,1.3l0.8,0.8c0.5,0.5,0.6,0.6,0.8,0.8s0.3,0.3,0.8,0.8
			c1.7,1.7,3.8,4.6,4.1,5.1c3.7,4.8,7.2,8.1,7.2,8.1c0.2,0.2,0.5,0.3,1.3,0c0.3-0.2,0.6-0.3,0.8-0.5l0,0l0.2-0.2
			c0.3-0.3,1.1-1.7,0.6-2.2C282.9,141.8,279.7,138.3,275,134.6z"/>
		<path class="st19" d="M241.4,102c-0.2,0-0.6-0.6-1.4-1.3l-0.8-0.8c-0.5-0.5-0.6-0.6-0.8-0.8c-0.2-0.2-0.3-0.3-0.8-0.8
			c-1.7-1.7-3.7-4.3-4.1-5.1c-3.7-4.8-7.2-8.1-7.2-8.1c-0.2-0.2-0.5-0.3-1.3,0c-0.3,0.2-0.8,0.5-1,0.6c-0.3,0.3-0.8,1.1-0.8,1.7
			c0,0.2,0,0.3,0.2,0.5c0,0,3.2,3.7,8.1,7.3c0.5,0.3,3.2,2.4,5.1,4.1c0.5,0.5,0.6,0.6,0.8,0.8c0.2,0.2,0.3,0.3,0.8,0.8l0.8,0.8
			c0.6,0.6,1.3,1.3,1.3,1.3c0,0.2-0.2,0.3,0.2,0.6c0.2,0.2,0.3,0.2,0.6,0s0.5-0.3,0.6-0.5l0,0l0,0c0.2-0.2,0.5-0.5,0.5-0.8
			c0-0.2,0-0.3-0.2-0.3C241.9,101.9,241.6,102,241.4,102z"/>
		<path class="st19" d="M293.2,112.9c0,0-4.8-0.3-10.8,0.6c-1,0.2-4.1,0.6-6.5,0.6c-0.6,0-1,0-1.1,0s-0.3,0-1.1,0h-1.1
			c-1,0-1.7,0-1.9,0c0-0.2-0.2-0.3-0.5-0.3H270c-0.3,0.2-0.5,0.6-0.5,1v0.2c0,0,0,0.3,0,0.6c0.2,0.5,0.3,0.5,0.5,0.5
			c0.3,0,0.5-0.2,0.5-0.3c0.2,0,1,0,1.9,0h1.1c0.6,0,0.8,0,1.1,0c0.2,0,0.5,0,1.1,0c2.4,0,5.6,0.5,6.5,0.6c6,0.8,10.8,0.6,10.8,0.6
			c0.2,0,0.2,0,0.3,0c0.5-0.2,0.8-1.1,0.8-1.7l0,0V115c0-0.3-0.2-0.8-0.3-1.1C293.9,113,293.6,112.9,293.2,112.9z"/>
		<path class="st19" d="M212.6,116.7c0.2,0.2,0.3,0.2,0.5,0.2c0,0,4.8,0.3,10.8-0.6c0.6-0.2,4-0.6,6.5-0.6c0.6,0,1,0,1.1,0
			c0.2,0,0.3,0,1.1,0h1.1c1,0,1.7,0,1.9,0c0,0.2,0.2,0.3,0.5,0.3h0.2c0.3-0.2,0.5-1,0.5-1.1c0-0.2,0-0.8-0.3-1
			c-0.2-0.2-0.2-0.2-0.3-0.2c-0.3,0-0.5,0.2-0.5,0.3c-0.2,0-1,0-1.9,0h-1.1c-0.6,0-0.8,0-1.1,0c-0.2,0-0.5,0-1.1,0
			c-2.5,0-5.9-0.5-6.5-0.6c-6-0.8-10.8-0.6-10.8-0.6c-0.2,0-0.2,0-0.3,0c-0.6,0.3-1,1.4-1,1.9v0.3l0,0
			C212.2,115.7,212.3,116.4,212.6,116.7z"/>
	</g>
</g>
</svg>
