<?xml version="1.0" encoding="utf-8"?>
<!-- Generator: Adobe Illustrator 21.1.0, SVG Export Plug-In . SVG Version: 6.00 Build 0)  -->
<svg version="1.1" id="Layer_1" xmlns="http://www.w3.org/2000/svg" xmlns:xlink="http://www.w3.org/1999/xlink" x="0px" y="0px"
	 viewBox="0 0 486.2 324" style="enable-background:new 0 0 486.2 324;" xml:space="preserve">
<style type="text/css">
	.st0{display:none;}
	.st1{display:inline;}
	.st2{display:inline;fill:#99999A;}
	.st3{fill:#F15B2D;}
	.st4{fill:#231F20;}
	.st5{fill:#231F20;stroke:#99999A;stroke-width:1.1872;stroke-miterlimit:10;}
	.st6{fill:none;stroke:#99999A;stroke-width:1.1872;stroke-miterlimit:10;}
	.st7{opacity:0.5;}
	.st8{fill:#BDBBBB;}
	.st9{fill:#3F3B3C;}
	.st10{fill:#A6A5A6;}
	.st11{fill:#404041;}
	.st12{fill:url(#SVGID_1_);}
	.st13{fill:url(#SVGID_2_);}
	.st14{fill:url(#SVGID_3_);}
	.st15{fill:url(#SVGID_4_);}
	.st16{fill:#474749;}
	.st17{fill:#FFFFFF;}
	.st18{fill:#FFFFFF;stroke:#99999A;stroke-width:1.1872;stroke-miterlimit:10;}
	.st19{fill:#FF4612;}
	.st20{fill:#99999A;}
	.st21{stroke:#BDBBBB;stroke-width:0.2968;}
	.st22{fill:#BDBBBB;stroke:#BDBBBB;stroke-width:0.2968;stroke-miterlimit:10;}
</style>
<g id="Layer_1_1_" class="st0">
	<path class="st1" d="M440.5,268.9c-0.9,1.5-1.7,2.6-2.5,3.5c-0.8-1.2-1.5-2.3-2.2-3.4c0.3-3.8,0.6-6.9,0.8-9.1
		c1.6,2.4,3.2,4.9,4.5,7.4L440.5,268.9z"/>
	<path class="st2" d="M435.8,269c0.7,1.1,1.5,2.2,2.2,3.4c0.8-0.9,1.6-2,2.5-3.5l0.6-1.6c-1.4-2.5-2.9-4.9-4.5-7.4
		C436.4,262.1,436.1,265.2,435.8,269z"/>
	<path class="st1" d="M425.1,125c-14.4-33.5-48.4-55.9-88.8-68.5c5.9-0.8,10-2.8,10.5-5.8c1.1-5.5-10.1-12.4-24.8-15.2
		c-14.8-2.9-27.7-0.7-28.8,4.9c-0.5,2.3,1.2,4.8,4.3,7.1c-46.7-7.4-96.2-3.8-131.6,9c-62,18.4-103.7,65.5-124,139.9
		c-0.9,3.1-1.6,6.2-2.4,9.4l-0.5,2.1c-0.6,2.6-1.2,5.2-1.5,5.9l-0.2,0.4l-0.2,0.6c-3,15.7,3.5,24.1,6.7,27.2l7.9,1
		c4.1-15.9,9-31.8,13.7-40.5c59.8-46,290-42.5,364.4,48.2c-0.8,6.1-2.3,21.9-2.6,41.1l9.4,1.2c1.4-5.4,3.3-10.2,6-14.1
		c1.5-1.5,3-3.4,4.5-5.9C453.6,262,453.7,187.3,425.1,125z M46.4,232.6c-1.3-2.4-2.3-5.6-2.3-10.3v-1.4l10.5-9.6
		C51.5,217.2,48.8,224.5,46.4,232.6z M441.2,267l-0.8-6.9c0,0,3.4-89.1-39.3-140.9C380.6,89.7,348.2,75,305.5,64s-93.9-11-134.9,9.2
		c-41,20.3-70,77.4-70,77.4l10.2-38.7c0,0,0,0-22.2,25.8c-15.1,17.5-25.8,47.3-31.1,64.7c-1.2,0.5-2.5,1.1-3.6,1.8
		c-2.9,1.7-5.5,3.7-7.5,5.6c18.4-78.3,59.4-127.3,121.9-145.9c76-27.5,217.9-9.5,249.8,64.4C445.9,188.7,444.5,254,441.2,267z"/>
	<path class="st2" d="M40,201.7c-0.3,1.1-0.5,2.5-0.6,4c0.8-3.2,1.5-6.3,2.4-9.4C41,198.7,40.3,200.6,40,201.7z"/>
	<path class="st2" d="M168.3,63.7C105.8,82.3,64.8,131.4,46.4,209.6c2.1-1.9,4.7-3.9,7.5-5.6c1.2-0.7,2.4-1.3,3.6-1.8
		c5.3-17.4,16-47.1,31.1-64.7c22.2-25.8,22.2-25.8,22.2-25.8l-10.2,38.7c0,0,29-57.1,70-77.4c41-20.2,92.2-20.2,134.9-9.2
		c42.7,11.1,75.1,25.8,95.6,55.3c42.7,51.8,39.3,140.9,39.3,140.9l0.8,6.9c3.3-13,4.7-78.3-23.1-138.9
		C386.2,54.2,244.3,36.2,168.3,63.7z"/>
	<path class="st2" d="M44,222.4c0,4.6,1.1,7.9,2.3,10.3c2.4-8.1,5.1-15.4,8.2-21.3L44,221V222.4z"/>
	<path class="st2" d="M433.5,269"/>
	<path class="st2" d="M436.4,259.9c0,0,3.9,5.8,4.6,7.2c0.7,1.4-3.2,5.4-3.2,5.4l-2-3.5L436.4,259.9z"/>
	<g class="st1">
		<path class="st3" d="M234.7,123.8c1-0.5,1.4-0.6,1.6-0.8c0.3-0.2,0.5-0.3,1.6-0.6l2.5-1.1c0.5-0.2,1.6-0.6,1.7-0.6c0,0,0,0,0.2,0
			c0.2,0.2,0.5,0.3,0.8,0.2c0.6-0.3,0.2-1.6,0.2-1.7c-0.2-0.3-0.6-1.4-1.3-1.1c-0.5,0.2-0.5,0.5-0.5,0.6l0,0l0,0
			c-0.2,0.2-1.3,0.6-1.7,0.8l-2.5,1.1c-1,0.5-1.3,0.5-1.6,0.6c-0.3,0.2-0.6,0.2-1.6,0.6c-3.5,1.4-8.4,2.7-9.7,3
			c-5.6,1.4-10.3,3.2-13.2,4.5c-1.6,0.6-2.5,1.1-2.5,1.1c-1,0.5-0.6,2.5-0.3,3.3s1.6,2.5,2.7,2.1l0,0c0,0,1-0.3,2.7-1
			c2.9-1.3,7.5-3.3,12.6-6.2C226.5,128.1,231.1,125.4,234.7,123.8z"/>
		<path class="st3" d="M298,96c0.2-0.6-1.1-2.4-2.1-2.1l0,0c0,0-1,0.3-2.7,1c-2.9,1.3-7.5,3.3-12.6,6.2c-0.8,0.5-5.4,3.2-9.1,4.8
			c-1,0.5-1.3,0.6-1.6,0.8c-0.3,0.2-0.5,0.3-1.6,0.6l-2.5,1.1c-0.5,0.2-1.6,0.6-1.7,0.6c0,0,0,0-0.2,0c-0.2-0.2-0.5-0.3-0.8-0.2
			c-0.6,0.3-0.2,1.6-0.2,1.7c0.2,0.3,0.6,1.4,1.3,1.1c0.5-0.2,0.5-0.5,0.5-0.6c0,0,0-0.2,0,0c0.2-0.2,1.1-0.6,1.7-0.8l2.5-1.1
			c1-0.5,1.3-0.5,1.6-0.6c0.3-0.2,0.6-0.2,1.6-0.6c3.5-1.4,8.4-2.7,9.7-3c5.6-1.4,10.3-3.2,13.2-4.5l0,0c1.6-0.6,2.5-1.1,2.5-1.1"/>
		<path class="st3" d="M234.4,69.6c-0.8,0.3-2.5,1.6-2.1,2.7c0,0,2.5,7,7.3,15.1c0.5,0.8,3.2,5.4,4.8,9.1c0.5,1,0.6,1.3,0.8,1.6
			c0.2,0.3,0.3,0.5,0.6,1.6l0.6,1.6c0.6,1.4,1.1,2.5,1.1,2.7c0,0,0,0,0,0.2c-0.2,0.2-0.3,0.5-0.2,0.8c0.3,0.6,1.6,0.2,1.7,0.2l0,0
			c0.3-0.2,1.4-0.6,1.1-1.3c-0.2-0.5-0.5-0.5-0.6-0.5c0,0-0.2,0,0,0c-0.2-0.2-0.6-1.3-1.3-2.7l-0.6-1.6c-0.5-1-0.5-1.3-0.6-1.6
			c-0.2-0.3-0.2-0.6-0.6-1.6c-1.4-3.7-2.7-8.7-3-9.7c-2.4-9.1-5.6-15.7-5.6-15.9C237.4,69,235.2,69.3,234.4,69.6z"/>
		<path class="st3" d="M262.1,133.5c-0.5-1-0.6-1.3-0.8-1.6s-0.3-0.5-0.6-1.6l-0.6-1.6c-0.6-1.6-1.1-2.5-1.1-2.7c0,0,0,0,0-0.2
			c0.2-0.2,0.3-0.5,0.2-0.8c-0.3-0.6-1.6-0.2-1.7-0.2l0,0c-0.3,0.2-1.4,0.6-1.1,1.3c0.2,0.5,0.5,0.5,0.6,0.5c0,0,0.2,0,0,0
			c0.2,0.2,0.6,1.3,1.3,2.7l0.6,1.6c0.5,1,0.5,1.3,0.6,1.6c0.2,0.3,0.2,0.6,0.6,1.6c1.4,3.5,2.7,8.4,3,9.7
			c2.4,9.1,5.6,15.7,5.6,15.9c0.5,1,2.5,0.6,3.3,0.3l0,0c0.8-0.3,2.5-1.6,2.1-2.7c0,0-2.5-7-7.3-15.1
			C266.4,141.6,263.7,137.2,262.1,133.5z"/>
		<path class="st3" d="M224.1,105.1c1,0.3,6,1.6,9.7,3c1,0.5,1.4,0.5,1.7,0.6c0.3,0.2,0.5,0.2,1.6,0.6l1.6,0.6
			c1.6,0.6,2.5,1.1,2.7,1.3c0,0,0,0,0,0.2s0.2,0.5,0.5,0.6c0.2,0,0.3,0,0.5,0c0.5-0.2,0.8-1,1-1.1l0,0c0.2-0.3,0.3-1,0.2-1.4
			c0-0.2-0.2-0.3-0.3-0.3c-0.2-0.2-0.5-0.2-0.6,0c-0.2,0-0.2,0.2-0.3,0.2l0,0c-0.2,0-1.3-0.5-2.9-1.1l-1.6-0.6
			c-1-0.5-1.3-0.5-1.6-0.6c-0.3-0.2-0.6-0.3-1.6-0.8c-3.5-1.6-7.8-4-9.1-4.8c-8.1-4.8-15.1-7.3-15.1-7.3c-0.2-0.2-0.5-0.2-0.8,0
			c-0.8,0.3-1.6,1.4-1.9,2.1l0,0l0,0l0,0l0,0l0,0c-0.3,0.8-0.6,2.9,0.3,3.3C208.3,99.7,215,102.8,224.1,105.1z"/>
		<path class="st3" d="M298.6,130.2c-0.5,0.2-7.2-3-16.2-5.4c-1-0.3-6-1.6-9.7-3c-1-0.5-1.4-0.5-1.6-0.6c-0.3-0.2-0.5-0.2-1.6-0.6
			l-1.6-0.6c-1.6-0.6-2.5-1.1-2.7-1.3c0,0,0,0,0-0.2s0-0.5-0.5-0.6c-0.2,0-0.3,0-0.5,0c-0.5,0.2-0.8,1-1,1.1
			c-0.2,0.3-0.6,1.4,0.2,1.7c0.2,0.2,0.5,0.2,0.6,0c0.2,0,0.2-0.2,0.3-0.2l0,0c0.2,0,1.3,0.5,2.9,1.1l1.6,0.6c1,0.5,1.3,0.5,1.6,0.6
			c0.3,0.2,0.6,0.3,1.6,0.8c3.5,1.6,7.8,4,9.1,4.8c8.1,4.8,15.1,7.3,15.1,7.3c0.2,0.2,0.5,0.2,0.8,0"/>
		<path class="st3" d="M259.4,97.3c-0.2,0.3-0.2,0.5-0.6,1.6l-0.6,1.6c-0.6,1.4-1.1,2.5-1.1,2.7c0,0,0,0-0.2,0s-0.2,0-0.3,0
			c-0.2,0.2-0.3,0.2-0.5,0.5c-0.3,0.6,0.8,1.1,1.1,1.3l0,0c0.2,0.2,1,0.3,1.4,0.2l0,0c0.2,0,0.3-0.2,0.3-0.3c0.2-0.5,0-0.6-0.2-0.8
			l0,0c0-0.2,0.5-1.3,1.1-2.9l0.6-1.6c0.5-1,0.5-1.3,0.6-1.6c0.2-0.3,0.3-0.6,0.8-1.6c1.6-3.5,4-7.8,4.8-9.1
			c4.8-8.1,7.3-15.1,7.3-15.1c0.5-1-1.3-2.4-2.1-2.7l0,0c-0.6-0.3-2.1-0.5-2.9-0.2c-0.3,0.2-0.5,0.3-0.5,0.5c0,0-3.2,6.8-5.6,15.9
			c-0.3,1-1.6,6-3,9.7C259.7,96.6,259.5,97,259.4,97.3z"/>
		<path class="st3" d="M247,132.7c0.2-0.3,0.2-0.5,0.6-1.6l0.6-1.6c0.6-1.6,1.1-2.7,1.3-2.7c0,0,0,0,0.2,0s0.2,0,0.3,0
			s0.3-0.2,0.5-0.5c0.3-0.6-0.8-1.1-1.1-1.3h-0.2l0,0c-0.3-0.2-1-0.3-1.4-0.2c-0.2,0-0.3,0.2-0.3,0.3c-0.2,0.5,0,0.6,0.2,0.8l0,0
			c0,0.2-0.5,1.3-1.1,2.9l-0.6,1.6c-0.5,1-0.5,1.3-0.6,1.6s-0.3,0.6-0.8,1.6c-1.6,3.7-4.3,8.1-4.8,9.1c-4.8,8.1-7.3,15.1-7.3,15.1
			c-0.5,1,1.3,2.2,2.1,2.7l0,0c0.6,0.2,1.9,0.5,2.9,0.2l0,0c0.3-0.2,0.5-0.3,0.6-0.5c0,0,3.2-6.8,5.6-15.9c0.3-1,1.6-6,3-9.7
			C246.8,133.4,247,133.1,247,132.7z"/>
		<path class="st3" d="M237.8,131.6c0.5-0.5,0.6-0.6,0.8-0.8s0.3-0.3,0.8-0.8l0.8-0.8c0.6-0.6,1.3-1.3,1.4-1.3l0,0
			c0.2,0,0.5,0,0.6-0.2s0.2-0.2,0.2-0.3c0-0.3-0.3-0.8-0.5-1l-0.2-0.2l0,0c-0.2-0.2-0.6-0.5-1-0.3c0,0-0.2,0-0.2,0.2
			c-0.3,0.3-0.2,0.5-0.2,0.6s-0.6,0.6-1.3,1.4l-0.8,0.8c-0.5,0.5-0.6,0.6-0.8,0.8s-0.3,0.3-0.8,0.8c-1.7,1.7-4.3,3.7-5.1,4.1
			c-4.8,3.7-8.1,7.2-8.1,7.2c-0.2,0.2-0.2,0.3-0.2,0.5c0,0.5,0.3,1.1,0.6,1.6l0,0l0.2,0.2c0.3,0.3,1.4,1,2.1,0.8c0,0,0.2,0,0.2-0.2
			c0,0,3.7-3.2,7.2-8.1C234.1,135.9,236,133.4,237.8,131.6z"/>
		<path class="st3" d="M268.8,98.4c-0.5,0.5-0.6,0.6-0.8,0.8c-0.2,0.2-0.3,0.3-0.8,0.8l-0.8,0.8c-0.6,0.6-1.3,1.3-1.4,1.3
			s-0.5,0-0.6,0.2c-0.2,0.2-0.2,0.3,0,0.8c0.2,0.2,0.3,0.5,0.3,0.5c0.2,0.2,0.6,0.6,1.1,0.5l0,0c0,0,0.2,0,0.2-0.2
			c0.3-0.3,0.2-0.5,0.2-0.6s0.6-0.6,1.3-1.4l0.8-0.8c0.5-0.5,0.6-0.6,0.8-0.8s0.3-0.3,0.8-0.8c1.7-1.7,4.3-3.7,5.1-4.1
			c4.8-3.7,8.1-7.2,8.1-7.2c0.5-0.5-0.2-1.9-0.6-2.2l0,0l0,0c-0.3-0.3-1.4-1-1.9-0.6c-0.2,0-0.2,0-0.2,0.2c0,0-3.7,3.2-7.2,8.1
			C272.6,93.8,270.5,96.5,268.8,98.4z"/>
		<path class="st3" d="M253.5,131.3L253.5,131.3h-0.2c-0.2,0-0.5,0-0.8,0.2s-0.3,0.3-0.3,0.5c0,0.3,0.2,0.5,0.3,0.5c0,0.2,0,1,0,1.9
			v1.1c0,0.6,0,0.8,0,1.1c0,0.2,0,0.5,0,1.1c0,2.4-0.5,5.6-0.6,6.5c-0.8,6-0.6,10.8-0.6,10.8c0,0.2,0,0.3,0.2,0.5
			c0.3,0.3,1,0.5,1.4,0.6l0,0h0.3c0.3,0,0.8-0.2,1.1-0.3c0.6-0.3,0.8-0.6,0.8-0.8c0,0,0.3-4.8-0.6-10.8c-0.2-1-0.6-4.1-0.6-6.5
			c0-0.6,0-1,0-1.1c0-0.2,0-0.3,0-1.1v-1.1c0-1,0-1.7,0-1.9c0.2,0,0.3-0.2,0.3-0.5c0-0.2,0-0.2-0.2-0.3
			C254,131.3,253.7,131.3,253.5,131.3z"/>
		<path class="st3" d="M253.2,98.7c0.2,0,0.5,0,0.8-0.2l0,0c0.3-0.2,0.3-0.3,0.3-0.5c0-0.3-0.2-0.5-0.3-0.5c0-0.2,0-1,0-1.9v-1.1
			c0-0.6,0-0.8,0-1.1c0-0.2,0-0.5,0-1.1c0-2.4,0.5-5.6,0.6-6.5c0.8-6,0.6-10.8,0.6-10.8c0-0.3-0.2-0.6-0.8-1
			c-0.3-0.2-0.8-0.3-1.1-0.3h-0.2l0,0c-0.3,0-0.8,0.2-1.1,0.3c-0.6,0.3-0.8,0.6-0.8,0.8c0,0-0.3,4.8,0.6,10.8c0.2,0.6,0.6,4,0.6,6.5
			c0,0.6,0,1,0,1.1c0,0.2,0,0.3,0,1.1v1.1c0,1,0,1.7,0,1.9c-0.2,0-0.3,0.2-0.3,0.5c0,0.2,0,0.2,0.2,0.3
			C252.5,98.6,253,98.7,253.2,98.7z"/>
		<path class="st3" d="M275,134.6c-0.8-0.6-3.3-2.5-5.1-4.1c-0.5-0.5-0.6-0.6-0.8-0.8s-0.3-0.3-0.8-0.8l-0.8-0.8
			c-0.8-0.8-1.3-1.3-1.3-1.4s0.2-0.3-0.2-0.6c-0.2-0.2-0.3-0.2-0.6,0s-0.5,0.3-0.6,0.5l-0.2,0.2l0,0c-0.2,0.2-0.3,0.5-0.3,0.8
			c0,0.2,0,0.2,0.2,0.3c0.3,0.3,0.5,0.2,0.6,0.2s0.6,0.6,1.4,1.3l0.8,0.8c0.5,0.5,0.6,0.6,0.8,0.8s0.3,0.3,0.8,0.8
			c1.7,1.7,3.8,4.6,4.1,5.1c3.7,4.8,7.2,8.1,7.2,8.1c0.2,0.2,0.5,0.3,1.3,0c0.3-0.2,0.6-0.3,0.8-0.5l0,0l0.2-0.2
			c0.3-0.3,1.1-1.7,0.6-2.2C282.9,141.8,279.7,138.3,275,134.6z"/>
		<path class="st3" d="M241.4,102c-0.2,0-0.6-0.6-1.4-1.3l-0.8-0.8c-0.5-0.5-0.6-0.6-0.8-0.8c-0.2-0.2-0.3-0.3-0.8-0.8
			c-1.7-1.7-3.7-4.3-4.1-5.1c-3.7-4.8-7.2-8.1-7.2-8.1c-0.2-0.2-0.5-0.3-1.3,0c-0.3,0.2-0.8,0.5-1,0.6c-0.3,0.3-0.8,1.1-0.8,1.7
			c0,0.2,0,0.3,0.2,0.5c0,0,3.2,3.7,8.1,7.3c0.5,0.3,3.2,2.4,5.1,4.1c0.5,0.5,0.6,0.6,0.8,0.8c0.2,0.2,0.3,0.3,0.8,0.8l0.8,0.8
			c0.6,0.6,1.3,1.3,1.3,1.3c0,0.2-0.2,0.3,0.2,0.6c0.2,0.2,0.3,0.2,0.6,0s0.5-0.3,0.6-0.5l0,0l0,0c0.2-0.2,0.5-0.5,0.5-0.8
			c0-0.2,0-0.3-0.2-0.3C241.9,101.9,241.6,102,241.4,102z"/>
		<path class="st3" d="M293.2,112.9c0,0-4.8-0.3-10.8,0.6c-1,0.2-4.1,0.6-6.5,0.6c-0.6,0-1,0-1.1,0s-0.3,0-1.1,0h-1.1
			c-1,0-1.7,0-1.9,0c0-0.2-0.2-0.3-0.5-0.3H270c-0.3,0.2-0.5,0.6-0.5,1v0.2c0,0,0,0.3,0,0.6c0.2,0.5,0.3,0.5,0.5,0.5
			c0.3,0,0.5-0.2,0.5-0.3c0.2,0,1,0,1.9,0h1.1c0.6,0,0.8,0,1.1,0c0.2,0,0.5,0,1.1,0c2.4,0,5.6,0.5,6.5,0.6c6,0.8,10.8,0.6,10.8,0.6
			c0.2,0,0.2,0,0.3,0c0.5-0.2,0.8-1.1,0.8-1.7l0,0V115c0-0.3-0.2-0.8-0.3-1.1C293.9,113,293.6,112.9,293.2,112.9z"/>
		<path class="st3" d="M212.6,116.7c0.2,0.2,0.3,0.2,0.5,0.2c0,0,4.8,0.3,10.8-0.6c0.6-0.2,4-0.6,6.5-0.6c0.6,0,1,0,1.1,0
			c0.2,0,0.3,0,1.1,0h1.1c1,0,1.7,0,1.9,0c0,0.2,0.2,0.3,0.5,0.3h0.2c0.3-0.2,0.5-1,0.5-1.1c0-0.2,0-0.8-0.3-1
			c-0.2-0.2-0.2-0.2-0.3-0.2c-0.3,0-0.5,0.2-0.5,0.3c-0.2,0-1,0-1.9,0h-1.1c-0.6,0-0.8,0-1.1,0c-0.2,0-0.5,0-1.1,0
			c-2.5,0-5.9-0.5-6.5-0.6c-6-0.8-10.8-0.6-10.8-0.6c-0.2,0-0.2,0-0.3,0c-0.6,0.3-1,1.4-1,1.9v0.3l0,0
			C212.2,115.7,212.3,116.4,212.6,116.7z"/>
	</g>
</g>
<g>
	<g>
		<path class="st4" d="M148.8,295.4c-1.1,0-2.2-0.4-3-1.1c-1.5-1.2-2.1-3.1-1.5-5c0.1-0.3,7.9-28,8.9-46c0.3-5.2-0.8-8.9-2-13.5
			c-2.5-9-5.5-20,0.1-45.5c-25.4,25.3-50.4,47.2-65.6,59.5c-1.3,1.1-3.1,1.4-4.7,0.7c-1.6-0.6-2.7-2-3-3.7
			c-0.3-1.7-7.1-42.8-59.5-48.8c-1.7-0.2-3.1-1.3-3.8-2.8c-0.7-1.6-0.5-3.4,0.6-4.7c0.4-0.6,1.6-2.3,3.4-4.8
			c11.7-16.3,47.3-66,59.5-77.2c0.1,0,0.1-0.1,0.2-0.1c9.7-8.1,24.5-22.3,37.4-34.8c15.9-15.4,25.9-24.9,30.3-27.7
			c0.1-0.1,0.3-0.2,0.5-0.3c7-4.9,17.1-7.3,22.8-9.1c5.8-1.8,6.9-1.3,14-5.6c0.9-0.5,13.2,10.4,29.8,15.3c3.3,1,5.2,7,8.4,8.5
			c10.7,5,19.2,6.7,32.3,7.2c6.4,0.8,15.2,2.8,20.1,3.6c7.9,1.1,13-2,13-2c0.9-0.3,2.4-1,4.4-2.3c6.2-3.8,17.5-11.8,22.9-22.4
			c1.2-2.3,18.2-15.7,20.3-15c13.2,4.3,27.9,14.3,33.1,18.7c3.1,2.7,6,7.9,10.3,15.9c6.6,12.1,15.4,28.4,29.3,42.6
			c0.1-0.1,0.1-0.2,0.2-0.3c5.3-8.2,10.2-15,16.5-15.9c1.6-0.2,3.3,0.4,4.3,1.7c1,1.3,1.3,3,0.8,4.6c-1.1,3.1,1.1,9.9,6.6,15.3
			c3.7,3.6,13.9,11.4,29.6,5.6c1.5-0.6,3.3-0.3,4.6,0.7c1.3,1,2,2.6,1.8,4.3c-4.4,36.7-34,71.4-53.8,83c7.7,17.3,14.2,48.3,3.8,71.6
			c-0.7,1.7-0.5,0.5-2.6,4c-0.9,1.6-0.6-1-1.4-2.6c-0.1-0.2-10.5-19.9-55.5-15.6c-20.7,2-34.6,7.5-49.3,13.3
			c-13.8,5.5-29.5,11.7-52.5,15.6c-24.8,6.6-45.2,6.9-63.3,7.2c-18.3,0.3-32.8,0.6-46,7.2C150.2,295.2,149.5,295.4,148.8,295.4z
			 M160.7,185.1c-5.5,24.1-2.9,33.7-0.5,42.2c1.3,4.8,2.7,9.8,2.4,16.6c-0.6,12.3-4.3,28.8-6.8,38.9c12.5-4,25.9-4.2,40.9-4.5
			c17.5-0.3,37.4-0.7,61.2-7c0.1,0,0.3-0.1,0.4-0.1c22.2-3.8,36.8-9.6,50.8-15.1c15.3-6.1,29.8-11.8,51.8-14
			c31.1-3,49.6,5,58.8,13.2c3.9-19.1-4.8-43.4-11-57.3c-0.6,0.1-1.3,0.1-1.9-0.1c-38.2-9.4-57.6-75.4-58.4-78.2
			c-0.6-2.2,0.4-4.6,2.5-5.6c2.1-1,4.6-0.4,5.9,1.5c0,0,3,4.2,12.3,16.3c3.1,4,8,8.8,13.1,13.9c10.8,10.7,23.1,22.8,29.3,36.4
			c0.3,0.5,0.9,1.7,1.8,3.4c15.2-9.2,40.5-36.6,47.2-68.5c-16.6,3-27.7-5.6-32-9.9c-4.3-4.2-7.3-9.3-8.8-14.2
			c-2,2.6-3.8,5.5-4.8,6.9c-2.9,4.5-4.1,6.3-6.7,6.8c-1.3,0.3-2.7,0-3.8-0.8c-0.2-0.1-0.4-0.3-0.6-0.4c-17.2-16-27.8-35.6-34.8-48.6
			c-3.2-6-6.3-11.6-8.1-13.2c-7.7-6.6-26.2-17.6-36.3-18.4c-3.6,17.2-17.5,31.1-28.9,38c-2.1,1.3-4.1,2.3-5.9,3
			c-1.1,0.4-4.4,1.7-14.8,0.2c-10.9-1.6-31.5-3.9-51.2-11.7c-12.8-5-24.6-13-35.2-22.2c-6.7,3.7-11.4,5.2-16.8,6.9
			c-5.4,1.7-14.2,2.8-21.2,8.4c-8,6.8-16.5,14.8-28.6,26.4c-13.1,12.6-27.9,26.9-37.9,35.2c-7.6,7-26.8,31.9-57.1,74.2
			c26.2,5,40.8,18.6,48.7,29.6c4.9,6.9,7.7,13.5,9.3,18.3c15.6-13.1,38.5-33.4,61.4-56.4c0.1-0.1,0.2-0.2,0.3-0.2
			c10.5-9,20.9-16.9,30.1-23.9c8.7-6.6,16.2-12.2,21.5-17.2c1.8-1.7,4.5-1.7,6.4-0.1c1.8,1.6,2.1,4.3,0.7,6.3
			c-4.8,6.8-11.5,11.8-18.6,17.1C177.4,164.5,167.4,172,160.7,185.1z M369,145.7c7.7,15.9,19.3,33.9,34.3,40.8
			c-0.1-0.1-0.1-0.2-0.1-0.3c-5.4-12-17.1-23.5-27.4-33.7C373.4,150.2,371.1,147.9,369,145.7z"/>
		<path class="st5" d="M407.5,184.3c-8.7-19.5-32.4-37.2-41.9-49.5s-12.5-16.4-12.5-16.4s18.9,66,54.9,74.9
			c15.2-3.8,53.6-40.6,58.6-82.7c-27.9,10.4-46.3-15.7-42.3-27c-7.1,0.9-15.5,19.4-16.9,18.4c-25.6-23.9-36.1-55.9-43.1-61.9
			c-7.5-6.4-27.6-17.3-39.4-14.8c-7.1,10.2-21.1,27.7-31.4,33.9c-1.9,1.2-3.7,2.1-5.2,2.6c-2.1,0.8-6.5,2.3-12.4,1.7
			c-21.7-4.4-37.9-5.3-49-8.6c-7.8-2.3-14.6-11.8-20-13.9c-4.7-3.8-14.3-8.3-23.4-13.1c-14.8,8.9-14.2,5.5-35.2,15.9
			c-8.3,5.4-47.4,45.6-67.2,62.2c-13.8,12.6-59.2,77-62.4,81.3c56.9,6.5,63.7,52.8,63.7,52.8c17.5-14.1,43.2-37.2,67.5-61.5
			c38.1-36.6,40.5-30.7,51.8-41.2c-10.9,15.2-33.4,21.8-45.6,46c-9.2,39.2,2.5,42.9,1.6,60.1c-0.9,17.2-7.9,43.1-9,47.1
			c27.7-13.9,60.5-1.6,110.3-14.8c47.1-8,61.2-25.1,102.4-29.1s54.6,8.8,57.9,15.2C433,231.1,407.5,184.3,407.5,184.3"/>
		<path class="st6" d="M124.5,129.6"/>
		<g class="st7">
			<polygon class="st8" points="93.4,95.3 85.5,102.2 148.7,146.4 			"/>
			<polygon class="st8" points="85.9,102 80.7,106.5 121.8,135.2 			"/>
		</g>
		<path class="st4" d="M408,197.9c-0.4,0-0.8,0-1.1-0.1c-38.3-9.4-57.5-76.1-58.3-78.9c-0.7-2.5,0.8-5.1,3.3-5.9
			c2.5-0.7,5.1,0.8,5.9,3.3c0.2,0.6,18.1,62.7,50.3,72c13.5-4.5,45.1-35,52.8-71.2c-16.6,3-27.7-5.6-32-9.9
			c-4.3-4.2-7.3-9.3-8.8-14.2c-2,2.6-3.8,5.5-4.8,6.9c-2.9,4.5-4.1,6.3-6.7,6.8c-1.3,0.3-2.7,0-3.8-0.8c-0.2-0.1-0.4-0.3-0.6-0.4
			c-17.2-16-27.8-35.6-34.8-48.6c-3.2-6-6.3-11.6-8.1-13.2c-2-1.7-2.2-4.7-0.5-6.7c1.7-2,4.7-2.2,6.7-0.5c3.1,2.7,6,7.9,10.3,15.9
			c6.6,12.1,15.4,28.4,29.3,42.6c0.1-0.1,0.1-0.2,0.2-0.3c5.3-8.2,10.2-15,16.5-15.9c1.6-0.2,3.3,0.4,4.3,1.7c1,1.3,1.3,3,0.8,4.6
			c-1.1,3.1,1.1,9.9,6.6,15.3c3.7,3.6,13.9,11.4,29.6,5.6c1.5-0.6,3.3-0.3,4.6,0.7c1.3,1,2,2.6,1.8,4.3c-5,42.5-43.9,82.2-62.2,86.7
			C408.8,197.9,408.4,197.9,408,197.9z"/>
		<path class="st5" d="M347.7,116.4c0,0,0.8,2.5,0.9,2.7c1.6,4.4,24.7,65.5,59.4,74.1c15.2-3.8,53.6-40.6,58.6-82.7
			c-27.9,10.4-46.3-15.7-42.3-27c-7.1,0.9-15.5,19.4-16.9,18.4C382.6,78.8,372,48,365,40.7c-1.2-1.4-6.5-5-6.7-5.2"/>
		<g class="st7">
			<polygon class="st8" points="401.3,94.7 397,89.9 370,128.5 			"/>
			<polygon class="st8" points="397.2,89.8 394.4,86.7 376.9,111.8 			"/>
		</g>
		<path class="st4" d="M191.6,90.4"/>
		<g>
			<g>
				<g>
					<path class="st9" d="M151.9,47.7c0,0-0.1,0-0.1-0.1c-0.2-0.6-0.2-1.6,1.3-1.6c0,0,0.1,0,0.2,0c0.9,0.7,1.9,1.4,2.9,2
						c3.1,2,6.3,4,9.3,6.4c3,2.3,5.7,5,8.2,7.8c2.5,2.8,4.7,5.9,6.8,9c2,3.1,3.9,6.4,5.7,9.7c3.6,6.6,6.5,13.5,8.9,20.6
						c1.2,3.6,2.2,7.2,3.1,10.8l0.6,2.6c0,0,0.5,3.4,0.5,5.8c0.2,4.1-0.6,2.5-1.2,0.1c0,0.1-0.3-1.3-0.7-2.8
						c-0.4-1.5-0.8-2.9-0.8-2.9l-0.2-1l-0.6-2.5c-0.9-3.5-1.9-7-3.1-10.4c-2.3-6.9-5.3-13.5-8.7-19.8c-0.9-1.6-1.8-3.2-2.7-4.7
						c-0.9-1.6-1.9-3.1-2.8-4.6c-2-3-4.2-5.9-6.6-8.5c-2.4-2.7-5-5.1-7.8-7.4c-2.8-2.2-5.8-4.2-8.9-6.1
						C153.9,49.2,152.9,48.5,151.9,47.7z"/>
				</g>
			</g>
		</g>
		<g>
			<g>
				<g>
					<path class="st10" d="M188.2,149.1c1.8,0,3.1-0.1,5.1-0.8c0.3-0.1,0.9-0.3,2.1-0.7c1.3-0.5,3.3-1.3,5.1-2.2
						c1.7-0.8,3.1-1.6,3.1-1.6s1.2-0.6,2.6-1.5c1.4-0.9,3.1-2.1,4.3-3c1.3-1,2.1-1.7,2.5-2c1.6-1.4,2.4-2.4,3.3-4
						c-1.6,0.9-2.6,1.6-4.2,2.9c-0.4,0.3-1.2,1-2.5,1.9c-1.1,0.9-2.8,2-4.2,2.9c-1.4,0.9-2.5,1.5-2.5,1.5s-1.4,0.8-3,1.6
						c-1.7,0.8-3.7,1.7-5,2.1c-1.1,0.4-1.7,0.6-2,0.7C190.9,147.7,189.8,148.3,188.2,149.1z"/>
				</g>
			</g>
		</g>
		<g>
			<g>
				<g>
					<path class="st9" d="M354.7,35.6c-0.2,1.8-0.3,3-0.1,5.2c0,0.3,0,0.7,0.1,1.2c0,0.3,0,0.6,0.1,0.9c0,0.6,0,1.2,0.1,1.8
						c0.1,2.5,0,5.5-0.2,8.4c-0.2,2.9-0.6,5.6-1,7.6c-0.4,2-0.6,3.3-0.6,3.3s-0.2,0.8-0.5,2c-0.3,1.2-0.8,2.9-1.4,4.8
						c-0.6,1.9-1.4,4-2.2,5.9c-0.8,2-1.7,3.9-2.4,5.4c-0.7,1.4-1.2,2.3-1.5,2.8c-1,1.9-1.4,3-2,4.8c1.3-1.3,2.2-2.2,3.2-4.1
						c0.3-0.5,0.7-1.4,1.5-2.8c0.8-1.6,1.7-3.5,2.5-5.5c0.8-2,1.6-4.1,2.2-6c0.6-1.9,1.1-3.7,1.4-4.9c0.3-1.3,0.5-2,0.5-2
						s0.3-1.3,0.7-3.3c0.4-2,0.8-4.8,1-7.7c0.2-2.9,0.3-6,0.2-8.6c0-0.6-0.1-1.2-0.1-1.8c0-0.3,0-0.6-0.1-0.9c0-0.5-0.1-1-0.1-1.3
						C355.8,38.5,355.4,37.3,354.7,35.6z"/>
				</g>
			</g>
		</g>
		<path class="st11" d="M51.3,204.8c17,14.9,31.4,40,26.2,46c-1.4,1.6-3,1.6-6.5,0.6c-1.1-16.1-7.9-30.2-17.5-38.5
			c-7.4-6.4-24.8-21.5-42.7-9.2c-3.5-5.3-5-9.6-2.6-12.3C13.4,185.4,34.3,190,51.3,204.8z"/>
		<path class="st4" d="M8,191.7c16.7,0.4,59.1,18.9,69.5,59.1c5.6-4.5,41.5-36.2,45.4-39.7c-6.6-21.6-41.6-60.9-77.7-66.3
			C38.6,151.9,15,184.4,8,191.7z"/>
		<path class="st11" d="M444.6,105c-12.5-16.3-16.5-30.8-14.1-32.4c1.9-1.3,5.5-0.6,8.4,1.6c-0.8,0.8-3.2,3.4-3.7,5.8
			c-0.3,1.2-0.7,8.9,8.6,21.8c10.1,7.9,15.6,5.4,21.2,4.4c2.3-0.4,6,1.3,7.9,1.1c8.7,7.8,12.5,14.8,9.9,17.8
			C478.7,129.7,458,116.7,444.6,105z"/>
		<linearGradient id="SVGID_1_" gradientUnits="userSpaceOnUse" x1="27.3191" y1="172.9823" x2="90.3619" y2="236.025">
			<stop  offset="0" style="stop-color:#FF4612"/>
			<stop  offset="0.4688" style="stop-color:#FF4612"/>
			<stop  offset="0.5506" style="stop-color:#FFFFFF"/>
			<stop  offset="0.641" style="stop-color:#FF4612"/>
			<stop  offset="1" style="stop-color:#FF4612"/>
		</linearGradient>
		<path class="st12" d="M17.8,184.9c15.5,0.4,57.1,18.1,66.8,55.2c5.2-4.2,7.4-6.1,11-9.4c-6.1-19.9-34.6-53.1-68-58.1
			C21.5,179.3,23.5,177.7,17.8,184.9z"/>
		<linearGradient id="SVGID_2_" gradientUnits="userSpaceOnUse" x1="41.5903" y1="154.8715" x2="107.4308" y2="220.712">
			<stop  offset="0" style="stop-color:#FF4612"/>
			<stop  offset="0.4688" style="stop-color:#FF4612"/>
			<stop  offset="0.5506" style="stop-color:#FFFFFF"/>
			<stop  offset="0.641" style="stop-color:#FF4612"/>
			<stop  offset="1" style="stop-color:#FF4612"/>
		</linearGradient>
		<path class="st13" d="M32.4,166.7c15.5,0.4,60,21,69.6,58.1c5.2-4.2,6.8-5.9,10.5-9.1c-6.1-19.9-37.4-55.9-70.8-60.8
			C35.6,161.4,38.1,159.5,32.4,166.7z"/>
		<g>
			<linearGradient id="SVGID_3_" gradientUnits="userSpaceOnUse" x1="412.9381" y1="88.0811" x2="463.9747" y2="139.1176">
				<stop  offset="0" style="stop-color:#FF4612"/>
				<stop  offset="0.4688" style="stop-color:#FF4612"/>
				<stop  offset="0.5506" style="stop-color:#FFFFFF"/>
				<stop  offset="0.641" style="stop-color:#FF4612"/>
				<stop  offset="1" style="stop-color:#FF4612"/>
			</linearGradient>
			<path class="st14" d="M468.6,133.4c-12.5-2.4-42.6-23.3-46-51.6c-4.7,2.4-4.7,2.4-8.4,5c2.6,16,19.7,47.6,46.1,56
				C464.3,137.9,464.3,137.9,468.6,133.4z"/>
			<linearGradient id="SVGID_4_" gradientUnits="userSpaceOnUse" x1="400.1587" y1="98.0908" x2="452.9698" y2="150.9018">
				<stop  offset="0" style="stop-color:#FF4612"/>
				<stop  offset="0.4688" style="stop-color:#FF4612"/>
				<stop  offset="0.5506" style="stop-color:#FFFFFF"/>
				<stop  offset="0.641" style="stop-color:#FF4612"/>
				<stop  offset="1" style="stop-color:#FF4612"/>
			</linearGradient>
			<path class="st15" d="M455.7,147.5c-12.5-2.4-40.7-25.9-45.8-57.4c-1.7,1-2.2,1-4.3,2.6c1.5,4,3.5,14.8,3.8,16.3
				c4.9,16.3,12.9,36.8,37.8,47.7C453.2,150.2,452.8,150.8,455.7,147.5z"/>
		</g>
		<g>
			<g>
				<g>
					<path class="st16" d="M288.4,61.9c-0.2,3.1-0.5,5-0.3,8.5c0,0.5,0,1.2,0.1,2.1c0,0.4,0,0.9,0,1.5c0,1.1,0.1,2.3,0.1,3.5
						c0,1.3,0.1,2.6,0.2,4c0.4,5.4,1,11.3,2.7,17.3c0.8,3,1.9,5.9,3.1,8.8c1.2,2.8,2.4,5.6,3.6,8.4c2.3,5.6,4.5,11.1,6.7,16.1
						c2.2,5.1,4.4,9.6,6.4,13.4c2,3.8,3.7,6.9,4.9,9c1.2,2.1,1.9,3.3,1.9,3.3s2.7,4.8,6.7,12.3c2,3.8,4.3,8.2,6.7,13.1
						c2.4,4.9,4.8,10.3,6.8,15.9c1,2.8,1.8,5.7,2.4,8.7c0.3,1.5,0.5,2.9,0.6,4.4c0.1,0.7,0.1,1.5,0.2,2.2c0,0.7,0.1,1.5,0.1,2.2
						c0.1,3,0.1,5.9,0,8.7c-0.1,1.4-0.2,2.8-0.3,4.2c-0.1,0.7-0.2,1.4-0.2,2c-0.1,0.6-0.2,1.2-0.3,1.8c-0.3,2.3-0.7,4.2-0.9,5.1
						c-0.7,3.4-0.9,5.5-1,8.5c1.6-2.6,2.5-4.5,3.3-8c0.2-1,0.6-2.9,0.9-5.2c0.1-0.6,0.2-1.3,0.3-1.9c0.1-0.7,0.2-1.4,0.2-2.1
						c0.1-1.4,0.3-2.8,0.3-4.3c0.2-2.9,0.2-5.9,0-9c0-0.8-0.1-1.5-0.1-2.3c-0.1-0.8-0.1-1.5-0.2-2.3c-0.1-1.5-0.4-3.1-0.6-4.6
						c-0.6-3.1-1.4-6.1-2.5-9c-2-5.8-4.5-11.2-6.9-16.2c-2.4-4.9-4.7-9.4-6.7-13.2c-4-7.6-6.8-12.4-6.8-12.4s-0.7-1.2-1.9-3.3
						c-1.2-2.1-2.9-5.2-4.9-8.9c-2-3.8-4.1-8.3-6.3-13.3c-2.2-5-4.3-10.5-6.7-16.1c-1.2-2.8-2.4-5.6-3.6-8.4c-1.2-2.8-2.2-5.6-3-8.4
						c-1.6-5.7-2.3-11.5-2.6-16.8c-0.2-4.9-0.4-9-0.5-11C290.2,66.7,289.7,64.7,288.4,61.9z"/>
				</g>
			</g>
		</g>
		<g>
			<g>
				<g>
					<path class="st16" d="M185.4,42.1c1.7,2.6,2.9,4.2,5.7,6.5c0.5,0.4,1.2,1,2.8,2.3c3.7,2.9,10.2,7.5,16.2,10.7
						c3,1.6,5.7,3,7.7,4c1,0.5,1.8,0.9,2.4,1.1c0.6,0.2,0.9,0.4,0.9,0.4s1.1,0.5,2.8,1.2c0.9,0.4,2,0.8,3.1,1.2
						c1.2,0.4,2.5,0.9,3.9,1.4c2.8,1,6,2,9.1,2.8c3.1,0.8,6.1,1.5,8.7,2c2.7,0.5,4.4,0.8,5.3,0.9c3.6,0.5,5.6,0.3,8.7-0.1
						c-2.9-1-4.8-1.6-8.3-2.2c-0.9-0.1-2.5-0.4-5.2-0.9c-2.5-0.5-5.5-1.2-8.5-2c-3.1-0.8-6.2-1.8-8.9-2.7c-1.4-0.5-2.7-1-3.9-1.4
						c-1.2-0.5-2.2-0.9-3.1-1.2c-1.7-0.7-2.8-1.2-2.8-1.2s-0.3-0.1-0.9-0.4c-0.6-0.3-1.4-0.6-2.4-1.1c-2-0.9-4.7-2.3-7.6-3.9
						c-5.8-3.2-12.2-7.7-15.9-10.5c-1.6-1.2-2.3-1.9-2.8-2.2C189.8,44.7,188.1,43.6,185.4,42.1z"/>
				</g>
			</g>
		</g>
		<g>
			<g>
				<g>
					<path class="st16" d="M335.8,31.5c-1.7,2.6-2.8,4.3-4.3,7.4c-0.3,0.5-0.7,1.4-1.6,3.2c-0.8,1.5-2.1,3.9-3.4,5.9
						c-1.3,2-2.4,3.6-2.4,3.6s-0.2,0.3-0.6,0.9c-0.4,0.5-0.9,1.3-1.6,2.1c-1.3,1.7-2.9,3.6-4.1,4.9c-1.8,2-3,3.1-3.6,3.8
						c-2.5,2.4-3.8,4-5.6,6.5c2.8-1.3,4.6-2.3,7.2-4.8c0.6-0.6,1.9-1.8,3.7-3.9c1.3-1.4,2.9-3.4,4.2-5.1c0.7-0.9,1.2-1.6,1.6-2.2
						c0.4-0.6,0.6-0.9,0.6-0.9s1.2-1.6,2.5-3.7c1.3-2.1,2.7-4.6,3.5-6.1c0.9-1.8,1.4-2.7,1.6-3.3C335.1,36.6,335.5,34.5,335.8,31.5z
						"/>
				</g>
			</g>
		</g>
		<path class="st4" d="M482.8,124.9c-14.7-0.4-50.7-24.9-52.3-52.4c-9.7,7.1-27,15.1-30.5,18.2c13.1,28.8-7.3,49.6,37.1,87.4
			C442.9,172,476.6,131.4,482.8,124.9z"/>
		<path class="st5" d="M401.3,96.3L428,80.6c0,0-2.7,32.7,45.1,47.5c-6.5,8.8-39.7,46.9-39.7,46.9"/>
	</g>
	<path class="st17" d="M191.6,35.6l38.7,22.6l46.9,4.7l16.4-3.7l24.9-21.5l14.4-18.3c0,0,5.6,1.8,8.7,31.2
		c3.1,29.3-23,138.2-23,138.2s-80.4-67.8-95.6-90s-39.3-70.9-39.3-70.9L191.6,35.6z"/>
	<path class="st18" d="M183,25.3c0,0,37.5,23.3,47.3,28.7c12.5,4.3,46.9,9,46.9,9l-13.5,38.6c0,0-40.7-22.5-52.5-29.6
		C194.8,62.2,183,25.3,183,25.3z"/>
	<path class="st18" d="M277.2,62.9l29.6,21.7c0,0,18.6-23.1,23-31.2c6.9-12.9,4.5-35.6,4.5-35.6L324,24.6c0,0-9.4,12.6-15.3,20
		C298.4,57.7,277.2,62.9,277.2,62.9z"/>
	<path class="st6" d="M318.5,188.8c1.6,6.5,5.9,23.9,7,31.6c1.8,12.4,2.3,23.8,2.2,33.7"/>
	<path class="st19" d="M183,25.3c34.2,73.6,135.5,163.6,135.5,163.6s-80-46.9-115.7-73.7c-3.4-2.6,9.6-13.2,4.9-17.6
		c-4.2-3.8-18.1,6.6-19.4,5.1c-1.9-2.2-3.8-4.8-5.5-7.7c-13.8-22.9-21.1-62.1-21.1-62.1S169,23.9,183,25.3z"/>
	<path class="st19" d="M334.2,17.8c2.1,15.6,2.2,34.1,1.1,53c-0.2,3.7-0.5,7.4-0.8,11c-4.2,53.5-16.1,106.9-16.1,106.9
		s30.4-61.4,42.7-94.4c0.9-2.5-9.6-9.4-9.6-11.7c0-5.3,14.2-2.3,14.5-4.6c2.9-20.4-11-50.4-11-50.4S346.4,15.6,334.2,17.8z"/>
	<path class="st6" d="M277.2,62.9c6.6,14.6,13.1,30.5,19.2,47.7c9.9,28,17,54.4,22.1,78.2"/>
	<path class="st5" d="M50.2,144.8c-3,1.5-20.6,24.2-31.4,39.4c36.4,15.2,42,20.2,63.2,57.6c16.3-14.2,38.5-32.4,40.1-36.1"/>
	<g>
		<path class="st4" d="M284.4,62.4c0,0,24.6-27.3,37.8-27.6c10.3-0.2,17.7,30.6,12.7,44.3c-1.3,3.4-3.3,5.8-6.3,6.3
			c-18.6,3.2-40.2-7-40.2-7L284.4,62.4z"/>
		<path class="st4" d="M283.2,63c0,0-37.9-14.1-48-12.4c-10.2,1.7-5,55.2,9,52.7c13.9-2.5,40.6-23.8,40.6-23.8L283.2,63z"/>
		<polygon class="st20" points="293,64 293.7,65.6 312.4,55.3 		"/>
		<polygon class="st20" points="277.7,70.2 277.5,72 256.4,68.4 		"/>
		<polygon class="st20" points="291.2,69 290.9,70.8 312.1,73 		"/>
		<polygon class="st20" points="279.7,74.6 280.5,76.2 261.2,85.3 		"/>
		<polygon class="st20" points="279.5,72.9 279.9,74.7 258.7,77.5 		"/>
		<polygon class="st20" points="290.8,67.9 291.1,69.7 312,65.3 		"/>
		<ellipse transform="matrix(0.9858 -0.168 0.168 0.9858 -7.8479 48.6889)" class="st4" cx="283.8" cy="70.7" rx="13.3" ry="13.3"/>
		<g>
			<g>
				<g>
					<path class="st10" d="M275.7,61c-0.6,0.4-1.1,0.7-1.6,1.1c-0.5,0.4-0.9,0.9-1.4,1.6c-0.2,0.2-0.4,0.6-0.9,1.5
						c-0.4,0.6-0.7,1.4-1.1,2.4c-0.1,0.5-0.3,1-0.4,1.5c-0.1,0.5-0.1,1-0.2,1.5c-0.1,0.5,0,1,0,1.4c0,0.4,0,0.8,0.1,1.1
						c0.1,0.6,0.2,1,0.2,1s0,0.1,0.1,0.2c0.1,0.1,0.1,0.4,0.2,0.6c0.1,0.3,0.2,0.6,0.3,0.9c0.2,0.3,0.4,0.7,0.6,1.1
						c0.8,1.5,2.2,3.2,3.3,4.1c1,0.9,1.6,1.3,2,1.5c0.7,0.4,1.3,0.8,1.9,1c0.6,0.2,1.2,0.4,1.9,0.5c-0.5-0.5-1-0.8-1.5-1.2
						c-0.5-0.4-1-0.8-1.7-1.2c-0.3-0.2-0.9-0.7-1.9-1.5c-1.1-0.9-2.3-2.4-3.1-3.8c-0.2-0.4-0.4-0.7-0.5-1c-0.1-0.3-0.2-0.6-0.3-0.8
						c-0.1-0.2-0.2-0.4-0.2-0.6c-0.1-0.1-0.1-0.2-0.1-0.2s-0.1-0.4-0.2-0.9c-0.1-0.3-0.1-0.6-0.1-1c0-0.4-0.1-0.8,0-1.3
						c0.1-0.4,0.1-0.9,0.2-1.4c0.1-0.5,0.2-0.9,0.4-1.4c0.4-0.8,0.6-1.6,1-2.2c0.5-0.8,0.7-1.2,0.9-1.4c0.5-0.6,0.8-1.2,1.1-1.7
						C275,62.1,275.3,61.6,275.7,61z"/>
				</g>
			</g>
		</g>
		<g>
			<g>
				<g>
					<path class="st10" d="M288.2,58c0.5,0.5,1,0.8,1.5,1.2c0.5,0.3,0.9,0.8,1.6,1.2c0.2,0.1,0.6,0.4,1.2,1c0.5,0.4,1,1.1,1.6,1.7
						c0.3,0.4,0.5,0.8,0.8,1.2c0.2,0.4,0.4,0.8,0.6,1.2c0.2,0.4,0.3,0.8,0.4,1.2c0.1,0.4,0.2,0.7,0.2,1c0.1,0.6,0.1,1,0.1,1
						s0,0.1,0,0.2c0,0.1,0,0.3,0,0.6c0,0.3,0,0.6,0,0.9c0,0.3-0.1,0.7-0.1,1.1c-0.3,1.6-0.9,3.4-1.6,4.6c-0.6,1.1-1,1.7-1.2,2
						c-0.5,0.6-0.8,1.2-1.1,1.7c-0.3,0.5-0.6,1-1,1.6c0.6-0.4,1.1-0.7,1.6-1.1c0.5-0.4,0.9-0.9,1.4-1.6c0.2-0.4,0.7-1,1.3-2.1
						c0.8-1.3,1.5-3.3,1.7-5c0.1-0.4,0.1-0.8,0.2-1.2c0-0.4,0-0.7,0-1c0-0.3,0-0.5,0-0.7c0-0.2,0-0.2,0-0.2s-0.1-0.4-0.2-1
						c0-0.3-0.1-0.7-0.3-1.1c-0.1-0.4-0.2-0.9-0.5-1.3c-0.2-0.4-0.4-0.9-0.7-1.4c-0.3-0.4-0.6-0.9-0.8-1.3c-0.7-0.7-1.2-1.5-1.8-1.9
						c-0.7-0.6-1.1-0.9-1.3-1.1c-0.7-0.4-1.3-0.8-1.8-1C289.4,58.3,288.9,58.2,288.2,58z"/>
				</g>
			</g>
		</g>
	</g>
	<g>
		<path d="M289.1,111.7l0.1-0.1l0.4-0.7c0.8-1.6,0.8-3.5,0.2-5.4c-1-2.9-3.5-4.7-6-4.7c-0.8-0.1-1.7,0-2.9,0.3
			c-1.4,0.5-2.5,1.3-3.1,2.6c-0.8,1.6-0.8,3.7-0.1,5.7l0,0c1.4,3.5,4,5.1,7.3,4.6C287.2,113.6,288.5,112.8,289.1,111.7z
			 M278.6,109.1c-0.3-0.9-0.5-1.8-0.5-2.6c0-0.9,0.2-1.7,0.5-2.3c0.3-0.7,0.8-1.2,1.5-1.6c-0.2,0.3-0.4,0.6-0.6,1
			c-0.4,0.8-0.6,1.8-0.6,2.8c0,0.8,0.1,1.7,0.4,2.6c0.7,1.9,2.1,3.4,3.6,4.2C281,112.7,279.6,111.4,278.6,109.1z M286.4,112.5
			c-2.4,0.7-5.2-1-6.2-3.9c-0.6-1.6-0.5-3.3,0.1-4.6c0.5-1,1.3-1.7,2.3-2c2.4-0.8,5.1,1,6.2,3.9c0.6,1.6,0.5,3.3-0.1,4.6
			C288.2,111.5,287.4,112.2,286.4,112.5z"/>
		<path class="st19" d="M288.9,105.9c-1-2.9-3.8-4.7-6.2-3.9c-1,0.3-1.8,1-2.3,2c-0.7,1.3-0.7,3-0.1,4.6c1,2.9,3.8,4.7,6.2,3.9
			c1-0.3,1.8-1,2.3-2C289.4,109.2,289.5,107.5,288.9,105.9z"/>
	</g>
	<g>
		<path d="M305.2,164.1l0.1-0.1l0.4-0.7c0.8-1.6,0.8-3.5,0.2-5.4c-1-2.9-3.5-4.7-6-4.7c-0.8-0.1-1.7,0-2.9,0.3
			c-1.4,0.5-2.5,1.3-3.1,2.6c-0.8,1.6-0.8,3.7-0.1,5.7l0,0c1.4,3.5,4,5.1,7.3,4.6C303.2,166,304.6,165.2,305.2,164.1z M294.7,161.5
			c-0.3-0.9-0.5-1.8-0.5-2.6c0-0.9,0.2-1.7,0.5-2.3c0.3-0.7,0.8-1.2,1.5-1.6c-0.2,0.3-0.4,0.6-0.6,1c-0.4,0.8-0.6,1.8-0.6,2.8
			c0,0.8,0.1,1.7,0.4,2.6c0.7,1.9,2.1,3.4,3.6,4.2C297.1,165.1,295.6,163.8,294.7,161.5z M302.5,164.9c-2.4,0.7-5.2-1-6.2-3.9
			c-0.6-1.6-0.5-3.3,0.1-4.6c0.5-1,1.3-1.7,2.3-2c2.4-0.8,5.1,1,6.2,3.9c0.6,1.6,0.5,3.3-0.1,4.6
			C304.3,163.8,303.5,164.5,302.5,164.9z"/>
		<path class="st19" d="M305,158.3c-1-2.9-3.8-4.7-6.2-3.9c-1,0.3-1.8,1-2.3,2c-0.7,1.3-0.7,3-0.1,4.6c1,2.9,3.8,4.7,6.2,3.9
			c1-0.3,1.8-1,2.3-2C305.5,161.6,305.6,159.9,305,158.3z"/>
	</g>
	<g>
		<path class="st21" d="M457.5,138.3l0.1-0.1l0.4-0.7c0.8-1.6,0.8-3.5,0.2-5.4c-1-2.9-3.5-4.7-6-4.7c-0.8-0.1-1.7,0-2.9,0.3
			c-1.4,0.5-2.5,1.3-3.1,2.6c-0.8,1.6-0.8,3.7-0.1,5.7l0,0c1.4,3.5,4,5.1,7.3,4.6C455.5,140.2,456.9,139.4,457.5,138.3z M447,135.7
			c-0.3-0.9-0.5-1.8-0.5-2.6c0-0.9,0.2-1.7,0.5-2.3c0.3-0.7,0.8-1.2,1.5-1.6c-0.2,0.3-0.4,0.6-0.6,1c-0.4,0.8-0.6,1.8-0.6,2.8
			c0,0.8,0.1,1.7,0.4,2.6c0.7,1.9,2.1,3.4,3.6,4.2C449.4,139.3,447.9,138,447,135.7z M454.8,139.1c-2.4,0.7-5.2-1-6.2-3.9
			c-0.6-1.6-0.5-3.3,0.1-4.6c0.5-1,1.3-1.7,2.3-2c2.4-0.8,5.1,1,6.2,3.9c0.6,1.6,0.5,3.3-0.1,4.6
			C456.6,138.1,455.8,138.8,454.8,139.1z"/>
		<path class="st22" d="M457.3,132.5c-1-2.9-3.8-4.7-6.2-3.9c-1,0.3-1.8,1-2.3,2c-0.7,1.3-0.7,3-0.1,4.6c1,2.9,3.8,4.7,6.2,3.9
			c1-0.3,1.8-1,2.3-2C457.8,135.8,457.8,134.1,457.3,132.5z"/>
	</g>
	<g>
		<path class="st21" d="M90.9,226.3l0.1-0.1l0.4-0.7c0.8-1.6,0.8-3.5,0.2-5.4c-1-2.9-3.5-4.7-6-4.7c-0.8-0.1-1.7,0-2.9,0.3
			c-1.4,0.5-2.5,1.3-3.1,2.6c-0.8,1.6-0.8,3.7-0.1,5.7l0,0c1.4,3.5,4,5.1,7.3,4.6C89,228.2,90.3,227.4,90.9,226.3z M80.4,223.7
			c-0.3-0.9-0.5-1.8-0.5-2.6c0-0.9,0.2-1.7,0.5-2.3c0.3-0.7,0.8-1.2,1.5-1.6c-0.2,0.3-0.4,0.6-0.6,1c-0.4,0.8-0.6,1.8-0.6,2.8
			c0,0.8,0.1,1.7,0.4,2.6c0.7,1.9,2.1,3.4,3.6,4.2C82.9,227.3,81.4,226,80.4,223.7z M88.3,227.1c-2.4,0.7-5.2-1-6.2-3.9
			c-0.6-1.6-0.5-3.3,0.1-4.6c0.5-1,1.3-1.7,2.3-2c2.4-0.8,5.1,1,6.2,3.9c0.6,1.6,0.5,3.3-0.1,4.6C90,226,89.3,226.7,88.3,227.1z"/>
		<path class="st22" d="M90.7,220.5c-1-2.9-3.8-4.7-6.2-3.9c-1,0.3-1.8,1-2.3,2c-0.7,1.3-0.7,3-0.1,4.6c1,2.9,3.8,4.7,6.2,3.9
			c1-0.3,1.8-1,2.3-2C91.3,223.8,91.3,222.1,90.7,220.5z"/>
	</g>
	<g>
		<path class="st21" d="M317.7,225.8l0.1-0.1l0.4-0.7c0.8-1.6,0.8-3.5,0.2-5.4c-1-2.9-3.5-4.7-6-4.7c-0.8-0.1-1.7,0-2.9,0.3
			c-1.4,0.5-2.5,1.3-3.1,2.6c-0.8,1.6-0.8,3.7-0.1,5.7l0,0c1.4,3.5,4,5.1,7.3,4.6C315.8,227.7,317.1,226.9,317.7,225.8z
			 M307.2,223.1c-0.3-0.9-0.5-1.8-0.5-2.6c0-0.9,0.2-1.7,0.5-2.3c0.3-0.7,0.8-1.2,1.5-1.6c-0.2,0.3-0.4,0.6-0.6,1
			c-0.4,0.8-0.6,1.8-0.6,2.8c0,0.8,0.1,1.7,0.4,2.6c0.7,1.9,2.1,3.4,3.6,4.2C309.6,226.8,308.2,225.4,307.2,223.1z M315,226.5
			c-2.4,0.7-5.2-1-6.2-3.9c-0.6-1.6-0.5-3.3,0.1-4.6c0.5-1,1.3-1.7,2.3-2c2.4-0.8,5.1,1,6.2,3.9c0.6,1.6,0.5,3.3-0.1,4.6
			C316.8,225.5,316,226.2,315,226.5z"/>
		<path class="st22" d="M317.5,220c-1-2.9-3.8-4.7-6.2-3.9c-1,0.3-1.8,1-2.3,2c-0.7,1.3-0.7,3-0.1,4.6c1,2.9,3.8,4.7,6.2,3.9
			c1-0.3,1.8-1,2.3-2C318,223.2,318.1,221.6,317.5,220z"/>
	</g>
</g>
</svg>
