<?xml version="1.0" encoding="utf-8"?>
<!-- Generator: Adobe Illustrator 17.1.0, SVG Export Plug-In . SVG Version: 6.00 Build 0)  -->
<!DOCTYPE svg PUBLIC "-//W3C//DTD SVG 1.1//EN" "http://www.w3.org/Graphics/SVG/1.1/DTD/svg11.dtd">
<svg version="1.1" id="Layer_1" xmlns="http://www.w3.org/2000/svg" xmlns:xlink="http://www.w3.org/1999/xlink" x="0px" y="0px"
	 viewBox="0 0 489.4 63" enable-background="new 0 0 489.4 63" xml:space="preserve">
<g>
	<path fill="#F15A2A" d="M20.4,36.7c0.6-0.3,0.9-0.4,1-0.5c0.2-0.1,0.3-0.2,1-0.4l1.6-0.7c0.3-0.1,1-0.4,1.1-0.4c0,0,0,0,0.1,0
		c0.1,0.1,0.3,0.2,0.5,0.1c0.4-0.2,0.1-1,0.1-1.1c-0.1-0.2-0.4-0.9-0.8-0.7c-0.3,0.1-0.3,0.3-0.3,0.4c0,0,0,0,0,0c0,0,0,0,0,0
		c-0.1,0.1-0.8,0.4-1.1,0.5l-1.6,0.7c-0.6,0.3-0.8,0.3-1,0.4c-0.2,0.1-0.4,0.1-1,0.4c-2.2,0.9-5.3,1.7-6.1,1.9
		c-3.5,0.9-6.5,2-8.3,2.8c-1,0.4-1.6,0.7-1.6,0.7c-0.6,0.3-0.4,1.6-0.2,2.1c0.2,0.5,1,1.6,1.7,1.3c0,0,0,0,0,0c0,0,0.6-0.2,1.7-0.6
		c1.8-0.8,4.7-2.1,7.9-3.9C15.2,39.4,18.1,37.7,20.4,36.7z"/>
	<path fill="#F15A2A" d="M58.9,17.9L58.9,17.9c0,0-0.6,0.2-1.7,0.6c-1.8,0.8-4.7,2.1-7.9,3.9c-0.5,0.3-3.4,2-5.7,3
		c-0.6,0.3-0.8,0.4-1,0.5c-0.2,0.1-0.3,0.2-1,0.4l-1.6,0.7c-0.3,0.1-1,0.4-1.1,0.4c0,0,0,0-0.1,0c-0.1-0.1-0.3-0.2-0.5-0.1
		c-0.4,0.2-0.1,1-0.1,1.1c0.1,0.2,0.4,0.9,0.8,0.7c0.3-0.1,0.3-0.3,0.3-0.4c0,0,0-0.1,0,0c0.1-0.1,0.7-0.4,1.1-0.5l1.6-0.7
		c0.6-0.3,0.8-0.3,1-0.4c0.2-0.1,0.4-0.1,1-0.4c2.2-0.9,5.3-1.7,6.1-1.9c3.5-0.9,6.5-2,8.3-2.8l0,0c1-0.4,1.6-0.7,1.6-0.7
		c0.3-0.1,0.4-0.5,0.4-1c0-0.4-0.1-0.9-0.2-1.1C60.3,18.8,59.5,17.7,58.9,17.9z"/>
	<path fill="#F15A2A" d="M20.2,2.6c-0.5,0.2-1.6,1-1.3,1.7c0,0,1.6,4.4,4.6,9.5c0.3,0.5,2,3.4,3,5.7c0.3,0.6,0.4,0.8,0.5,1
		c0.1,0.2,0.2,0.3,0.4,1l0.4,1c0.4,0.9,0.7,1.6,0.7,1.7c0,0,0,0,0,0.1c-0.1,0.1-0.2,0.3-0.1,0.5c0.2,0.4,1,0.1,1.1,0.1h0
		c0.2-0.1,0.9-0.4,0.7-0.8c-0.1-0.3-0.3-0.3-0.4-0.3c0,0-0.1,0,0,0c-0.1-0.1-0.4-0.8-0.8-1.7l-0.4-1c-0.3-0.6-0.3-0.8-0.4-1
		c-0.1-0.2-0.1-0.4-0.4-1c-0.9-2.3-1.7-5.5-1.9-6.1c-1.5-5.7-3.5-9.9-3.5-10C22.1,2.2,20.7,2.4,20.2,2.6z"/>
	<path fill="#F15A2A" d="M37.6,42.8c-0.3-0.6-0.4-0.8-0.5-1c-0.1-0.2-0.2-0.3-0.4-1l-0.4-1c-0.4-1-0.7-1.6-0.7-1.7c0,0,0,0,0-0.1
		c0.1-0.1,0.2-0.3,0.1-0.5c-0.2-0.4-1-0.1-1.1-0.1l0,0c-0.2,0.1-0.9,0.4-0.7,0.8c0.1,0.3,0.3,0.3,0.4,0.3c0,0,0.1,0,0,0
		c0.1,0.1,0.4,0.8,0.8,1.7l0.4,1c0.3,0.6,0.3,0.8,0.4,1c0.1,0.2,0.1,0.4,0.4,1c0.9,2.2,1.7,5.3,1.9,6.1c1.5,5.7,3.5,9.9,3.5,10
		c0.3,0.6,1.6,0.4,2.1,0.2h0c0.5-0.2,1.6-1,1.3-1.7c0,0-1.6-4.4-4.6-9.5C40.3,47.9,38.6,45.1,37.6,42.8z"/>
	<path fill="#F15A2A" d="M13.7,24.9c0.6,0.2,3.8,1,6.1,1.9c0.6,0.3,0.9,0.3,1.1,0.4c0.2,0.1,0.3,0.1,1,0.4l1,0.4
		c1,0.4,1.6,0.7,1.7,0.8c0,0,0,0,0,0.1c0,0.1,0.1,0.3,0.3,0.4c0.1,0,0.2,0,0.3,0c0.3-0.1,0.5-0.6,0.6-0.7l0,0
		c0.1-0.2,0.2-0.6,0.1-0.9c0-0.1-0.1-0.2-0.2-0.2c-0.1-0.1-0.3-0.1-0.4,0c-0.1,0-0.1,0.1-0.2,0.1c0,0,0,0,0,0
		c-0.1,0-0.8-0.3-1.8-0.7l-1-0.4c-0.6-0.3-0.8-0.3-1-0.4c-0.2-0.1-0.4-0.2-1-0.5c-2.2-1-4.9-2.5-5.7-3c-5.1-3-9.5-4.6-9.5-4.6
		c-0.1-0.1-0.3-0.1-0.5,0c-0.5,0.2-1,0.9-1.2,1.3l0,0c0,0,0,0,0,0v0c0,0,0,0,0,0l0,0c-0.2,0.5-0.4,1.8,0.2,2.1
		C3.8,21.5,8,23.5,13.7,24.9z"/>
	<path fill="#F15A2A" d="M50.4,37.3c-0.6-0.2-3.8-1-6.1-1.9c-0.6-0.3-0.9-0.3-1-0.4c-0.2-0.1-0.3-0.1-1-0.4l-1-0.4
		c-1-0.4-1.6-0.7-1.7-0.8c0,0,0,0,0-0.1c0-0.1,0-0.3-0.3-0.4c-0.1,0-0.2,0-0.3,0c-0.3,0.1-0.5,0.6-0.6,0.7c-0.1,0.2-0.4,0.9,0.1,1.1
		c0.1,0.1,0.3,0.1,0.4,0c0.1,0,0.1-0.1,0.2-0.1c0,0,0,0,0,0c0.1,0,0.8,0.3,1.8,0.7l1,0.4c0.6,0.3,0.8,0.3,1,0.4
		c0.2,0.1,0.4,0.2,1,0.5c2.2,1,4.9,2.5,5.7,3c5.1,3,9.5,4.6,9.5,4.6c0.1,0.1,0.3,0.1,0.5,0c0.5-0.2,1-0.9,1.2-1.3l0-0.1v0
		c0.2-0.6,0.3-1.8-0.2-2.1C60.3,40.8,56.1,38.8,50.4,37.3z"/>
	<path fill="#F15A2A" d="M35.9,20c-0.1,0.2-0.1,0.3-0.4,1l-0.4,1c-0.4,0.9-0.7,1.6-0.7,1.7c0,0,0,0-0.1,0c-0.1,0-0.1,0-0.2,0
		c-0.1,0.1-0.2,0.1-0.3,0.3c-0.2,0.4,0.5,0.7,0.7,0.8l0,0c0.1,0.1,0.6,0.2,0.9,0.1l0,0c0.1,0,0.2-0.1,0.2-0.2c0.1-0.3,0-0.4-0.1-0.5
		c0,0,0,0,0,0c0-0.1,0.3-0.8,0.7-1.8l0.4-1c0.3-0.6,0.3-0.8,0.4-1c0.1-0.2,0.2-0.4,0.5-1c1-2.2,2.5-4.9,3-5.7c3-5.1,4.6-9.5,4.6-9.5
		c0.3-0.6-0.8-1.5-1.3-1.7l0,0c-0.4-0.2-1.3-0.3-1.8-0.1c-0.2,0.1-0.3,0.2-0.3,0.3c0,0-2,4.3-3.5,10c-0.2,0.6-1,3.8-1.9,6.1
		C36.1,19.6,36,19.8,35.9,20z"/>
	<path fill="#F15A2A" d="M28.1,42.3c0.1-0.2,0.1-0.3,0.4-1l0.4-1c0.4-1,0.7-1.7,0.8-1.7c0,0,0,0,0.1,0c0.1,0,0.1,0,0.2,0
		c0.1,0,0.2-0.1,0.3-0.3c0.2-0.4-0.5-0.7-0.7-0.8l-0.1,0l0,0c-0.2-0.1-0.6-0.2-0.9-0.1c-0.1,0-0.2,0.1-0.2,0.2
		c-0.1,0.3,0,0.4,0.1,0.5c0,0,0,0,0,0c0,0.1-0.3,0.8-0.7,1.8l-0.4,1c-0.3,0.6-0.3,0.8-0.4,1c-0.1,0.2-0.2,0.4-0.5,1
		c-1,2.3-2.7,5.1-3,5.7c-3,5.1-4.6,9.5-4.6,9.5c-0.3,0.6,0.8,1.4,1.3,1.7l0,0c0.4,0.1,1.2,0.3,1.8,0.1l0,0c0.2-0.1,0.3-0.2,0.4-0.3
		c0,0,2-4.3,3.5-10c0.2-0.6,1-3.8,1.9-6.1C28,42.7,28.1,42.5,28.1,42.3z"/>
	<path fill="#F15A2A" d="M22.3,41.6c0.3-0.3,0.4-0.4,0.5-0.5c0.1-0.1,0.2-0.2,0.5-0.5l0.5-0.5c0.4-0.4,0.8-0.8,0.9-0.8c0,0,0,0,0,0
		c0.1,0,0.3,0,0.4-0.1c0.1-0.1,0.1-0.1,0.1-0.2c0-0.2-0.2-0.5-0.3-0.6l-0.1-0.1h0c-0.1-0.1-0.4-0.3-0.6-0.2c0,0-0.1,0-0.1,0.1
		c-0.2,0.2-0.1,0.3-0.1,0.4c0,0.1-0.4,0.4-0.8,0.9l-0.5,0.5c-0.3,0.3-0.4,0.4-0.5,0.5c-0.1,0.1-0.2,0.2-0.5,0.5
		c-1.1,1.1-2.7,2.3-3.2,2.6c-3,2.3-5.1,4.5-5.1,4.5c-0.1,0.1-0.1,0.2-0.1,0.3c0,0.3,0.2,0.7,0.4,1l0,0l0.1,0.1
		c0.2,0.2,0.9,0.6,1.3,0.5c0,0,0.1,0,0.1-0.1c0,0,2.3-2,4.5-5.1C20,44.3,21.2,42.7,22.3,41.6z"/>
	<path fill="#F15A2A" d="M41.8,20.7c-0.3,0.3-0.4,0.4-0.5,0.5c-0.1,0.1-0.2,0.2-0.5,0.5l-0.5,0.5c-0.4,0.4-0.8,0.8-0.9,0.8
		c-0.1,0-0.3,0-0.4,0.1c-0.1,0.1-0.1,0.2,0,0.5c0.1,0.1,0.2,0.3,0.2,0.3c0.1,0.1,0.4,0.4,0.7,0.3l0,0c0,0,0.1,0,0.1-0.1
		c0.2-0.2,0.1-0.3,0.1-0.4c0-0.1,0.4-0.4,0.8-0.9l0.5-0.5c0.3-0.3,0.4-0.4,0.5-0.5c0.1-0.1,0.2-0.2,0.5-0.5c1.1-1.1,2.7-2.3,3.2-2.6
		c3-2.3,5.1-4.5,5.1-4.5c0.3-0.3-0.1-1.2-0.4-1.4l0,0h0c-0.2-0.2-0.9-0.6-1.2-0.4c-0.1,0-0.1,0-0.1,0.1c0,0-2.3,2-4.5,5.1
		C44.2,17.8,42.9,19.5,41.8,20.7z"/>
	<path fill="#F15A2A" d="M32.2,41.4L32.2,41.4l-0.1,0c-0.1,0-0.3,0-0.5,0.1c-0.2,0.1-0.2,0.2-0.2,0.3c0,0.2,0.1,0.3,0.2,0.3
		c0,0.1,0,0.6,0,1.2l0,0.7c0,0.4,0,0.5,0,0.7c0,0.1,0,0.3,0,0.7c0,1.5-0.3,3.5-0.4,4.1c-0.5,3.8-0.4,6.8-0.4,6.8
		c0,0.1,0,0.2,0.1,0.3c0.2,0.2,0.6,0.3,0.9,0.4l0,0H32c0.2,0,0.5-0.1,0.7-0.2c0.4-0.2,0.5-0.4,0.5-0.5c0,0,0.2-3-0.4-6.8
		c-0.1-0.6-0.4-2.6-0.4-4.1c0-0.4,0-0.6,0-0.7c0-0.1,0-0.2,0-0.7l0-0.7c0-0.6,0-1.1,0-1.2c0.1,0,0.2-0.1,0.2-0.3
		c0-0.1,0-0.1-0.1-0.2C32.5,41.4,32.3,41.4,32.2,41.4z"/>
	<path fill="#F15A2A" d="M32,20.9c0.1,0,0.3,0,0.5-0.1l0,0c0.2-0.1,0.2-0.2,0.2-0.3c0-0.2-0.1-0.3-0.2-0.3c0-0.1,0-0.6,0-1.2v-0.7
		c0-0.4,0-0.5,0-0.7c0-0.1,0-0.3,0-0.7c0-1.5,0.3-3.5,0.4-4.1c0.5-3.8,0.4-6.8,0.4-6.8c0-0.2-0.1-0.4-0.5-0.6
		c-0.2-0.1-0.5-0.2-0.7-0.2l-0.1,0v0c-0.2,0-0.5,0.1-0.7,0.2c-0.4,0.2-0.5,0.4-0.5,0.5c0,0-0.2,3,0.4,6.8c0.1,0.4,0.4,2.5,0.4,4.1
		c0,0.4,0,0.6,0,0.7c0,0.1,0,0.2,0,0.7l0,0.7c0,0.6,0,1.1,0,1.2c-0.1,0-0.2,0.1-0.2,0.3c0,0.1,0,0.1,0.1,0.2
		C31.6,20.8,31.9,20.9,32,20.9z"/>
	<path fill="#F15A2A" d="M45.7,43.5c-0.5-0.4-2.1-1.6-3.2-2.6c-0.3-0.3-0.4-0.4-0.5-0.5c-0.1-0.1-0.2-0.2-0.5-0.5L41,39.4
		c-0.5-0.5-0.8-0.8-0.8-0.9c0-0.1,0.1-0.2-0.1-0.4c-0.1-0.1-0.2-0.1-0.4,0c-0.2,0.1-0.3,0.2-0.4,0.3l-0.1,0.1h0
		c-0.1,0.1-0.2,0.3-0.2,0.5c0,0.1,0,0.1,0.1,0.2c0.2,0.2,0.3,0.1,0.4,0.1c0.1,0,0.4,0.4,0.9,0.8l0.5,0.5c0.3,0.3,0.4,0.4,0.5,0.5
		c0.1,0.1,0.2,0.2,0.5,0.5c1.1,1.1,2.4,2.9,2.6,3.2c2.3,3,4.5,5.1,4.5,5.1c0.1,0.1,0.3,0.2,0.8,0c0.2-0.1,0.4-0.2,0.5-0.3l0,0
		l0.1-0.1c0.2-0.2,0.7-1.1,0.4-1.4C50.7,48,48.7,45.8,45.7,43.5z"/>
	<path fill="#F15A2A" d="M24.6,23c-0.1,0-0.4-0.4-0.9-0.8l-0.5-0.5c-0.3-0.3-0.4-0.4-0.5-0.5c-0.1-0.1-0.2-0.2-0.5-0.5
		c-1.1-1.1-2.3-2.7-2.6-3.2c-2.3-3-4.5-5.1-4.5-5.1c-0.1-0.1-0.3-0.2-0.8,0c-0.2,0.1-0.5,0.3-0.6,0.4c-0.2,0.2-0.5,0.7-0.5,1.1
		c0,0.1,0,0.2,0.1,0.3c0,0,2,2.3,5.1,4.6c0.3,0.2,2,1.5,3.2,2.6c0.3,0.3,0.4,0.4,0.5,0.5c0.1,0.1,0.2,0.2,0.5,0.5l0.5,0.5
		c0.4,0.4,0.8,0.8,0.8,0.8c0,0.1-0.1,0.2,0.1,0.4c0.1,0.1,0.2,0.1,0.4,0c0.2-0.1,0.3-0.2,0.4-0.3l0,0v0c0.1-0.1,0.3-0.3,0.3-0.5
		c0-0.1,0-0.2-0.1-0.2C24.9,22.9,24.7,23,24.6,23z"/>
	<path fill="#F15A2A" d="M57.2,29.8c0,0-3-0.2-6.8,0.4c-0.6,0.1-2.6,0.4-4.1,0.4c-0.4,0-0.6,0-0.7,0c-0.1,0-0.2,0-0.7,0l-0.7,0
		c-0.6,0-1.1,0-1.2,0c0-0.1-0.1-0.2-0.3-0.2c0,0-0.1,0-0.1,0c-0.2,0.1-0.3,0.4-0.3,0.6l0,0.1c0,0,0,0.2,0,0.4
		c0.1,0.3,0.2,0.3,0.3,0.3c0.2,0,0.3-0.1,0.3-0.2c0.1,0,0.6,0,1.2,0l0.7,0c0.4,0,0.5,0,0.7,0c0.1,0,0.3,0,0.7,0
		c1.5,0,3.5,0.3,4.1,0.4c3.8,0.5,6.8,0.4,6.8,0.4c0.1,0,0.1,0,0.2,0c0.3-0.1,0.5-0.7,0.5-1.1l0,0v-0.2c0-0.2-0.1-0.5-0.2-0.7
		C57.6,29.9,57.4,29.8,57.2,29.8z"/>
	<path fill="#F15A2A" d="M6.5,32.2c0.1,0.1,0.2,0.1,0.3,0.1c0,0,3,0.2,6.8-0.4c0.4-0.1,2.5-0.4,4.1-0.4c0.4,0,0.6,0,0.7,0
		c0.1,0,0.2,0,0.7,0l0.7,0c0.6,0,1.1,0,1.2,0c0,0.1,0.1,0.2,0.3,0.2c0,0,0.1,0,0.1,0c0.2-0.1,0.3-0.6,0.3-0.7c0-0.1,0-0.5-0.2-0.6
		c-0.1-0.1-0.1-0.1-0.2-0.1c-0.2,0-0.3,0.1-0.3,0.2c-0.1,0-0.6,0-1.2,0l-0.7,0c-0.4,0-0.5,0-0.7,0c-0.1,0-0.3,0-0.7,0
		c-1.6,0-3.7-0.3-4.1-0.4c-3.8-0.5-6.8-0.4-6.8-0.4c-0.1,0-0.1,0-0.2,0c-0.4,0.2-0.6,0.9-0.6,1.2v0.2h0C6.2,31.6,6.3,32,6.5,32.2z"
		/>
</g>
<g>
	<path fill="#FFFFFF" d="M100.2,42.4c-3.1,1.7-6.7,2.5-10.5,2.5c-2,0-3.8-0.3-5.4-1c-1.6-0.6-3.1-1.5-4.2-2.7
		c-1.2-1.2-2.1-2.6-2.8-4.2c-0.7-1.6-1-3.4-1-5.4c0-2,0.3-3.9,1-5.6c0.7-1.7,1.6-3.1,2.8-4.3c1.2-1.2,2.6-2.1,4.2-2.7
		c1.6-0.6,3.5-1,5.4-1c1.9,0,3.8,0.2,5.5,0.7c1.7,0.5,3.2,1.3,4.6,2.5l-3.3,3.4c-0.8-0.8-1.8-1.4-3-1.8c-1.2-0.4-2.4-0.6-3.7-0.6
		c-1.3,0-2.5,0.2-3.6,0.7c-1.1,0.5-2,1.1-2.8,1.9c-0.8,0.8-1.4,1.8-1.8,2.9c-0.4,1.1-0.6,2.3-0.6,3.6c0,1.4,0.2,2.6,0.6,3.8
		c0.4,1.2,1,2.1,1.8,3c0.8,0.8,1.7,1.5,2.8,2c1.1,0.5,2.3,0.7,3.6,0.7c1.2,0,2.2-0.1,3.3-0.3c1-0.2,1.9-0.6,2.7-1v-6h-5.2v-4.1h9.8
		V42.4z"/>
	<path fill="#FFFFFF" d="M107,18.8h4.5v25.5H107V18.8z"/>
	<path fill="#FFFFFF" d="M127,18.8h3.9l11,25.5h-5.2l-2.4-5.8h-11.1l-2.3,5.8h-5.1L127,18.8z M132.8,34.6l-3.9-10.4l-4,10.4H132.8z"
		/>
	<path fill="#FFFFFF" d="M146.4,18.8h6l12.3,18.9h0.1V18.8h4.5v25.5h-5.8L151,24.7h-0.1v19.5h-4.5V18.8z"/>
	<path fill="#FFFFFF" d="M182.1,22.9h-7.8v-4.1h20.2v4.1h-7.8v21.4h-4.5V22.9z"/>
	<path fill="#FFFFFF" d="M211.6,24.3c-0.5-0.7-1.1-1.2-1.9-1.5c-0.8-0.3-1.7-0.5-2.5-0.5c-0.5,0-1,0.1-1.5,0.2
		c-0.5,0.1-0.9,0.3-1.3,0.6c-0.4,0.3-0.7,0.6-1,1c-0.2,0.4-0.4,0.9-0.4,1.5c0,0.9,0.3,1.5,0.9,2c0.6,0.5,1.3,0.9,2.2,1.2
		c0.9,0.3,1.9,0.7,2.9,1c1.1,0.3,2,0.7,2.9,1.3c0.9,0.6,1.6,1.3,2.2,2.2c0.6,0.9,0.9,2.1,0.9,3.6c0,1.4-0.3,2.6-0.8,3.6
		c-0.5,1-1.2,1.9-2,2.5c-0.9,0.7-1.8,1.2-3,1.5c-1.1,0.3-2.3,0.5-3.6,0.5c-1.6,0-3.1-0.3-4.6-0.8c-1.5-0.5-2.7-1.4-3.8-2.7l3.4-3.3
		c0.6,0.8,1.3,1.5,2.2,2c0.9,0.5,1.9,0.7,2.9,0.7c0.5,0,1.1-0.1,1.6-0.2c0.5-0.1,1-0.4,1.4-0.6c0.4-0.3,0.8-0.7,1-1.1
		c0.3-0.4,0.4-1,0.4-1.5c0-0.9-0.3-1.7-0.9-2.2c-0.6-0.5-1.3-0.9-2.2-1.3c-0.9-0.3-1.9-0.7-2.9-1c-1.1-0.3-2-0.7-2.9-1.3
		c-0.9-0.5-1.6-1.3-2.2-2.2c-0.6-0.9-0.9-2.1-0.9-3.6c0-1.3,0.3-2.5,0.8-3.4c0.5-1,1.2-1.8,2.1-2.4c0.9-0.6,1.9-1.1,3-1.4
		c1.1-0.3,2.3-0.5,3.5-0.5c1.3,0,2.6,0.2,3.9,0.6c1.3,0.4,2.4,1.1,3.4,2L211.6,24.3z"/>
	<path fill="#FFFFFF" d="M234.8,18.8h16.9v4.1h-12.3v6.3H251v4.1h-11.7v6.9h13v4.1h-17.5V18.8z"/>
	<path fill="#FFFFFF" d="M258.9,18.8h6l12.3,18.9h0.1V18.8h4.5v25.5h-5.8l-12.6-19.5h-0.1v19.5h-4.5V18.8z"/>
	<path fill="#FFFFFF" d="M295,22.9h-7.8v-4.1h20.2v4.1h-7.8v21.4H295V22.9z"/>
	<path fill="#FFFFFF" d="M312.6,18.8h16.9v4.1h-12.3v6.3h11.7v4.1h-11.7v6.9h13v4.1h-17.5V18.8z"/>
	<path fill="#FFFFFF" d="M336.7,18.8h8.9c1.2,0,2.4,0.1,3.5,0.3c1.1,0.2,2.2,0.6,3,1.2c0.9,0.6,1.6,1.3,2.1,2.2
		c0.5,0.9,0.8,2.1,0.8,3.6c0,1.8-0.5,3.4-1.5,4.6c-1,1.2-2.5,2-4.4,2.3l6.8,11.3h-5.5l-5.9-10.8h-3.3v10.8h-4.5V18.8z M344.8,29.6
		c0.6,0,1.3,0,1.9-0.1c0.6-0.1,1.2-0.2,1.8-0.4c0.5-0.2,1-0.6,1.3-1c0.3-0.5,0.5-1.1,0.5-2c0-0.7-0.2-1.3-0.5-1.8
		c-0.3-0.5-0.7-0.8-1.2-1c-0.5-0.2-1.1-0.4-1.7-0.5c-0.6-0.1-1.2-0.1-1.8-0.1h-3.9v6.9H344.8z"/>
	<path fill="#FFFFFF" d="M361.6,18.8h8.6c1.2,0,2.4,0.1,3.5,0.4c1.1,0.2,2.1,0.6,3,1.2c0.9,0.6,1.6,1.3,2.1,2.3
		c0.5,0.9,0.8,2.1,0.8,3.5c0,1.6-0.3,2.9-0.8,3.9c-0.6,1-1.3,1.7-2.2,2.3c-0.9,0.5-2,0.9-3.3,1.1c-1.2,0.2-2.5,0.3-3.9,0.3h-3.2
		v10.5h-4.5V18.8z M368.8,29.8c0.6,0,1.3,0,2-0.1c0.7,0,1.3-0.2,1.9-0.4c0.6-0.2,1.1-0.6,1.4-1.1c0.4-0.5,0.6-1.2,0.6-2
		c0-0.8-0.2-1.4-0.5-1.9c-0.3-0.5-0.8-0.8-1.3-1.1c-0.5-0.3-1.1-0.4-1.8-0.5c-0.6-0.1-1.3-0.1-1.9-0.1h-3.2v7.2H368.8z"/>
	<path fill="#FFFFFF" d="M384.6,18.8h8.9c1.2,0,2.4,0.1,3.5,0.3c1.1,0.2,2.2,0.6,3,1.2c0.9,0.6,1.6,1.3,2.1,2.2
		c0.5,0.9,0.8,2.1,0.8,3.6c0,1.8-0.5,3.4-1.5,4.6c-1,1.2-2.5,2-4.4,2.3l6.8,11.3h-5.5l-5.9-10.8h-3.3v10.8h-4.5V18.8z M392.7,29.6
		c0.6,0,1.3,0,1.9-0.1c0.6-0.1,1.2-0.2,1.8-0.4c0.5-0.2,1-0.6,1.3-1c0.3-0.5,0.5-1.1,0.5-2c0-0.7-0.2-1.3-0.5-1.8
		c-0.3-0.5-0.7-0.8-1.2-1c-0.5-0.2-1.1-0.4-1.7-0.5c-0.6-0.1-1.2-0.1-1.8-0.1h-3.9v6.9H392.7z"/>
	<path fill="#FFFFFF" d="M409.4,18.8h4.5v25.5h-4.5V18.8z"/>
	<path fill="#FFFFFF" d="M434.1,24.3c-0.5-0.7-1.1-1.2-1.9-1.5c-0.8-0.3-1.7-0.5-2.5-0.5c-0.5,0-1,0.1-1.5,0.2
		c-0.5,0.1-0.9,0.3-1.3,0.6c-0.4,0.3-0.7,0.6-1,1c-0.2,0.4-0.4,0.9-0.4,1.5c0,0.9,0.3,1.5,0.9,2c0.6,0.5,1.3,0.9,2.2,1.2
		c0.9,0.3,1.9,0.7,2.9,1c1.1,0.3,2,0.7,2.9,1.3c0.9,0.6,1.6,1.3,2.2,2.2c0.6,0.9,0.9,2.1,0.9,3.6c0,1.4-0.3,2.6-0.8,3.6
		c-0.5,1-1.2,1.9-2,2.5c-0.9,0.7-1.8,1.2-3,1.5c-1.1,0.3-2.3,0.5-3.6,0.5c-1.6,0-3.1-0.3-4.6-0.8c-1.5-0.5-2.7-1.4-3.8-2.7l3.4-3.3
		c0.6,0.8,1.3,1.5,2.2,2c0.9,0.5,1.9,0.7,2.9,0.7c0.5,0,1.1-0.1,1.6-0.2c0.5-0.1,1-0.4,1.4-0.6c0.4-0.3,0.8-0.7,1-1.1
		c0.3-0.4,0.4-1,0.4-1.5c0-0.9-0.3-1.7-0.9-2.2c-0.6-0.5-1.3-0.9-2.2-1.3c-0.9-0.3-1.9-0.7-2.9-1c-1.1-0.3-2-0.7-2.9-1.3
		c-0.9-0.5-1.6-1.3-2.2-2.2c-0.6-0.9-0.9-2.1-0.9-3.6c0-1.3,0.3-2.5,0.8-3.4c0.5-1,1.2-1.8,2.1-2.4c0.9-0.6,1.9-1.1,3-1.4
		c1.1-0.3,2.3-0.5,3.5-0.5c1.3,0,2.6,0.2,3.9,0.6c1.3,0.4,2.4,1.1,3.4,2L434.1,24.3z"/>
	<path fill="#FFFFFF" d="M443.7,18.8h16.9v4.1h-12.3v6.3H460v4.1h-11.7v6.9h13v4.1h-17.5V18.8z"/>
	<path fill="#FFFFFF" d="M480.4,24.3c-0.5-0.7-1.1-1.2-1.9-1.5c-0.8-0.3-1.7-0.5-2.5-0.5c-0.5,0-1,0.1-1.5,0.2
		c-0.5,0.1-0.9,0.3-1.3,0.6c-0.4,0.3-0.7,0.6-1,1c-0.2,0.4-0.4,0.9-0.4,1.5c0,0.9,0.3,1.5,0.9,2c0.6,0.5,1.3,0.9,2.2,1.2
		c0.9,0.3,1.9,0.7,2.9,1c1.1,0.3,2,0.7,2.9,1.3c0.9,0.6,1.6,1.3,2.2,2.2c0.6,0.9,0.9,2.1,0.9,3.6c0,1.4-0.3,2.6-0.8,3.6
		c-0.5,1-1.2,1.9-2,2.5c-0.9,0.7-1.8,1.2-3,1.5c-1.1,0.3-2.3,0.5-3.6,0.5c-1.6,0-3.1-0.3-4.6-0.8c-1.5-0.5-2.7-1.4-3.8-2.7l3.4-3.3
		c0.6,0.8,1.3,1.5,2.2,2c0.9,0.5,1.9,0.7,2.9,0.7c0.5,0,1.1-0.1,1.6-0.2c0.5-0.1,1-0.4,1.4-0.6c0.4-0.3,0.8-0.7,1-1.1
		c0.3-0.4,0.4-1,0.4-1.5c0-0.9-0.3-1.7-0.9-2.2c-0.6-0.5-1.3-0.9-2.2-1.3c-0.9-0.3-1.9-0.7-2.9-1c-1.1-0.3-2-0.7-2.9-1.3
		c-0.9-0.5-1.6-1.3-2.2-2.2c-0.6-0.9-0.9-2.1-0.9-3.6c0-1.3,0.3-2.5,0.8-3.4c0.5-1,1.2-1.8,2.1-2.4c0.9-0.6,1.9-1.1,3-1.4
		c1.1-0.3,2.3-0.5,3.5-0.5c1.3,0,2.6,0.2,3.9,0.6c1.3,0.4,2.4,1.1,3.4,2L480.4,24.3z"/>
</g>
</svg>
