<?xml version="1.0" encoding="utf-8"?>
<!-- Generator: Adobe Illustrator 17.1.0, SVG Export Plug-In . SVG Version: 6.00 Build 0)  -->
<!DOCTYPE svg PUBLIC "-//W3C//DTD SVG 1.1//EN" "http://www.w3.org/Graphics/SVG/1.1/DTD/svg11.dtd">
<svg version="1.1" id="Layer_1" xmlns="http://www.w3.org/2000/svg" xmlns:xlink="http://www.w3.org/1999/xlink" x="0px" y="0px"
	 viewBox="0 0 289.1 102" enable-background="new 0 0 289.1 102" xml:space="preserve">
<g>
	<path fill="#F15A2A" d="M34.1,58.8c1-0.4,1.3-0.6,1.6-0.7c0.3-0.1,0.5-0.2,1.5-0.7l2.5-1.1c0.5-0.2,1.6-0.7,1.7-0.7
		c0,0,0.1,0,0.1,0.1c0.1,0.1,0.4,0.3,0.8,0.1c0.7-0.3,0.2-1.5,0.1-1.8c-0.1-0.2-0.6-1.5-1.3-1.2c-0.4,0.2-0.5,0.5-0.5,0.7
		c0,0,0,0.1,0,0.1l0,0c-0.1,0.1-1.2,0.6-1.7,0.8l-2.6,1.1c-1,0.4-1.2,0.5-1.5,0.6c-0.3,0.1-0.6,0.2-1.6,0.6c-3.5,1.4-8.2,2.6-9.6,3
		c-5.5,1.4-10.2,3.2-13.1,4.4C9,64.7,8,65.2,8,65.2c-1,0.4-0.7,2.5-0.4,3.3c0.3,0.8,1.6,2.5,2.6,2.1v0c0,0,1-0.3,2.6-1
		c2.9-1.2,7.4-3.2,12.3-6.2C26,62.9,30.5,60.3,34.1,58.8z"/>
	<path fill="#F15A2A" d="M94.4,29.4L94.4,29.4c0,0-1,0.3-2.6,1c-2.9,1.2-7.4,3.2-12.3,6.2c-0.9,0.5-5.4,3.1-8.9,4.7
		c-1,0.4-1.3,0.6-1.6,0.7c-0.3,0.1-0.5,0.2-1.5,0.7L65,43.7c-0.5,0.2-1.6,0.6-1.7,0.6c0,0-0.1,0-0.1-0.1c-0.1-0.1-0.4-0.3-0.8-0.1
		c-0.7,0.3-0.2,1.5-0.1,1.8c0.1,0.2,0.6,1.5,1.3,1.2c0.4-0.2,0.5-0.5,0.5-0.7c0,0,0-0.1,0-0.1c0.1-0.1,1.1-0.6,1.7-0.8l2.5-1
		c1-0.4,1.2-0.5,1.5-0.6c0.3-0.1,0.6-0.2,1.6-0.6c3.5-1.4,8.2-2.6,9.6-3c5.5-1.4,10.2-3.2,13.1-4.4l0,0c1.6-0.7,2.5-1.1,2.5-1.1
		c0.4-0.2,0.7-0.7,0.7-1.6c0-0.7-0.2-1.4-0.3-1.8C96.7,30.7,95.4,29,94.4,29.4z"/>
	<path fill="#F15A2A" d="M33.9,5.3c-0.8,0.3-2.5,1.6-2.1,2.6c0,0.1,2.5,7,7.2,14.9c0.5,0.9,3.1,5.3,4.7,8.9c0.4,1,0.6,1.3,0.7,1.6
		c0.1,0.3,0.2,0.5,0.7,1.5l0.7,1.6c0.6,1.5,1.1,2.5,1.1,2.7c0,0,0,0.1-0.1,0.1c-0.1,0.1-0.3,0.4-0.1,0.8c0.3,0.7,1.5,0.2,1.8,0.1h0
		c0.2-0.1,1.4-0.6,1.2-1.3c-0.2-0.4-0.5-0.5-0.7-0.5c0,0-0.1,0-0.1,0c-0.1-0.1-0.6-1.2-1.2-2.7l-0.6-1.5c-0.4-1-0.5-1.2-0.6-1.5
		c-0.1-0.3-0.2-0.6-0.6-1.6c-1.4-3.6-2.7-8.6-3-9.6c-2.3-8.9-5.4-15.5-5.5-15.6C36.8,4.7,34.7,5,33.9,5.3z"/>
	<path fill="#F15A2A" d="M61.1,68.3c-0.4-1-0.6-1.3-0.7-1.6c-0.1-0.3-0.2-0.5-0.7-1.5l-0.6-1.5c-0.6-1.5-1.1-2.6-1.1-2.7
		c0,0,0-0.1,0.1-0.1c0.1-0.1,0.3-0.4,0.1-0.8c-0.3-0.7-1.5-0.2-1.8-0.1l0,0c-0.2,0.1-1.4,0.6-1.2,1.3c0.2,0.4,0.5,0.5,0.7,0.5
		c0,0,0.1,0,0.1,0c0.1,0.1,0.6,1.2,1.2,2.7l0.6,1.6c0.4,1,0.5,1.2,0.6,1.5c0.1,0.3,0.2,0.6,0.6,1.6c1.4,3.5,2.6,8.2,3,9.6
		c2.3,8.9,5.4,15.5,5.5,15.6c0.4,1,2.5,0.7,3.3,0.4l0,0c0.8-0.3,2.5-1.6,2.1-2.6c0-0.1-2.5-7-7.2-14.9
		C65.3,76.3,62.7,71.8,61.1,68.3z"/>
	<path fill="#F15A2A" d="M23.6,40.3c1,0.2,6,1.6,9.6,3c1,0.4,1.4,0.5,1.6,0.6c0.3,0.1,0.5,0.2,1.5,0.6l1.5,0.6
		c1.5,0.6,2.6,1.1,2.7,1.2c0,0,0,0.1,0,0.1c0,0.2,0.1,0.5,0.5,0.7c0.1,0.1,0.3,0.1,0.4,0c0.5-0.2,0.8-1,0.9-1.2l0,0
		c0.1-0.3,0.4-1,0.2-1.4c-0.1-0.1-0.2-0.3-0.3-0.3c-0.2-0.1-0.4-0.1-0.6,0c-0.1,0-0.2,0.1-0.2,0.1c0,0-0.1,0-0.1,0
		c-0.2,0-1.3-0.5-2.8-1.1l-1.5-0.6c-1-0.4-1.2-0.5-1.5-0.7c-0.3-0.1-0.6-0.3-1.6-0.7c-3.4-1.5-7.7-4-8.9-4.7
		c-7.9-4.7-14.8-7.1-14.9-7.2c-0.2-0.1-0.5-0.1-0.8,0c-0.8,0.3-1.6,1.4-1.8,2l0,0c0,0,0,0,0,0v0c0,0,0,0,0,0l0,0
		c-0.3,0.9-0.6,2.9,0.4,3.3C8.1,34.9,14.7,38,23.6,40.3z"/>
	<path fill="#F15A2A" d="M81.1,59.7c-1-0.2-6-1.6-9.6-3c-1-0.4-1.4-0.5-1.6-0.6c-0.3-0.1-0.5-0.2-1.5-0.6l-1.5-0.6
		c-1.5-0.6-2.6-1.1-2.7-1.2c0,0,0-0.1,0-0.1c0-0.2-0.1-0.5-0.5-0.7c-0.1-0.1-0.3-0.1-0.4,0c-0.5,0.2-0.8,1-0.9,1.2
		c-0.1,0.2-0.6,1.5,0.1,1.8c0.2,0.1,0.4,0.1,0.6,0c0.1,0,0.2-0.1,0.2-0.1c0,0,0.1,0,0.1,0c0.2,0,1.3,0.4,2.7,1.1l1.5,0.6
		c1,0.4,1.2,0.5,1.5,0.7c0.3,0.1,0.6,0.3,1.6,0.7c3.4,1.5,7.7,4,8.9,4.7c7.9,4.7,14.8,7.1,14.9,7.2c0.2,0.1,0.5,0.1,0.8,0
		c0.8-0.3,1.6-1.4,1.9-2.1l0-0.1v0c0.3-0.9,0.5-2.9-0.4-3.2C96.6,65.1,90,62,81.1,59.7z"/>
	<path fill="#F15A2A" d="M58.5,32.5c-0.1,0.3-0.2,0.5-0.6,1.5l-0.6,1.5c-0.6,1.5-1,2.6-1.2,2.7c0,0-0.1,0-0.1,0
		c-0.1,0-0.2,0-0.3,0.1c-0.2,0.1-0.3,0.2-0.4,0.4c-0.3,0.6,0.8,1.2,1.1,1.3l0,0c0.2,0.1,1,0.4,1.5,0.2l0,0c0.1-0.1,0.2-0.2,0.3-0.3
		c0.2-0.4,0-0.7-0.1-0.8c0,0-0.1-0.1-0.1-0.1c0-0.2,0.4-1.3,1.1-2.8l0.6-1.5c0.4-1,0.5-1.2,0.7-1.5c0.1-0.3,0.3-0.6,0.7-1.6
		c1.5-3.4,4-7.7,4.7-8.9C70.5,14.9,73,8,73,7.9c0.4-1-1.3-2.3-2.1-2.6l0,0c-0.7-0.3-2-0.5-2.7-0.1c-0.3,0.1-0.5,0.3-0.5,0.5
		c0,0.1-3.2,6.7-5.5,15.6c-0.2,1-1.6,6-3,9.6C58.7,31.9,58.6,32.2,58.5,32.5z"/>
	<path fill="#F15A2A" d="M46.2,67.5c0.1-0.3,0.2-0.5,0.6-1.5l0.6-1.5c0.6-1.5,1.1-2.6,1.2-2.7c0,0,0.1,0,0.1,0c0.1,0,0.2,0,0.3-0.1
		c0.2-0.1,0.3-0.2,0.4-0.4c0.3-0.7-0.8-1.2-1.1-1.3l-0.1-0.1l-0.1,0c-0.3-0.1-0.9-0.3-1.4-0.2c-0.1,0.1-0.3,0.2-0.3,0.3
		c-0.2,0.4,0,0.7,0.1,0.8c0,0,0,0.1,0,0.1c0,0.2-0.4,1.3-1.1,2.7L45,65.2c-0.4,1-0.5,1.2-0.7,1.5c-0.1,0.3-0.3,0.6-0.7,1.6
		c-1.6,3.6-4.2,8-4.7,8.9c-4.7,7.9-7.1,14.8-7.2,14.9c-0.4,1,1.3,2.3,2.1,2.6l0,0c0.6,0.2,2,0.5,2.7,0.1l0,0
		c0.3-0.1,0.5-0.3,0.6-0.5c0-0.1,3.2-6.7,5.5-15.6c0.2-1,1.6-6,3-9.6C46,68.1,46.1,67.8,46.2,67.5z"/>
	<path fill="#F15A2A" d="M37.1,66.4c0.5-0.5,0.6-0.7,0.8-0.8c0.1-0.2,0.2-0.3,0.7-0.8l0.7-0.7c0.7-0.7,1.2-1.2,1.4-1.3c0,0,0,0,0,0
		c0.1,0,0.4,0.1,0.6-0.1c0.1-0.1,0.1-0.2,0.1-0.3c0-0.4-0.4-0.8-0.5-0.9l-0.1-0.1l0,0c-0.2-0.2-0.6-0.5-0.9-0.4
		c-0.1,0-0.1,0.1-0.1,0.1c-0.2,0.2-0.2,0.5-0.1,0.6c-0.1,0.1-0.6,0.7-1.3,1.4l-0.8,0.8c-0.5,0.5-0.6,0.6-0.8,0.7
		c-0.1,0.1-0.3,0.3-0.8,0.8c-1.7,1.7-4.3,3.6-5,4.1c-4.8,3.6-7.9,7.1-8,7.1c-0.1,0.1-0.2,0.3-0.2,0.5c0,0.5,0.3,1.1,0.6,1.5l0,0
		l0.2,0.2c0.3,0.3,1.4,1,2,0.7c0.1,0,0.1-0.1,0.2-0.1c0,0,3.5-3.2,7.1-8C33.5,70.6,35.5,68.1,37.1,66.4z"/>
	<path fill="#F15A2A" d="M67.6,33.6c-0.5,0.5-0.6,0.7-0.8,0.8c-0.1,0.2-0.2,0.3-0.7,0.8L65.3,36c-0.7,0.7-1.2,1.2-1.3,1.3
		c-0.1,0-0.4-0.1-0.6,0.1c-0.1,0.1-0.2,0.3,0,0.7c0.1,0.2,0.3,0.4,0.4,0.5c0.2,0.2,0.7,0.6,1.1,0.5l0,0c0.1,0,0.1-0.1,0.1-0.1
		c0.2-0.2,0.2-0.5,0.1-0.6c0.1-0.1,0.6-0.7,1.3-1.4l0.8-0.8c0.5-0.5,0.6-0.6,0.8-0.7c0.1-0.1,0.3-0.3,0.8-0.8c1.7-1.7,4.3-3.6,5-4.1
		c4.8-3.6,7.9-7.1,8-7.1c0.5-0.5-0.2-1.8-0.6-2.2L81,21.2h0c-0.4-0.3-1.3-0.9-1.9-0.7c-0.1,0-0.1,0.1-0.2,0.1c0,0-3.6,3.2-7.1,8
		C71.4,29.2,69.3,31.8,67.6,33.6z"/>
	<path fill="#F15A2A" d="M52.6,66.1L52.6,66.1l-0.2,0c-0.1,0-0.5,0-0.7,0.1c-0.3,0.1-0.4,0.3-0.4,0.5c0,0.3,0.2,0.5,0.3,0.5
		c0,0.1,0,0.9,0,1.9l0,1.1c0,0.7,0,0.9,0,1.1c0,0.2,0,0.4,0,1.1c0,2.4-0.5,5.6-0.6,6.5c-0.8,5.9-0.6,10.6-0.6,10.7
		c0,0.2,0.1,0.4,0.2,0.5c0.3,0.3,1,0.5,1.5,0.6l0,0l0.3,0c0.3,0,0.7-0.1,1.2-0.3c0.7-0.3,0.8-0.6,0.8-0.8c0,0,0.2-4.8-0.6-10.7
		c-0.1-0.9-0.6-4-0.6-6.5c0-0.7,0-0.9,0-1.1c0-0.2,0-0.4,0-1.1l0-1c0-1,0-1.8,0-1.9c0.1-0.1,0.3-0.2,0.3-0.5c0-0.1,0-0.2-0.1-0.3
		C53.1,66.2,52.8,66.1,52.6,66.1z"/>
	<path fill="#F15A2A" d="M52.4,33.9c0.1,0,0.5,0,0.7-0.1l0,0c0.3-0.1,0.4-0.3,0.4-0.5c0-0.3-0.2-0.5-0.3-0.5c0-0.1,0-0.9,0-1.9
		l0-1.1c0-0.7,0-0.9,0-1.1c0-0.2,0-0.4,0-1.1c0-2.4,0.5-5.6,0.6-6.5c0.8-5.9,0.6-10.6,0.6-10.7c0-0.2-0.1-0.6-0.8-0.9
		c-0.4-0.1-0.8-0.3-1.2-0.3l-0.1,0l0,0c-0.3,0-0.7,0.1-1.1,0.3c-0.7,0.3-0.8,0.6-0.8,0.8c0,0-0.2,4.8,0.6,10.7
		c0.1,0.6,0.5,4,0.6,6.5c0,0.7,0,0.9,0,1.1c0,0.2,0,0.4,0,1.1l0,1.1c0,1,0,1.7,0,1.9c-0.1,0.1-0.3,0.2-0.3,0.5c0,0.1,0,0.2,0.1,0.3
		C51.6,33.9,52.2,33.9,52.4,33.9z"/>
	<path fill="#F15A2A" d="M73.7,69.4c-0.7-0.6-3.3-2.5-5-4.1c-0.5-0.5-0.7-0.6-0.8-0.8c-0.2-0.1-0.3-0.2-0.8-0.7L66.4,63
		c-0.7-0.7-1.3-1.3-1.3-1.4c0-0.1,0.1-0.4-0.1-0.6c-0.1-0.1-0.3-0.2-0.6-0.1c-0.3,0.1-0.5,0.4-0.6,0.4l-0.1,0.1l0,0
		c-0.2,0.2-0.4,0.5-0.4,0.8c0,0.1,0,0.2,0.1,0.3c0.2,0.2,0.5,0.2,0.6,0.1c0.1,0.1,0.7,0.6,1.4,1.3l0.7,0.7c0.5,0.5,0.6,0.6,0.7,0.8
		c0.1,0.1,0.3,0.3,0.8,0.8c1.7,1.8,3.8,4.5,4.1,5c3.6,4.8,7.1,7.9,7.1,8c0.2,0.2,0.5,0.3,1.2,0c0.3-0.1,0.6-0.3,0.9-0.5l0,0l0.1-0.1
		c0.4-0.4,1.2-1.6,0.6-2.2C81.7,76.5,78.5,73,73.7,69.4z"/>
	<path fill="#F15A2A" d="M40.8,37.3c-0.1-0.1-0.7-0.6-1.4-1.3l-0.8-0.8c-0.5-0.5-0.6-0.6-0.7-0.8c-0.1-0.1-0.3-0.3-0.8-0.8
		c-1.7-1.7-3.6-4.3-4.1-5c-3.6-4.8-7.1-7.9-7.1-8c-0.2-0.2-0.5-0.3-1.2,0c-0.4,0.2-0.8,0.4-1,0.6c-0.3,0.3-0.8,1.1-0.8,1.7
		c0,0.2,0.1,0.4,0.2,0.5c0,0,3.2,3.5,8,7.1c0.5,0.4,3.2,2.4,5,4.1c0.5,0.5,0.7,0.6,0.8,0.8c0.2,0.1,0.3,0.2,0.8,0.7l0.8,0.8
		c0.7,0.7,1.2,1.2,1.3,1.3c0,0.1-0.1,0.4,0.1,0.6c0.1,0.1,0.3,0.2,0.6,0.1c0.3-0.1,0.5-0.4,0.6-0.4l0.1-0.1v0
		c0.2-0.2,0.4-0.5,0.4-0.8c0-0.1,0-0.2-0.1-0.3C41.1,37.2,40.9,37.3,40.8,37.3z"/>
	<path fill="#F15A2A" d="M91.8,48c0,0-4.8-0.2-10.7,0.6c-0.9,0.1-4,0.6-6.5,0.6c-0.7,0-0.9,0-1.1,0c-0.2,0-0.4,0-1.1,0l-1.1,0
		c-1,0-1.8,0-1.9,0c-0.1-0.1-0.2-0.3-0.5-0.3c-0.1,0-0.1,0-0.2,0c-0.3,0.1-0.4,0.6-0.4,0.9l0,0.2c0,0.1,0,0.4,0.1,0.6
		c0.1,0.4,0.4,0.5,0.5,0.5c0.3,0,0.5-0.2,0.5-0.3c0.1,0,0.9,0,1.9,0l1.1,0c0.7,0,0.9,0,1.1,0c0.2,0,0.4,0,1.1,0
		c2.4,0,5.6,0.5,6.5,0.6c5.9,0.8,10.6,0.6,10.7,0.6c0.1,0,0.2,0,0.2,0c0.5-0.2,0.8-1.1,0.9-1.7l0,0V50c0-0.3-0.1-0.8-0.2-1.2
		C92.4,48.2,92.1,48,91.8,48z"/>
	<path fill="#F15A2A" d="M12.4,51.8c0.2,0.2,0.3,0.2,0.5,0.2c0,0,4.8,0.2,10.7-0.6c0.6-0.1,4-0.6,6.5-0.6c0.7,0,0.9,0,1.1,0
		c0.2,0,0.4,0,1.1,0l1.1,0c1,0,1.8,0,1.9,0c0.1,0.1,0.2,0.3,0.5,0.3c0.1,0,0.1,0,0.2,0c0.4-0.2,0.4-0.9,0.4-1.1c0-0.2,0-0.7-0.3-1
		c-0.1-0.1-0.2-0.1-0.3-0.1c-0.3,0-0.5,0.2-0.5,0.3c-0.1,0-0.9,0-1.9,0l-1.1,0c-0.7,0-0.9,0-1.1,0c-0.2,0-0.4,0-1.1,0
		c-2.5,0-5.8-0.5-6.5-0.6C17.6,47.8,12.9,48,12.9,48c-0.1,0-0.2,0-0.2,0c-0.6,0.3-0.9,1.5-0.9,1.9l0,0.3l0,0
		C11.8,50.7,12,51.4,12.4,51.8z"/>
</g>
<g>
	<path fill="#FFFFFF" d="M142.4,48.7c-3.2,1.7-6.7,2.5-10.7,2.5c-2,0-3.8-0.3-5.5-1c-1.7-0.6-3.1-1.6-4.3-2.7
		c-1.2-1.2-2.1-2.6-2.8-4.2c-0.7-1.7-1-3.5-1-5.5c0-2.1,0.3-3.9,1-5.6c0.7-1.7,1.6-3.1,2.8-4.3c1.2-1.2,2.6-2.1,4.3-2.7
		c1.7-0.6,3.5-1,5.5-1c2,0,3.8,0.2,5.5,0.7c1.7,0.5,3.3,1.3,4.6,2.5l-3.4,3.4c-0.8-0.8-1.8-1.4-3-1.9c-1.2-0.4-2.4-0.7-3.7-0.7
		c-1.3,0-2.5,0.2-3.6,0.7c-1.1,0.5-2,1.1-2.8,2c-0.8,0.8-1.4,1.8-1.8,2.9c-0.4,1.1-0.6,2.3-0.6,3.6c0,1.4,0.2,2.7,0.6,3.8
		c0.4,1.2,1,2.2,1.8,3c0.8,0.9,1.7,1.5,2.8,2c1.1,0.5,2.3,0.7,3.6,0.7c1.2,0,2.3-0.1,3.3-0.3c1-0.2,1.9-0.6,2.7-1v-6.1h-5.3v-4.2
		h9.9V48.7z"/>
	<path fill="#FFFFFF" d="M149.3,24.8h4.6v25.8h-4.6V24.8z"/>
	<path fill="#FFFFFF" d="M169.5,24.8h4l11.1,25.8h-5.2l-2.4-5.9h-11.2l-2.3,5.9h-5.1L169.5,24.8z M175.4,40.8l-4-10.5l-4,10.5H175.4
		z"/>
	<path fill="#FFFFFF" d="M189.1,24.8h6.1L207.7,44h0.1V24.8h4.6v25.8h-5.8l-12.7-19.8h-0.1v19.8h-4.6V24.8z"/>
	<path fill="#FFFFFF" d="M225.2,29h-7.9v-4.2h20.4V29h-7.9v21.6h-4.6V29z"/>
	<path fill="#FFFFFF" d="M255.1,30.3c-0.5-0.7-1.1-1.2-1.9-1.5c-0.8-0.3-1.7-0.5-2.6-0.5c-0.5,0-1,0.1-1.5,0.2
		c-0.5,0.1-0.9,0.3-1.3,0.6c-0.4,0.3-0.7,0.6-1,1c-0.2,0.4-0.4,0.9-0.4,1.5c0,0.9,0.3,1.5,0.9,2c0.6,0.5,1.4,0.9,2.3,1.2
		c0.9,0.3,1.9,0.7,2.9,1c1.1,0.3,2.1,0.8,2.9,1.3c0.9,0.6,1.7,1.3,2.3,2.2c0.6,0.9,0.9,2.1,0.9,3.7c0,1.4-0.3,2.6-0.8,3.6
		c-0.5,1-1.2,1.9-2.1,2.6c-0.9,0.7-1.9,1.2-3,1.5c-1.1,0.3-2.3,0.5-3.6,0.5c-1.6,0-3.1-0.3-4.6-0.8c-1.5-0.5-2.8-1.4-3.8-2.7
		l3.5-3.3c0.6,0.8,1.3,1.5,2.2,2c0.9,0.5,1.9,0.7,2.9,0.7c0.5,0,1.1-0.1,1.6-0.2c0.5-0.1,1-0.4,1.5-0.7c0.4-0.3,0.8-0.7,1.1-1.1
		c0.3-0.4,0.4-1,0.4-1.5c0-0.9-0.3-1.7-0.9-2.2c-0.6-0.5-1.4-0.9-2.3-1.3c-0.9-0.4-1.9-0.7-2.9-1c-1.1-0.3-2.1-0.7-2.9-1.3
		c-0.9-0.5-1.7-1.3-2.3-2.2c-0.6-0.9-0.9-2.1-0.9-3.7c0-1.3,0.3-2.5,0.8-3.5c0.5-1,1.3-1.8,2.1-2.4c0.9-0.6,1.9-1.1,3-1.4
		c1.1-0.3,2.3-0.5,3.5-0.5c1.4,0,2.7,0.2,4,0.6c1.3,0.4,2.4,1.1,3.4,2L255.1,30.3z"/>
	<path fill="#FFFFFF" d="M118.3,61.8h10v2.4H121v3.7h6.9v2.4H121v4.1h7.7v2.4h-10.3V61.8z"/>
	<path fill="#FFFFFF" d="M134.1,61.8h3.5L145,73h0V61.8h2.7v15h-3.4l-7.4-11.5h0v11.5h-2.7V61.8z"/>
	<path fill="#FFFFFF" d="M157,64.2h-4.6v-2.4h11.9v2.4h-4.6v12.6H157V64.2z"/>
	<path fill="#FFFFFF" d="M169,61.8h10v2.4h-7.3v3.7h6.9v2.4h-6.9v4.1h7.7v2.4H169V61.8z"/>
	<path fill="#FFFFFF" d="M185,61.8h5.2c0.7,0,1.4,0.1,2.1,0.2c0.7,0.1,1.3,0.4,1.8,0.7c0.5,0.3,0.9,0.8,1.3,1.3
		c0.3,0.6,0.5,1.3,0.5,2.1c0,1.1-0.3,2-0.9,2.7c-0.6,0.7-1.5,1.2-2.6,1.3l4,6.7h-3.2l-3.5-6.4h-2v6.4H185V61.8z M189.7,68.2
		c0.4,0,0.8,0,1.1-0.1c0.4,0,0.7-0.1,1.1-0.3c0.3-0.1,0.6-0.3,0.8-0.6c0.2-0.3,0.3-0.7,0.3-1.2c0-0.4-0.1-0.8-0.3-1.1
		c-0.2-0.3-0.4-0.5-0.7-0.6c-0.3-0.1-0.6-0.2-1-0.3c-0.4,0-0.7-0.1-1.1-0.1h-2.3v4.1H189.7z"/>
	<path fill="#FFFFFF" d="M201.8,61.8h5.1c0.7,0,1.4,0.1,2.1,0.2c0.7,0.1,1.3,0.4,1.8,0.7c0.5,0.3,0.9,0.8,1.2,1.3
		c0.3,0.6,0.5,1.3,0.5,2.1c0,0.9-0.2,1.7-0.5,2.3c-0.3,0.6-0.8,1-1.3,1.3c-0.6,0.3-1.2,0.5-1.9,0.6c-0.7,0.1-1.5,0.2-2.3,0.2h-1.9
		v6.2h-2.7V61.8z M206.1,68.3c0.4,0,0.8,0,1.2,0c0.4,0,0.8-0.1,1.1-0.3c0.3-0.1,0.6-0.4,0.8-0.6c0.2-0.3,0.3-0.7,0.3-1.2
		c0-0.5-0.1-0.8-0.3-1.1c-0.2-0.3-0.5-0.5-0.8-0.6c-0.3-0.1-0.7-0.2-1-0.3c-0.4,0-0.8-0.1-1.1-0.1h-1.9v4.2H206.1z"/>
	<path fill="#FFFFFF" d="M217,61.8h5.2c0.7,0,1.4,0.1,2.1,0.2c0.7,0.1,1.3,0.4,1.8,0.7c0.5,0.3,0.9,0.8,1.3,1.3
		c0.3,0.6,0.5,1.3,0.5,2.1c0,1.1-0.3,2-0.9,2.7c-0.6,0.7-1.5,1.2-2.6,1.3l4,6.7h-3.2l-3.5-6.4h-2v6.4H217V61.8z M221.7,68.2
		c0.4,0,0.8,0,1.1-0.1c0.4,0,0.7-0.1,1.1-0.3c0.3-0.1,0.6-0.3,0.8-0.6c0.2-0.3,0.3-0.7,0.3-1.2c0-0.4-0.1-0.8-0.3-1.1
		c-0.2-0.3-0.4-0.5-0.7-0.6c-0.3-0.1-0.6-0.2-1-0.3c-0.4,0-0.7-0.1-1.1-0.1h-2.3v4.1H221.7z"/>
	<path fill="#FFFFFF" d="M233.7,61.8h2.7v15h-2.7V61.8z"/>
	<path fill="#FFFFFF" d="M250.4,65c-0.3-0.4-0.7-0.7-1.1-0.9c-0.5-0.2-1-0.3-1.5-0.3c-0.3,0-0.6,0-0.9,0.1c-0.3,0.1-0.6,0.2-0.8,0.3
		c-0.2,0.2-0.4,0.4-0.6,0.6c-0.1,0.2-0.2,0.5-0.2,0.9c0,0.5,0.2,0.9,0.5,1.2c0.4,0.3,0.8,0.5,1.3,0.7c0.5,0.2,1.1,0.4,1.7,0.6
		c0.6,0.2,1.2,0.4,1.7,0.8c0.5,0.3,1,0.8,1.3,1.3c0.4,0.5,0.5,1.3,0.5,2.1c0,0.8-0.1,1.5-0.4,2.1c-0.3,0.6-0.7,1.1-1.2,1.5
		c-0.5,0.4-1.1,0.7-1.8,0.9c-0.7,0.2-1.4,0.3-2.1,0.3c-0.9,0-1.8-0.2-2.7-0.5c-0.9-0.3-1.6-0.8-2.2-1.6l2-2c0.3,0.5,0.8,0.9,1.3,1.2
		c0.5,0.3,1.1,0.4,1.7,0.4c0.3,0,0.6,0,0.9-0.1c0.3-0.1,0.6-0.2,0.8-0.4c0.3-0.2,0.5-0.4,0.6-0.6c0.2-0.3,0.2-0.6,0.2-0.9
		c0-0.6-0.2-1-0.5-1.3c-0.4-0.3-0.8-0.5-1.3-0.8c-0.5-0.2-1.1-0.4-1.7-0.6c-0.6-0.2-1.2-0.4-1.7-0.8c-0.5-0.3-1-0.7-1.3-1.3
		c-0.4-0.5-0.5-1.2-0.5-2.1c0-0.8,0.2-1.5,0.5-2c0.3-0.6,0.7-1,1.3-1.4c0.5-0.4,1.1-0.7,1.8-0.8c0.7-0.2,1.3-0.3,2-0.3
		c0.8,0,1.6,0.1,2.3,0.4c0.7,0.2,1.4,0.6,2,1.2L250.4,65z"/>
	<path fill="#FFFFFF" d="M258,61.8h10v2.4h-7.3v3.7h6.9v2.4h-6.9v4.1h7.7v2.4H258V61.8z"/>
	<path fill="#FFFFFF" d="M281.1,65c-0.3-0.4-0.7-0.7-1.1-0.9c-0.5-0.2-1-0.3-1.5-0.3c-0.3,0-0.6,0-0.9,0.1c-0.3,0.1-0.6,0.2-0.8,0.3
		c-0.2,0.2-0.4,0.4-0.6,0.6c-0.1,0.2-0.2,0.5-0.2,0.9c0,0.5,0.2,0.9,0.5,1.2c0.4,0.3,0.8,0.5,1.3,0.7c0.5,0.2,1.1,0.4,1.7,0.6
		c0.6,0.2,1.2,0.4,1.7,0.8c0.5,0.3,1,0.8,1.3,1.3c0.4,0.5,0.5,1.3,0.5,2.1c0,0.8-0.1,1.5-0.4,2.1c-0.3,0.6-0.7,1.1-1.2,1.5
		c-0.5,0.4-1.1,0.7-1.8,0.9c-0.7,0.2-1.4,0.3-2.1,0.3c-0.9,0-1.8-0.2-2.7-0.5c-0.9-0.3-1.6-0.8-2.2-1.6l2-2c0.3,0.5,0.8,0.9,1.3,1.2
		c0.5,0.3,1.1,0.4,1.7,0.4c0.3,0,0.6,0,0.9-0.1c0.3-0.1,0.6-0.2,0.8-0.4c0.3-0.2,0.5-0.4,0.6-0.6c0.2-0.3,0.2-0.6,0.2-0.9
		c0-0.6-0.2-1-0.5-1.3c-0.4-0.3-0.8-0.5-1.3-0.8c-0.5-0.2-1.1-0.4-1.7-0.6c-0.6-0.2-1.2-0.4-1.7-0.8c-0.5-0.3-1-0.7-1.3-1.3
		c-0.4-0.5-0.5-1.2-0.5-2.1c0-0.8,0.2-1.5,0.5-2c0.3-0.6,0.7-1,1.3-1.4c0.5-0.4,1.1-0.7,1.8-0.8c0.7-0.2,1.3-0.3,2-0.3
		c0.8,0,1.6,0.1,2.3,0.4c0.7,0.2,1.4,0.6,2,1.2L281.1,65z"/>
</g>
</svg>
