<?xml version="1.0" encoding="utf-8"?>
<!-- Generator: Adobe Illustrator 18.1.1, SVG Export Plug-In . SVG Version: 6.00 Build 0)  -->
<svg version="1.1" id="Layer_1" xmlns="http://www.w3.org/2000/svg" xmlns:xlink="http://www.w3.org/1999/xlink" x="0px" y="0px"
	 viewBox="0 0 64 64" enable-background="new 0 0 64 64" xml:space="preserve">
<g>
	<path fill="#FFFFFF" d="M53,21H10c-0.6,0-1-0.4-1-1s0.4-1,1-1h43c0.6,0,1,0.4,1,1S53.6,21,53,21z"/>
	<path fill="#FFFFFF" d="M53,33H10c-0.6,0-1-0.4-1-1s0.4-1,1-1h43c0.6,0,1,0.4,1,1S53.6,33,53,33z"/>
	<path fill="#FFFFFF" d="M53,45H10c-0.6,0-1-0.4-1-1s0.4-1,1-1h43c0.6,0,1,0.4,1,1S53.6,45,53,45z"/>
</g>
</svg>
